/* XPM */
static char *tree121669812139[] = {
/* columns rows colors chars-per-pixel */
"50 49 135 2 ",
"   c None",
".  c #37222C",
"X  c #39252E",
"o  c #3A292F",
"O  c #392730",
"+  c #3C2C33",
"@  c #3E3136",
"#  c #3E3339",
"$  c #432730",
"%  c #442931",
"&  c #4C2D34",
"*  c #522D35",
"=  c #423332",
"-  c #4B3135",
";  c #473D34",
":  c #483E35",
">  c #40373B",
",  c #423B3D",
"<  c #573037",
"1  c #593137",
"2  c #5C3238",
"3  c #563A38",
"4  c #62313A",
"5  c #6C393E",
"6  c #713E3F",
"7  c #4A4035",
"8  c #454B36",
"9  c #4E4E37",
"0  c #44433D",
"q  c #4B443C",
"w  c #464C3D",
"e  c #4F4A3A",
"r  c #57413E",
"t  c #5B463F",
"y  c #524E3A",
"u  c #4D5C3F",
"i  c #54513B",
"p  c #58573C",
"a  c #555E3E",
"s  c #58583C",
"d  c #75403F",
"f  c #4F623E",
"g  c #506C3D",
"h  c #53743E",
"j  c #433E41",
"k  c #6F3E40",
"l  c #753F41",
"z  c #783E40",
"x  c #454342",
"c  c #474C42",
"v  c #484D45",
"b  c #494C48",
"n  c #534E41",
"m  c #5C4841",
"M  c #4A5444",
"N  c #4C5C45",
"B  c #4A5449",
"V  c #4C5C49",
"C  c #535543",
"Z  c #535946",
"A  c #505F48",
"S  c #644E44",
"D  c #7D4141",
"F  c #714843",
"G  c #6C5E47",
"H  c #4E6444",
"J  c #4E624A",
"K  c #4F684B",
"L  c #506445",
"P  c #5D6342",
"I  c #516C44",
"U  c #506648",
"Y  c #5A654A",
"T  c #516C4B",
"R  c #547444",
"E  c #557B43",
"W  c #5A7C47",
"Q  c #537749",
"!  c #577B49",
"~  c #626741",
"^  c #646A42",
"/  c #677044",
"(  c #6F7E48",
")  c #707F49",
"_  c #677750",
"`  c #834145",
"'  c #894745",
"]  c #8C4945",
"[  c #894C4A",
"{  c #924C47",
"}  c #944C49",
"|  c #97514A",
" . c #9C524A",
".. c #9B5551",
"X. c #9E5A55",
"o. c #A2564F",
"O. c #A35A52",
"+. c #AA5D54",
"@. c #B3655C",
"#. c #B86459",
"$. c #C26F63",
"%. c #C77468",
"&. c #57833F",
"*. c #58873F",
"=. c #5A8A3F",
"-. c #5E933E",
";. c #60963F",
":. c #629A3F",
">. c #578243",
",. c #598445",
"<. c #5C8C42",
"1. c #5F9045",
"2. c #618D45",
"3. c #72824B",
"4. c #76894D",
"5. c #619443",
"6. c #659C42",
"7. c #6C9B4A",
"8. c #7B904D",
"9. c #66A041",
"0. c #6AA443",
"q. c #6EAB43",
"w. c #70AF44",
"e. c #72B245",
"r. c #848054",
"t. c #AD9849",
"y. c #B6914E",
"u. c #80AC4D",
"i. c #9CB447",
"p. c #9AA251",
"a. c #9CB157",
"s. c #B1BA4F",
"d. c #D38557",
"f. c #9DC55C",
"g. c #9CC85E",
/* pixels */
"                                                                                                    ",
"                                                                                                    ",
"                                                                                                    ",
"                                                                                                    ",
"                                                                                                    ",
"                                                                                                    ",
"                                          5.=.0.e.e.e.q.5.6.                                        ",
"                                    6.e.q.w.q.q.e.e.e.e.w.w.e.0.7.                                  ",
"                                6.w.e.e.e.e.e.e.e.e.e.e.e.e.e.e.q.5.                                ",
"                            W e.e.e.e.e.e.e.e.e.e.e.e.e.e.e.e.e.q.5.I                               ",
"                            1.q.e.e.e.e.e.e.e.e.e.e.e.e.e.e.e.q.:.6.h T                             ",
"                          <.9.0.e.e.e.e.e.e.e.e.e.e.e.e.e.e.e.e.e.e.5.J _                           ",
"                          5.q.q.e.e.e.e.e.e.e.e.e.e.e.e.e.e.e.e.e.e.0.! H P                         ",
"                        L 5.q.w.e.e.e.e.e.e.e.e.e.e.e.e.e.e.e.e.e.6.,.1.R x 4.                      ",
"                      L =.1.0.e.e.q.e.e.e.e.q.q.e.e.e.e.e.e.e.e.e.0.<.5.K B Z                       ",
"                      W q.9.:.q.6.0.q.6.q.q.q.0.e.e.e.e.e.e.q.0.-.-.<.2.V M x                       ",
"                    j H <.,.<.,.E 1.-.-.9.q.e.e.w.e.e.e.0.0.0.<.*.,.5.<.H M w (                     ",
"                    , x I M H W 0.0.0.q.e.e.e.e.0.5.1.5.*.>.,.,.1.,.6.-.>.Q 0 e                     ",
"                    x V H H E 6.e.e.e.e.q.e.e.e.e.0.-.*.,.<.5.0.w.9.*.>.h u o /                     ",
"                    @ M E <.9.q.e.e.e.e.6.6.0.e.q.q.-.9.0.w.e.e.w.9.=.H H M 0 P                     ",
"                    + c H R ;.q.e.e.e.e.q.;.-.5.,.1.,.<.9.:.q.e.q.6.&.N c 8 + i                     ",
"                    , > 0 E *.6.6.q.9.w.q.q.=.,.1.,.,.1.,.*.=.1.<.h 8 c w @ + s                     ",
"                    q M B H H E N g g 2.6.0.0.q.0.:.0.<.f E g H H c w H H x # y                     ",
"                    n 0 B K V V H x x I 5.R 2.0.-.w.w.f # J V B V E Q J 0 + +                       ",
"                    ^ # , N J R E J J c , x A E E <.T M B J T T ! >.E N # @ 7                       ",
"                    P # # v b b J J J M , j b K T K V J J V v c H M M # # + 3.                      ",
"                      e + # , , v B x H R J T >.E E T Q E J b j M > , , # + 8.                      ",
"                        = + # j # x # 0 M M c I N K J J v v c , M > > @ @ /                         ",
"                          q @ , , j + O @ # > c v c 0 # @ , # j > + > X i                           ",
"                            ; + # # X X @ j > + # x # # # j x j > + + )                             ",
"                              ^ . O + # # j # # # b j # + o + # + + ^                               ",
"                                3.P 0 + + O O > > > # + + X % @ q ^                                 ",
"                                      ^ 7 % . X X X X o ^ ^                                         ",
"                                          3 * & . X X s f.g.f.                                      ",
"                                        f < 5 ] 2 % . 9 u.a.p.s.                                    ",
"                                    I = * D D  .D < X o H 3.t.i.                                    ",
"                                    n 6 ' ' }  .] d & o o 0 Q                                       ",
"                                  M 6 ` { { #.o.] { 1 $ X ;                                         ",
"                                  M t X.| [ %...` +.6 $ 4 3                                         ",
"                                    F O.k X.$.D 5 $.+.& - q                                         ",
"                                    C C m @...- % [ o.m   G                                         ",
"                                        Y m w M w M S   r.#.                                        ",
"                                                          d.y.                                      ",
"                                                                                                    ",
"                                                                                                    ",
"                                                                                                    ",
"                                                                                                    ",
"                                                                                                    ",
"                                                                                                    "
};
