/* XPM */
static char *aW1hZ2VfM18tcmVtb3ZlYmctcHJldmlldyslMjgxJTI5[] = {
/* columns rows colors chars-per-pixel */
"50 50 222 2 ",
"   c #31250F",
".  c #343526",
"X  c #582F19",
"o  c #6A3608",
"O  c #7A3A07",
"+  c #763D19",
"@  c #754013",
"#  c #554426",
"$  c #685535",
"%  c #3D5559",
"&  c #285661",
"*  c #565D52",
"=  c #505A4C",
"-  c #6E5D41",
";  c #5C615D",
":  c #756C53",
">  c #547774",
",  c #556F72",
"<  c #737A65",
"1  c #6C7062",
"2  c #89460D",
"3  c #954C0E",
"4  c #8C4916",
"5  c #9D5518",
"6  c #904C17",
"7  c #A1571B",
"8  c #A95B1A",
"9  c #AE5B0F",
"0  c #B4621C",
"q  c #B96518",
"w  c #AF601B",
"e  c #A15C21",
"r  c #AA6228",
"t  c #B96823",
"y  c #A46D33",
"u  c #C56C1C",
"i  c #C06E25",
"p  c #C5732D",
"a  c #73897B",
"s  c #B88842",
"d  c #B89756",
"f  c #8F9171",
"g  c #AD986B",
"h  c #8BA677",
"j  c #C58F42",
"k  c #CB9345",
"l  c #C89348",
"z  c #D8A454",
"x  c #E5AC56",
"c  c #EBAF57",
"v  c #C1A267",
"b  c #00249B",
"n  c #002094",
"m  c #012AA4",
"M  c #002EAC",
"N  c #0034B4",
"B  c #003ABC",
"V  c #0035B9",
"C  c #0339AD",
"Z  c #1043AF",
"A  c #0145BC",
"S  c #0555BB",
"D  c #1479BE",
"F  c #2066BA",
"G  c #537083",
"H  c #647483",
"J  c #003DC4",
"K  c #0449C9",
"L  c #0657CA",
"P  c #125DC7",
"I  c #0048D4",
"U  c #0155D4",
"Y  c #015ADB",
"T  c #0465C6",
"R  c #077CCA",
"E  c #1672CB",
"W  c #0467D9",
"Q  c #1A67D8",
"!  c #0378D8",
"~  c #1975D2",
"^  c #1263C3",
"/  c #2278C6",
"(  c #2975D8",
")  c #0259E6",
"_  c #005AF5",
"`  c #004DE5",
"'  c #0366EA",
"]  c #0174E4",
"[  c #0379E6",
"{  c #0064F9",
"}  c #006BF7",
"|  c #017DFC",
" . c #0276F7",
".. c #1173F2",
"X. c #1183B6",
"o. c #3089B0",
"O. c #58879B",
"+. c #6A8797",
"@. c #6A969C",
"#. c #75918E",
"$. c #76A29B",
"%. c #7CBF99",
"&. c #588EA4",
"*. c #5991AC",
"=. c #4999B8",
"-. c #539BBE",
";. c #5A98B3",
":. c #658FA2",
">. c #6A97AA",
",. c #7297A8",
"<. c #679BB4",
"1. c #719FB0",
"2. c #4EA2BA",
"3. c #6CAAAF",
"4. c #7CADAB",
"5. c #77A9A6",
"6. c #66A8B9",
"7. c #76B0B9",
"8. c #028DDC",
"9. c #0A87D5",
"0. c #1989D8",
"q. c #0995DB",
"w. c #139ADC",
"e. c #1D9CDC",
"r. c #1895D9",
"t. c #0B83CF",
"y. c #2187C2",
"u. c #3586CB",
"i. c #2799D8",
"p. c #3999D6",
"a. c #388FCE",
"s. c #0CA1DF",
"d. c #26A1DD",
"f. c #35A6DE",
"g. c #0585E9",
"h. c #089DED",
"j. c #0083F9",
"k. c #198EFD",
"l. c #0599F5",
"z. c #2F90EF",
"x. c #02A3EC",
"c. c #0AA6EC",
"v. c #14ACED",
"b. c #1AA8E1",
"n. c #01A6F3",
"m. c #09AAF7",
"M. c #08B7FC",
"N. c #18B4F5",
"B. c #10ACF1",
"V. c #21A8E1",
"C. c #37A8EC",
"Z. c #2CB3ED",
"A. c #23B6EE",
"S. c #25B9F2",
"D. c #37BBEF",
"F. c #4899CA",
"G. c #599EC6",
"H. c #4493CD",
"J. c #609CC6",
"K. c #48A6C4",
"L. c #58ACD6",
"P. c #54B1DD",
"I. c #50B5CD",
"U. c #69A8C5",
"Y. c #79B5C7",
"T. c #67B9D5",
"R. c #69AEC7",
"E. c #5F9FE0",
"W. c #459EF6",
"Q. c #418FE8",
"!. c #49B7E5",
"~. c #41A3F5",
"^. c #4EADEE",
"/. c #79B8E5",
"(. c #09C5FE",
"). c #0CD8FF",
"_. c #1CD4FC",
"`. c #1AC9FE",
"'. c #2DCFF7",
"]. c #1BE8FF",
"[. c #2BE9FE",
"{. c #23E7FF",
"}. c #2EF5FE",
"|. c #29F8FE",
" X c #32F0FE",
".X c #76C2D5",
"XX c #5BC6EC",
"oX c #47C2F3",
"OX c #58CBF1",
"+X c #51D5F8",
"@X c #67CBEC",
"#X c #78CDEC",
"$X c #76D1EC",
"%X c #69D3F3",
"&X c #7BDAF3",
"*X c #46E4E1",
"=X c #8F9482",
"-X c #9CA382",
";X c #A0A993",
":X c #87A8B6",
">X c #85B9B9",
",X c #82BDD1",
"<X c #84BFC3",
"1X c #92C0CF",
"2X c #87C4D7",
"3X c #97C6D4",
"4X c #8ECCD1",
"5X c #8AD3EB",
"6X c #95DAEF",
"7X c #84DDF2",
"8X c #88D8F2",
"9X c #97DDF3",
"0X c #8ECCE0",
"qX c #A2DCE7",
"wX c #9AE5F5",
"eX c #8BE0F3",
"rX c #ACEBF6",
"tX c #A3EBF8",
"yX c #BCF9FD",
"uX c #ADECF2",
"iX c #C2FDFF",
"pX c None",
/* pixels */
"pXpXpXpXpXpXpXpXpXpXpXpXpXpXpXpXpXpXpXpXpXpXpXpXpXpXpXpXpXpXpXpXpXpXpXpXpXpXpXpXpXpXpXpXpXpXpXpXpXpX",
"pXpXpXpXpXpXpXpXpXpXpXpXpXpXpXpXpXpXpXpXpXpXpXpXpXpXpXpXpXpXpXpXpXpXpXpXpXpXpXpXpXpXpXpXpXpXpXpXpXpX",
"pXpXpXpXpXpXpXpXpXpXpXpXpXpXpXpXpXpXpXpXpXpXpXpXpXpXpXpXpXpXpXpXpXpXpXpXpXpXpXpXpXpXpXpXpXpXpXpXpXpX",
"pXpXpXpXpXpXpXpXpXpXpXpXpXpXpXpXpXpXpXpXpXpXpXpXpXpXpXpXpXpXpXpXpXpXpXpXpXpXpXpXpXpXpXpXpXpXpXpXpXpX",
"pXpXpXpXpXpXpXpXpXpXpXpXpXpXpXpXpXpXpXpXpXpXpXpXpXpXpXpXpXpXpXpXpXpXpXpXpXpXpXpXpXpXpXpXpXpXpXpXpXpX",
"pXpXpXpXpXpXpXpXpXpXpXpXpXpXpXpXpXpXpXpXpXpXpXpXpXpXpXpXpXpXpXpXpXpXpXpXpXpXpXpXpXpXpXpXpXpXpXpXpXpX",
"pXpXpXpXpXpXpXpXpXpXpXpXpXpXpXpXpXpXpXpXpXpXpXpXpXpXpXpXpXpXpXpXpXpXpXpXpXpXpXpXpXpXpXpXpXpXpXpXpXpX",
"pXpXpXpXpXpXpXpXpXpXpXpXpXpXpXpXpXpXpXpXpXpXpXpXpXpXpXpXpXpXpXpXpXpXpXpXpXpXpXpXpXpXpXpXpXpXpXpXpXpX",
"pXpXpXpXpXpXpXpXpXpXpXpXpXpXpXpXpXpXpXpXpXpXpXpXpXpXpXpXpXpXpXpXpXpXpXpXpXpXpXpXpXpXpXpXpXpXpXpXpXpX",
"pXpXpXpXpXpXpXpXpXpXpXpXpXpXpXpXpXpXpXpXpXpXpXpXpXpXpXpXpXr t t 7 + pXpXpXpXpXpXpXpXpXpXpXpXpXpXpXpX",
"pXpXpXpXpXpXpXpXpXpXpXpXpXpXpXpXpXpXpXpXpXpXpXpXpXpXpXpXpXp i u q 7 6 + pXpXpXpXpXpXpXpXpXpXpXpXpXpX",
"pXpXpXpXpXpXpXpXpXpXpXpXpXpXpXpXpXpXpXpXpXpXpXpXpXpXpX+.; 8 p u u q 8 8 4 pXpXpXpXpXpXpXpXpXpXpXpXpX",
"pXpXpXpXpXpXpXpXpXpXpXpXpXpXpXpXpXpXpXpXpXpXpXpXpXpXpX,X1 2 i i w q 0 0 5 + pXpXpXpXpXpXpXpXpXpXpXpX",
"pXpXpXpXpXpXpXpXpXpXpXpXpXpXpXpXpXpXpXpXpXpXpXpXpXpX>.0X=X9 q q r w 8 5 7 6 pXpXpXpXpXpXpXpXpXpXpXpX",
"pXpXpXpXpXpXpXpXpXpXpXpXpXpXpXpXpXpXpXpXpXpXpXpXpXpX=.I.qXg 0 9 3 3 2 o @ X pXpXpXpXpXpXpXpXpXpXpXpX",
"pXpXpXpXpXpXpXpXpXpXpXpXpXpXpXpXpXpXpXpXpXpXpXpXpXpX;.K.4X4X;Xy 6 O O o * G pXpXpXpXpXpXpXpXpXpXpXpX",
"pXpXpXpXpXpXpXpXpXpXpXpXpXpXpXpXpXpXpXpXpXpXpXpXpXpX>..X7.$.>X>Xa : - * o.O.pXpXpXpXpXpXpXpXpXpXpXpX",
"pXpXpXpXpXpXpXpXpXpXpXpXpXpXpXpXpXpXpXpXpXpXpXpXH $ > 6..X5.$.$.3.3.6.2.2.pXpXpXpXpXpXpXpXpXpXpXpXpX",
"pXpXpXpXpXpXpXpXpXpXpXpXpXpXpXpXpXpXpXpXpX+.:X3X9X#.$ a :X>X>X4.3.6.I.p.*.pXpXpXpXpXpXpXpXpXpXpXpXpX",
"pXpXpXpXpXpXpXpXpXpXpXpXpXpXpXpXpXpX:X1X0X5X$X@XP.#X< $ a $.$.4.7..XT.&.pXpXpXpXpXpXpXpXpXpXpXpXpXpX",
"pXpXpXpXpXpXpXpXpXpXpXpXpXpXpXpXpX3XrXtX@X!.XX8XtXyXqXa # # $ * > > & pXpXpXpXpXpXpXpXpXpXpXpXpXpXpX",
"pXpXpXpXpXpXpXpXpXpXpXpXpXpXpXpX4.5X!.#XwXwXyXiXiXtX&XZ.X.& .       = +.pXpXpXpXpXpXpXpXpXpXpXpXpXpX",
"pXpXpXpXpXpXpXpXpXpXpXpXpXpXpXpXY.C.r.i.d.L.6XrXtX%XN.n.n.x.s.2.6.o.!.#X>XpXpXpXpXpXpXpXpXpXpXpXpXpX",
"pXpXpXpXpXpXpXpXpXpXpXpXpXpXpX+.P.r.i.r.t.R w.!.7X7XOXS.m.x.x.'.7XN.v.D.$XY.pXpXpXpXpXpXpXpXpXpXpXpX",
"pXpXpXpXpXpXpXpXpXpXpXpXpXpXpXU.i.i.i.0.y.:.=.c.M.oX&X7XOXA.n.v.7XD.x.x.C.7X3XpXpXpXpXpXpXpXpXpXpXpX",
"pXpXpXpXpXpXpXpXpXpXpXpXpXpXH L.r.i.0.t.#.x z -XK.m.B.oX7X7XOXA.%X%Xx.Z.#X6X2XpXpXpXpXpXpXpXpXpXpXpX",
"pXpXpXpXpXpXpXpXpXpXpXpXpXpX<.i.d.e.9.X.v c x k d h K.v.v.oXeX7X&X7XXX9X6XT.>.pXpXpXpXpXpXpXpXpXpXpX",
"pXpXpXpXpXpXpXpXpXpXpXpXpX, L.e.V.s.q.t.g c z s j j s #.s.x.Z.%X9XrXrX8Xp.G.pXpXpXpXpXpXpXpXpXpXpXpX",
"pXpXpXpXpXpXpXpXpXpXpXpXpX<.d.V.b.q.t.D y.$.d l j k j s o.g.8.q.!.9X5Xi.i.<.pXpXpXpXpXpXpXpXpXpXpXpX",
"pXpXpXpXpXpXpXpXpXpXpXpXpXL.d.b.w.R S S S T y.@.d k j f 0.9.] ! ( /.( Q F.pXpXpXpXpXpXpXpXpXpXpXpXpX",
"pXpXpXpXpXpXpXpXpXpXpXpX1.!.r.~ S S R R h.b._.[.*X%.h I._.`.m.g.Q.E.K / <.pXpXpXpXpXpXpXpXpXpXpXpXpX",
"pXpXpXpXpXpXpXpXpXpXpXpXL.0.P K L W ] h.N.+X[.[.{.[.{._.N.l.g.g.^.( L F.pXpXpXpXpXpXpXpXpXpXpXpXpXpX",
"pXpXpXpXpXpXpXpXpXpXpX1.P.P M m N K ' [ l.(.].|.|.}.}.].(.j. .| ^.) ( <.pXpXpXpXpXpXpXpXpXpXpXpXpXpX",
"pXpXpXpXpXpXpXpXpXpXpXY.p.M n n b K W ] g.l.M.).).].}.{.M.| { z.z.) H.,.pXpXpXpXpXpXpXpXpXpXpXpXpXpX",
"pXpXpXpXpXpXpXpXpXpXpX2XE.C b b b m B I ] h.! g.n.M.(.M.k.) ) W...~ U.pXpXpXpXpXpXpXpXpXpXpXpXpXpXpX",
"pXpXpXpXpXpXpXpXpXpXpX,.Y.U.F C M b m V U ] Y Y ' [ j.j.) ) ..z.U H.>.pXpXpXpXpXpXpXpXpXpXpXpXpXpXpX",
"pXpXpXpXpXpXpXpXpXpXpXpXpX5.R.H.P A N N J J I I I I ) |  .} W.Q E U.pXpXpXpXpXpXpXpXpXpXpXpXpXpXpXpX",
"pXpXpXpXpXpXpXpXpXpXpXpXpXpXpX,.J.u.P K B V J V J ` _ | j.k.Q.L L.1.pXpXpXpXpXpXpXpXpXpXpXpXpXpXpXpX",
"pXpXpXpXpXpXpXpXpXpXpXpXpXpXpXpXpX>.G.u.P A A K U { _ { | ~.Q / ,XpXpXpXpXpXpXpXpXpXpXpXpXpXpXpXpXpX",
"pXpXpXpXpXpXpXpXpXpXpXpXpXpXpXpXpXpXpX>.-.a.E ! [  .} } k.W.E -.>.pXpXpXpXpXpXpXpXpXpXpXpXpXpXpXpXpX",
"pXpXpXpXpXpXpXpXpXpXpXpXpXpXpXpXpXpXpXpXpX:.G.a.0.g. .| ~.F.G.+.pXpXpXpXpXpXpXpXpXpXpXpXpXpXpXpXpXpX",
"pXpXpXpXpXpXpXpXpXpXpXpXpXpXpXpXpXpXpXpXpXpXpX:.-.p.0.C.#XR.pXpXpXpXpXpXpXpXpXpXpXpXpXpXpXpXpXpXpXpX",
"pXpXpXpXpXpXpXpXpXpXpXpXpXpXpXpXpXpXpXpXpXpXpXpXpXO.6.2XY.pXpXpXpXpXpXpXpXpXpXpXpXpXpXpXpXpXpXpXpXpX",
"pXpXpXpXpXpXpXpXpXpXpXpXpXpXpXpXpXpXpXpXpXpXpXpXpXpXpXpXpXpXpXpXpXpXpXpXpXpXpXpXpXpXpXpXpXpXpXpXpXpX",
"pXpXpXpXpXpXpXpXpXpXpXpXpXpXpXpXpXpXpXpXpXpXpXpXpXpXpXpXpXpXpXpXpXpXpXpXpXpXpXpXpXpXpXpXpXpXpXpXpXpX",
"pXpXpXpXpXpXpXpXpXpXpXpXpXpXpXpXpXpXpXpXpXpXpXpXpXpXpXpXpXpXpXpXpXpXpXpXpXpXpXpXpXpXpXpXpXpXpXpXpXpX",
"pXpXpXpXpXpXpXpXpXpXpXpXpXpXpXpXpXpXpXpXpXpXpXpXpXpXpXpXpXpXpXpXpXpXpXpXpXpXpXpXpXpXpXpXpXpXpXpXpXpX",
"pXpXpXpXpXpXpXpXpXpXpXpXpXpXpXpXpXpXpXpXpXpXpXpXpXpXpXpXpXpXpXpXpXpXpXpXpXpXpXpXpXpXpXpXpXpXpXpXpXpX",
"pXpXpXpXpXpXpXpXpXpXpXpXpXpXpXpXpXpXpXpXpXpXpXpXpXpXpXpXpXpXpXpXpXpXpXpXpXpXpXpXpXpXpXpXpXpXpXpXpXpX",
"pXpXpXpXpXpXpXpXpXpXpXpXpXpXpXpXpXpXpXpXpXpXpXpXpXpXpXpXpXpXpXpXpXpXpXpXpXpXpXpXpXpXpXpXpXpXpXpXpXpX"
};
