/* XPM */
static char *aW1hZ2VfMl8tcmVtb3ZlYmctcHJldmlldyslMjgxJTI5[] = {
/* columns rows colors chars-per-pixel */
"50 50 208 2 ",
"   c #7C2613",
".  c #6A321C",
"X  c #75361E",
"o  c #7C381E",
"O  c #4F2F34",
"+  c #512D31",
"@  c #563132",
"#  c #553239",
"$  c #5B3237",
"%  c #542F27",
"&  c #7B3A21",
"*  c #723C24",
"=  c #722F36",
"-  c #6C333D",
";  c #66353B",
":  c #753735",
">  c #7A2B2F",
",  c #5A3A47",
"<  c #623741",
"1  c #683C49",
"2  c #7D394D",
"3  c #703944",
"4  c #6B404D",
"5  c #684455",
"6  c #734454",
"7  c #7A4A57",
"8  c #79575F",
"9  c #7F5565",
"0  c #820C07",
"q  c #861607",
"w  c #921C12",
"e  c #981C09",
"r  c #99241C",
"t  c #863818",
"y  c #963C16",
"u  c #A3250D",
"i  c #AE3D16",
"p  c #B73312",
"a  c #812827",
"s  c #982E29",
"d  c #833E27",
"f  c #8A3A25",
"g  c #903C20",
"h  c #9A2E34",
"j  c #96363B",
"k  c #863138",
"l  c #A42F21",
"z  c #A33E22",
"x  c #DF0416",
"c  c #DD0915",
"v  c #DF021A",
"b  c #D91818",
"n  c #E20B0D",
"m  c #E4150D",
"M  c #E61A0B",
"N  c #E10314",
"B  c #E10C12",
"V  c #E0011A",
"C  c #E21112",
"Z  c #E81D14",
"A  c #CA2E01",
"S  c #CA3B0A",
"D  c #C63D1A",
"F  c #EC2D07",
"G  c #E82309",
"H  c #E52708",
"J  c #FF2E00",
"K  c #EC3206",
"L  c #EF3B06",
"P  c #E43508",
"I  c #FE3400",
"U  c #F13B04",
"Y  c #FE3A00",
"T  c #E82A17",
"R  c #DE132F",
"E  c #D4142D",
"W  c #DE3D20",
"Q  c #C53036",
"!  c #A84C15",
"~  c #BE4B14",
"^  c #864526",
"/  c #9A4D26",
"(  c #9A4D2C",
")  c #9D512E",
"_  c #864436",
"`  c #994A33",
"'  c #9A5536",
"]  c #A3452E",
"[  c #B04D2E",
"{  c #A5532C",
"}  c #AA582F",
"|  c #A8443A",
" . c #A45531",
".. c #AD5B32",
"X. c #A55A3A",
"o. c #B05D32",
"O. c #B35F3A",
"+. c #B66137",
"@. c #C4590D",
"#. c #D9560C",
"$. c #C94817",
"%. c #D44F15",
"&. c #EC4709",
"*. c #F34503",
"=. c #FE4401",
"-. c #F44B03",
";. c #F74A06",
":. c #F65203",
">. c #FD5502",
",. c #FB5C02",
"<. c #F55D03",
"1. c #E74B17",
"2. c #E55517",
"3. c #E85B07",
"4. c #D86007",
"5. c #FC6201",
"6. c #FC6C01",
"7. c #F76406",
"8. c #FD7201",
"9. c #FD7B01",
"0. c #FA780C",
"q. c #F0611A",
"w. c #EC7514",
"e. c #FB7916",
"r. c #E86B04",
"t. c #CE4B30",
"y. c #C74A2B",
"u. c #EE5226",
"i. c #C56D2F",
"p. c #923341",
"a. c #883A56",
"s. c #94394E",
"d. c #CE3C4F",
"f. c #DD324D",
"g. c #D82C43",
"h. c #884340",
"j. c #8D4457",
"k. c #974357",
"l. c #9B585D",
"z. c #BA5952",
"x. c #BA5D5C",
"c. c #A44F4C",
"v. c #BE6C41",
"b. c #864262",
"n. c #934C66",
"m. c #86566B",
"M. c #875673",
"N. c #9F5B72",
"B. c #965D7A",
"V. c #A75664",
"C. c #B75267",
"Z. c #8C636F",
"A. c #8B6274",
"S. c #92667C",
"D. c #9B627B",
"F. c #996374",
"G. c #A46378",
"H. c #B56F7F",
"J. c #AF746D",
"K. c #C96541",
"L. c #E87A41",
"P. c #D74664",
"I. c #E14F6E",
"U. c #C06670",
"Y. c #FE8302",
"T. c #FE8C00",
"R. c #FE9400",
"E. c #FF9C00",
"W. c #FE980A",
"Q. c #FE9112",
"!. c #FFA30A",
"~. c #FDA91A",
"^. c #FFB51A",
"/. c #F88B28",
"(. c #F58030",
"). c #FA9B26",
"_. c #ECA123",
"`. c #D48741",
"'. c #FAA969",
"]. c #9A6884",
"[. c #9C7C91",
"{. c #A06B83",
"}. c #B87A8F",
"|. c #B06E87",
" X c #C37F9C",
".X c #DF7798",
"XX c #B6888A",
"oX c #B8859B",
"OX c #AE8899",
"+X c #B68EA3",
"@X c #AE93A4",
"#X c #D6809D",
"$X c #C2878E",
"%X c #F4B58F",
"&X c #D58EAC",
"*X c #E186A6",
"=X c #C1ACBA",
"-X c #EAC7B3",
";X c #C9B3C1",
":X c #D3C2C6",
">X c #D8C9D2",
",X c #DFD5D9",
"<X c #E3CFD6",
"1X c #FADAC1",
"2X c #EDE3E8",
"3X c #FEFDFE",
"4X c #F7F3F6",
"5X c None",
/* pixels */
"5X5X5X5X5X5X5X5X5X5X5X5X5X5X5X5X5X5X5X5X5X5X5X5X5X5X5X5X5X5X5X5X5X5X5X5X5X5X5X5X5X5X5X5X5X5X5X5X5X5X",
"5X5X5X5X5X5X5X5X5X5X5X5X5X5X5X5X5X5X5X5X5X5X5X5X5X5X5X5X5X5X5X5X5X5X5X5X5X5X5X5X5X5X5X5X5X5X5X5X5X5X",
"5X5X5X5X5X5X5X5X5X5X5X5X5X5X5X5X5X5X5X5X5X5X5X5X5X5X5X5X5X5X5X5X5X5X5X5X5X5X5X5X5X5X5X5X5X5X5X5X5X5X",
"5X5X5X5X5X5X5X5X5X5X5X5X5X5X5X5X5X5X5X5X5X5X5X5X5X5X5X5X5X5X5X5X5X5X5X5X5X5X5X5X5X5X5X5X5X5X5X5X5X5X",
"5X5X5X5X5X5X5X5X5X5X5X5X5X5X5X5X5X5X5X5X5X5X5X5X5X5X5X5X5X5X5X5X5X5X5X5X5X5X5X5X5X5X5X5X5X5X5X5X5X5X",
"5X5X5X5X5X5X5X5X5X5X5X5X5X5X5X5X5X5X5X5X5X5X5X5X5X5X5X5X5X5X5X5X5X5X5X5X5X5X5X5X5X5X5X5X5X5X5X5X5X5X",
"5X5X5X5X5X5X5X5X5X5X5X5X5X5X5X5X5X5X5X5X5X5X5X5X5X5X5X5X5X5X5X5X5X5X5X5X5X5X5X5X5X5X5X5X5X5X5X5X5X5X",
"5X5X5X5X5X5X5X5X5X5X5X5X5X5X5X5X5X5X5X5X5X5X5X5X5X5X5X5X5X5X5X5X5X5X5X5X5X5X5X5X5X5X5X5X5X5X5X5X5X5X",
"5X5X5X5X5X5X5X5X5X5X5X5X5X5X5X5X5X5X5X5X5X5X5X5X' ( ' } } ( ^ 5X5X5X5X5X5X5X5X5X5X5X5X5X5X5X5X5X5X5X",
"5X5X5X5X5X5X5X5X5X5X5X5X5X5X5X5X5X5X5X5X5X5X5XX.....+.o...{ ) ( & 5X5X5X5X5X5X5X5X5X5X5X5X5X5X5X5X5X",
"5X5X5X5X5X5X5X5X5X5X5X5X5X5X5X5X5X5X5X5X5X5X5X' +.X...+.o.....{ / 5X5X5X5X5X5X5X5X5X5X5X5X5X5X5X5X5X",
"5X5X5X5X5X5X5X5X5X5X5X5X5X5X5X5X5X5X5X5X5X5X5XJ.X.v.+.o.....{ / / & 5X5X5X5X5X5X5X5X5X5X5X5X5X5X5X5X",
"5X5X5X5X5X5X5X5X5X5X5X5X5X5X5X5X5X5X5X5X5X5X>X:X_ ' +.+.)  .) ^ * 5X5X5X5X5X5X5X5X5X5X5X5X5X5X5X5X5X",
"5X5X5X5X5X5X5X5X5X5X5X5X5X5X5X5X5X5X5X5X5X5XOX,XXX' [ } f & . % m.5X5X5X5X5X5X5X5X5X5X5X5X5X5X5X5X5X",
"5X5X5X5X5X5X5X5X5X5X5X5X5X5X5X5X5X5X5X5X5X5X6 8 OX$XJ.c._ : @ , M.5X5X5X5X5X5X5X5X5X5X5X5X5X5X5X5X5X",
"5X5X5X5X5X5X5X5X5X5X5X5X5X5X5X5X5X5X5X5X5X5X6 + $ 7 Z.A.9 5 , 5 m.5X5X5X5X5X5X5X5X5X5X5X5X5X5X5X5X5X",
"5X5X5X5X5X5X5X5X5X5X5X5X5X5X5X5X5X5X5X5XM.B.j.< $ @ + O + @ # < 6 5X5X5X5X5X5X5X5X5X5X5X5X5X5X5X5X5X",
"5X5X5X5X5X5X5X5X5X5X5X5X5X5X5X5X5X5X@X;X].b.p.h 3 < # + O # $ < 5X5X5X5X5X5X5X5X5X5X5X5X5X5X5X5X5X5X",
"5X5X5X5X5X5X5X5X5X5X5X5X5X5X5X5X5X;X3X3X>X{.a.h r a > = - = a j m.5X5X5X5X5X5X5X5X5X5X5X5X5X5X5X5X5X",
"5X5X5X5X5X5X5X5X5X5X5X5X5X5X5X5X:X3X3X3X3X2X+Xb.j l u e 0 q s k.G.M.5X5X5X5X5X5X5X5X5X5X5X5X5X5X5X5X",
"5X5X5X5X5X5X5X5X5X5X5X5X5X5X5X=X2X4X3X3X4X<XoXj.a.s.h h r w k 2 j.G.5X5X5X5X5X5X5X5X5X5X5X5X5X5X5X5X",
"5X5X5X5X5X5X5X5X5X5X5X5X5X5X[.+XB.XX-X1X%XL.2.2.1.1.1.%.$.D p k a.n.D.5X5X5X5X5X5X5X5X5X5X5X5X5X5X5X",
"5X5X5X5X5X5X5X5X5X5X5X5X5X5X].l.i.w.e.e.7.>.=.Y I I Y J J I K p $.c.N.M.5X5X5X5X5X5X5X5X5X5X5X5X5X5X",
"5X5X5X5X5X5X5X5X5X5X5X5X5Xm.J._.R.Y.Y.9.8.5.,.,.,.,.>.=.=.I G q A >.i.D.5X5X5X5X5X5X5X5X5X5X5X5X5X5X",
"5X5X5X5X5X5X5X5X5X5X5X5X5XB.`.^.E.E.R.T.T.Y.Y.9.9.9.9.8.7.>.S q e #.w.|.5X5X5X5X5X5X5X5X5X5X5X5X5X5X",
"5X5X5X5X5X5X5X5X5X5X5X5X5Xn.W ).^.!.E.E.R.R.R.T.T.9.8.6.,.;.y     ! ;.U.S.5X5X5X5X5X5X5X5X5X5X5X5X5X",
"5X5X5X5X5X5X5X5X5X5X5X5X5Xs.B T u./.).^.!.W.Q.Y.6.,.>.>.,.7.y t t t P x.S.5X5X5X5X5X5X5X5X5X5X5X5X5X",
"5X5X5X5X5X5X5X5X5X5X5X5X5Xk.V N v Z T 1.q.(.'./.0.9.9.Y.Y.Y.! & o o S z.S.5X5X5X5X5X5X5X5X5X5X5X5X5X",
"5X5X5X5X5X5X5X5X5X5X5X5X5Xk.c V v N N n m T u.L *.:.<.6.8.8.@.o X X ! z.S.5X5X5X5X5X5X5X5X5X5X5X5X5X",
"5X5X5X5X5X5X5X5X5X5X5X5X5XV.E V v v v B C M G K L *.:.5.8.9.#.o . . y V.A.5X5X5X5X5X5X5X5X5X5X5X5X5X",
"5X5X5X5X5X5X5X5X5X5X5X5X5X|.E V V v v N B m M F L *.-.5.8.9.r.t X t ] G.5X5X5X5X5X5X5X5X5X5X5X5X5X5X",
"5X5X5X5X5X5X5X5X5X5X5X5X5X XP.V V v v x C c M G F L *.<.6.9.9.@.@.-.y.|.5X5X5X5X5X5X5X5X5X5X5X5X5X5X",
"5X5X5X5X5X5X5X5X5X5X5X5X5X5X.XR V V V V B C m G F U *.,.6.9.9.9.6.-.x.].5X5X5X5X5X5X5X5X5X5X5X5X5X5X",
"5X5X5X5X5X5X5X5X5X5X5X5X5X5X&XI.V V V V B C m G F U *.<.8.8.9.9.5.y.F.5X5X5X5X5X5X5X5X5X5X5X5X5X5X5X",
"5X5X5X5X5X5X5X5X5X5X5X5X5X5X5X*Xf.V v v V B M G F U -.,.8.9.9.8.%.l.M.5X5X5X5X5X5X5X5X5X5X5X5X5X5X5X",
"5X5X5X5X5X5X5X5X5X5X5X5X5X5X5X+X.XQ v v N C m G K *.:.5.8.8.8.#.h.9 5X5X5X5X5X5X5X5X5X5X5X5X5X5X5X5X",
"5X5X5X5X5X5X5X5X5X5X5X5X5X5X5X5XoX.Xd.b N n M F U -.,.6.6.7.~ : 4 5X5X5X5X5X5X5X5X5X5X5X5X5X5X5X5X5X",
"5X5X5X5X5X5X5X5X5X5X5X5X5X5X5X5X5X5X}.C.Q T M K *.:.7.3.$.f ; 4 5X5X5X5X5X5X5X5X5X5X5X5X5X5X5X5X5X5X",
"5X5X5X5X5X5X5X5X5X5X5X5X5X5X5X5X5X5X5XB.N.V.c.j ] ] f : ; < 5X5X5X5X5X5X5X5X5X5X5X5X5X5X5X5X5X5X5X5X",
"5X5X5X5X5X5X5X5X5X5X5X5X5X5X5X5X5X5X5X5X5X5Xm.j.6 6 1 5X5X5X5X5X5X5X5X5X5X5X5X5X5X5X5X5X5X5X5X5X5X5X",
"5X5X5X5X5X5X5X5X5X5X5X5X5X5X5X5X5X5X5X5X5X5X5X5X5X5X5X5X5X5X5X5X5X5X5X5X5X5X5X5X5X5X5X5X5X5X5X5X5X5X",
"5X5X5X5X5X5X5X5X5X5X5X5X5X5X5X5X5X5X5X5X5X5X5X5X5X5X5X5X5X5X5X5X5X5X5X5X5X5X5X5X5X5X5X5X5X5X5X5X5X5X",
"5X5X5X5X5X5X5X5X5X5X5X5X5X5X5X5X5X5X5X5X5X5X5X5X5X5X5X5X5X5X5X5X5X5X5X5X5X5X5X5X5X5X5X5X5X5X5X5X5X5X",
"5X5X5X5X5X5X5X5X5X5X5X5X5X5X5X5X5X5X5X5X5X5X5X5X5X5X5X5X5X5X5X5X5X5X5X5X5X5X5X5X5X5X5X5X5X5X5X5X5X5X",
"5X5X5X5X5X5X5X5X5X5X5X5X5X5X5X5X5X5X5X5X5X5X5X5X5X5X5X5X5X5X5X5X5X5X5X5X5X5X5X5X5X5X5X5X5X5X5X5X5X5X",
"5X5X5X5X5X5X5X5X5X5X5X5X5X5X5X5X5X5X5X5X5X5X5X5X5X5X5X5X5X5X5X5X5X5X5X5X5X5X5X5X5X5X5X5X5X5X5X5X5X5X",
"5X5X5X5X5X5X5X5X5X5X5X5X5X5X5X5X5X5X5X5X5X5X5X5X5X5X5X5X5X5X5X5X5X5X5X5X5X5X5X5X5X5X5X5X5X5X5X5X5X5X",
"5X5X5X5X5X5X5X5X5X5X5X5X5X5X5X5X5X5X5X5X5X5X5X5X5X5X5X5X5X5X5X5X5X5X5X5X5X5X5X5X5X5X5X5X5X5X5X5X5X5X",
"5X5X5X5X5X5X5X5X5X5X5X5X5X5X5X5X5X5X5X5X5X5X5X5X5X5X5X5X5X5X5X5X5X5X5X5X5X5X5X5X5X5X5X5X5X5X5X5X5X5X",
"5X5X5X5X5X5X5X5X5X5X5X5X5X5X5X5X5X5X5X5X5X5X5X5X5X5X5X5X5X5X5X5X5X5X5X5X5X5X5X5X5X5X5X5X5X5X5X5X5X5X"
};
