/* XPM */
static char *_b095567690b423d93d311732018ffcb2SPVHMxMWzpac4v0[] = {
/* columns rows colors chars-per-pixel */
"50 50 253 2 ",
"   c #0E6300",
".  c #0A680A",
"X  c #196C07",
"o  c #1B7705",
"O  c #187515",
"+  c #146913",
"@  c #247B0D",
"#  c #277906",
"$  c #337E0A",
"%  c #287816",
"&  c #3C7816",
"*  c #1F7B24",
"=  c #237826",
"-  c #317D22",
";  c #6B7534",
":  c #1C7350",
">  c #A77C6B",
",  c #1C8412",
"<  c #2B8607",
"1  c #338805",
"2  c #389607",
"3  c #278718",
"4  c #318311",
"5  c #3B8B1B",
"6  c #358C16",
"7  c #2B9419",
"8  c #3D9613",
"9  c #3A9A1A",
"0  c #29A80B",
"q  c #3DAB05",
"w  c #39A416",
"e  c #34B10F",
"r  c #2A8B28",
"t  c #3B8823",
"y  c #349225",
"u  c #3D9B22",
"i  c #38972A",
"p  c #298533",
"a  c #399638",
"s  c #2E982A",
"d  c #3CA22E",
"f  c #3FA623",
"g  c #438D0D",
"h  c #458504",
"j  c #49940E",
"k  c #49980A",
"l  c #51980E",
"z  c #448D1A",
"x  c #4A8C1C",
"c  c #498615",
"v  c #459312",
"b  c #4B9C13",
"n  c #43931C",
"m  c #4C951C",
"M  c #459B19",
"N  c #4D9C19",
"B  c #489615",
"V  c #539414",
"C  c #539B14",
"Z  c #549B1B",
"A  c #5A9C1C",
"S  c #569814",
"D  c #558D12",
"F  c #4AA202",
"G  c #49A60A",
"H  c #56A60C",
"J  c #4BA416",
"K  c #4BA61D",
"L  c #4EAC1C",
"P  c #44A415",
"I  c #59A513",
"U  c #53AA16",
"Y  c #52A41C",
"T  c #54AC1B",
"R  c #5AA717",
"E  c #47B21B",
"W  c #5AB51C",
"Q  c #55BE09",
"!  c #63AB1B",
"~  c #66A719",
"^  c #65B51C",
"/  c #6BB41E",
"(  c #65B918",
")  c #74BA1B",
"_  c #438E25",
"`  c #598525",
"'  c #429C22",
"]  c #499825",
"[  c #539523",
"{  c #5B9C24",
"}  c #539C29",
"|  c #5A9A25",
" . c #459A36",
".. c #509D35",
"X. c #6A9B27",
"o. c #789B2F",
"O. c #758D3D",
"+. c #689736",
"@. c #6C8C30",
"#. c #4AA526",
"$. c #54A223",
"%. c #5DA621",
"&. c #53AA24",
"*. c #5CAC23",
"=. c #5BAC2A",
"-. c #55A72C",
";. c #5DB52C",
":. c #59B728",
">. c #47AB31",
",. c #59A837",
"<. c #56B736",
"1. c #62A323",
"2. c #63AD24",
"3. c #66A32A",
"4. c #65AC2A",
"5. c #6BAD2C",
"6. c #6BA824",
"7. c #79AE26",
"8. c #65B425",
"9. c #6CB325",
"0. c #65BB23",
"q. c #6BBA26",
"w. c #65B42B",
"e. c #6CB22D",
"r. c #6BBB2B",
"t. c #65BB29",
"y. c #73B525",
"u. c #74BC25",
"i. c #7ABB25",
"p. c #74B52B",
"a. c #74BB2C",
"s. c #7CBD2B",
"d. c #7DB327",
"f. c #62AD31",
"g. c #79AA38",
"h. c #6FB332",
"j. c #6ABD34",
"k. c #69BC3C",
"l. c #66B737",
"z. c #75B633",
"x. c #7BB534",
"c. c #74BC31",
"v. c #7CBC34",
"b. c #7BB93E",
"n. c #709311",
"m. c #61C31B",
"M. c #7BCB18",
"N. c #78D419",
"B. c #5FC72A",
"V. c #68C529",
"C. c #75C324",
"Z. c #7BC425",
"A. c #7CCC26",
"S. c #76C42A",
"D. c #7DC52B",
"F. c #75CB2C",
"G. c #7EC92D",
"H. c #73CA25",
"J. c #7CD02C",
"K. c #79D326",
"L. c #6CC134",
"P. c #6ECC3A",
"I. c #74C333",
"U. c #7CC433",
"Y. c #7CCC33",
"T. c #7CC43B",
"R. c #7CCB3A",
"E. c #73C838",
"W. c #7DD035",
"Q. c #76D23A",
"!. c #6CD634",
"~. c #2E8649",
"^. c #769156",
"/. c #718E4A",
"(. c #6EB048",
"). c #7C9B60",
"_. c #79C644",
"`. c #7FD242",
"'. c #88BF19",
"]. c #8C9936",
"[. c #83BB2B",
"{. c #85BA27",
"}. c #84AC33",
"|. c #87A638",
" X c #94AE3B",
".X c #83B732",
"XX c #82BE32",
"oX c #8BBD33",
"OX c #87B73B",
"+X c #93B53B",
"@X c #85C91E",
"#X c #8FCF18",
"$X c #82C525",
"%X c #8DC425",
"&X c #83CB24",
"*X c #82C62C",
"=X c #8BC42D",
"-X c #82CB2D",
";X c #8ACB2C",
":X c #8ACB25",
">X c #90CB2C",
",X c #91C12D",
"<X c #84D12C",
"1X c #8BD22C",
"2X c #89D427",
"3X c #83C533",
"4X c #8AC435",
"5X c #84CB32",
"6X c #8ACC34",
"7X c #84C53A",
"8X c #8BC53A",
"9X c #84CC3A",
"0X c #8BCC3A",
"qX c #93CD34",
"wX c #91CD3B",
"eX c #96C738",
"rX c #86D133",
"tX c #8BD134",
"yX c #85D23A",
"uX c #8BD33C",
"iX c #88DB37",
"pX c #93D637",
"aX c #93D722",
"sX c #82E13D",
"dX c #889A47",
"fX c #919949",
"gX c #979259",
"hX c #848E56",
"jX c #A5925A",
"kX c #87A542",
"lX c #9BAB44",
"zX c #87B747",
"xX c #97B746",
"cX c #87A357",
"vX c #99A659",
"bX c #A6AB55",
"nX c #A0A048",
"mX c #9C8266",
"MX c #A99165",
"NX c #90A476",
"BX c #84CA42",
"VX c #8BCB42",
"CX c #87C646",
"ZX c #94CC42",
"AX c #94C346",
"SX c #8BD543",
"DX c #89D449",
"FX c #98D343",
"GX c #90CE51",
"HX c #90D551",
"JX c #A3CD4D",
"KX c #98E040",
"LX c #9DC562",
/* pixels */
"xXcXdX{.&XiX9XM.k.9XwX=XXXVX0X%X6X&XiXY.( C.3XwXU.9X0X6X;X-X3X*X7X6X1X&XrXyX5X&X3X*X5X6X6X5X6X5X6X5X",
"cX^./.+.h.(.l.{ #.*.6.~ ! a.6X>Xu.! 8.&.M *.9.s.9X6X5X$X$X6X9X9X_.F.Z.M.D.9XyXiX-X6X5X5X-X5X*X*X*X*X",
"zXg.o.+.;.m.W 8 y M V I 4.R.uX>X0.2 6 < X $ h S 5X3XD.i.D.9XE.r.f L 8.s.8X8XY.F.-X3X5X=X-X3X*X*X*X*X",
"SX2XM.5.:.Q q r d 9 N *._.HXSX$XP.9 r * * t x ~ S.D.D.3X9XR.;.M 7 9 9.ZXAXAX7XG.6X5X5X5X3X*XD.*X5X3X",
"R.;X=X(. .u r : y u } 4.k.l.w./ K o . . + - _ X.s.D.D.6XuXR.*.8 7 n 6.|. X|..X6X-X5X5X*X*X*X*X*X5X6X",
"<X:XoX(.,.' s ~.r i } { 5 4 v %.b < @ O + _ } 3.D.U.6X5XyX9XV.&.#.K 6.+XOX}.d.=X-X3X6X-X5X5X*X*X*X-X",
":XoX+X,XM.:.#.K i ] [ [ t % 5 -.C v B @ # x V V U.5X6X6X6X0X3XU._.8.8.BXGXzX3XqX6X6X-X5X5X*X6X-X*X5X",
"zX).hX+X.Xf.] G ,._ c [ -. .] } c.z.T.*.B 4.5.X.S.3XtX6X;X;X6X5XQ.G 2 G ;.w.a.tX*X5X3X6X6X5X3X-X*X5X",
"hX; ^.(.y , P u.M.8.H F Q j.g.n.H.m.B.L.Y.&X<XiXY.G.5XrXrX5X-XY.i O   # } T.5X2XtX5X-X$X-X6XrX9X-X5X",
"LXzXz.} X   V AXbXvXvX8X0.>.,.R.V.E w &.a.$X$X&XD.5X5XrXrX9X5X-X-.4 X # m e.D.;XY.Y.5XY.-X-XG.G.3XD.",
"iXH.H 1 @ % ; |.MXmXgXzXa.=.=.-X!.E 7 &.7XFXeX4XG.G.5X5XW.rX5XG.E.$.1 g { p.3X0XW.W.W.yX5XA.G.K.3X6X",
"K.N.( U <.,.3.kXfX/.dX4XpX0X4X#X!.L 8 Y v.qX6XD.5X5XY.5X5X5X5XrXuXS.a.p.v.7XOX0XBX9X3X6X6X5XA.A.*X*X",
"G.FXiXV.;.#.#.x.o.@.|.0X&X*.5.qXqXu.*.r.-X:XA.K.-XY.Y.rX5X5XY.5X-X&X5X0X8X7XXXoX0XoX[.[.6X6X6XG.Z.$X",
"7XuX7Xt.E 7 2 G ; ; O.CX:.O , <.pX8XE.9XpXtXrXQ.-X-X5X5X5XrX5XrX-X*X5X0X0X3X3X3X0X4X{.[.eXwX0XU.5XrX",
"BXs.9.;.>.d u 8 o.O.kX8XE.>.d ;.2.K $.w.8X,X4Xv.5XY.5XG.5XrXrX5X9X5X*X5X;X*X6X6X5X;X0X3X3XI.V.0.I.c.",
"E.R R K 3 ,  .,.k c.GX@XM.uXwX'.< o < ] .XxXxX|.-X5X-X-XY.Y.5XrX7XT.6X0X6X-X;XtXK.<XyX5Xt.U b 8 m N ",
"`.L. .r a p r d $.J W V._.DX9XI O . @ Z .X,XpXN.[.*X5X5X6X0X8XZX4X-X5X5X5X3X5X5X;XD.rXSXj.4 + = & & ",
"@X2XH.&.>.u y y ] B j J N 4.z.u.t 3 < V ~ {.&XC.6X6XrX5XY.U..X.X5X5X5X;X-X6X=X5XC.Z.5XF.C # X % x x ",
";X=Xp.I b =.-.6 $ g j j v B ~ XXzX6.2.q.U.8XZX8X*X$X-X-X5X9X7XOX6X-X;X5X5X-X5X5XrXF.q.^ %.$.] z | [ ",
"NX^.+.| %.T.I.j 5 B 1 1 1 $ Z FX X}.p.Y.6X6XVX8X*XD.D.5X0XZXVXCX3X5X5X5X5X4X-X6XY.( k l 2.e.e.4.5.5.",
"NX/./.7XVXSX5X~ < 2 2 7 M 4 j D.nX].z.Y.rX;X6X=XyXrX5X5X5X7X7X7X6X-X5X-X6X5X4X5X) U k I A A p.ZX8X3X",
"eX'.:XpX1Xy.9.v.1 2 2 P ] z Z p.bXkXv.rX<XtXtXY.I.U.U.*X*X$XY.3X3X5X5X4X-X5X-X-XG.^ C A A A y.FX0X0X",
"aX2X@X<Xu.I ~ BXY.^ U j & ` |.FXxX}.s.D.Z.S.j.&.$.8.U.3X6X-X-XrX;X5X4X5X5X3X5X6XtX/ D c A 3.7.u.-X5X",
"T.CX_._.`.e.! U.qX=X6XVX|.(.xX XAX{.-XtX6Xh.-.y N =.T.tX6X&X&X<X5X5X-X5X5X;X-X3X-X7Xz.{ X.5.7XuX*X5X",
"BXv.y.S.6XyX9XF.-.T ( |.jX> > gX-X-X;X;X3Xw.' 7 y $.) {.;XW.5X;X6X6X5X5X6X5X5X6XrX5X5X5X5X5X-XY.6X9X",
"0X5XD.*X6XY.a.! a #.U .XnXgX].|.D.$X=X6X5Xc.;.#.u %.{.%X-XY.3X%X5X6X5X6X5X6X6X5XY.5XW.5XY.5X-X-XG.G.",
"6X6X5X-X5X9X9.b p 7 J c.xXxX.X@XF.D.&X;X6X6XE.L.w.a.&X<XY.Y.0XeX5X5X3X5X5X4X-X6X-X-X5X5X-XG.G.G.5X5X",
"D.rXtXD.G.9Xz.R a u T a.VX0X&XM.Y.U.Z.$X;X5X6X9X0X6X;X<XY.7XeXeX*X5X;X5X*X5X5X-X-XY.G.5X5XG.G.D.rX5X",
"&X;X&XZ.G.yX9Xc.j.8.y.$X5XY.S.A.yXY.5XD.&X-X5X5X6X;XA.G.7XCXoX{.5X3X-X*X5X*X-X5XG.Y.-X5XY.G.G.D.D.G.",
"6X5X-XZ.Z.yXBXR.rX$X{.>X5XW.9XSX9XrX6X5X&X-X&X&X=X&X-X0XAXxX.Xy.;X3X5X6X6X5X5X6X5X-XY.5X5XG.-XG.-XF.",
"9X6X-X&XA.rX9X5XK.$X=X6XJ.V.S.b.3X3X6X9X6X5X-X$X*X5X9XAXxXlXOXG.5X5X5X6X5X6X5X5X5XG.5X5XY.-X-XG.5X5X",
"9X3X-XtXrXA.G.G.J.5X4XG.m.F 2 g i.s.3X6X9X3X-XG.9XY.9X|.].].oXsX6X5X6X5X6X5X5X5XrX5X5XrX5X5X5X-XY.-X",
"8X8X[.p.i.0X6X*X-X$XrXyX&.< O = { z.3X&XD.6XyX9X%X$XY.R.R.U.4X;X5X5XY.-X5XG.Y.G.6X-XD.D.9X5XW.G.6XrX",
"0X0X3Xi.[.0X8Xi.6X5X5XD.Y # X % V 5.6X5X-X-X6X3X-XA.q.&.P U u.5X5X5X5X-XG.5X-XG.6X3X*X$X-XG.F.C.G.G.",
"-X5X6X5X8X0X4Xd.D.-X5XG.8.C z _ V y.0X6X&X-X0X3XJ.F.B.P 2 2 W Y.5XY.Y.-X-XG.Y.G.;X;X5X6X6X-X-X*XG.G.",
"<X<XtX5X8XVXoX.XD.5XrX5X*Xv.z.h.p.U.6X5X$X-X6X0XG.G.E.:.L U r.R.rX5XrX5X5X5X5X5X*X4X0X6X0X6X5X0XG.5X",
"J.<X<X5X6X0X8X8X9XrXyX5X3X3XXXp.0X0X6XD.$X5X6X0XY.6X0X9XU.I.7X9XG.5X5X5XY.-X5X5X*X5X5X6X-X-X4X-XrX5X",
"<X-X-X-X3X0X0X0XG.rX-X-X5X5X*Xs.5X3XD.*X6XtX6X*X0X6X6XwX0XwXwX0XS.G.G.G.G.G.G.G.rXrX5XrX5X5X6X-XY.5X",
"-X-X-X5X5X6X3X6XG.D.D.3X9X9X6XrX&XD.*X5X9X5X-X5X5X6X6X6X4X6X6X7X-XG.G.G.-XG.-XY.Y.F.H.S.G.9X5X5XG.-X",
"5X3X6X6XrX&XG.J.-XG.S.9XY.Y.Y.W.6X;X-X-X3X5X5XtX-X<XtX1X-X*X*X5X5X5X5X5X9XrX6XrXV.( W ( C.G.G.G.-XY.",
"G.G.-X5XrX-XrXrX6X6X-X6XtX<XG.-XrXG.5XY.5XrX5XY.*X*X*X3X3X6X6X6XH.w.} [ 3.3X;X@XV.w 0 w N p.8XF.D.5X",
"tXrX-XA.Z.G.&XA.6X3X3X6X6X5XG.-XrX5XG.5X5X5XrX-X*X5X5X5X9X6XtXyXF.N X @ n w.3XuXQ.:.e w R 7XuXS.Y.6X",
"tX5XG.S.-XrX<X5X7X3X[.7X6XY.G.-X5XY.G.5XrX5XY.Y.*X5X6X5X-X-X6X6X:.1   + 5 9 M #.l L.P.:.a.3X*XZ.&X5X",
"-X-X-X5XrX5X9X9X3Xs.U.3X3XD.Y.5XrX5X5X-X5XrX5X-XD.*X5X5X$XD.*X5X^ M $ 5 ] 8 < < h s.SX9X6X5X$X;XS.G.",
"<XrXrX-XD.D.U.6X3X3X3X9X9X5XY.6X5XY.-XY.Y.rXrX5X*X*X6X3X*X*X5X5X&Xv.e.4.w.r.8.=.p.oX[.D.iXtX*X6X-X5X",
"rXrX5XG.Y.3XuXDX7X7X8XuX9X5X9XyXrX5X-X5X5X5X5X-X5X5X-X6X5X6X6X6X:XqX0X[.$X-X0X9X6X6X=X$XF.0.! 7.S.-X",
"<X-XG.G.9XBX9X3X5X4X6X0XrXG.&XrX5XY.G.5XrX5X9XG.3X*X$X3X6XtX6X5X$X*X0X6X;X&X*XU.S.;XqXi.H G b D ) C.",
"rX-XZ.9X0XI.~ k *X*X*X5X-XZ.Z.-XrX5X5X-XY.rX5X5X$XZ.i.S.5X5X5X*XrXD.D.tX&XM.D.SXiX-X@XH 2 P =.c ! u.",
"<X-XG.-X5XY.q.! 5X5X-X-X6X5X6X-X9X6XlXfXL.e &.e G U Z 3.OXtX5XrXG.5X-X5X5X5XG.5X6X<Xu.|.X.F H ` 1.T.",
"<X-XG.-XrX6X5XD.3X5X6X3X6X-X-X3X9X&XlXfXB.0 &.q F J m { z.6XG.9X-XG.Y.5XY.-X5XG.3XJ.i.|.g.k F ; { 7X"
};
