/* XPM */
static char *bg11669811186[] = {
/* columns rows colors chars-per-pixel */
"50 50 253 2 ",
"   c #146705",
".  c #1B7407",
"X  c #31761B",
"o  c #29740D",
"O  c #257B34",
"+  c #167033",
"@  c #437C1E",
"#  c #647246",
"$  c #6F735A",
"%  c #C17177",
"&  c #1A8C0E",
"*  c #2A8609",
"=  c #388A09",
"-  c #289505",
";  c #33940B",
":  c #3B940C",
">  c #379907",
",  c #2C8B18",
"<  c #378914",
"1  c #269414",
"2  c #329414",
"3  c #3C931B",
"4  c #3B9D1D",
"5  c #389918",
"6  c #38A907",
"7  c #2DBC0D",
"8  c #2CA712",
"9  c #38A616",
"0  c #39B519",
"q  c #2EAF0F",
"w  c #1D8D37",
"e  c #16942C",
"r  c #288926",
"t  c #348D26",
"y  c #2A9726",
"u  c #3C9C2B",
"i  c #38962C",
"p  c #2E8C35",
"a  c #389634",
"s  c #349038",
"d  c #37A228",
"f  c #3CA439",
"g  c #37B621",
"h  c #488A09",
"j  c #4B9B0B",
"k  c #489609",
"l  c #539C0D",
"z  c #5A990C",
"x  c #438C14",
"c  c #488A15",
"v  c #439413",
"b  c #4A9C12",
"n  c #4B951D",
"m  c #4C9C1D",
"M  c #459818",
"N  c #549D14",
"B  c #589E14",
"V  c #539D1B",
"C  c #599E1C",
"Z  c #549418",
"A  c #528710",
"S  c #609E1B",
"D  c #47A50B",
"F  c #55A50C",
"G  c #58AB0A",
"H  c #4DA615",
"J  c #47A719",
"K  c #55A515",
"L  c #5AA314",
"P  c #53A31B",
"I  c #5BA51B",
"U  c #5AAB1B",
"Y  c #55AB17",
"T  c #49B516",
"R  c #56B41A",
"E  c #66B908",
"W  c #65A818",
"Q  c #63B41D",
"!  c #6BB41D",
"~  c #68B719",
"^  c #73BA1B",
"/  c #69A814",
"(  c #498C26",
")  c #578F26",
"_  c #4C9D2B",
"`  c #489826",
"'  c #549422",
"]  c #539C23",
"[  c #579929",
"{  c #449B33",
"}  c #479735",
"|  c #589A34",
" . c #629D25",
".. c #669827",
"X. c #77972B",
"o. c #629634",
"O. c #759C3E",
"+. c #4DA32B",
"@. c #47A825",
"#. c #53A423",
"$. c #5CA423",
"%. c #5CAB22",
"&. c #5CA32C",
"*. c #57A829",
"=. c #49B625",
"-. c #5CB325",
";. c #5CB62D",
":. c #49A632",
">. c #58A936",
",. c #5CB731",
"<. c #46B036",
"1. c #63AB23",
"2. c #65AC2C",
"3. c #6AAD2D",
"4. c #67A725",
"5. c #74AB28",
"6. c #65B322",
"7. c #6BB523",
"8. c #6DBC23",
"9. c #6CB32B",
"0. c #64BB2B",
"q. c #6CBC2C",
"w. c #64B828",
"e. c #72BB23",
"r. c #7CBD24",
"t. c #71B42C",
"y. c #75BB2C",
"u. c #7BBE2B",
"i. c #72B625",
"p. c #67A837",
"a. c #78AB38",
"s. c #61B130",
"d. c #6DB331",
"f. c #66B932",
"g. c #6BBC33",
"h. c #63B43B",
"j. c #6DBB3C",
"k. c #6AB139",
"l. c #73B332",
"z. c #74BB35",
"x. c #7BBC32",
"c. c #78B739",
"v. c #31C900",
"b. c #75C608",
"n. c #74C41E",
"m. c #7CC41D",
"M. c #77CC19",
"N. c #72D019",
"B. c #5FC325",
"V. c #6AC329",
"C. c #74C225",
"Z. c #7CC426",
"A. c #7DCB25",
"S. c #74C32B",
"D. c #7CC52C",
"F. c #7EC92D",
"G. c #74CB29",
"H. c #7BD229",
"J. c #6DC433",
"K. c #74C334",
"L. c #7CC533",
"P. c #75CA32",
"I. c #7DCA32",
"U. c #74C43B",
"Y. c #7BC33B",
"T. c #7CCA3A",
"R. c #74C93B",
"E. c #7BD537",
"W. c #63D235",
"Q. c #1E9948",
"!. c #2F9049",
"~. c #4C9A49",
"^. c #559E44",
"/. c #78865D",
"(. c #758E4B",
"). c #58A640",
"_. c #68B744",
"`. c #78B74A",
"'. c #7AA455",
"]. c #73AD49",
"[. c #7B8F64",
"{. c #7BC946",
"}. c #6ECD4F",
"|. c #83A918",
" X c #8A963C",
".X c #A19235",
"XX c #83B82A",
"oX c #87AD36",
"OX c #82B334",
"+X c #85BD34",
"@X c #83B43B",
"#X c #85BD3A",
"$X c #8ABD39",
"%X c #8BB834",
"&X c #99A82B",
"*X c #A0BE3A",
"=X c #8CC915",
"-X c #8AD71C",
";X c #8EC60F",
":X c #82C425",
">X c #84CD26",
",X c #82C52C",
"<X c #82CA2E",
"1X c #89CB2D",
"2X c #8AC926",
"3X c #84D22D",
"4X c #8BD32D",
"5X c #89D726",
"6X c #95D428",
"7X c #83C533",
"8X c #8AC532",
"9X c #83CC32",
"0X c #89CC33",
"qX c #84C33B",
"wX c #8BC53C",
"eX c #84CC3A",
"rX c #8ACC3B",
"tX c #94C93B",
"yX c #85D134",
"uX c #8AD335",
"iX c #85D23B",
"pX c #8BD23A",
"aX c #8BDA3A",
"sX c #92D233",
"dX c #93D33A",
"fX c #91DF3D",
"gX c #90CE2D",
"hX c #8BE22D",
"jX c #899349",
"kX c #939551",
"lX c #A99056",
"zX c #84A84B",
"xX c #8AB847",
"cX c #93B54A",
"vX c #95A959",
"bX c #91B14F",
"nX c #828562",
"mX c #869C65",
"MX c #989061",
"NX c #BB9568",
"BX c #84A763",
"VX c #B4AC65",
"CX c #84CB41",
"ZX c #8BCD42",
"AX c #89C54A",
"SX c #97C949",
"DX c #85D241",
"FX c #8CD341",
"GX c #89D649",
"HX c #94D745",
"JX c #93C259",
"KX c #9FD354",
"LX c #A3C660",
/* pixels */
"9X9XyX9X9XyXyX9XyXF.L.eXCXeXeXpXE.vXkXr.A.$XSX>X5X>X<XpXeXL.P.P.pXiXFXeXu.pXiX~ / P.aXsXoXMXcXM.pXaX",
"D.F.F.F.F.9X9XF.A.HXI.l L CXpXF S./.$ r.4X'.BXA.~ G U Y.U.P v J ! 7.7.I C %.1.k o.S.G.) # jXa.*.W 7X",
"D.F.F.D.F.I.I.F.<XuXZ.Q 7.eXeXu.P.mX/.0X4X'.zXE J b H 1.1.v * * 7.q.-.5 4 { ( ) a.E.G.| (.'.c.@./ Z.",
"F.9X9X9X<XyX9X<X<XZ.L.HXpXD.L.HXG.HXSX8X2X1X,Xz 5 H B z S d.;.9 2.j.<.1 d :.+.p.6XI.P.G.Y.`.J.b.7XrX",
"F.yX9X9X9XyX9X9XS.9XpXF.D.9Xu.7.G 1XdXXXZ.5XaX! b B Z z 5.SXGXK.( { r e y ` ] l.-X! P R Y M P N.rXHX",
"F.9X9XF.F.9X9X9X9XuXF.^ Z.aXL.L z _.'.%XC._.}.c.W N A [ l.x.XX,X| u t , , 3 v W p.C m s p ; b | L u.",
"F.I.F.F.D.9X9XI.aX,XC.>XuXpXeXL.XX{.`.SX7Xg <.2.+X$.` a { m W 2XR.;.@._ ` ( V C o.&.:.!.s 9 @.| B i.",
"F.9XyXF.F.9XyX9XS.>XuXyX>X<X9XeXsX-X>XSX#X6 6 n x.h.:.w e { y.sXN.G m | ' | p.&.Z.k.} - - y | 5.rXrX",
"eXeXeX9X9X9X9XF.SXOXOX5.U.GX0XgXGX1.8.yXG.G v :.V.~.O w Q.y j.BXjX(.W ^ >X/ D f.>.s.k j 2 , * U 5.rX",
"D.I.9XD.F.yXyXyX1XwXSXl.%.;.6.,Xm.B ' z.M.E -.).hX_.( i p r | # X.xXeXG.aXL.` o . *.6.P 1 u 2 = 2.wX",
"F.3XyX9X,XF.9XI.,X0XeX%.5 T D K 7XeXl.GXDX8.E.CX-X2.3 i p } bX[.OX7XP.iXGXj.<     c 9.g.5 1 1 ; Z l.",
"A.<X4XyX9X9XI.D.>X<XP.J 8 g 8 6 o.HX-X9X| X U b.E.| ( 9 t *.pXc.l.%.H J -.m < . * c p.g.2 1 d d  .qX",
",XF.D.Z.F.yXyX<Xm.uXfX=.q g 9 d ) dX^ ^ | X C E @.t 2 D t #.n.j [ >.@.; : s.;.8 2 *.j.] = 9 =.2 3.wX",
"pXiXL.u.D.9XyXyX3X3XE.T q g 5 3 ^ eX1.t.DXR.{.h.> - & - X | R.:.{ a f ` _ f.J.6 9 M 2.$.Y H m = 4.0X",
"z.qXCXeXL.F.9X<XuX:XS.T q 0 3 h ^ y.] I E.A.*.~.d f - > @ o.Y.f.@.. , } _ ' J > 0 ; n 1.9XG C  .z.HX",
"=  .Y.CXeX9X<X3X,X,XiXB.0 9 x  .L.FXeXC.I.-.< a + !.u K O.oX6Xn.,.d i a ( >.*.- 7 9 m c ,X,XqXxXa.AX",
"o c U.L.<X^ dX0X>X1X0X9XL.t.4.C z.%.Y 6 > J m >.} t 3 _ 2.! n.E.4.B P C S O.h.u v.8 u >.L.HXvXnX(.(.",
"@ ' Y.aXaX9XrX7X>X<X0XrXrXqXqXCXk = : ; ; : = x R 1..... XlXNXVX! V.{.{...A v u 9 * ( d.3X5XAXzXzXxX",
"S C 9.{.P.P.R.T.7X9X9X7XeXrXrXrXm = : ; ; < x p.V.].O.X..X% % lX~ w.J.CXSXa.3.k.I c Z z.>XM.1X8X+X7X",
"3.W Y V.D J J ;.rX0X9X7X,X7X,X<X: * : 5 : h @ [ eX/.$ oXxXMX(.D D k > W KXKX@Xl.9. .5.x.M.H.uXtX,X,X",
"rXL.Q V.> > : H 7X9X7X9X9X0X7X<X%.k : = h v ' ].wXBXmX7XyXJX0.v.6 K l z x.rXXXXXS.I.Y.y.6.+XSXcX0X,X",
"rX9XL.E.-.R U Q ,X7X9X9X0X<X1X,XGXJ.8.K K I $.d.=XAXxX|.&XLXAXG b I B z 7.L.8X8XG.iX9XQ #.c.cX X0X8X",
"<XF.pXiXI.F.9X7X<X>X7X1X,X<XZ.Z.C.S.aXiX9XP.K h ;XE.E.&X.XzX`.X.V A @ z 6.E.yXXXE.yX<X8.$.j.AXoXF.yX",
"1XZ.yXe.9X7XdX:X:X,X,X,X7X9XwX9XuX3XuXZ.,XHX9XK.tXW.}.VXlX_ 9 5.xXS X.@XP.E.aX2XwX1X<XC.w.J.iX1XH.I.",
"<X<X9X9XF.I.<XyX9XF.I.9XyX9XyXI.xX#XqXqX7X9X9X9XyX3XF.9XT.L.y.t.yXiXyX1X1XuX0X9X2X5X5XR . o p.rXyX9X",
"<X9X9XyX9XF.I.9X9X<XF.<X9XyX9XyX7X#X7XqX7X7X9X<XA.Z.<X9XyX<X9X9X9X9X1X1X1XdXeXI.U.q.g.s.+.k.ZXsX9XuX",
"I.9X9X9X9XI.<X9X9X9XI.<XI.9XyX9XwXwX9X8X7X,X<X4X0X8XgXsXuX<X,X4X<X9X<X<X0XeXR.f.f p s | d.pX6Xm.,X7X",
"F.9X9XF.F.F.F.9XyX9XD.D.F.9X9X9XpX0X0X9X<X1X<X3XtX$X%X0XrX9X>XG.<X>X1X<X9XR.f.#.e w !.^.y.6X4X7Xu.Z.",
"F.F.<XI.F.F.F.F.yX9XF.F.F.9XyXF.9X9X<X,X,X>X,X1XoXa.5.x.wXeX9XL.<X1X,X,XL.K.f.@.e w !.{ 6.m.F.DXZ.:X",
"F.F.9XF.F.F.F.9X9X<XF.F.9X9XF.D.9XyXyX<X0XyXyX0XcX@XoX#XrXeXT.L.9X9X1X<X9XeXK.0.y y t 3 6.L.T.{.D.,X",
"F.9X9X9X<XI.9X9X9XI.<XI.9X9XF.D.F.I.yXyX9XrX0X0XSXwXwXwXeX9XI.9X9X9X1X0X0X0XL.L.(.].1.W T.GXZXdX9X0X",
"9XyX9XyX9X9X9X9XF.F.F.yXyXF.D.Z.V.C.S.F.7X,XL.+X:X,X1X0X,XA.<XaXyXuXyX,X2X1X9XL.$ vX%Xr.qXqXXX=X9XrX",
"I.I.F.F.D.,X0X0X7X,X:X,XaXiXB.9 g - T P.Q Y I v W u.F.A.5X<X+XSX=XP.{.{.iX2X>X9Xp.].CXy.k K AXAX%X$X",
"F.F.F.F.<X,X7X0X9X7X,X<XuXT.w.J J > Y w.F j I n ..qXeXA.<X9XOX%X3XU : b ^ sX9XS.c $.T.eX! e.qX+X@X+X",
"D.D.F.I.<X9X7X9XD.<X<X,X,X9XF.J.0.R 8.e.F j K V c c.CXS.I.rX#X@XsXiXE.eX0X1XeX{.Q w.J.f.9.L.7X1X+X+X",
"I.I.9XF.yX9X<X<X<X9XF.r.Z.<XuX0XiXF.iXpX! L C b A t.eXF.<XpXwX7X8XL.F.3X1XD.%.< E.J.%.M #.t.,XgXwXwX",
"uXyX9X9XyX9X9X<XyXiX9XL.L.7X,X:X0X1XrXuXL.9.1.B l.,X1X3X>X>X<X<XrX0X>X4XdXSXj.+.V.;.n < | k.7XgXwXrX",
"0X,X,X<X9XyXF.Z.u.9XDXeXeX9X7XZ.1X,X:X9X9XeX7X7XrX:X3X4X>XF.I.F.7XyX3X,X+Xc.9.J f.#.x < m 3.+X8XL.,X",
",X,X<X9X9XD.~ ~ W 7.K.U.K.K.9XuX,X0XI.F.yXpXrXdX0XZ.<X1XF.iXT.6.DXyXA.7XSXcXl.k ZX9.%.U L 7.9X8X9X<X",
"0X7X9X<XF.e.G j z I %.P b H 8.yXZ.eXyXI.yX7X:X1XyX1XuX7XS.CXU.k F F.fXrXa.zXrXfXpXu.9XuXe.A.dX,XuXyX",
"<X<XA.<XuX! k C z Z ] #.M K 8.yXyXF.I.9XF.9X<XyXI.9XyX9X9XF.Z.S.P.F.>XF.7XZXrX<X9X9X0X0X7X9X0X7X0X0X",
"F.<X<X>X<Xi.B j C M *.j.g.q.F.<X9X<X<XF.<XI.I.9X9X9XyXyX9X9X9XF.9XyX>X>XeXHXuX:X7X9X9X9X<X0X0X<X<X7X",
"D.F.9XF.r.D.i.l ' x P I.pXuX7X,X9XI.9XF.F.9X9X9XF.F.F.9X9X9X9X<XK.9X4XF.D.u.F.:X7X7X<X,X,X9X,X<X7X,X",
"F.Z.F.<XS.9XeX1._ = k V.3X<X,X7X9XF.9X<X9XF.F.9X<XD.F.F.<XI.I.F.DXyX3XF.Z.L.9X<X,X0X<X0X9X1X7X9X9X0X",
"iXS.D.yXZ.9XpXeXh.m Y Z.>X>X0X0XyXF.<XI.9XF.I.9XyXyX9X9X9XyXI.F.GXP.C.F.aXHX9X>X7X9X9X0X0X0X7X9X0XuX",
"eXF.<XyXF.F.eXpX{.g.D.rX0X,X,X7XI.9X9XF.F.9X<X<XpX9XI.9X9X9XF.Z.m I C.4XF.9.e.9XyX0X0X9X0X9X0X0X9X0X",
"i.9X0XF.F.F.I.9XF.D.wXFXqX9X9XZ.9XF.9X<XF.9XI.9XyXI.F.<X9X9XZ.e.= V P.yX! j U iX0X1X0X0X9X0X9X0X<X<X",
"K eXpXe.F.9XL.D.A.Z.7XqXqXpXuXG.9X9XF.I.F.9X<X9XyX9X9XyXpXyXD.Z._.s.V.I.I.9.9.L.7X,X<X7X,X9X<X,X7X9X",
" .L.3X>X9XeX7X0X<X9X9XF.F.F.F.I.<X9X9X9X9XI.yX<X<X9X<XF.yXD.q.K.3.ZX,X0XrX9X9X<X9X9XT.I.<X9X9X9X9X9X",
" .x.<X,XI.9X7X0X<X<X9XF.F.F.F.9X<XI.9X9X9X9X9X9XF.<XF.A.F.! K Y S qX:XZ.u.7.D.>X9X9X3X9XF.9X9XyX0X0X"
};
