/* XPM */
static char *bg21669811186[] = {
/* columns rows colors chars-per-pixel */
"50 50 255 2 ",
"   c #1A6B05",
".  c #1A7704",
"X  c #136C0E",
"o  c #2A780F",
"O  c #127422",
"+  c #2A7224",
"@  c #377829",
"#  c #125810",
"$  c #517F41",
"%  c #737A4D",
"&  c #807942",
"*  c #1E8711",
"=  c #2C890A",
"-  c #348302",
";  c #338F0C",
":  c #2C9B07",
">  c #379809",
",  c #268918",
"<  c #3B861C",
"1  c #358A18",
"2  c #2A9716",
"3  c #3A9B14",
"4  c #36951C",
"5  c #3B9719",
"6  c #29AB0A",
"7  c #36A509",
"8  c #2BAB12",
"9  c #3BAB1A",
"0  c #37A816",
"q  c #27B415",
"w  c #3CB41B",
"e  c #32B60B",
"r  c #1D862E",
"t  c #278624",
"y  c #368B26",
"u  c #279625",
"i  c #3D9D2B",
"p  c #3B9523",
"a  c #258D39",
"s  c #3A9939",
"d  c #39A622",
"f  c #35B425",
"g  c #39A43B",
"h  c #31B12A",
"j  c #4A8C0B",
"k  c #498B0D",
"l  c #439B0A",
"z  c #49990A",
"x  c #579809",
"c  c #468918",
"v  c #528E13",
"b  c #4C9315",
"n  c #44951C",
"m  c #4B9C1D",
"M  c #479917",
"N  c #539515",
"B  c #539C13",
"V  c #559A1C",
"C  c #57981A",
"Z  c #609C14",
"A  c #609400",
"S  c #42A10B",
"D  c #49A708",
"F  c #58A90A",
"G  c #57B206",
"H  c #4BA413",
"J  c #4BAB16",
"K  c #47A818",
"L  c #54A21A",
"P  c #5CA41C",
"I  c #54AC1C",
"U  c #58A716",
"Y  c #47B418",
"T  c #5BB41D",
"R  c #56B81A",
"E  c #4BB300",
"W  c #63AC1D",
"Q  c #67A81A",
"!  c #68B71C",
"~  c #79BB1C",
"^  c #70A91C",
"/  c #4C8A27",
"(  c #4D9B24",
")  c #479728",
"_  c #539D22",
"`  c #599828",
"'  c #419636",
"]  c #588822",
"[  c #629A25",
"{  c #709530",
"}  c #4DA424",
"|  c #49A528",
" . c #55A225",
".. c #5AA420",
"X. c #5BAC23",
"o. c #53A32A",
"O. c #5BA42B",
"+. c #56AB28",
"@. c #4DB627",
"#. c #5BBA23",
"$. c #5DB32A",
"%. c #57B626",
"&. c #46A738",
"*. c #55A334",
"=. c #5BAA35",
"-. c #59A638",
";. c #5BB834",
":. c #4AB033",
">. c #63AD25",
",. c #6CAB24",
"<. c #65AC29",
"1. c #6DAE2B",
"2. c #66A526",
"3. c #75AE2C",
"4. c #65B323",
"5. c #6BB423",
"6. c #63BC24",
"7. c #6BB925",
"8. c #63B22A",
"9. c #6CB42B",
"0. c #65BB2B",
"q. c #6CBC2B",
"w. c #74B525",
"e. c #7CBD25",
"r. c #72B52A",
"t. c #73BC2D",
"y. c #7BBC2B",
"u. c #77B925",
"i. c #6CAC34",
"p. c #66AA38",
"a. c #78A937",
"s. c #6BB433",
"d. c #65B937",
"f. c #75BC33",
"g. c #7CBE32",
"h. c #78B735",
"j. c #5EC009",
"k. c #6BC21F",
"l. c #79C51B",
"z. c #79D319",
"x. c #7CC40B",
"c. c #5DC325",
"v. c #6AC324",
"b. c #6DC32C",
"n. c #65C629",
"m. c #75C224",
"M. c #7CC425",
"N. c #75CB23",
"B. c #7BCB25",
"V. c #75C32C",
"C. c #7CC52C",
"Z. c #75CB2C",
"A. c #7DCA2D",
"S. c #7BD12C",
"D. c #79DB24",
"F. c #6BC634",
"G. c #75C433",
"H. c #7CC433",
"J. c #74CB33",
"K. c #7DCB33",
"L. c #7BC43A",
"P. c #76CC3A",
"I. c #7CCB3B",
"U. c #77C43C",
"Y. c #7BD234",
"T. c #7DD33A",
"R. c #79D63A",
"E. c #69D037",
"W. c #259642",
"Q. c #309045",
"!. c #768F4A",
"~. c #7B9353",
"^. c #779442",
"/. c #56B341",
"(. c #79A747",
"). c #71B448",
"_. c #6DB14D",
"`. c #6D8865",
"'. c #78C345",
"]. c #77CB47",
"[. c #85BC2C",
"{. c #8CBB2C",
"}. c #86B32B",
"|. c #87A335",
" X c #83BD35",
".X c #89B937",
"XX c #94BC34",
"oX c #98B537",
"OX c #8CAB2A",
"+X c #989A2C",
"@X c #87C81C",
"#X c #98C512",
"$X c #83C425",
"%X c #82CA26",
"&X c #89CC26",
"*X c #83C52C",
"=X c #8BC42D",
"-X c #82CB2E",
";X c #8ACC2C",
":X c #88C027",
">X c #94C42B",
",X c #84D22E",
"<X c #8BD22C",
"1X c #87D426",
"2X c #83C532",
"3X c #8CC433",
"4X c #84CC32",
"5X c #8ACC34",
"6X c #84C53A",
"7X c #8CC53B",
"8X c #84CC3A",
"9X c #8BCC3B",
"0X c #92CB35",
"qX c #92CD3C",
"wX c #94C738",
"eX c #85D134",
"rX c #8AD234",
"tX c #85D33A",
"yX c #8BD33B",
"uX c #8AD83B",
"iX c #84D934",
"pX c #92D23C",
"aX c #95D637",
"sX c #93E636",
"dX c #979649",
"fX c #9C9752",
"gX c #919051",
"hX c #A18055",
"jX c #89A746",
"kX c #96A04E",
"lX c #86B842",
"zX c #92BB42",
"xX c #95B746",
"cX c #95AE57",
"vX c #92B754",
"bX c #8EB155",
"nX c #A1AE58",
"mX c #988F68",
"MX c #9D9561",
"NX c #A28C68",
"BX c #8AAF62",
"VX c #A3BE61",
"CX c #82CB44",
"ZX c #8ACC41",
"AX c #87C548",
"SX c #95C844",
"DX c #84D242",
"FX c #8BD342",
"GX c #89D947",
"HX c #94D445",
"JX c #94DC41",
"KX c #93DF4B",
"LX c #84CA50",
"PX c #A2D84C",
"IX c #95E14B",
/* pixels */
"-X4X4X8XyXI.>.z -X4X4X4X4X4XeX4XY.=XoXzXd.f f ;.G H b 1.7X5X%X-XK.A.A.4X4XA.A.4XJ.uXB.G S D L ` Q y.",
"-X-XA.4X8XFX8XI.K.-XA.4XK.eX4X4XS.[.oX.X$.0 7 S D J C ` y.3X-X-X4X4X-XeX8X-X4XyX4X7XzX|.p.` v j Q w.",
"tX4XA.C.A.4X9X9XA.4X4X4X-XeX-XY.Z.3X{..Xq.Y H z D U C v ,.2X*X4X4XA.4X4X-XA.-XeX*X.XfXNXmX!.Z Z e.4X",
"yX4X-X-X*X%X$X$X4X,XK.4X4X4X4X4XS.5X>X=X4XJ.m.w.D x v v ,.3X4X8XA.A.4X-XA.A.4X4XrXoXdXhXhXkXh.m.$X4X",
"9X*XZ.eXyXrX;XrXK.4X-XA.4X4X4X-XA.eX;X;X4XrX9X*X! Q C 2.2X5X2XZX4XeXeX4X4X8X4X4XR.7XoX+X+X7X8XC.*X5X",
"5X*Xm.S.K.Z.4XyXeX4XeX4X4X-XK.4XtXK.A.%X-X5X*X2X*Xy.1.g.pX5X*X9X4X4X4XK.eXeX-XM.+.G.0X:X@X<XtXH.rXrX",
"0X;XA.J.6.I T q.4X4XeX4X4XA.K.-X8XC.Z.iXrX*X*X8X;X9X6X2XyX;X2XZX-XA.A.A.4XeXm.! 3 +.F.n.c.n.H.7X2X*X",
"=X5XuXY.#.7 l X.eX4X4XeXA.4X4XA.y.7.v.Y.rX;X-XtX~ qXyX*X%X;X4X7X4X4XA.4XrXyXM.! b } :.h q 0 >.wX4X4X",
"S.;X>XM.R 9 c |.oXwX[.-XrXeX$X9X)._ 8.6X4X*X<X-X*X4X5X*X4X4X5X*X;X4XY.P.E.b.b.E.>XA.T K 0 ; V HX8X4X",
"A.=XwX4Xn.Y j { [.2X*X4XuXZ.b.KXU.t.V.9X4X-X2XH.4X*X4X4X5X4X4X5X5X8XJ.6.J S K } f.f.0.$.8.<.r.7X4X4X",
"K.e.>X2Xb.E.y.SXZ.yX2X8X2Xl . 0 R.Y.S.-XpXyX4X6X*X4X4X*X4X5X5X4X-X4XC.T H > H L O.o._ b C r.2X*XA.A.",
"IX4XqX4XJ.Y.2XHXv.tX2X3XSX<.; d } $.X.W *X9XC.K.5X*X4X5X*X*X5X4XA.4XeXK.q.$.+.| &.i ( ` [ [.HXiX-X-X",
"H.5.2X9XK.uX-X$XZ.pX{.}.SXAX/./.t s ' _ L.9X-X&X4X*X4X;X4X5X4X4X-XeXeX4XL.f.$.n u u i p.i.t.eXN.8X4X",
"W x 5.r.5.4XrXeXeXaXwX}.zXlX=., Q.Q.' -.AXyX;X&X*X2X4X4X5X4X*X5XK.-X-XM.A.L.s.( 2 * , ( V W ! k.eX4X",
"HX! q.<.B w.2XC.m.A.pX9Xg.'.;.y a r y -.s.C.*X$X4X5X5X4X*X5X5X4XA.4XC.@X-XyXH.8.| | m n ..9.M.9XA.-X",
"HXt.I.L.,.7XFXK.uXV.C.b.M M ;.| g , 4 d.f.2XpX5X4X*X*X4X4X4X5X4XV.8X<X&X<XrXG.>.C i.O.V s.ZXXX{.eXeX",
"cX& % _.I.>X>XL.-X9XH._ < n X.! N.k.! 7.H.eXeX,XM.H.G.J.R.tXK.4X$XA.9XpX2XA.4X2XA.K.C.! u.Z.-XC.:.@.",
"3.cXbXo.S e.3XR >.9.t.<._ O.0.V.8X2XH.H.2X2X-XC.2XrXZ.6.#.T 4.H.8X-X-X4X2X4X9X8Xe.4X4X-X-XrX4Xm.0 7 ",
"rX.Xs.@.Y T 0.@.< _ 4.G.L.L.L.8X7XZXZX9X9X5X5X;X2XtXb.I l > m f.9X2X4X*X2X9XrXrXC.4XrX8XeXyXeXm.Y J ",
"sXF l | 9 = - 5 + < X.4XyX8X8X9X3X3X2X5X4XrX5X<XC.eXZ.#.J M } d.2X4X8X-X4X4X4X9X-X4X-XA.-XeX8XA.J.Z.",
"<Xv.X.4 X X o @ + c U C.4XA.g.4XrX,XB.B.S.,X-X;X-XyXK.J.P.d.o.o.W 2X8XH.rX4XA.4XeXeXA.m.C.-X4X4X4X5X",
"5X6.3 o # O t c / _ 5.C.4XC.*X*X,XB.N.N.S.rX0X0X8XrX4XeXtXF.m 1 B t.G.t.8X8XA.eX4X4X4X4X8XeXeXK.5X=X",
" X: .   + O o k 2.r.4X-X8X8X4XA.C.V.C.K.2XXXvXVX*X5X;XB.eXt.K n L f.5.W 2XtXC.eX4XK.4XeXrXeX4XA.5X5X",
"CXw 8 y + O , x Z e.5X4XK.I.A.l. X6X6X6XlXjXdXfX2X0X=X-X-XV.0.d.9.L.W U L.tXZ.-XeX-XA.4X4X-X4X4X4XA.",
"2XV.c.K H C N Q ] ~ ;Xg.h.;X9X(.% (.:X{.dXmXNXhXh.[.&XaX2Xo.y * K s.9X3X*XeXeX9X4XeX4XeX4X4X4X4XA.A.",
"rXV.Y 0 |  .<.2XlXu.~ C.2XrX6Xa.~.jX*X[.xXnXfXgX(. XrXrX7.M . X - P  X7X*X-XA.C.eXeX4X4X-X4XK.4X4X4X",
"9X! 6 6 d m >.9XuXCXGXS.Z.U.U.r.xXlX2XC. XxXjX^.!.(.2XB.R ; .   j ^ 6XqXyX5XrX4X4X4XK.-X4XA.-XA.eXeX",
"9XT e 6 f 3 N u.M.=.d.Z.k.o.*.! pXDXI.A.1X>X Xp.gXjX7XiXN.$.( ` C ,.g.g.*X*X4XC.4XA.4X4XA.A.-XH.4X4X",
"9Xv.e q f 5 V y.Z.o   I #.< < W &X-XG.C.&X;XeX].MXkXXX<XuX8XAXlX}.G.G.G.2X3X-XZ.A.K.-XA.A.A.A.A.A.A.",
"9X#.e 8 0 5 P 4X2XO.V L m ) O.P M.B.K.4X2X3X4XR.fX|.}.:X;X6X7X3XpXI.E.E.9XqX9XZ.4X-XA.4X4XA.A.*XA.A.",
"2X6.D 7 3 b 2.9X2XJXKXd._ t.9Xw.8X,X%X5XlX.XC.z.SX3X=X0X9X8X2XiX4Xc.w @.f.3X5XZ.4XA.4XA.4XA.2XA.4XA.",
"yXtXn.J m ` 9.8X5Xx.l.LXLX1X1X9XAX,X@X=XvXbX2Xz.S.%X;X9X6XH.Z.D.eXR 6 7 9.XXpXR.4X4X4X4XA.4XA.A.4X4X",
"C.Z.JXK.w.e.w.7.w.6XL.U.U.V.V.rXrXrX4XC.-X-XA.yXL.8XeXiX,XB.M.pXrXb.3 > s.8XA.,XS.S.-XeX4X4XK.H.2X4X",
"JXV.v.4.r.'.1.m k 8.>.x P A.eXt.b.J.K.4XyXeXA.-XK.A.u.m.eX-XV.G.2Xb.K K U.8XC.B.S.A.-X-X5X-XC.V.*XA.",
"uXI 7 l +.'.=.4 p p B P ~ 9XeXb.Y #.0.G.uXyXH.H.5X5X%XeXDXI.].CX-XC.q.q.8X3X%XB.B.-X*X*X3X4XA.V.A.A.",
"K.J K 0 | =.&.s g p P y.0X9XI.n.7 w K P t.6X4X9X~ *X4XyXG.B m ).;XeXK.K.9X5X5X-X*X*X*X3X5X4X4XA.A.A.",
"b.Y w 8 , y t t u | <.[ ^ 9XI.K 6 0 > > >.H.8XrX&X$X8XFX9.- - ;.;X-XeXA.*X5XrX,XeX9X5X3X7X5X4X8XA.4X",
"b.0 0 2 ; p 1 t u y ( _ N 9.P.#.q 9 3 M 2.g.2XB.aX5X2XFXGX9.8.CX;X$X-XA.e.3XeXV.L.8X8X9X4X2X2X4X4X4X",
"J.Y w 9 d -.-.-.| 1 p *.) } F.b.8 w 3 M 1.6XA.m.tX4X5.5.U.FXDXyX*XC.A.%X$X3XK.R R 6.I.8X2X*X*X5XA.-X",
"6.7 0 : ; c / ` L m *.) , +.d.D 6 0 3 b i.9X,XB.Z.DXq.N Q H.rXM.4XC.eXtX2X9XP.J > J b.8X2X*X3X5XC.C.",
"].G 7 ' @ A #Xa.a.[ ) ) j U 9.d.p.< k N ZX9X2X0XC.! K.aX4X2X9X*X&XrXB.,X4XH.P.K > U G.qX0X;XM.C.A.A.",
"HXyX9.p.{ { kXVXh.V o.U.G.u.C.DXi.i.i.N q.8X2Xm.eXV.A.yX*X-XyX9XM.%Xm.,XeX4XJX;.H I t.4X5X*X*XK.A.4X",
"oXjX/ Z .X~.~.zX0X4.d.GXuX-Xm.A.g.AXHX5.H.DXT.R.4Xm.Z.-XM.M.5XrX9XtXA.eX$XA.T.c.0.q.V.2X;X-XK.4XC.A.",
"jX`./ ^ aXvX.X@X4XF.;.;.q.$XB.! 0.U 0.Z.tXq.U K.M.m.-X8X*XA.%X-X X XG.2X[.=XyXK.P.I.4X4X4X*XA.C.C.C.",
"BX~.].].M.*X,Xz.=.| d i  .H.9XV.Y : 7 V.9X^ x *XB.-X4X8XrX8X-X;XSX.X2XwX{.{.3X4X8XY.K.4X*X-X4XC.-X4X",
"'.F R +.B 7.C.;.&.t r s -.f.8XyXw 7 S 7.9XHX}.PX,XeXV.q.6X8X4XrXzXa..XqXXXXX}.9XV.C.A.%X-XeX4XK.A.A.",
"Y.E 7 ; O.CXJ.;.g r r Q.*.9.*X*X@.H B r.2XHXu.8XA.4X5.P f.6X2X;X<.b t.6X9XSX6XDXC.C.A.B.A.A.K.8XA.-X",
"F.%.| 5 ).HXl.1Xs W.W.a p r.;X~ CXf.9.9X7XI.D Y K.2X<.P g.CX2X4XI.T J.].H.f.B I 5X4XeX,XS.A.4XtXeX4X",
"V.4.B U Z.iXZ.V.L X.>...4.G.Y.eX%X-X5X5X4XM.w.^ 5X4X5X5XeX;X4X5X-X%X-X-X*Xe.! Q 5X5X4X4X5X5X4X*X4X*X",
"eXH.9.9.2XtX-X-X8XCXL.f.t.H.4X4X*X;XrXrXyX9X8X8X4X5X5X4X5X4X5X4X-X;X5X5XyX9X2X2X4X5X4X5X4X5X4X*X4X5X"
};
