/* XPM */
static char *_c25ed9a0db74c8f8c478d67b756fb5dfV5un13Ld24tAfIU[] = {
/* columns rows colors chars-per-pixel */
"50 50 250 2 ",
"   c #175E08",
".  c #196D07",
"X  c #177708",
"o  c #166C16",
"O  c #1D7916",
"+  c #267900",
"@  c #257706",
"#  c #227617",
"$  c #32700E",
"%  c #247525",
"&  c #387B24",
"*  c #677930",
"=  c #775D5C",
"-  c #7D7449",
";  c #1A9A0F",
":  c #2D8705",
">  c #3A8A04",
",  c #368B05",
"<  c #2C9B06",
"1  c #35950A",
"2  c #29891B",
"3  c #3C8E12",
"4  c #358C18",
"5  c #369B15",
"6  c #3E9C11",
"7  c #3A9716",
"8  c #2B921D",
"9  c #28A706",
"0  c #38A609",
"q  c #2CAA14",
"w  c #3AA918",
"e  c #33B413",
"r  c #1E8529",
"t  c #1D8D38",
"y  c #159328",
"u  c #2C8B2B",
"i  c #258524",
"p  c #3A8D23",
"a  c #328E21",
"s  c #399121",
"d  c #39932D",
"f  c #369727",
"g  c #278A33",
"h  c #328D30",
"j  c #279738",
"k  c #349436",
"l  c #3B9C36",
"z  c #2C9D29",
"x  c #1EA235",
"c  c #3EAC24",
"v  c #48850B",
"b  c #49990B",
"n  c #569B0D",
"m  c #4E8C11",
"M  c #488D16",
"N  c #588814",
"B  c #449415",
"V  c #439A1C",
"C  c #4A9A1A",
"Z  c #549D14",
"A  c #549C19",
"S  c #5C9B19",
"D  c #589615",
"F  c #568D00",
"G  c #699605",
"H  c #65881E",
"J  c #629C1C",
"K  c #46A10B",
"L  c #46A506",
"P  c #52A40E",
"I  c #4BA315",
"U  c #45A31D",
"Y  c #48A517",
"T  c #55A215",
"R  c #5CA413",
"E  c #53A915",
"W  c #5BA31D",
"Q  c #55AC1D",
"!  c #5DAB1B",
"~  c #58A716",
"^  c #47B51B",
"/  c #50B315",
"(  c #60A20D",
")  c #64A513",
"_  c #63A31C",
"`  c #64AD1D",
"'  c #63AD10",
"]  c #6CB31B",
"[  c #65B61A",
"{  c #75B91D",
"}  c #4B8622",
"|  c #5A8826",
" . c #489726",
".. c #579926",
"X. c #4A9B37",
"o. c #529832",
"O. c #679B24",
"+. c #759D2A",
"@. c #769727",
"#. c #6F8437",
"$. c #4DAB23",
"%. c #47A429",
"&. c #47A728",
"*. c #53A321",
"=. c #59A725",
"-. c #5DAC23",
";. c #53A229",
":. c #5AA728",
">. c #5DAB2C",
",. c #53AC26",
"<. c #48B726",
"1. c #54BA26",
"2. c #58B326",
"3. c #4AA637",
"4. c #5AA331",
"5. c #56A933",
"6. c #58A835",
"7. c #58B633",
"8. c #65AD23",
"9. c #6BAD22",
"0. c #66A727",
"q. c #75A929",
"w. c #64B323",
"e. c #6CB425",
"r. c #64B925",
"t. c #6CBB27",
"y. c #64B22B",
"u. c #6DB32B",
"i. c #6CBA2D",
"p. c #66B92C",
"a. c #74BB24",
"s. c #7ABC25",
"d. c #73B42B",
"f. c #74BC2C",
"g. c #7CBC2C",
"h. c #75B528",
"j. c #63A432",
"k. c #6EA836",
"l. c #74AC33",
"z. c #7BAD3A",
"x. c #6DBA34",
"c. c #61B739",
"v. c #68B838",
"b. c #72BB34",
"n. c #7CBD32",
"m. c #7CBB3A",
"M. c #76B539",
"N. c #7AC81D",
"B. c #6FCD19",
"V. c #6CC223",
"C. c #6CC32B",
"Z. c #65C728",
"A. c #75C224",
"S. c #7BC325",
"D. c #7CCA24",
"F. c #76C22B",
"G. c #7CC52C",
"H. c #7ECA2D",
"J. c #74CB26",
"K. c #7DD12C",
"L. c #7AD128",
"P. c #6CC234",
"I. c #66C537",
"U. c #74C233",
"Y. c #7CC433",
"T. c #7EC931",
"R. c #73C339",
"E. c #7DC43A",
"W. c #76CA3D",
"Q. c #7CCB3A",
"!. c #7ED132",
"~. c #7DD13B",
"^. c #76D23B",
"/. c #65D239",
"(. c #189042",
"). c #4A9946",
"_. c #688D47",
"`. c #758B4E",
"'. c #769545",
"]. c #769359",
"[. c #45B442",
"{. c #4DA046",
"}. c #77AE45",
"|. c #7BC443",
" X c #77C946",
".X c #7CD447",
"XX c #6FC643",
"oX c #828536",
"OX c #82BE2C",
"+X c #88AA3A",
"@X c #83B536",
"#X c #83BD33",
"$X c #85BD3B",
"%X c #89B938",
"&X c #90BC3C",
"*X c #98BE37",
"=X c #8EA72E",
"-X c #89C61C",
";X c #84C424",
":X c #89C423",
">X c #84CB26",
",X c #82C52C",
"<X c #89C62D",
"1X c #81CB2E",
"2X c #8BCD2D",
"3X c #8BCC26",
"4X c #84D324",
"5X c #85D22C",
"6X c #8CD32D",
"7X c #8ED426",
"8X c #83C533",
"9X c #8AC534",
"0X c #83CC32",
"qX c #89CC34",
"wX c #85C43A",
"eX c #8BC53A",
"rX c #84CB3B",
"tX c #8ACC3B",
"yX c #94CD34",
"uX c #94C33E",
"iX c #92CC3D",
"pX c #90C434",
"aX c #85D134",
"sX c #8BD234",
"dX c #84D23B",
"fX c #8BD23B",
"gX c #87D83B",
"hX c #8ADB39",
"jX c #92D037",
"kX c #90CA2A",
"lX c #958E5B",
"zX c #9B9558",
"xX c #8F954D",
"cX c #89A848",
"vX c #93A942",
"bX c #89B845",
"nX c #92BB49",
"mX c #96AA5B",
"MX c #8DB05B",
"NX c #A9A84B",
"BX c #988463",
"VX c #82A060",
"CX c #83CB42",
"ZX c #89C846",
"AX c #93C942",
"SX c #93C445",
"DX c #8CD343",
"FX c #89D548",
"GX c #97C859",
"HX c #8CC054",
/* pixels */
"O.d.J.5X8X8XqXaXH.0X1X0X0XaXaX0XT.K.0XaXaX0X0XaXrXrXaXaXaXqXwXm.b.F.D.>XyX<XG.hX1X8X1X8X1X,X0X0XqXqX",
"q.U.K.K.1XeX0XT.0X!.0X0X0XH.0X0X0X0X0X0XaXaXaX0X,X1X1X5XV.[ R ~ J G.5XA.s.g.F.!.0X2X1X2X8X2X0X,X9X0X",
"n.G.J.D.8X9XT.J.aX0XaX0XT.0XH.H.H.0XT.0X0XT.0XaX<X1XsXL.B.L L L H ) [ P D O.e.tX0X2X8X8X0X0X9X0X2X8X",
"Y.H.K.H.9XtX1XJ.0X0X0X0XaXH.0X0X8XH.1XH.0X1X1X0XT.C.Z.Z./ K K E H v , K W m J AX0X0X0X1X1X8X2X0X8X1X",
"0XaXaX0XeXuXtX4XH.T.8X0X0X0XaXrX1XH.1XH.0XT.aX1XI.^ 0 6 C C D J H m K $.>.M D #X9X0X1XqX0XqX0X0X9X0X",
"D.5X1X#X%XnX9X5XH.H.H.1X0XaXaXaX0XaXT.H.H.0XrXaX/.1.w 6 T 0.q.+...y.1.Y M N J #XqX0X9X0XqX1X2XqXsXaX",
"H.1X8X@X+X+X#X>XH.0XH.1X0XaXaXaXaX0XT.1X1X0XaXaX!.T.i.r.x.rX8Xs.$.1.L 1 M O.g.qX2X0X9X0XqX0X0X0X0XqX",
"0XsXDXbXvXvX&X6XH.0XaX0X0X1X0XaXaX0X0XH.0X0XaXaX:XyXjXT.U.gXaXH.e 9 < E }.SXqXaX0X0X0XqX2X0X9X0XsXqX",
"qX0X#X@X@X#X9XqX8X1XaX0XaXaX0X0X0XaXT.0X0XaXaXaX1X5X1X1X0X0X0X0XI.=.n ' A.aX1X,X8XtXtXU.R.Q..X XS.9X",
"1X9XwX$XeX8XqX0X1XT.1XH.0XH.T.H.H.0X1X0X1XT.0X0X1X1X1X0X0XT.T.T.~.rXqXrXgX~.rXtXiXfXG.R R x.b.-.a.,X",
"1X1X8XeXeXrX0X1X0X0X0XaX0X0X1X0XT.1X0XH.H.0X0XaX1X1X0X0XaX0XT.F.D.0XeXm.>.Q 8.n.>XqXH.` w.E.y.> { g.",
"D.1X0XrXrXrX5X5XT.0XaX0X1X0XaXaXH.0X1XH.T.0X0X0X1X5XsXaX0X8XG.F.N.2XeXl.C 3 *.E.N.2XfX0XDXFXb.B s.2X",
"5X1X1XT.K.0X5X1XH.H.0XT.H.8XrXsXaX0X0XT.0X0XaX0X1X1X1XaX0X0X0XrX4X3X9Xk. .B 0.rX2X2X1XsXfXfXrXE.qXqX",
"1X1X1XJ.J.H.1XqX0XaXaX0XT.5XaXgX0X0X0X5X0XaXaXaXD.H.1X1X0XaXrXdX1X9X9Xm.y.-.u.8XsXS.G.0XrXG.Y.DXqXqX",
"9X8X1XH.0XT.rXqX0X0XaX0XH.H.T.aX0X0XT.0X0X0X0XaX1X1X0X0X8XT.H.G.Q.rXeXeXtXT.8XeX1XG.2XqXqX,XG.2X9XqX",
"qX0X8X0XaX0X9XqXG.H.H.A.{ ] a.A.H.1XT.H.H.1X0X0X5X1XaXaX1XS.t.] x.b.g.1X5X1X9X9XqXsXqX1X2XqX6X2X2XqX",
"<.^ <.r.Y.rXqXS.8XrXR.,.C  .....b.Y.T.F.S.1XaX0XI.p.t.G.R.7.j (.k {.9X;XN.G.0X1XDXR R T.rXrXdX1X0X0X",
"q 1 6 E f.qXrX0XG.U.p.&.f  .:.j.rXfXfX1X1X1XH.a.V C W b.v.d t (.k 6.#XyXfXdXT.F.rX` ` T.aX0XrXaX9X2X",
"Y E T 8.F.rXrX0Xt.Q 7 8 2 4  .=.f.Y.fXaXH.1X1Xf.4 3 S b.v.s r t d 6.U.G.t.Q 0 , T.T.8X8XaX0XH.aX0XqX",
"Q.Q.U.Y.T.0X8XH.5Xr.%.f k s V W ` a.G.H.H.aX8XF.c.>.x.|.M. .a k 4 :.Y.G.Q 5 7 %.` rXDX0XfX8XG.aXqX0X",
"fXrX8XT.T.rX0X0XhXf.:.4.X. .D R a.T.aX1X1XfXrXT.XXy.y.E.rXx.2.I.*.x.tX0X2.5 7 7 b a.0XG.aXrXH.sXqX0X",
"9X2XG.H.H.H.0X1X3Xg.u.0.0.0._ J T.0X0X1X0XfX8Xf.V > > S f.Y.rXDX XrX<XaXp.U : + R G.dX8X1XaX1X1X0XqX",
",X1X1XK.H.H.1X,X2XrX1XG.H.T.8XY.G.1X1XH.aXfXT.` . . . M 0.8XsX7XrX<X>X6XgXW.i.8.0XrXfXaX1XaXsXS.0XqX",
"S.D.H.!.!.5X9XqXF.1X4XN.N.aXrXE.rXaX1X5XsXdXf.Z % % & o.M.wXyX:XrX:X-X3XaXT.rXiXsXS.H.H.A.5XhX,XqXqX",
"1X1XH.H.T.H.T.0X0XH.1XaX0XH.H.0X8XrXaX0X0XqX9XOXl.O.Z A u.|.ZXtX>X2X8XqXqX8X9X6XaX0XdXH.N.5XfXE.rX1X",
"1X8X0XH.0X0X1XaX0XH.T.0XaX0XH.0X0XqXT.T.0XsX9X9XeX,XA.F.Q.CXqX>X6X1X0XrXqX0X0X>X1X8XdXdXD.1XiXSXiXyX",
"0X0XT.1X0X0XaXaXT.H.H.aXrX1X0XaX0X0XH.H.T.qXyXqX6X5X6X6X0X2X>X;XaX2X0X8X8X0X1X1XaXF.Y.dXsXjXAX%XnXnX",
"0XH.1X0XH.0X0X0XH.G.G.0X5X8XH.aX8XqXT.U.T.qXqX9XN.5X0X9X<X<X>XrX8XqX0X8X8X8X2XG.0X! Z t.8X9X%X+.`.'.",
"1X8XT.H.H.T.0X0XH.S.G.0X0X8XH.0X8XrX0XH.T.qX8XOXG.$XnXSX&X#XwX|.g.8XeX1X1X0X8X1XfXa.w.b.H.8XwX}.`.'.",
"H.G.1XH.H.0XT.1XH.G.G.H.1XH.H.0X0X0X0XH.T.qX9X,X@XcXmXmXnXg.y.X.u.Y.tX8X1X>X9X0XsXrXFXdXV.Z.P. XbXAX",
"1XT.H.H.1XT.aX1X0XH.T.0XaXH.H.1X0X0XT.G.H.0X9XOX=XxXlXzX+Xq.C 2 _ M.tXqX,X1XqXqX{ G.Q.C.L 0 w c h.<X",
"0X0X0XH.0X1XaXaXaX0X0XaXaX0X1XaXrX8XG.F.G.9XtXuXNXzXBXlXvXg.$.z D b.DXqX,X,XqXqXkXqXaXZ.L e q ; O.x.",
"1X1XaXH.0XH.0X0X8X1X0XT.H.H.5XK.T.1X>X>X4X6X5X1X8Xn.n.n.8X8X#Xn.n.G.2X0XQ.E.CXfX.XY.$XY.e q e Q N k.",
"0XT.0XH.H.1XT.0X1XH.0X0X1XH.0X0X8XY.s.S.D.D.8XT.rXqX8X9XqXwXwX8X9X1XD.V.Q C T w.y.q.=Xm.1.e q 1 D M.",
"0X1XH.0XT.0X5XT.H.0X0XaX0X0XaXaXrXqX8X,X8XqXrXtXqX9XqXqX9X0X0X9XqX1XD.J.1.7 1 w ..J @.J 5 q q 5 0.$X",
"0XT.0XH.H.0XT.0XaXaXaXqX8X8XqXqX2X1X,X0XqXtXtXeX1X1XqXrX0X>X1XqX1XF.C.I.5.f f &.m l.GXZX,.<.U B ` rX",
"0XH.T.1XH.0XH.0XaX0X0X0X8X8X8X8XS.D.>X>X2X2X;X;X>XqXsXsX0X1X0XsXCXe.I 7 u u k 3.K i.DXQ.-.! 8.S 9.8X",
"T.0X0XH.H.0X0X1XH.1X0X1XG.g.g.OXK.!.0XdXsXsX2X>X1X1X0X0X1X1X1X0XZXx...7 u g h f E E ~ T n e.9X8Xh.qX",
"aX0X0X0XT.H.0X0XH.1X1X8X8X#X%X%X XQ.R.U.Y.rXqXsXT.H.G.H.H.8XH.T.8XY.p.5.X.X. .4 D T 2.b.b.CXCXP.g.fX",
"1XH.H.H.1X0XT.0XD.1XqXrX9XwXSXAX7.7.;...=.u.T.sXrX0X8XT.rXaX0XT.s.G.i.*. .o...C +.l.|.M.:.$.$.&.Y.fX",
"0X0X0X0X0X0XT.0X5XP.7.7. XFXQ.P.[.x t j 5.T.>X6XW.gXH.1XD.>XqX;XA.7X-XG +.nX|.L N l.XX[.x y k ;.9XqX",
"H.0XH.T.H.T.5X0XsX! + @ W 8Xg.` l r t h 5.Y.G.K.0X8XG.FXdXw.F.Q.FX8X&XMXVX_.k.fXm.S B s j j g X.a.G.",
"H.0XH.0XT.1XT.1XqXn.=.=.g.iXqX8XX.u g i  .d.F.aX3X] b ;.%.: V $.k.}.bXVX]._.z.yXrXR T 7 g g % {.] S.",
"T.H.1X1XT.1XH.H.OXCX.X|.eX<X:X2X:.X.3.d  .F.G.!.N.J.U i O O p 4 * +XSX%Xz.HXfX-X^.F.DX0.p ).d 3.s.,X",
"0X0XT.1X0XT.aX0X0XU.$.Y t.>X1XH.s.b. XI.F.sX5XJ.B.Z.<.u o . & } - oX=X-X{ -.2.P..XF.tXm.M. XP.w.2X0X",
"aX1X1XaX0X0X1X0X!.1.: : ! 0XtXsX2XdX.Xr.] 6X2XrX^.^ X X .   $ * = - q.] > . # {.XXR ) 1XQ.Q.fX3XtXqX",
"0X0X0XH.0XH.1X8Xa.r.<.C u.#X8XeXkX8XR.T ( <XqXrXGXo.. @ 2 $ M | * cXZX=.X o & o.y.! ' Q.y.=.AX*Xn.8X",
"H.H.1XT.H.0XH.1X0XrX}.M.$X*X%X@X{ f.|.y.h.AXbXM.#.}.}.5.4 :  . .F { !.<.2 # $ G b.qXa.dX>...GXoX) e.",
"rXsXqX0XsX0XqXqXqX0XqXqX0XqXqXqX8X0XsX5XsXwX@XM._.bXwX1Xa.[ ] <Xh.T.rX8Xe._ ` 9.2X1X8XqXfXsX8Xs._ _ ",
"0XqXqXqXqXqXrXsX0X2X0XqX0XqX0XqXtX9X1X5X0XqXwXbXcXSXiX5X1XG.OXqX8XrXfXtX8Xn.8XwX0X8X1X8XsXqX0X1Xf.Y."
};
