/* XPM */
static char *bGVydGtsZSUzQmdt[] = {
/* columns rows colors chars-per-pixel */
"50 50 203 2 ",
"   c #7C1212",
".  c #52291D",
"X  c #6E321B",
"o  c #73351F",
"O  c #79361B",
"+  c #4C2B2D",
"@  c #512E33",
"#  c #5B343A",
"$  c #62353C",
"%  c #69343D",
"&  c #6B3A3C",
"*  c #773433",
"=  c #75332C",
"-  c #7B4126",
";  c #5B3946",
":  c #623640",
">  c #673B48",
",  c #773A4A",
"<  c #74414F",
"1  c #6C4854",
"2  c #7A495A",
"3  c #784857",
"4  c #69454D",
"5  c #724F64",
"6  c #8E1C14",
"7  c #881713",
"8  c #921B0C",
"9  c #AF1E06",
"0  c #922B0E",
"q  c #9F2716",
"w  c #843B1B",
"e  c #86381C",
"r  c #903216",
"t  c #BF3D10",
"y  c #A83D16",
"u  c #962927",
"i  c #843D25",
"p  c #983928",
"a  c #873939",
"s  c #9A3336",
"d  c #982E37",
"f  c #DF0316",
"g  c #DF011A",
"h  c #DC081E",
"j  c #DC1614",
"k  c #E2070F",
"l  c #E4130D",
"z  c #E61C0B",
"x  c #E10214",
"c  c #E10A12",
"v  c #E1011A",
"b  c #E41411",
"n  c #E41818",
"m  c #C63B0F",
"M  c #C83C18",
"N  c #C92C08",
"B  c #EC2C07",
"V  c #E7210B",
"C  c #EA2507",
"Z  c #FF2E00",
"A  c #ED3306",
"S  c #E83C08",
"D  c #FE3201",
"F  c #F13A04",
"G  c #FD3901",
"H  c #E82912",
"J  c #DF0B25",
"K  c #CC1426",
"L  c #D81120",
"P  c #C91B31",
"I  c #C72E2E",
"U  c #914019",
"Y  c #B8500F",
"T  c #A74416",
"R  c #8D4924",
"E  c #864226",
"W  c #974B2D",
"Q  c #9B4E29",
"!  c #9E512E",
"~  c #8D4D31",
"^  c #A1492C",
"/  c #B84A24",
"(  c #A8552D",
")  c #AD5B32",
"_  c #A25631",
"`  c #B15E32",
"'  c #B35937",
"]  c #B6653B",
"[  c #D04309",
"{  c #CD530F",
"}  c #C1441E",
"|  c #D94319",
" . c #C15811",
".. c #D95512",
"X. c #ED4D04",
"o. c #F34503",
"O. c #F54B02",
"+. c #FE4B01",
"@. c #FF4000",
"#. c #E15709",
"$. c #F75402",
"%. c #FD5302",
"&. c #FB5D02",
"*. c #F45707",
"=. c #E34E17",
"-. c #E0531A",
";. c #F1541B",
":. c #E16B07",
">. c #FB6502",
",. c #FD6A01",
"<. c #F06E0D",
"1. c #EC730E",
"2. c #FD7301",
"3. c #FE7C01",
"4. c #F87707",
"5. c #FC7612",
"6. c #D34B24",
"7. c #F15E29",
"8. c #EF5B39",
"9. c #EB4622",
"0. c #CC7129",
"q. c #DE6928",
"w. c #F16D23",
"e. c #E2662D",
"r. c #903548",
"t. c #863A57",
"y. c #853A45",
"u. c #B73E41",
"i. c #DF2A48",
"p. c #CA344E",
"a. c #834C4C",
"s. c #88455B",
"d. c #944C54",
"f. c #A45D42",
"g. c #AC4E5F",
"h. c #AA5C53",
"j. c #BC5750",
"k. c #BD564A",
"l. c #976052",
"z. c #8E4C62",
"x. c #904C68",
"c. c #8E546D",
"v. c #88566A",
"b. c #97576A",
"n. c #8C5577",
"m. c #985E79",
"M. c #A25662",
"N. c #A35E75",
"B. c #88616B",
"V. c #8F6378",
"C. c #95657C",
"Z. c #A26260",
"A. c #A56569",
"S. c #A6657B",
"D. c #B87A7D",
"F. c #C35953",
"G. c #C36348",
"H. c #CF5972",
"J. c #E05673",
"K. c #C06C72",
"L. c #D5607F",
"P. c #FE8401",
"I. c #FE8B01",
"U. c #FE9301",
"Y. c #FF9B00",
"T. c #F99018",
"R. c #F6861D",
"E. c #FFA60A",
"W. c #FFA303",
"Q. c #FDA919",
"!. c #FB982A",
"~. c #FEB221",
"^. c #FCA33D",
"/. c #ECA426",
"(. c #EF9C6F",
"). c #8F6D83",
"_. c #9B6C83",
"`. c #A66C82",
"'. c #B17889",
"]. c #A17892",
"[. c #A7768E",
"{. c #E26E8E",
"}. c #BA9B9A",
"|. c #B48FA7",
" X c #B49CAC",
".X c #C08E8F",
"XX c #CA8AA6",
"oX c #DA8AAA",
"OX c #C29FAF",
"+X c #D891AF",
"@X c #C9ACAD",
"#X c #C1ABB7",
"$X c #D1B2BC",
"%X c #F0CEB7",
"&X c #FAD1B6",
"*X c #E3D9DD",
"=X c #E7DCE3",
"-X c #EBE0E6",
";X c #F2EAEE",
":X c #F5EFF2",
">X c #FEFEFF",
",X c #F8F5F8",
"<X c None",
/* pixels */
"<X<X<X<X<X<X<X<X<X<X<X<X<X<X<X<X<X<X<X<X<X<X<X<X<X<X<X<X<X<X<X<X<X<X<X<X<X<X<X<X<X<X<X<X<X<X<X<X<X<X",
"<X<X<X<X<X<X<X<X<X<X<X<X<X<X<X<X<X<X<X<X<X<X<X<X<X<X<X<X<X<X<X<X<X<X<X<X<X<X<X<X<X<X<X<X<X<X<X<X<X<X",
"<X<X<X<X<X<X<X<X<X<X<X<X<X<X<X<X<X<X<X<X<X<X<X<X<X<X<X<X<X<X<X<X<X<X<X<X<X<X<X<X<X<X<X<X<X<X<X<X<X<X",
"<X<X<X<X<X<X<X<X<X<X<X<X<X<X<X<X<X<X<X<X<X<X<X<X<X<X<X<X<X<X<X<X<X<X<X<X<X<X<X<X<X<X<X<X<X<X<X<X<X<X",
"<X<X<X<X<X<X<X<X<X<X<X<X<X<X<X<X<X<X<X<X<X<X<X<X<X<X<X<X<X<X<X<X<X<X<X<X<X<X<X<X<X<X<X<X<X<X<X<X<X<X",
"<X<X<X<X<X<X<X<X<X<X<X<X<X<X<X<X<X<X<X<X<X<X<X<X<X<X<X<X<X<X<X<X<X<X<X<X<X<X<X<X<X<X<X<X<X<X<X<X<X<X",
"<X<X<X<X<X<X<X<X<X<X<X<X<X<X<X<X<X<X<X<X<X<X<X<X<X<X<X<X<X<X<X<X<X<X<X<X<X<X<X<X<X<X<X<X<X<X<X<X<X<X",
"<X<X<X<X<X<X<X<X<X<X<X<X<X<X<X<X<X<X<X<X<X<X<X<X<X<X<X<X<X<X<X<X<X<X<X<X<X<X<X<X<X<X<X<X<X<X<X<X<X<X",
"<X<X<X<X<X<X<X<X<X<X<X<X<X<X<X<X<X<X<X<X<X<X<X<X<X<X<X<X<X<X<X<X<X<X<X<X<X<X<X<X<X<X<X<X<X<X<X<X<X<X",
"<X<X<X<X<X<X<X<X<X<X<X<X<X<X<X<X<X<X<X<X<X<X<X<X<X<X<X<X<X<X<X<X<X<X<X<X<X<X<X<X<X<X<X<X<X<X<X<X<X<X",
"<X<X<X<X<X<X<X<X<X<X<X<X<X<X<X<X<X<X<X<X<X<X<X<X~ ~ ! W E <X<X<X<X<X<X<X<X<X<X<X<X<X<X<X<X<X<X<X<X<X",
"<X<X<X<X<X<X<X<X<X<X<X<X<X<X<X<X<X<X<X<X<X<X<X) ) ) ` ) ! ! E <X<X<X<X<X<X<X<X<X<X<X<X<X<X<X<X<X<X<X",
"<X<X<X<X<X<X<X<X<X<X<X<X<X<X<X<X<X<X<X<X<X<X<X] ) ) ] ) ) ( Q E <X<X<X<X<X<X<X<X<X<X<X<X<X<X<X<X<X<X",
"<X<X<X<X<X<X<X<X<X<X<X<X<X<X<X<X<X<X<X<X<X<X}.f.] ] ) ` ) ^ Q R <X<X<X<X<X<X<X<X<X<X<X<X<X<X<X<X<X<X",
"<X<X<X<X<X<X<X<X<X<X<X<X<X<X<X<X<X<X<X<X<X<X*Xl.W ] ' W _ R - <X<X<X<X<X<X<X<X<X<X<X<X<X<X<X<X<X<X<X",
"<X<X<X<X<X<X<X<X<X<X<X<X<X<X<X<X<X<X<X<X<X<X#X@Xh.( ^ i o . 1 <X<X<X<X<X<X<X<X<X<X<X<X<X<X<X<X<X<X<X",
"<X<X<X<X<X<X<X<X<X<X<X<X<X<X<X<X<X<X<X<X<Xs.: B.}.D.A.a.: ; 5 <X<X<X<X<X<X<X<X<X<X<X<X<X<X<X<X<X<X<X",
"<X<X<X<X<X<X<X<X<X<X<X<X<X<X<X<X<X<X<X<X<Xc.: @ # > 1 > > ; 2 <X<X<X<X<X<X<X<X<X<X<X<X<X<X<X<X<X<X<X",
"<X<X<X<X<X<X<X<X<X<X<X<X<X<X<X<X<X<X<X].n.t.a > # + + + @ $ > <X<X<X<X<X<X<X<X<X<X<X<X<X<X<X<X<X<X<X",
"<X<X<X<X<X<X<X<X<X<X<X<X<X<X<X<X<X X=X=X[.t.d u = % $ $ : * d.<X<X<X<X<X<X<X<X<X<X<X<X<X<X<X<X<X<X<X",
"<X<X<X<X<X<X<X<X<X<X<X<X<X<X<X<X#X,X>X>X;XOXx.s q q 6 7 7 s N.<X<X<X<X<X<X<X<X<X<X<X<X<X<X<X<X<X<X<X",
"<X<X<X<X<X<X<X<X<X<X<X<X<X<X<X X-X,X>X,X:X$Xb.t.r.d u 6 6 y.t.N.<X<X<X<X<X<X<X<X<X<X<X<X<X<X<X<X<X<X",
"<X<X<X<X<X<X<X<X<X<X<X<X<X<XC.|.`.}.%X&X(.e.-.=.=.| | M M p y.s.S.<X<X<X<X<X<X<X<X<X<X<X<X<X<X<X<X<X",
"<X<X<X<X<X<X<X<X<X<X<X<X<X<XC.Z.0.1.5.5.%.+.@.G G G D Z D N m / M.C.<X<X<X<X<X<X<X<X<X<X<X<X<X<X<X<X",
"<X<X<X<X<X<X<X<X<X<X<X<X<X<XA./.Y.I.P.3.2.,.,.>.>.&.%.+.G 9 8 O.q.S.<X<X<X<X<X<X<X<X<X<X<X<X<X<X<X<X",
"<X<X<X<X<X<X<X<X<X<X<X<X<Xn.G.~.E.Y.Y.U.I.I.P.P.P.3.2.,.X.0 8 y <.D.<X<X<X<X<X<X<X<X<X<X<X<X<X<X<X<X",
"<X<X<X<X<X<X<X<X<X<X<X<X<Xc.P ;.!.Q.E.W.Y.U.I.P.,.&.%.%.[ w 0 O S F._.<X<X<X<X<X<X<X<X<X<X<X<X<X<X<X",
"<X<X<X<X<X<X<X<X<X<X<X<X<Xz.K k n 9.w.R.T.^.!.5.,.2.4.3.:.w w O m k.C.<X<X<X<X<X<X<X<X<X<X<X<X<X<X<X",
"<X<X<X<X<X<X<X<X<X<X<X<X<Xx.K x f x c l H 8.7.*.*.>.2.3.<.U X o y F.C.<X<X<X<X<X<X<X<X<X<X<X<X<X<X<X",
"<X<X<X<X<X<X<X<X<X<X<X<X<Xb.P f x g x c l V A S O.$.>.2.2.T X X i h.m.<X<X<X<X<X<X<X<X<X<X<X<X<X<X<X",
"<X<X<X<X<X<X<X<X<X<X<X<X<X'.p.f v v v c l z C S o.O.>.,.3.Y o O y A.<X<X<X<X<X<X<X<X<X<X<X<X<X<X<X<X",
"<X<X<X<X<X<X<X<X<X<X<X<X<X<X{.J v g f f f l V B F o.&.2.3.:. .#.6.`.<X<X<X<X<X<X<X<X<X<X<X<X<X<X<X<X",
"<X<X<X<X<X<X<X<X<X<X<X<X<X<XoXi.g g g f f l z B A o.&.,.3.3.2.$.j._.<X<X<X<X<X<X<X<X<X<X<X<X<X<X<X<X",
"<X<X<X<X<X<X<X<X<X<X<X<X<X<XXX{.L g g g f l z B F O.&.2.3.3.,.6.m.<X<X<X<X<X<X<X<X<X<X<X<X<X<X<X<X<X",
"<X<X<X<X<X<X<X<X<X<X<X<X<X<X<X+XJ.h g g f l z B S $.>.2.4.2...d.B.<X<X<X<X<X<X<X<X<X<X<X<X<X<X<X<X<X",
"<X<X<X<X<X<X<X<X<X<X<X<X<X<X<X<XoXJ.L x l l C A o.$.>.2.,.{ ~ 2 <X<X<X<X<X<X<X<X<X<X<X<X<X<X<X<X<X<X",
"<X<X<X<X<X<X<X<X<X<X<X<X<X<X<X<X<XXXH.I j l C o.$.&.>.#.^ * > <X<X<X<X<X<X<X<X<X<X<X<X<X<X<X<X<X<X<X",
"<X<X<X<X<X<X<X<X<X<X<X<X<X<X<X<X<X<X<XS.g.k.I } / / R * ; <X<X<X<X<X<X<X<X<X<X<X<X<X<X<X<X<X<X<X<X<X",
"<X<X<X<X<X<X<X<X<X<X<X<X<X<X<X<X<X<X<X<X<Xc.s.3 , > <X<X<X<X<X<X<X<X<X<X<X<X<X<X<X<X<X<X<X<X<X<X<X<X",
"<X<X<X<X<X<X<X<X<X<X<X<X<X<X<X<X<X<X<X<X<X<X<X<X<X<X<X<X<X<X<X<X<X<X<X<X<X<X<X<X<X<X<X<X<X<X<X<X<X<X",
"<X<X<X<X<X<X<X<X<X<X<X<X<X<X<X<X<X<X<X<X<X<X<X<X<X<X<X<X<X<X<X<X<X<X<X<X<X<X<X<X<X<X<X<X<X<X<X<X<X<X",
"<X<X<X<X<X<X<X<X<X<X<X<X<X<X<X<X<X<X<X<X<X<X<X<X<X<X<X<X<X<X<X<X<X<X<X<X<X<X<X<X<X<X<X<X<X<X<X<X<X<X",
"<X<X<X<X<X<X<X<X<X<X<X<X<X<X<X<X<X<X<X<X<X<X<X<X<X<X<X<X<X<X<X<X<X<X<X<X<X<X<X<X<X<X<X<X<X<X<X<X<X<X",
"<X<X<X<X<X<X<X<X<X<X<X<X<X<X<X<X<X<X<X<X<X<X<X<X<X<X<X<X<X<X<X<X<X<X<X<X<X<X<X<X<X<X<X<X<X<X<X<X<X<X",
"<X<X<X<X<X<X<X<X<X<X<X<X<X<X<X<X<X<X<X<X<X<X<X<X<X<X<X<X<X<X<X<X<X<X<X<X<X<X<X<X<X<X<X<X<X<X<X<X<X<X",
"<X<X<X<X<X<X<X<X<X<X<X<X<X<X<X<X<X<X<X<X<X<X<X<X<X<X<X<X<X<X<X<X<X<X<X<X<X<X<X<X<X<X<X<X<X<X<X<X<X<X",
"<X<X<X<X<X<X<X<X<X<X<X<X<X<X<X<X<X<X<X<X<X<X<X<X<X<X<X<X<X<X<X<X<X<X<X<X<X<X<X<X<X<X<X<X<X<X<X<X<X<X",
"<X<X<X<X<X<X<X<X<X<X<X<X<X<X<X<X<X<X<X<X<X<X<X<X<X<X<X<X<X<X<X<X<X<X<X<X<X<X<X<X<X<X<X<X<X<X<X<X<X<X",
"<X<X<X<X<X<X<X<X<X<X<X<X<X<X<X<X<X<X<X<X<X<X<X<X<X<X<X<X<X<X<X<X<X<X<X<X<X<X<X<X<X<X<X<X<X<X<X<X<X<X",
"<X<X<X<X<X<X<X<X<X<X<X<X<X<X<X<X<X<X<X<X<X<X<X<X<X<X<X<X<X<X<X<X<X<X<X<X<X<X<X<X<X<X<X<X<X<X<X<X<X<X"
};
