/* XPM */
static char *aW1hZ2VfNl8tcmVtb3ZlYmctcHJldmlldyslMjgxJTI5[] = {
/* columns rows colors chars-per-pixel */
"50 50 203 2 ",
"   c #371615",
".  c #3C2928",
"X  c #332E36",
"o  c #481509",
"O  c #52180C",
"+  c #49180E",
"@  c #4B251E",
"#  c #5B291E",
"$  c #76321D",
"%  c #68311F",
"&  c #59332D",
"*  c #523E3C",
"=  c #442320",
"-  c #7C3823",
";  c #612E24",
":  c #016C1C",
">  c #02731D",
",  c #027B1C",
"<  c #08761E",
"1  c #0B7C22",
"2  c #047822",
"3  c #71493D",
"4  c #69433B",
"5  c #596835",
"6  c #697239",
"7  c #1C3D52",
"8  c #293845",
"9  c #364952",
"0  c #007355",
"q  c #125376",
"w  c #2A586A",
"e  c #057E6B",
"r  c #35687A",
"t  c #44515A",
"y  c #545250",
"u  c #504442",
"i  c #784C40",
"p  c #67524D",
"a  c #6F554C",
"s  c #666D5D",
"d  c #4D6068",
"f  c #6C6F6D",
"g  c #843C22",
"h  c #994B1D",
"j  c #A6541C",
"k  c #8C4221",
"l  c #8C4A26",
"z  c #974C26",
"x  c #9C5125",
"c  c #84553F",
"v  c #A95A26",
"b  c #B15D24",
"n  c #B96526",
"m  c #A9612B",
"M  c #D5771E",
"N  c #C66D1E",
"B  c #C56D28",
"V  c #CC7328",
"C  c #D97C26",
"Z  c #885C4A",
"A  c #8D644B",
"S  c #846957",
"D  c #986953",
"F  c #AA795F",
"G  c #9B7A66",
"H  c #04831C",
"J  c #048A1C",
"K  c #03991D",
"L  c #0BA21F",
"P  c #0A8422",
"I  c #0B8B23",
"U  c #078526",
"Y  c #128829",
"T  c #0D9D25",
"R  c #13932A",
"E  c #169B2C",
"W  c #108531",
"Q  c #0C9937",
"!  c #169D34",
"~  c #319F3F",
"^  c #0BA222",
"/  c #0FAF2C",
"(  c #14A32A",
")  c #16A92D",
"_  c #19BA2C",
"`  c #14B329",
"'  c #1AA731",
"]  c #1ABD35",
"[  c #0BB921",
"{  c #25BC39",
"}  c #18C42C",
"|  c #29C53D",
" . c #28D23A",
".. c #12924B",
"X. c #19A24A",
"o. c #1EB844",
"O. c #22A445",
"+. c #23B745",
"@. c #26A559",
"#. c #2AB956",
"$. c #38B64C",
"%. c #1A9866",
"&. c #06826D",
"*. c #18AB6A",
"=. c #29B674",
"-. c #20AC72",
";. c #538842",
":. c #798478",
">. c #28C746",
",. c #31C944",
"<. c #37D949",
"1. c #45DC55",
"2. c #50E35F",
"3. c #46CA79",
"4. c #5CD96E",
"5. c #60DA6E",
"6. c #61EC6E",
"7. c #DF8129",
"8. c #E58629",
"9. c #818472",
"0. c #B68C73",
"q. c #035C89",
"w. c #02658C",
"e. c #077B8A",
"r. c #00669C",
"t. c #026B9B",
"y. c #056894",
"u. c #05739F",
"i. c #0A7698",
"p. c #146F96",
"a. c #256A87",
"s. c #2E7584",
"d. c #367B8A",
"f. c #0B79A4",
"g. c #0974A1",
"h. c #407A91",
"j. c #0D8388",
"k. c #118993",
"l. c #368799",
"z. c #2E929B",
"x. c #1EAB85",
"c. c #1FA89D",
"v. c #2AB18A",
"b. c #1B83A9",
"n. c #1893AB",
"m. c #1C9AB1",
"M. c #1486B0",
"N. c #2989AB",
"B. c #348DA8",
"V. c #2D97A8",
"C. c #3595A9",
"Z. c #2899B6",
"A. c #359FBC",
"S. c #3697B3",
"D. c #2BB5A9",
"F. c #29A2B3",
"G. c #2BA7B6",
"H. c #35A6B9",
"J. c #20A2A2",
"K. c #4F8C9C",
"L. c #508794",
"P. c #718F92",
"I. c #489BAD",
"U. c #5892A4",
"Y. c #419CB6",
"T. c #549BB1",
"R. c #6E9CA8",
"E. c #49A5B4",
"W. c #58A5B5",
"Q. c #5DBDAF",
"!. c #67ACBA",
"~. c #76AEAA",
"^. c #51D09C",
"/. c #73DC8F",
"(. c #7FEF8F",
"). c #339FC1",
"_. c #36B3C6",
"`. c #32A1C2",
"'. c #44ACC8",
"]. c #5DACC3",
"[. c #57BAC4",
"{. c #42B9C2",
"}. c #67BAC8",
"|. c #78B9CA",
" X c #62C5D9",
".X c #75CBD6",
"XX c #6FD4E5",
"oX c #BC9C88",
"OX c #BEA18C",
"+X c #D1B9A8",
"@X c #A1EAB9",
"#X c #89BECE",
"$X c #90CCD8",
"%X c #A2CFD9",
"&X c #9AE0D0",
"*X c #BEF4D6",
"=X c #A4DFE5",
"-X c #99E0E6",
";X c #AEE3E8",
":X c #B0E8E3",
">X c #CAEFF1",
",X c #C4E7ED",
"<X c None",
/* pixels */
"<X<X<X<X<X<X<X<X<X<X<X<X<X<X<X<X<X<X<X<X<X<X<X<X<X<X<X<X<X<X<X<X<X<X<X<X<X<X<X<X<X<X<X<X<X<X<X<X<X<X",
"<X<X<X<X<X<X<X<X<X<X<X<X<X<X<X<X<X<X<X<X<X<X<X<X<X<X<X<X<X<X<X<X<X<X<X<X<X<X<X<X<X<X<X<X<X<X<X<X<X<X",
"<X<X<X<X<X<X<X<X<X<X<X<X<X<X<X<X<X<X<X<X<X<X<X<X<X<X<X<X<X<X<X<X<X<X<X<X<X<X<X<X<X<X<X<X<X<X<X<X<X<X",
"<X<X<X<X<X<X<X<X<X<X<X<X<X<X<X<X<X<X<X<X<X<X<X<X<X<X<X<X<X<X<X<X<X<X<X<X<X<X<X<X<X<X<X<X<X<X<X<X<X<X",
"<X<X<X<X<X<X<X<X<X<X<X<X<X<X<X<X<X<X<X<X<X<X<X<X<X<X<X<X<X<X<X<X<X<X<X<X<X<X<X<X<X<X<X<X<X<X<X<X<X<X",
"<X<X<X<X<X<X<X<X<X<X<X<X<X<X<X<X<X<X<X<X<X<X<X<X<X<X<X<X<X<X<X<X<X<X<X<X<X<X<X<X<X<X<X<X<X<X<X<X<X<X",
"<X<X<X<X<X<X<X<X<X<X<X<X<X<X<X<X<X<X<X<X<X<X<X<X<X<X<X<X<X<X<X<X<X<X<X<X<X<X<X<X<X<X<X<X<X<X<X<X<X<X",
"<X<X<X<X<X<X<X<X<X<X<X<X<X<X<X<X<X<X<X<X<X<X<X<X<X<X<X<X<X<X<X<X<X<X<X<X<X<X<X<X<X<X<X<X<X<X<X<X<X<X",
"<X<X<X<X<X<X<X<X<X<X<X<X<X<X<X<X<X<X<X<X<X<X<X<X<X<X<X<X<X<X<X<X<X<X<X<X<X<X<X<X<X<X<X<X<X<X<X<X<X<X",
"<X<X<X<X<X<X<X<X<X<X<X<X<X<X<X<X<X<X<X<X<X<X<X<X<X<X<X<X<X<X<X<X<X<X<X<X<X<X<X<X<X<X<X<X<X<X<X<X<X<X",
"<X<X<X<X<X<X<X<X<X<X<X<X<X<X<X<X<X<X<X<X<X<X<X<X<X<X<X<X<X<X<X<Xv <X<X<X<X<X<X<X<X<X<X<X<X<X<X<X<X<X",
"<X<X<X<X<X<X<X<X<X<X<X<X<X<X<X<X<X<X<X<X<X<X<X<X<X<X<X<X<X<X<Xm C N n <X<X<X<X<X<X<X<X<X<X<X<X<X<X<X",
"<X<X<X<X<X<X<X<X<X<X<X<X<X<X<X<X<X<X<X<X<X<X<X<X<X<X<X<X<X<X<Xx C M C V l <X<X<X<X<X<X<X<X<X<X<X<X<X",
"<X<X<X<X<X<X<X<X<X<X<X<X<X<X<X<X<X<X<X<X<X<X<X<X<X<X<X<X!.}.f h B C M 8.C n <X<X<X<X<X<X<X<X<X<X<X<X",
"<X<X<X<X<X<X<X<X<X<X<X<X<X<X<X<X<X<X<X<X<X<X<X<X<X<X<XW.XX.XS h v b 8.8.8.V m <X<X<X<X<X<X<X<X<X<X<X",
"<X<X<X<X<X<X<X<X<X<X<X<X<X<X<X<X<X<X<X<X<X<X<X<X<X<XK.'. X.XA j b m B 7.C V n x <X<X<X<X<X<X<X<X<X<X",
"<X<X<X<X<X<X<X<X<X<X<X<X<X<X<X<X<X<X<X<X<X<X<X<X<X<XI.).'.XXP.v j j x b V B n v k <X<X<X<X<X<X<X<X<X",
"<X<X<X<X<X<X<X<X<X<X<X<X<X<X<X<X<X<X<X<X<X<X<X<X<X<Xd ).).}. X9.x x l k l z b v z <X<X<X<X<X<X<X<X<X",
"<X<X<X<X<X<X<X<X<X<X<X<X<X<X<X<X<X<X<X<X<X<X<X<X<X* i B.S.U.!.}.f z k g g $ - g - <X<X<X<X<X<X<X<X<X",
"<X<X<X<X<X<X<X<X<X<X<X<X<X<X<X<X<X<X<X<X<X<X<X<Xy a i r A.U.P.R.].P.Z g $ $ ; <X<X<X<X<X<X<X<X<X<X<X",
"<X<X<X<X<X<X<X<X<X<X<X<X<X<X<X<X<X<X<X<X<XK.W.}.R.i u * b.S.U.P.R.W.U.f a t a.<X<X<X<X<X<X<X<X<X<X<X",
"<X<X<X<X<X<X<X<X<X<X<X<X<X<X<X<X<X<XL.W. X$X;X>X%Xp & ; w u.S.U.U.U.T.Y.S.f.b.<X<X<X<X<X<X<X<X<X<X<X",
"<X<X<X<X<X<X<X<X<X<X<X<X<X<X<X<X<X}..X=X,X>X%X].N.a.& O = q t.b.A.S.S.).).).Y.<X<X<X<X<X<X<X<X<X<X<X",
"<X<X<X<X<X<X<X<X<X<X<X<X<X<X<X<XE.-X|.#X!.C.g.i.g.f.w @ O . q w.g.Z.Z.M.f.N.<X<X<X<X<X<X<X<X<X<X<X<X",
"<X<X<X<X<X<X<X<X<X<X<X<X<X<X<Xd.].$X#Xi.y.t.g.g.u.t.t.q @ o + X 8 8 9 r N.d.<X<X<X<X<X<X<X<X<X<X<X<X",
"<X<X<X<X<X<X<X<X<X<X<X<X<X<X<XE.;XQ.Q.V.&.e.u.t.u.r.r.r.q X o   + . 9 = <X<X<X<X<X<X<X<X<X<X<X<X<X<X",
"<X<X<X<X<X<X<X<X<X<X<X<X<X<Xd.$X*X<.>.3.#.Q Q ..e e.t.r.y.q.7   o . 9 <X<X<X<X<X<X<X<X<X<X<X<X<X<X<X",
"<X<X<X<X<X<X<X<X<X<X<X<X<X<XI.:X@X} [ o.#.' J H U U ..e w.q.q.t % O   <X<X<X<X<X<X<X<X<X<X<X<X<X<X<X",
"<X<X<X<X<X<X<X<X<X<X<X<X<Xs..X@X .<. .} { o.T J H , , H 2 0 w A y i i <X<X<X<X<X<X<X<X<X<X<X<X<X<X<X",
"<X<X<X<X<X<X<X<X<X<X<X<X<XI.&X4.} | 2.6. .] / T K J H , , , 5 D G G Z <X<X<X<X<X<X<X<X<X<X<X<X<X<X<X",
"<X<X<X<X<X<X<X<X<X<X<X<Xs.[./.{ ) E $.4.1.<. .` L K J , , , 5 F +XoXA <X<X<X<X<X<X<X<X<X<X<X<X<X<X<X",
"<X<X<X<X<X<X<X<X<X<X<X<XC.v.,.^ P < < R E { ,. .| _ / T L L 6 0.+XOXD <X<X<X<X<X<X<X<X<X<X<X<X<X<X<X",
"<X<X<X<X<X<X<X<X<X<X<Xl.J.+./ I > : : : 2 U Y R ! ' ) / ) ` 6 F 0.0.Z <X<X<X<X<X<X<X<X<X<X<X<X<X<X<X",
"<X<X<X<X<X<X<X<X<X<X<XV.*.} ^ I , : : : : 2 2 2 2 U U W O.O.~ ;.s a <X<X<X<X<X<X<X<X<X<X<X<X<X<X<X<X",
"<X<X<X<X<X<X<X<X<X<Xl.c.>.} ^ P > > > : : 2 : > > > 2 > W @.3.^.[.<X<X<X<X<X<X<X<X<X<X<X<X<X<X<X<X<X",
"<X<X<X<X<X<X<X<X<X<XS.-. ._ T J > > > > 2 : : 2 : : : : H ' =.E.W.<X<X<X<X<X<X<X<X<X<X<X<X<X<X<X<X<X",
"<X<X<X<X<X<X<X<X<X<X_.c.>._ T J P < , > > > > > : : : : R -.G.C.<X<X<X<X<X<X<X<X<X<X<X<X<X<X<X<X<X<X",
"<X<X<X<X<X<X<X<X<X<XH.m.*.` E J P P P < > > : : : : < E x.S.l.<X<X<X<X<X<X<X<X<X<X<X<X<X<X<X<X<X<X<X",
"<X<X<X<X<X<X<X<X<X<X<XZ.k.O.( H < 1 I P , > : : : 1 X.c.V.<X<X<X<X<X<X<X<X<X<X<X<X<X<X<X<X<X<X<X<X<X",
"<X<X<X<X<X<X<X<X<X<X<Xl.n.e.X.( 1 < 1 I , , > , P X.D.V.<X<X<X<X<X<X<X<X<X<X<X<X<X<X<X<X<X<X<X<X<X<X",
"<X<X<X<X<X<X<X<X<X<X<X<Xz.m.k.X.' Y 1 P Y H J E @.D.C.<X<X<X<X<X<X<X<X<X<X<X<X<X<X<X<X<X<X<X<X<X<X<X",
"<X<X<X<X<X<X<X<X<X<X<X<X<Xl.Z.b.%.X.E R R ( ) =.G.B.<X<X<X<X<X<X<X<X<X<X<X<X<X<X<X<X<X<X<X<X<X<X<X<X",
"<X<X<X<X<X<X<X<X<X<X<X<X<X<Xd.Z.n.j.@.+.{ ,.v.H.l.<X<X<X<X<X<X<X<X<X<X<X<X<X<X<X<X<X<X<X<X<X<X<X<X<X",
"<X<X<X<X<X<X<X<X<X<X<X<X<X<X<X<XC.Z.m.k.x.D.H.<X<X<X<X<X<X<X<X<X<X<X<X<X<X<X<X<X<X<X<X<X<X<X<X<X<X<X",
"<X<X<X<X<X<X<X<X<X<X<X<X<X<X<X<X<X<XH.H._.E.<X<X<X<X<X<X<X<X<X<X<X<X<X<X<X<X<X<X<X<X<X<X<X<X<X<X<X<X",
"<X<X<X<X<X<X<X<X<X<X<X<X<X<X<X<X<X<X<X<X<X<X<X<X<X<X<X<X<X<X<X<X<X<X<X<X<X<X<X<X<X<X<X<X<X<X<X<X<X<X",
"<X<X<X<X<X<X<X<X<X<X<X<X<X<X<X<X<X<X<X<X<X<X<X<X<X<X<X<X<X<X<X<X<X<X<X<X<X<X<X<X<X<X<X<X<X<X<X<X<X<X",
"<X<X<X<X<X<X<X<X<X<X<X<X<X<X<X<X<X<X<X<X<X<X<X<X<X<X<X<X<X<X<X<X<X<X<X<X<X<X<X<X<X<X<X<X<X<X<X<X<X<X",
"<X<X<X<X<X<X<X<X<X<X<X<X<X<X<X<X<X<X<X<X<X<X<X<X<X<X<X<X<X<X<X<X<X<X<X<X<X<X<X<X<X<X<X<X<X<X<X<X<X<X",
"<X<X<X<X<X<X<X<X<X<X<X<X<X<X<X<X<X<X<X<X<X<X<X<X<X<X<X<X<X<X<X<X<X<X<X<X<X<X<X<X<X<X<X<X<X<X<X<X<X<X"
};
