/* XPM */
static char *_ef2baf4433844c8a8793ec13c31a534cAVrX5PEifPropJB[] = {
/* columns rows colors chars-per-pixel */
"25 25 118 2 ",
"   c None",
".  c #1A73DB",
"X  c #197BE7",
"o  c #1C78E4",
"O  c #1C80D1",
"+  c #178FE7",
"@  c #1A97E3",
"#  c #1997E4",
"$  c #1B9BE7",
"%  c #1796ED",
"&  c #1A95EA",
"*  c #1890ED",
"=  c #1993EF",
"-  c #1994EE",
";  c #1699EB",
":  c #1E99E8",
">  c #1998EC",
",  c #1B9AEE",
"<  c #1E8AF0",
"1  c #1996F1",
"2  c #1899F5",
"3  c #1A9CF6",
"4  c #1EA1E8",
"5  c #17ABEC",
"6  c #1CBDEE",
"7  c #18A0F3",
"8  c #18A1F4",
"9  c #16ABF3",
"0  c #17ACF3",
"q  c #19ADF0",
"w  c #18A5F9",
"e  c #18A7FB",
"r  c #16ABF8",
"t  c #1AA8F8",
"y  c #1AB4F0",
"u  c #19B3F7",
"i  c #18BEF2",
"p  c #19B9F5",
"a  c #19B8F7",
"s  c #14B1FA",
"d  c #17B2FA",
"f  c #17B5FB",
"g  c #18B4F8",
"h  c #14BBFA",
"j  c #16B9FC",
"k  c #12BDFC",
"l  c #18BEFA",
"z  c #14C3F6",
"x  c #19C6F1",
"c  c #1AC7F7",
"v  c #17C8F5",
"b  c #1AC9F2",
"n  c #18CFF5",
"m  c #13C2F8",
"M  c #17C0F8",
"N  c #16C3F9",
"B  c #16C3FB",
"V  c #16C7FA",
"C  c #15C2FC",
"Z  c #1AC3FA",
"A  c #18C5F9",
"S  c #15CAFA",
"D  c #16CCF9",
"F  c #11CBFD",
"G  c #12CAFE",
"H  c #16C8FE",
"J  c #1AD1F4",
"K  c #21CBF8",
"L  c #21D3F3",
"P  c #21D5F5",
"I  c #2CD6F3",
"U  c #2ED2F6",
"Y  c #25DEF7",
"T  c #2BDAF7",
"R  c #2CDDF6",
"E  c #2CE3F9",
"W  c #3DE6F5",
"Q  c #34EAF9",
"!  c #3BEFF9",
"~  c #4FDFF1",
"^  c #41DCF8",
"/  c #5DDBF2",
"(  c #70DFEF",
")  c #46E1F6",
"_  c #43E6F9",
"`  c #55E6F7",
"'  c #5AEBF4",
"]  c #54EBF8",
"[  c #53EEF9",
"{  c #56F1F9",
"}  c #51F7FA",
"|  c #61E9F7",
" . c #72F1F8",
".. c #74FFFD",
"X. c #7BFFFD",
"o. c #99EBF2",
"O. c #9EEEF4",
"+. c #8BF0F4",
"@. c #95F0F3",
"#. c #9DFFFE",
"$. c #A6E9F1",
"%. c #A5FAFA",
"&. c #A0FDFC",
"*. c #A0FEFE",
"=. c #B2FFFE",
"-. c #BCFFFE",
";. c #C4F8F8",
":. c #C6FFFD",
">. c #D0F7F9",
",. c #D9F4F8",
"<. c #DDFDFD",
"1. c #DFFDFD",
"2. c #E0F4F6",
"3. c #E2FFFE",
"4. c #EAFFFE",
"5. c #F0FDFC",
"6. c #FFFEFD",
"7. c #FDFFFE",
/* pixels */
"                                                  ",
"                                                  ",
"                          : 4                     ",
"                            #                     ",
"                            @ $                   ",
"                          O q                     ",
"                          a M                     ",
"                        a H 0 .                   ",
"                    1 g B l &                     ",
"                  % f d g                         ",
"                ; r 2 t >                         ",
"                t * o w -                         ",
"                1 < - j s 8                       ",
"                X 3 h G F k 8                     ",
"                * z E [ { Q D 9                   ",
"              5 z ) ;.5.1.#._ M                   ",
"              A T o.2.7.4.-.| B                   ",
"              K ( $.,.7.3.=.` S                   ",
"              c / O.>.1.:.#.] c A                 ",
"              z ^ +.@.%.*.X.W b                   ",
"                U ' ~  ...} P y                   ",
"                6 I L R ! Y i                     ",
"                    x n J                         ",
"                                                  ",
"                                                  "
};
