/* XPM */
static char *a2762c243cac4b80cc7a4314e1652cacubdDEdWuDC5TJvCC[] = {
/* columns rows colors chars-per-pixel */
"50 50 217 2 ",
"   c #356860",
".  c #357B70",
"X  c #4D7D4B",
"o  c #416D50",
"O  c #426D62",
"+  c #427965",
"@  c #3E873D",
"#  c #498E36",
"$  c #468D3D",
"%  c #4A8F3C",
"&  c #508C3C",
"*  c #479237",
"=  c #4C9436",
"-  c #4E9936",
";  c #46923C",
":  c #4C943B",
">  c #4E993B",
",  c #539636",
"<  c #599736",
"1  c #549B36",
"2  c #5B9D35",
"3  c #52953B",
"4  c #59973D",
"5  c #549A3B",
"6  c #5A9D3B",
"7  c #629F33",
"8  c #629E3B",
"9  c #4FA135",
"0  c #4FA13B",
"q  c #51A033",
"w  c #52A136",
"e  c #55A136",
"r  c #5DA135",
"t  c #55A13C",
"y  c #5CA03B",
"u  c #63A32F",
"i  c #63A235",
"p  c #6BA535",
"a  c #6EA837",
"s  c #63A23A",
"d  c #6AA53A",
"f  c #3F8850",
"g  c #378165",
"h  c #3D9567",
"j  c #398576",
"k  c #3E9A77",
"l  c #3E947B",
"z  c #4B8E42",
"x  c #488C45",
"c  c #538E43",
"v  c #55884F",
"b  c #4D9141",
"n  c #4C9341",
"m  c #4C9847",
"M  c #4B924C",
"N  c #549542",
"B  c #599645",
"V  c #559A42",
"C  c #5B9B43",
"Z  c #529349",
"A  c #5A954A",
"S  c #549B4A",
"D  c #5D9A4A",
"F  c #498D58",
"G  c #508F59",
"H  c #4B9654",
"J  c #4C9A54",
"K  c #49985D",
"L  c #549953",
"P  c #5D9A52",
"I  c #619D45",
"U  c #629B4B",
"Y  c #619D53",
"T  c #56A043",
"R  c #5AA142",
"E  c #55A056",
"W  c #60A244",
"Q  c #64A34D",
"!  c #66A053",
"~  c #448966",
"^  c #469969",
"/  c #438A7A",
"(  c #459877",
")  c #4AA168",
"_  c #327185",
"`  c #247C9C",
"'  c #1E68B9",
"]  c #2377A4",
"[  c #267EB9",
"{  c #1C73D8",
"}  c #287BC3",
"|  c #1B6BE1",
" . c #1577E5",
".. c #1F75E1",
"X. c #3A8786",
"o. c #3D9C8B",
"O. c #37899A",
"+. c #399490",
"@. c #3BA78C",
"#. c #39AA9A",
"$. c #3AB39F",
"%. c #2888AA",
"&. c #3385A5",
"*. c #2D93A8",
"=. c #2C9AB5",
"-. c #3390B3",
";. c #2FA8AE",
":. c #34A6A6",
">. c #2DA5BA",
",. c #33A3B4",
"<. c #1C95DE",
"1. c #2496C7",
"2. c #2783D8",
"3. c #2494D3",
"4. c #259BD6",
"5. c #27ACCA",
"6. c #25A3D5",
"7. c #23ABDB",
"8. c #26B8D9",
"9. c #1888E7",
"0. c #1B88EA",
"q. c #1794EE",
"w. c #1A97E8",
"e. c #199BEC",
"r. c #1C89F1",
"t. c #1695F1",
"y. c #1A92F3",
"u. c #1B99FA",
"i. c #2292FA",
"p. c #1EA5EC",
"a. c #1AB8ED",
"s. c #1CBFEE",
"d. c #16A3F4",
"f. c #1BA7F2",
"g. c #16ABF4",
"h. c #18A3FB",
"j. c #14ACFD",
"k. c #19ADFD",
"l. c #19B8F4",
"z. c #16B4FB",
"x. c #19B4FA",
"c. c #15BBFD",
"v. c #19BBFC",
"b. c #20AAED",
"n. c #27B6E5",
"m. c #22BAE3",
"M. c #27C1DC",
"N. c #1CC0EA",
"B. c #1CDAEF",
"V. c #1BC4F4",
"C. c #16CBF4",
"Z. c #1BCCF3",
"A. c #15C4FD",
"S. c #1AC2FB",
"D. c #14CBFD",
"F. c #1ACDFB",
"G. c #1CD4F3",
"H. c #1ADAF5",
"J. c #14D4FB",
"K. c #1BD2FA",
"L. c #16DBFC",
"P. c #19DBFB",
"I. c #21C0E8",
"U. c #27D3F3",
"Y. c #2FD3F2",
"T. c #2BD9F5",
"R. c #30D6F2",
"E. c #1BE6FA",
"W. c #16E9FC",
"Q. c #28E4F5",
"!. c #3CE3F2",
"~. c #30E8F6",
"^. c #33F1F5",
"/. c #46D5ED",
"(. c #5AD5EA",
"). c #44D6F3",
"_. c #78DBEA",
"`. c #44E3F3",
"'. c #4BE4F3",
"]. c #48EBF5",
"[. c #5DEAF4",
"{. c #49F7FA",
"}. c #5BF1F5",
"|. c #54F9FA",
" X c #5DFDFE",
".X c #62E9F2",
"XX c #63F4F7",
"oX c #66FEFD",
"OX c #73F2F9",
"+X c #73FFFD",
"@X c #88DCE9",
"#X c #9BDFE9",
"$X c #8DE7EE",
"%X c #87EDF3",
"&X c #99EEF2",
"*X c #88F5F7",
"=X c #85FDFC",
"-X c #8EFEFD",
";X c #94F3F6",
":X c #94FEFE",
">X c #9BFDFD",
",X c #B7EDF4",
"<X c #A9F5F5",
"1X c #A2F5FA",
"2X c #A3FEFE",
"3X c #ADFDFC",
"4X c #B9F6F9",
"5X c #B7FFFE",
"6X c #BBFEFD",
"7X c #C7F6F7",
"8X c #CAFCFB",
"9X c #D2FEFD",
"0X c #DDF8F9",
"qX c #E3FDFD",
"wX c #EAFDFD",
"eX c #F5FFFD",
"rX c #FCFEFD",
/* pixels */
"0 - 9 9 9 - w w w 1 1 e 5 5 6 , % : % > > , 1 1 = = = 1 - = ; ; = , ; ; ; ; $ ; = = * : $ $ $ $ $ ; ",
"9 0 9 q q w w w t 1 1 e 1 , 5 , 3 4 3 , , , = 1 , > = , , * # * = , , = = 5 : : = = > ; ; : : % ; ; ",
"t 9 q e e e e w 1 y 5 1 5 , , < 2 5 6 , , = > 5 1 > M +.,.=.+.n * , 6 , * ; 5 5 > : : ; ; $ z # # $ ",
"w 1 q e 2 e e e y 1 1 5 , 4 , , 3 : > , , : > , 1 n -.4.4.f.b.l = = , : % % 3 , 3 = z n : z z : : # ",
"- 1 1 e 6 6 1 5 5 5 5 5 1 6 < 3 3 : > : 3 = = > > ~ &.M x ` d.=.z ; $ ; $ n : ; : ; x : n z n % : ; ",
"q t y t t 5 5 n N : 5 5 1 1 , 3 4 , , : : : > - 1 F + , > . e.7.f $ $ $ # : > n ; $ z z N z z : : z ",
"6 t C D C 4 V n : 1 5 4 4 5 > = 1 , , 4 3 3 3 5 > H Z , 6 . e.a.g ; @ $ n > > n ; z m Z x % N c z : ",
"6 6 C B U A B S S t R S V V V 5 , 3 , 6 , 6 3 4 N X./ 6 & _ e.l.X.- > > n ; * n n Z N z x % : : n N ",
"6 6 6 I I U U D D C W W U B B V 4 B 3 < , , 5 6 6 M ~ 4   ' g.x.X.1 > = * n > : n N 4 N n : 5 : : % ",
"4 4 C W C D U I I Q Q Q Y A A B 6 8 4 B 6 4 < < 4 4 5 m %.y.l.v.l , > = * > 3 1 3 3 4 3 5 4 5 5 3 3 ",
"C S D C 4 V I C 8 C Q Y U U A B C 8 v O 4 4 4 4 3 N 4 ( b.g.D.s.K , 3 3 > 1 4 4 4 z n N n 3 5 4 3 N ",
"D P ! D S B D B 4 4 4 C I U U N A I X o B I B C C C D >.c.c.D.>.x : & 3 V n 3 , : n n N : n > 5 4 C ",
": Z P P L Y U B B D D I s I I I A N c O A U A C C I ( l.D.D.S.%.z % z 3 n n 4 5 ; n V V 5 n V V B B ",
"V B P P P P U D D Y U I W U U I I c B v I I I 4 I ) 5.A.D.D.x. .X.N B B N 5 6 5 V C C 5 N C C 4 S B ",
"S Z D ! P A A S B U U D I I U U I v A A B 4 L ( ,.n.A.D.A.S.<.{ 2.J 4 B 5 y y C C 6 R C I I C B B c ",
"N B A A P A S B B D U A D 6 8 I I 8 I I G O.3.f.c.c.A.A.S.6.~ M / Z V B V W W W s S D Q Q B 3 c N c ",
": N C C B B S B 6 R C 6 V 6 s 6 B 6 6 G } t.z.c.v.g.A.v.>.J 1 1 5 C S V 3 N C 6 4 n 3 N N N B N c c ",
"- 4 6 V D D C 6 C 5 1 4 6 C i r , : z ] t.z.c.z.g.x.v.=.V 1 z ~ 5 5 5 4 B N Z 3 n 4 3 N N B 4 N N S ",
"> > > V I C 6 s 4 V V 6 y C y e 1 : g 9.z.c.k.j.j.z.6.H 1 , : M 5 1 > V Z V 3 4 6 6 2 4 < 6 6 N N V ",
": : : 5 5 y y y t t R y y 5 5 1 1 N *.x.c.h.r.u.j.k.%., n n 3 , 1 > > : 3 4 4 6 < 2 7 2 6 6 < N n n ",
"3 n n 3 5 y s w 6 y 1 5 1 > = * = h p.z.d. .| r.j.h.[ n > n : : : > : > : N 3 , 4 < < 6 6 r 6 3 = > ",
"5 N : V 4 6 y 1 1 t 1 n > - > > 1 *.k.k.9.....0.z.j.9.j > ; : n ; : > : N N N 3 3 : 5 4 4 < 4 3 : V ",
"4 3 : : , 6 5 > ; 1 > = > > > 2 N 4.x.q.0.....e.c.c.h.3.h $ > > - 1 5 5 5 3 4 : n n 3 3 > : : : V n ",
"6 3 3 : 4 t 1 > = = > : : : = 1 V 4.u.9.i.r.q.v.c.c.c.d.4.^ > > 1 1 r i 2 1 1 , 3 4 3 N V 3 N V V > ",
"5 , , 3 , 6 1 1 5 4 > : & # > 5 5 O. .y.u.q.k.A.A.A.c.c.j.w.l 1 1 2 2 r 2 1 1 5 5 3 3 3 3 4 V 5 T t ",
"- 1 , : : 5 < 6 , , 4 # & > 1 1 5 ~ | u.y.z.A.A.A.D.D.D.A.z.e.X.3 5 1 < < , 5 1 4 & z N 3 3 5 N 5 1 ",
"> y 6 : : 3 1 5 3 3 , 4 5 5 6 6 2 F { y.z.A.J.E.W.W.W.W.L.D.c.e.j : : = 4 5 , > > % z & n : : : 1 < ",
"6 s s 3 % : N : % : , 4 6 2 < 2 6 . 9.l.D.E.Q.^.}.}.}.|.^.W.J.A.6.K 1 , 5 < 5 > > 3 : N 3 : : 3 > > ",
"s d d s 4 N : : 3 4 t 6 t 2 5 1 S 1.v.C.G.].%X7XqXqX9X5XOX{.E.D.A.:.3 5 4 , = > , 1 3 5 1 5 , 3 N : ",
"s s y W I s 4 C R y s 6 1 t 5 5 :.c.D.J.!.4XeXrXrXeXqX9X3X-X`.D.A.m.J 1 : , 5 6 2 1 6 5 2 2 5 1 > > ",
"s 8 R s W s s s i s y < 1 5 1 k s.D.J.T.$X0XwXrXrXrXwX9X5X2X.XZ.A.s.) 1 5 : 1 1 t 5 5 5 r r 1 > : * ",
"i 8 s s d d a a p p d s 1 1 > >.A.J.H.[.7X#X0XrXrXrXwX9X5X>X.XC.D.N.) 5 5 n 5 5 > > > 3 4 4 : 1 = * ",
"8 s s y 2 p p p p p p s 6 , M 8.D.R./.,X7X_.eXrXrXeXwX9X5X:X'.D.D.s.^ V > > n > V : > , n : V > - 1 ",
"s s s s s d p d p p p s 6 , K m.D.)._.8X#X@XeXrXrXeX0X8X3X:X'.C.D.F.@.V T > > n N 3 C 4 : : > > t 1 ",
"s 6 d d d p p d p d i s 5 4 J n.D.).(.4X$X$XeXeXeXqX9X5X2X-X[.C.S.D.#.5 T > > T 5 V R 5 T > > T 5 1 ",
"6 7 8 p s y 2 6 s s y s 6 6 R 5.D.F.Y.4X&X$XqXqX9X8X8X3X:X=X].G.s.D.@.5 T T 5 - - 5 t T > > R 1 5 1 ",
"y r i p i 6 5 2 6 y 6 6 6 y y o.D.J.T.1X<X_.7X<X3X6X5X>X=X+X!.B.C.N.) T T T > - > > > T t T 6 t 6 2 ",
"i i r i p p i 1 2 6 1 6 y e r J 8.J.U.;X;X.X;X;X>X2X>X=X+X XT.U.D.5.S R R 5 T T T V T V V T C 6 6 2 ",
"d p r i p d y 6 5 5 4 5 6 5 2 6 :.F.U.OX.X}..X*X:X-X=X+X X{.U.C.V.#.5 T R t T T T T T T T V 1 6 2 u ",
"p s y p i s y 2 4 3 3 3 1 , 5 < H 8.Z.'.XX'.R.).OX+XoX X{.Q.J.V.=.V 6 5 R R 5 t > > T T : V - y 7 u ",
"i 2 6 r r 7 2 2 1 3 : : : : 3 5 3 k I.P.].!.U.V.!.|.|.{.Q.J.A.=.H 2 6 5 5 5 5 , > n n > ; n - - , q ",
"6 5 1 5 2 2 e 2 2 5 > N 5 1 < 6 5 : k 8.K.T.H.L.P.~.^.Q.G.J.5.^ 7 6 2 y 2 1 5 = = * * * ; > 5 w 1 1 ",
"= , : , 2 2 < 2 2 5 , 3 5 1 6 5 , 4 2 K ;.M.Z.J.P.P.P.G.M.$.E 8 6 6 6 2 6 6 5 > ; * * * * 1 1 2 2 2 ",
"3 : 3 , , , : > , 1 > , 5 1 : 3 , 6 6 < 4 J h @.#.$.@.) L 4 i 6 6 6 6 4 6 7 6 = * : = * 2 r 2 2 < u ",
"5 1 1 1 3 = > > 5 > > > 5 5 1 : : : # # 4 3 # = > 5 5 , 4 5 6 6 6 6 5 6 5 1 1 > > * * = 2 u 2 2 p 7 ",
"y 5 6 5 > 1 , : 1 1 - V 5 5 y y > # # 3 = : n 5 5 5 : 3 V 4 1 5 < 6 V 1 > > > > < 1 = 1 2 2 7 i 7 7 ",
"2 6 6 2 5 1 1 1 1 1 5 5 5 1 5 5 6 2 6 1 = * > V V > V 5 4 6 5 6 1 5 3 : : ; * > 2 1 1 1 2 2 7 7 7 7 ",
"i i 6 e y 6 t 5 1 t 1 5 V 5 : $ B s 2 4 : : * > T V : : 3 6 6 5 5 4 V 4 5 1 1 1 2 2 1 2 u 2 7 7 u u ",
"i d 2 2 y y 1 1 2 1 1 1 y y V z % 3 6 s 6 1 1 5 > > > > V V , 6 6 5 5 y s 6 2 2 7 7 2 i i 2 2 2 < 7 ",
"a p i e r i r e 2 2 1 - e y t 5 C 4 2 i s 5 1 > 5 > > 5 5 4 , 5 6 6 6 e i 7 7 i 7 i u u u , 2 , , , "
};
