/* XPM */
static char *TWFnaWNfcHJvcHNfUmFzaG1pX1Npbmdo[] = {
/* columns rows colors chars-per-pixel */
"49 50 224 2 ",
"   c #1B190C",
".  c #121717",
"X  c #161D1A",
"o  c #151D14",
"O  c #231D0C",
"+  c #291F0D",
"@  c #241E16",
"#  c #0E3908",
"$  c #133709",
"%  c #19221D",
"&  c #16231A",
"*  c #0D2E05",
"=  c #26210F",
"-  c #2B220E",
";  c #262211",
":  c #2A2512",
">  c #2D2815",
",  c #2A2A1B",
"<  c #25291C",
"1  c #342C14",
"2  c #352D18",
"3  c #2A3419",
"4  c #3C351A",
"5  c #3A3619",
"6  c #23300F",
"7  c #1D2A23",
"8  c #1A2A25",
"9  c #153831",
"0  c #1E332B",
"q  c #252C23",
"w  c #253224",
"e  c #25312B",
"r  c #2A3727",
"t  c #363322",
"y  c #3B3422",
"u  c #3D3A25",
"i  c #3A3A2D",
"p  c #2A3933",
"a  c #313D39",
"s  c #312D20",
"d  c #443516",
"f  c #4B3A17",
"g  c #483A1B",
"h  c #513E17",
"j  c #433C23",
"k  c #453E2A",
"l  c #12440B",
"z  c #114B09",
"x  c #165A09",
"c  c #1E4714",
"v  c #234A0E",
"b  c #245B0D",
"n  c #264619",
"m  c #295817",
"M  c #35591D",
"N  c #176507",
"B  c #1A7908",
"V  c #1F6211",
"C  c #236E0C",
"Z  c #28780E",
"A  c #296717",
"S  c #386D1A",
"D  c #2A7814",
"F  c #367D12",
"G  c #2A4427",
"H  c #344628",
"J  c #2E5524",
"K  c #345524",
"L  c #375C26",
"P  c #2E4234",
"I  c #354539",
"U  c #365734",
"Y  c #376627",
"T  c #3B7824",
"R  c #3D6D33",
"E  c #2E7331",
"W  c #43471C",
"Q  c #45561B",
"!  c #58441A",
"~  c #654C1C",
"^  c #6F511E",
"/  c #45731C",
"(  c #5F7B1E",
")  c #4D4427",
"_  c #4A4529",
"`  c #544B2B",
"'  c #554721",
"]  c #484535",
"[  c #4F562D",
"{  c #60532D",
"}  c #685A32",
"|  c #426526",
" . c #497725",
".. c #567924",
"X. c #456A39",
"o. c #546F34",
"O. c #646431",
"+. c #2D4A41",
"@. c #394947",
"#. c #3C524B",
"$. c #3F5745",
"%. c #3A5251",
"&. c #32744A",
"*. c #3E7E7E",
"=. c #454E47",
"-. c #41564F",
";. c #575647",
":. c #475955",
">. c #615E4F",
",. c #446446",
"<. c #4D675C",
"1. c #4C7845",
"2. c #656456",
"3. c #4E6566",
"4. c #516667",
"5. c #56716A",
"6. c #4B7979",
"7. c #597475",
"8. c #586E75",
"9. c #767568",
"0. c #647978",
"q. c #737366",
"w. c #1C8406",
"e. c #1F840A",
"r. c #1D9A06",
"t. c #2B820C",
"y. c #229209",
"u. c #28980B",
"i. c #2E8314",
"p. c #358412",
"a. c #379615",
"s. c #1EA704",
"d. c #26A607",
"f. c #31AA0C",
"g. c #25B706",
"h. c #33B30C",
"j. c #2FA510",
"k. c #38A814",
"l. c #3AB814",
"z. c #3D882B",
"x. c #4A9219",
"c. c #46A51A",
"v. c #57A61C",
"b. c #4AB41C",
"n. c #56B81B",
"m. c #62BD1F",
"M. c #478528",
"N. c #568D2A",
"B. c #48A825",
"V. c #57B12E",
"C. c #2AC608",
"Z. c #32CC0A",
"A. c #36C60C",
"S. c #38D30B",
"D. c #3CD210",
"F. c #46D70E",
"G. c #56C41E",
"H. c #47DB12",
"J. c #58DD16",
"K. c #44CC19",
"L. c #65C11F",
"P. c #75DF19",
"I. c #5BE218",
"U. c #4BE01A",
"Y. c #75E71D",
"T. c #6AE31A",
"R. c #5AC427",
"E. c #5FC438",
"W. c #63CA2B",
"Q. c #68C429",
"!. c #74CB27",
"~. c #72D324",
"^. c #2F8D62",
"/. c #599743",
"(. c #588961",
"). c #639265",
"_. c #68CB45",
"`. c #6FD853",
"'. c #8FBE1C",
"]. c #8FE91F",
"[. c #AAEE1F",
"{. c #88E923",
"}. c #96EB26",
"|. c #94EF38",
" X c #ACEE28",
".X c #ACF334",
"XX c #868578",
"oX c #88DB4A",
"OX c #93ED4D",
"+X c #B4FA54",
"@X c #80E577",
"#X c #A9FB61",
"$X c #677B80",
"%X c #2D8F83",
"&X c #2AA485",
"*X c #438688",
"=X c #6C8C98",
"-X c #7D979B",
";X c #718993",
":X c #7795A4",
">X c #989487",
",X c #8E9691",
"<X c #82BF80",
"1X c #ABA99E",
"2X c #879EA0",
"3X c #8BA2A3",
"4X c #96ADB2",
"5X c #8EA6AF",
"6X c #BBB3A7",
"7X c #ACF781",
"8X c #99DCA3",
"9X c #D4C7B9",
"0X c #CFC4B7",
"qX c #A6BCC2",
"wX c #A1BFD4",
"eX c #ABC4D6",
"rX c #C4D4D9",
"tX c #CDFEC9",
"yX c #C6DAE9",
"uX c #D3EEEC",
"iX c #FDFEFF",
"pX c #F5F9FD",
"aX c #E4F0F9",
"sX c None",
/* pixels */
"sXsXsXsXsXsXsXsXsXsXsXsXsXsXsXsXsXsXsXsXsXsXsXsXsXsXsXsXsXsXsXsXsXsXsXsXsXsXsXsXsXsXsXsXsXsXsXsXsX",
"sXsXsXsXsXsXsXsXsXsXsXsXsXsXsXsXsXsXsXsXsXsXsXsXsXsXsXsXsXsXsXsXsXsXsXsXsXsXsXsXsXsXsXsXsXsXsXsXsX",
"sXsXsXsXsXsXsXsXsXsXsXsXsXsXsXsXsXsXsXsXsXsXsXsXsXsXsXsXsXsXsXsXsXsXsXsXsXsXsXsXsXsXsXsXsXsXsXsXsX",
"sXsXsXsXsXsXsXsXsXsXsXsXsXsXsXsXsXsXsXsXsXsXsXsXsXsXsXsXsXsXsXsXsXsXsXsXsXsXsXsXsXsXsXsXsXsXsXsXsX",
"sXsXsXsXsXsXsXsXsXsXsXsXsXsXsXsXsXsXsXsXsXsXsXsXsXsXsXsXsXsXsXsXsXsXsXsXsXsXsXsXsXsXsXsXsXsXsXsXsX",
"sXsXsXsXsXsXsXsXsXsXsXsXsXsXsXsXsXsXsXsXsXsXsXsXsXsXsXsXsXsXsXsXsXsXsXsXsXsXsXsXsXsXsXsXsXsXsXsXsX",
"sXsXsXsXsXsXsXsXsXsXsXsXsXsXsXsXsXsXsXsXsXsXsXsXsXsXsXsXsXsXsXsXj sXsXsXsXsXsXsXsXsXsXsXsXsXsXsXsX",
"sXsXsXsXsXsXsXsXsXsXsXsXsXsXsXsXsXsXsXsXsXsXsXsXsXsXsXsXsXsXsXsXg ' 4 sXsXsXsXsXsXsXsXsXsXsXsXsXsX",
"sXsXsXsXsXsXsXsXsXsXsXsXsXsXsXsXsXsXsXsXsXsXsXsXsXsXsXsXsXsXsXg ~ h f d sXsXsXsXsXsXsXsXsXsXsXsXsX",
"sXsXsXsXsXsXsXsXsXsXsXsXsXsXsXsXsXsXsXsXsXsXsXsXsXsX-.sXsXsXsXf ^ ^ h d 4 d sXsXsXsXsXsXsXsXsXsXsX",
"sXsXsXsXsXsXsXsXsXsXsXsXsXsXsXsXsXsXsXsXsXsXsXsXsX@.:.-.e sXg f ~ ~ h 1 - 2 4 sXsXsXsXsXsXsXsXsXsX",
"sXsXsXsXsXsXsXsXsXsXsXsXsXsXsXsXsXsXsXsXsXsXsXsX:.-.7.8.@.q 2 f d d d - - - : d sXsXsXsXsXsXsXsXsX",
"sXsXsXsXsXsXsXsXsXsXsXsXsXsXsXsXsXsXsXsXsXsXsXsXsXq.3X5X3.p 2 4 4 f 1 + O     w sXsXsXsXsXsXsXsXsX",
"sXsXsXsXsXsXsXsXsXsXsXsXsXsXsXsXsXsXsXsXsXsXsXsXsX3X3XrX4X3.a > 4 d - +   & 9 sXsXsXsXsXsXsXsXsXsX",
"sXsXsXsXsXsXsXsXsXsXsXsXsXsXsXsXsXsXsXsXsXsXsXsXsX] 0.3XqX;X3.a , : =     9 sXsXsXsXsXsXsXsXsXsXsX",
"sXsXsXsXsXsXsXsXsXsXsXsXsXsXsXsXsXsXsXsXsXsXsXsXk k k :.0.3.:.@.p , & & 8 sXsXsXsXsXsXsXsXsXsXsXsX",
"sXsXsXsXsXsXsXsXsXsXsXsXsXsXsXsX;X3.#.a p e e I j ' y k =.:.p s t p e 7 % sXsXsXsXsXsXsXsXsXsXsXsX",
"sXsXsXsXsXsXsXsXsXsXsXsXsXsX-X4.@.p G P p r w H j j ` ) 2 ] =.p < q e % & & sXsXsXsXsXsXsXsXsXsXsX",
"sXsXsXsXsXsXsXsXsXsXsXsX4X0.;X2X0.#.I p 8 X X q k j ` y ` ` k =.I q 8 0 0 9 sXsXsXsXsXsXsXsXsXsXsX",
"sXsXsXsXsXsXsXsXsXsXsX2X3.;XrX4X:X:X=X8.@.8 . . q u j 2 { } ) t I %.+.%.6.*.%XsXsXsXsXsXsXsXsXsXsX",
"sXsXsXsXsXsXsXsXsXsX-X-.3.4X5XeXaXiXaXwX8.p X . . 3 u , { } k > @ p 8.6.$X*XsXsXsXsXsXsXsXsXsXsXsX",
"sXsXsXsXsXsXsXsXsX-X-.I 5.=XyXpXiXiXyX:X@.e % . . X < s ) ` d @ q 0 sXsXsXsXsXsXsXsXsXsXsXsXsXsXsX",
"sXsXsXsXsXsXsXsXsX3.P $.8.eXiXiXaXeX=X:.a 0 8 8 X X q ) k t , t +.p sXsXsXsXsXsXsXsXsXsXsXsXsXsXsX",
"sXsXsXsXsXsXsXsX5.U U #.=XaXiXuX8X<X).1.R Y J G G w r O.} t s H &.sXsXsXsXsXsXsXsXsXsXsXsXsXsXsXsX",
"sXsXsXsXsXsXsXsX$.R 1.(.8XyXtX#X+X#XoXQ.m.n.B.x.i.Z b Q ` k r q U &XsXsXsXsXsXsXsXsXsXsXsXsXsXsXsX",
"sXsXsXsXsXsXsX<.R V._.`.`.7X#X+X+XOX!.m.Q.L.n.c.k.t.Z [ _ t m m A ^.sXsXsXsXsXsXsXsXsXsXsXsXsXsXsX",
"sXsXsXsXsXsXsX1.z.N.E._.`.`.#X|.{.!.m.!.!.n.n.b.c.i.D O.} u A D T &.sXsXsXsXsXsXsXsXsXsXsXsXsXsXsX",
"sXsXsXsXsXsXsXR z.c m M.V.E.E.W.Q.E.R.W.W.m.R.c.a.D Z S ` y J b S E &XsXsXsXsXsXsXsXsXsXsXsXsXsXsX",
"sXsXsXsXsXsXsXY T $ $ l m A x V A D D D i.i.Z C t.C V M ] u 3 6 3 J ^.sXsXsXsXsXsXsXsXsXsXsXsXsXsX",
"sXsXsXsXsXsXsXL T $ # $ # l z x N N x x x N x N b v v 5 ` { s : : 3 &.sXsXsXsXsXsXsXsXsXsXsXsXsXsX",
"sXsXsXsXsXsXsXK J $ # # l z N B y.r.B B B w.w.t.Q : = : _ ` < : > ; r sXsXsXsXsXsXsXsXsXsXsXsXsXsX",
"sXsXsXsXsXsXsXK J c * # z N y.e.y.r.r.r.s.s.d.u.Q : O - H 3 i q.9.;.1 ; sXsXsXsXsXsXsXsXsXsXsXsXsX",
"sXsXsXsXsXsXsXU K L # # x e.l.j.d.f.s.g.g.g.g.h.Q 6 = - 2 j >X9X0X1X2.: ; sXsXsXsXsXsXsXsXsXsXsXsX",
"sXsXsXsXsXsXsX| G X.c z N w.u.f.s.g.C.C.C.C.Z.Z./ 1 = - - >.0X9X6X2.;.k = = ; , sXsXsXsXsXsXsXsXsX",
"sXsXsXsXsXsXsXsXG U R z B w.r.h.A.C.C.C.C.S.S.F.x.5 = = 2 q.9X>XXX;.j ;.; ; ; , sXsXsXsXsXsXsXsXsX",
"sXsXsXsXsXsXsXsXM n o.V B j.d.g.Z.C.C.Z.Z.S.H.J.n.Q - = - >.6X;.] 9.2.2.> ; w sXsXsXsXsXsXsXsXsXsX",
"sXsXsXsXsXsXsXsXsXm J  .D j.j.f.Z.Z.S.S.F.J.T.T.P.( 1 = : u >X2.;.XXq.q.s > , sXsXsXsXsXsXsXsXsXsX",
"sXsXsXsXsXsXsXsXsXsXm M p.u.k.k.A.D.H.I.J.Y.}.}.[.'.W : : : k ).>X,XXX2.k > r sXsXsXsXsXsXsXsXsXsX",
"sXsXsXsXsXsXsXsXsXsXT A m p.a.j.l.K.U.I.Y.{. X.X[.].N.1 - : > 4 y j k k @ s sXsXsXsXsXsXsXsXsXsXsX",
"sXsXsXsXsXsXsXsXsXsXsX .m m F a.k.b.K.J.Y.{.}.}.{.~.v.f : = - : @ > s @ s sXsXsXsXsXsXsXsXsXsXsXsX",
"sXsXsXsXsXsXsXsXsXsXsXsXsXM n m F a.c.b.G.G.R.n.v.v.M.| 5 : = - - > > , sXsXsXsXsXsXsXsXsXsXsXsXsX",
"sXsXsXsXsXsXsXsXsXsXsXsXsXsX| K n n b S S S S / /  .../.X.2 : : : w sXsXsXsXsXsXsXsXsXsXsXsXsXsXsX",
"sXsXsXsXsXsXsXsXsXsXsXsXsXsXsXsX .| L K n H K | ..N.sXsXsXsXP , ; sXsXsXsXsXsXsXsXsXsXsXsXsXsXsXsX",
"sXsXsXsXsXsXsXsXsXsXsXsXsXsXsXsXsXsXsXsXsXsXsXsXsXsXsXsXsXsXsXsXsXsXsXsXsXsXsXsXsXsXsXsXsXsXsXsXsX",
"sXsXsXsXsXsXsXsXsXsXsXsXsXsXsXsXsXsXsXsXsXsXsXsXsXsXsXsXsXsXsXsXsXsXsXsXsXsXsXsXsXsXsXsXsXsXsXsXsX",
"sXsXsXsXsXsXsXsXsXsXsXsXsXsXsXsXsXsXsXsXsXsXsXsXsXsXsXsXsXsXsXsXsXsXsXsXsXsXsXsXsXsXsXsXsXsXsXsXsX",
"sXsXsXsXsXsXsXsXsXsXsXsXsXsXsXsXsXsXsXsXsXsXsXsXsXsXsXsXsXsXsXsXsXsXsXsXsXsXsXsXsXsXsXsXsXsXsXsXsX",
"sXsXsXsXsXsXsXsXsXsXsXsXsXsXsXsXsXsXsXsXsXsXsXsXsXsXsXsXsXsXsXsXsXsXsXsXsXsXsXsXsXsXsXsXsXsXsXsXsX",
"sXsXsXsXsXsXsXsXsXsXsXsXsXsXsXsXsXsXsXsXsXsXsXsXsXsXsXsXsXsXsXsXsXsXsXsXsXsXsXsXsXsXsXsXsXsXsXsXsX",
"sXsXsXsXsXsXsXsXsXsXsXsXsXsXsXsXsXsXsXsXsXsXsXsXsXsXsXsXsXsXsXsXsXsXsXsXsXsXsXsXsXsXsXsXsXsXsXsXsX"
};
