/* XPM */
static char *am9lbi1iYWdlci1wb3Rpb25zLTEtcmVtb3ZlYmctcHJldmlldw__[] = {
/* columns rows colors chars-per-pixel */
"50 50 220 2 ",
"   c #7C0B0A",
".  c #5D2F1A",
"X  c #602D1E",
"o  c #6C331C",
"O  c #73351E",
"+  c #7D391D",
"@  c #7A351D",
"#  c #732917",
"$  c #4D2B29",
"%  c #4E2E32",
"&  c #552D34",
"*  c #5A3133",
"=  c #553239",
"-  c #502C2C",
";  c #753620",
":  c #783827",
">  c #63353E",
",  c #6D343C",
"<  c #673837",
"1  c #793935",
"2  c #732F30",
"3  c #5A3A46",
"4  c #6B3E4C",
"5  c #643846",
"6  c #77384A",
"7  c #684653",
"8  c #724E5C",
"9  c #7A4A5A",
"0  c #734553",
"q  c #6E444C",
"w  c #6D4C60",
"e  c #774A62",
"r  c #800E05",
"t  c #891C0B",
"y  c #911609",
"u  c #981E11",
"i  c #871F1A",
"p  c #A71C07",
"a  c #82391D",
"s  c #8E3C18",
"d  c #9A3917",
"f  c #942910",
"g  c #B8360B",
"h  c #A42914",
"j  c #A93013",
"k  c #8C2825",
"l  c #8A3C24",
"z  c #83333E",
"x  c #993833",
"c  c #A22926",
"v  c #A53329",
"b  c #A43C33",
"n  c #B43F32",
"m  c #DF0415",
"M  c #DF011A",
"N  c #DA0A19",
"B  c #E20C0E",
"V  c #E4140D",
"C  c #E71C0B",
"Z  c #E10414",
"A  c #E10C12",
"S  c #E1011B",
"D  c #E31212",
"F  c #E81B12",
"G  c #DE3F0A",
"H  c #C43F11",
"J  c #CF250D",
"K  c #E92408",
"L  c #EA2B09",
"P  c #EB2708",
"I  c #FD2901",
"U  c #EE3406",
"Y  c #EE3B05",
"T  c #EC3508",
"R  c #F13E04",
"E  c #FC3C02",
"W  c #F73003",
"Q  c #EA371C",
"!  c #D31727",
"~  c #DE0721",
"^  c #DD203D",
"/  c #D33024",
"(  c #AE430F",
")  c #A64419",
"_  c #B55012",
"`  c #85442B",
"'  c #8A4229",
"]  c #8C4826",
"[  c #9E4D2C",
"{  c #974928",
"}  c #9C5029",
"|  c #884534",
" . c #944C38",
".. c #B84728",
"X. c #A8562E",
"o. c #A4552D",
"O. c #A44130",
"+. c #BC4C32",
"@. c #AD5B32",
"#. c #A75631",
"$. c #B15D32",
"%. c #B45236",
"&. c #B36035",
"*. c #B4623B",
"=. c #BD693E",
"-. c #CC570D",
";. c #DA5210",
":. c #D05312",
">. c #E94508",
",. c #F24403",
"<. c #FE4201",
"1. c #F54B03",
"2. c #FD4C02",
"3. c #F24309",
"4. c #E65A0A",
"5. c #F55403",
"6. c #FD5401",
"7. c #F65B04",
"8. c #FA5C02",
"9. c #F2520C",
"0. c #E46807",
"q. c #FC6401",
"w. c #FC6C01",
"e. c #F56809",
"r. c #FD7401",
"t. c #FE7C01",
"y. c #EE7817",
"u. c #C44B34",
"i. c #EE5D25",
"p. c #D26B3A",
"a. c #F1602A",
"s. c #F37923",
"d. c #893948",
"f. c #913144",
"g. c #823956",
"h. c #983E55",
"j. c #B93E49",
"k. c #823F62",
"l. c #D6324C",
"z. c #984849",
"x. c #964556",
"c. c #915254",
"v. c #BD554A",
"b. c #AC5650",
"n. c #986154",
"m. c #B16650",
"M. c #894B65",
"N. c #85566A",
"B. c #86556B",
"V. c #995569",
"C. c #8B5E73",
"Z. c #895776",
"A. c #955D75",
"S. c #985B78",
"D. c #A14A60",
"F. c #A55C68",
"G. c #A15C74",
"H. c #AE5E77",
"J. c #B05C73",
"K. c #896278",
"L. c #996979",
"P. c #94757E",
"I. c #A1647D",
"U. c #A86A76",
"Y. c #AE6766",
"T. c #C3525A",
"R. c #CA754A",
"E. c #F17150",
"W. c #D75777",
"Q. c #C2656F",
"!. c #FE8402",
"~. c #FE8C02",
"^. c #F78108",
"/. c #FE9401",
"(. c #FE9D01",
"). c #F98917",
"_. c #FFA104",
"`. c #FEA80C",
"'. c #FEAD15",
"]. c #D98224",
"[. c #F99629",
"{. c #FB9139",
"}. c #F6AC26",
"|. c #FEB824",
" X c #FCB45F",
".X c #F7A668",
"XX c #9B6C82",
"oX c #9B6480",
"OX c #97768B",
"+X c #9B7E91",
"@X c #A1718B",
"#X c #AB748B",
"$X c #B77188",
"%X c #B2718A",
"&X c #E15F80",
"*X c #BB8497",
"=X c #AF8691",
"-X c #BF86A0",
";X c #BD98AA",
":X c #BFA8B7",
">X c #D1829F",
",X c #C59298",
"<X c #D9A08E",
"1X c #C686A3",
"2X c #D791B0",
"3X c #E285A6",
"4X c #E593B3",
"5X c #C2A0B2",
"6X c #C8B0BF",
"7X c #C7ADAA",
"8X c #CEB3C3",
"9X c #D0BBC2",
"0X c #DBCAD3",
"qX c #EAD6D8",
"wX c #E7DEE3",
"eX c #EBE2E8",
"rX c #FDFCFD",
"tX c #FAF6F5",
"yX c #F3EDF1",
"uX c None",
/* pixels */
"uXuXuXuXuXuXuXuXuXuXuXuXuXuXuXuXuXuXuXuXuXuXuXuXuXuXuXuXuXuXuXuXuXuXuXuXuXuXuXuXuXuXuXuXuXuXuXuXuXuX",
"uXuXuXuXuXuXuXuXuXuXuXuXuXuXuXuXuXuXuXuXuXuXuXuXuXuXuXuXuXuXuXuXuXuXuXuXuXuXuXuXuXuXuXuXuXuXuXuXuXuX",
"uXuXuXuXuXuXuXuXuXuXuXuXuXuXuXuXuXuXuXuXuXuXuXuXuXuXuXuXuXuXuXuXuXuXuXuXuXuXuXuXuXuXuXuXuXuXuXuXuXuX",
"uXuXuXuXuXuXuXuXuXuXuXuXuXuXuXuXuXuXuXuXuXuXuXuXuXuXuXuXuXuXuXuXuXuXuXuXuXuXuXuXuXuXuXuXuXuXuXuXuXuX",
"uXuXuXuXuXuXuXuXuXuXuXuXuXuXuXuXuXuXuXuXuXuXuXuXuXuXuXuXuXuXuXuXuXuXuXuXuXuXuXuXuXuXuXuXuXuXuXuXuXuX",
"uXuXuXuXuXuXuXuXuXuXuXuXuXuXuXuXuXuXuXuXuXuXuXuXuXuXuXuXuXuXuXuXuXuXuXuXuXuXuXuXuXuXuXuXuXuXuXuXuXuX",
"uXuXuXuXuXuXuXuXuXuXuXuXuXuXuXuXuXuXuXuXuXuXuXuXuX< | | ` : uXuXuXuXuXuXuXuXuXuXuXuXuXuXuXuXuXuXuXuX",
"uXuXuXuXuXuXuXuXuXuXuXuXuXuXuXuXuXuXuXuXuXuXuX .@.@.@.$.$.#.{ ] uXuXuXuXuXuXuXuXuXuXuXuXuXuXuXuXuXuX",
"uXuXuXuXuXuXuXuXuXuXuXuXuXuXuXuXuXuXuXuXuXuX .&.} &.$.$.@.X.} #.{ O uXuXuXuXuXuXuXuXuXuXuXuXuXuXuXuX",
"uXuXuXuXuXuXuXuXuXuXuXuXuXuXuXuXuXuXuXuXuXuX< &.&.@.$.&.$.@.@.X.o.] uXuXuXuXuXuXuXuXuXuXuXuXuXuXuXuX",
"uXuXuXuXuXuXuXuXuXuXuXuXuXuXuXuXuXuXuXuXuXuX=Xn.m.=.&.@.X.@.X.o.} } o uXuXuXuXuXuXuXuXuXuXuXuXuXuXuX",
"uXuXuXuXuXuXuXuXuXuXuXuXuXuXuXuXuXuXuXuXuXuXwXn.] &.=.&.o.o.X.} ] o uXuXuXuXuXuXuXuXuXuXuXuXuXuXuXuX",
"uXuXuXuXuXuXuXuXuXuXuXuXuXuXuXuXuXuXuXuXuX=XeX7X| o.%.#.] ` ` . < w uXuXuXuXuXuXuXuXuXuXuXuXuXuXuXuX",
"uXuXuXuXuXuXuXuXuXuXuXuXuXuXuXuXuXuXuXuXuXN.OX6X,Xm.%.[ l : . $ 7 K.uXuXuXuXuXuXuXuXuXuXuXuXuXuXuXuX",
"uXuXuXuXuXuXuXuXuXuXuXuXuXuXuXuXuXuXuXuXuX0 & 4 L.=X*XU.c.0 3 3 8 B.uXuXuXuXuXuXuXuXuXuXuXuXuXuXuXuX",
"uXuXuXuXuXuXuXuXuXuXuXuXuXuXuXuXuXuXuXuXuXM.= % * > 7 8 8 7 3 3 9 e uXuXuXuXuXuXuXuXuXuXuXuXuXuXuXuX",
"uXuXuXuXuXuXuXuXuXuXuXuXuXuXuXuXuXuXK.K.S.h.d.3 * * - % $ - % & 4 uXuXuXuXuXuXuXuXuXuXuXuXuXuXuXuXuX",
"uXuXuXuXuXuXuXuXuXuXuXuXuXuXuXuXK.:X8XL.k.g.c z 4 3 = = % = = 5 5 uXuXuXuXuXuXuXuXuXuXuXuXuXuXuXuXuX",
"uXuXuXuXuXuXuXuXuXuXuXuXuXuXuXOXqXrXrX9XoXk.f.h i 2 2 , , 6 1 k x.uXuXuXuXuXuXuXuXuXuXuXuXuXuXuXuXuX",
"uXuXuXuXuXuXuXuXuXuXuXuXuXuX=XeXrXrXrXrXwX;XM.f.v p p y     u b G.I.uXuXuXuXuXuXuXuXuXuXuXuXuXuXuXuX",
"uXuXuXuXuXuXuXuXuXuXuXuXuXOXwXrXrXrXrXrXyX8XS.g.g.f.v c u y k 6 6 S.I.uXuXuXuXuXuXuXuXuXuXuXuXuXuXuX",
"uXuXuXuXuXuXuXuXuXuXuXuXuX8X5X;X0XtXtXqX<XT.%.+.+.+.n b v v h 6 6 x.I.A.uXuXuXuXuXuXuXuXuXuXuXuXuXuX",
"uXuXuXuXuXuXuXuXuXuXuXuXOX@XM.b.]..X.X{.e.6.2.<.E E E E 3.Y Y j O.d.M.L.uXuXuXuXuXuXuXuXuXuXuXuXuXuX",
"uXuXuXuXuXuXuXuXuXuXuXe S.n.].^.s.w.w.q.6.<.<.E E E E W I I I J g >.+.F.L.uXuXuXuXuXuXuXuXuXuXuXuXuX",
"uXuXuXuXuXuXuXuXuXuXuXZ.Y.}._./.~.!.t.r.w.w.w.w.q.q.8.6.2.<.W p   Y 8.p.U.uXuXuXuXuXuXuXuXuXuXuXuXuX",
"uXuXuXuXuXuXuXuXuXuXuXZ.R.|._._./././.~.!.!.!.t.t.t.t.r.w.q.>.t y j 0.y.$XK.uXuXuXuXuXuXuXuXuXuXuXuX",
"uXuXuXuXuXuXuXuXuXuXuXV./ [.|.`.(._.(.(./././.~.!.t.r.w.q.2.g + t o _ 3.Q.XXuXuXuXuXuXuXuXuXuXuXuXuX",
"uXuXuXuXuXuXuXuXuXuXN.x.D F i.[.}.'.`._./.~.~.t.q.6.2.6.6.8.( + f a d U T.XXuXuXuXuXuXuXuXuXuXuXuXuX",
"uXuXuXuXuXuXuXuXuXuXN.h.N Z Z D Q i.s.).[. X{.).t.t.t.^.!.!.-.+ a ; a G v.XXuXuXuXuXuXuXuXuXuXuXuXuX",
"uXuXuXuXuXuXuXuXuXuXN.x.N Z Z Z Z B D F Q E.a.9.5.e.q.r.r.r.0.a ; o : H v.XXuXuXuXuXuXuXuXuXuXuXuXuX",
"uXuXuXuXuXuXuXuXuXuXA.D.N S M S Z Z A V C L T Y >.1.5.q.r.r.e.s O O ; d b.XXuXuXuXuXuXuXuXuXuXuXuXuX",
"uXuXuXuXuXuXuXuXuXuXuXH.! S S S Z Z Z A V K L Y Y 1.5.e.w.t.t.) @ o o s F.L.uXuXuXuXuXuXuXuXuXuXuXuX",
"uXuXuXuXuXuXuXuXuXuXuX$Xl.S S S M M A D D C K U Y ,.1.8.r.r.t._ O + d n U.C.uXuXuXuXuXuXuXuXuXuXuXuX",
"uXuXuXuXuXuXuXuXuXuXuX1XW.~ S S M M M A D V K L U R 1.7.w.r.t.0.-.0.1.u.#XuXuXuXuXuXuXuXuXuXuXuXuXuX",
"uXuXuXuXuXuXuXuXuXuXuXuX3X^ S S M M S A N V C P U R 1.7.w.r.t.t.r.q.>.Y.@XuXuXuXuXuXuXuXuXuXuXuXuXuX",
"uXuXuXuXuXuXuXuXuXuXuXuX2X&X~ S M M Z Z B V C P U R 1.8.w.t.t.t.r.2.u.L.uXuXuXuXuXuXuXuXuXuXuXuXuXuX",
"uXuXuXuXuXuXuXuXuXuXuXuXuX4Xl.~ S S Z Z B V C P U R 1.8.w.t.t.t.w.;.V.C.uXuXuXuXuXuXuXuXuXuXuXuXuXuX",
"uXuXuXuXuXuXuXuXuXuXuXuXuX1X3Xl.S S Z Z B V C L U R 5.q.w.r.t.w.;.z.C.uXuXuXuXuXuXuXuXuXuXuXuXuXuXuX",
"uXuXuXuXuXuXuXuXuXuXuXuXuXuX1X3Xl.D Z B B V K L R 1.8.q.r.r.r.-.1 0 uXuXuXuXuXuXuXuXuXuXuXuXuXuXuXuX",
"uXuXuXuXuXuXuXuXuXuXuXuXuXuXuX-X$XT.! B B V P T ,.5.q.w.q.4.) , 4 uXuXuXuXuXuXuXuXuXuXuXuXuXuXuXuXuX",
"uXuXuXuXuXuXuXuXuXuXuXuXuXuXuXuXuX%XJ.v.! F L T 1.7.4.:.) 2 > 4 uXuXuXuXuXuXuXuXuXuXuXuXuXuXuXuXuXuX",
"uXuXuXuXuXuXuXuXuXuXuXuXuXuXuXuXuXuXS.S.S.c.z.O.x | z , > 5 uXuXuXuXuXuXuXuXuXuXuXuXuXuXuXuXuXuXuXuX",
"uXuXuXuXuXuXuXuXuXuXuXuXuXuXuXuXuXuXuXuXuXB.M.9 8 q q uXuXuXuXuXuXuXuXuXuXuXuXuXuXuXuXuXuXuXuXuXuXuX",
"uXuXuXuXuXuXuXuXuXuXuXuXuXuXuXuXuXuXuXuXuXuXuXuXuXuXuXuXuXuXuXuXuXuXuXuXuXuXuXuXuXuXuXuXuXuXuXuXuXuX",
"uXuXuXuXuXuXuXuXuXuXuXuXuXuXuXuXuXuXuXuXuXuXuXuXuXuXuXuXuXuXuXuXuXuXuXuXuXuXuXuXuXuXuXuXuXuXuXuXuXuX",
"uXuXuXuXuXuXuXuXuXuXuXuXuXuXuXuXuXuXuXuXuXuXuXuXuXuXuXuXuXuXuXuXuXuXuXuXuXuXuXuXuXuXuXuXuXuXuXuXuXuX",
"uXuXuXuXuXuXuXuXuXuXuXuXuXuXuXuXuXuXuXuXuXuXuXuXuXuXuXuXuXuXuXuXuXuXuXuXuXuXuXuXuXuXuXuXuXuXuXuXuXuX",
"uXuXuXuXuXuXuXuXuXuXuXuXuXuXuXuXuXuXuXuXuXuXuXuXuXuXuXuXuXuXuXuXuXuXuXuXuXuXuXuXuXuXuXuXuXuXuXuXuXuX",
"uXuXuXuXuXuXuXuXuXuXuXuXuXuXuXuXuXuXuXuXuXuXuXuXuXuXuXuXuXuXuXuXuXuXuXuXuXuXuXuXuXuXuXuXuXuXuXuXuXuX",
"uXuXuXuXuXuXuXuXuXuXuXuXuXuXuXuXuXuXuXuXuXuXuXuXuXuXuXuXuXuXuXuXuXuXuXuXuXuXuXuXuXuXuXuXuXuXuXuXuXuX"
};
