/* XPM */
static char *aW1hZ2VfNV8tcmVtb3ZlYmctcHJldmlldyslMjgxJTI5[] = {
/* columns rows colors chars-per-pixel */
"50 50 195 2 ",
"   c #763407",
".  c #7C112F",
"X  c #523A2D",
"o  c #4D5C5C",
"O  c #616155",
"+  c #725470",
"@  c #547473",
"#  c #6F6F78",
"$  c #833D0A",
"%  c #8D042F",
"&  c #8F0632",
"*  c #811A37",
"=  c #970638",
"-  c #A4003C",
";  c #8D4F1B",
":  c #9A4F10",
">  c #974F1F",
",  c #8D501C",
"<  c #9E5416",
"1  c #AB5C18",
"2  c #AD611F",
"3  c #BC6818",
"4  c #9B5321",
"5  c #834621",
"6  c #A95C23",
"7  c #B56622",
"8  c #BE712B",
"9  c #B2743A",
"0  c #AD6D33",
"q  c #C46C17",
"w  c #C26B22",
"e  c #C96C22",
"r  c #CB7423",
"t  c #C77626",
"y  c #D37521",
"u  c #D87D25",
"i  c #9B1440",
"p  c #AA0040",
"a  c #BA004D",
"s  c #B7014A",
"d  c #8D334D",
"f  c #B2265A",
"g  c #A42E6D",
"h  c #A9317F",
"j  c #C10053",
"k  c #CD025B",
"l  c #C10B5B",
"z  c #D30064",
"x  c #DD0068",
"c  c #DD0673",
"v  c #CB136C",
"b  c #E2066F",
"n  c #E7027C",
"m  c #EC007B",
"M  c #E80073",
"N  c #F0037A",
"B  c #EB137D",
"V  c #C03A6D",
"C  c #BC7E41",
"Z  c #A05069",
"A  c #A75D77",
"S  c #857F64",
"D  c #DC8228",
"F  c #E5892A",
"G  c #E38D32",
"H  c #E79236",
"J  c #A8976C",
"K  c #773C88",
"L  c #3F4F87",
"P  c #09648D",
"I  c #08688E",
"U  c #0B6A91",
"Y  c #127197",
"T  c #16769B",
"R  c #127297",
"E  c #376B89",
"W  c #266B90",
"Q  c #1A7DA3",
"!  c #337FA2",
"~  c #5F4385",
"^  c #7E4F86",
"/  c #715A87",
"(  c #497A8C",
")  c #507F96",
"_  c #686D8E",
"`  c #7E7991",
"'  c #7D699C",
"]  c #853B8D",
"[  c #B73488",
"{  c #A43A84",
"}  c #EF028A",
"|  c #EC0084",
" . c #F50183",
".. c #FC0987",
"X. c #FC0B8D",
"o. c #F60687",
"O. c #EB1A87",
"+. c #FE198E",
"@. c #F41987",
"#. c #FE1D97",
"$. c #FE1493",
"%. c #F30C92",
"&. c #CD2184",
"*. c #FD2493",
"=. c #FF2499",
"-. c #FE2C9A",
";. c #F32898",
":. c #FF349D",
">. c #FC37A8",
",. c #864091",
"<. c #885C9E",
"1. c #924A85",
"2. c #AA4993",
"3. c #BD4D9B",
"4. c #93689E",
"5. c #B46A90",
"6. c #B07190",
"7. c #987AAE",
"8. c #A178A2",
"9. c #CA5193",
"0. c #FF44A5",
"q. c #FF4AAA",
"w. c #FE52AE",
"e. c #F35AA7",
"r. c #FD57B0",
"t. c #FA4BB5",
"y. c #FE6ABB",
"u. c #FE73C1",
"i. c #FD7ED1",
"p. c #1C81A3",
"a. c #2986AB",
"s. c #2A8AAD",
"d. c #3A91B2",
"f. c #3189AB",
"g. c #528297",
"h. c #52859B",
"j. c #52899E",
"k. c #48829B",
"l. c #789C97",
"z. c #649398",
"x. c #468CA8",
"c. c #548CA3",
"v. c #5D8FA4",
"b. c #4299AE",
"n. c #5894AB",
"m. c #518FB5",
"M. c #4C9AB3",
"N. c #4599B8",
"B. c #5B94B9",
"V. c #599CB6",
"C. c #6287A0",
"Z. c #6296AB",
"A. c #6197B0",
"S. c #4FA3BF",
"D. c #5BA1BD",
"F. c #57A3B8",
"G. c #61A0BA",
"H. c #68A6BA",
"J. c #77ABBF",
"K. c #7CB4B9",
"L. c #6AA2AC",
"P. c #4BA6C4",
"I. c #59AAC6",
"U. c #5BB1C9",
"Y. c #64AAC2",
"T. c #6BADC6",
"R. c #61A7C3",
"E. c #70AEC6",
"W. c #68B6CB",
"Q. c #79B5CA",
"!. c #74B8C9",
"~. c #7ABDD2",
"^. c #77C2D3",
"/. c #9F889F",
"(. c #87A59A",
"). c #8893A8",
"_. c #83ADA9",
"`. c #84B3B2",
"'. c #89BACB",
"]. c #80BFD3",
"[. c #8FB2CA",
"{. c #B5A3C9",
"}. c #F48CC8",
"|. c #C4A4CE",
" X c #89C3C6",
".X c #9CCEDE",
"XX c #91CED4",
"oX c #A3CEDC",
"OX c #B6DAE7",
"+X c #C1DBE6",
"@X c #D0E4EC",
"#X c #CDE7F0",
"$X c #DCEEF4",
"%X c #E6F1F6",
"&X c None",
/* pixels */
"&X&X&X&X&X&X&X&X&X&X&X&X&X&X&X&X&X&X&X&X&X&X&X&X&X&X&X&X&X&X&X&X&X&X&X&X&X&X&X&X&X&X&X&X&X&X&X&X&X&X",
"&X&X&X&X&X&X&X&X&X&X&X&X&X&X&X&X&X&X&X&X&X&X&X&X&X&X&X&X&X&X&X&X&X&X&X&X&X&X&X&X&X&X&X&X&X&X&X&X&X&X",
"&X&X&X&X&X&X&X&X&X&X&X&X&X&X&X&X&X&X&X&X&X&X&X&X&X&X&X&X&X&X&X&X&X&X&X&X&X&X&X&X&X&X&X&X&X&X&X&X&X&X",
"&X&X&X&X&X&X&X&X&X&X&X&X&X&X&X&X&X&X&X&X&X&X&X&X&X&X&X&X&X&X&X&X&X&X&X&X&X&X&X&X&X&X&X&X&X&X&X&X&X&X",
"&X&X&X&X&X&X&X&X&X&X&X&X&X&X&X&X&X&X&X&X&X&X&X&X&X&X&X&X&X&X&X&X&X&X&X&X&X&X&X&X&X&X&X&X&X&X&X&X&X&X",
"&X&X&X&X&X&X&X&X&X&X&X&X&X&X&X&X&X&X&X&X&X&X&X&X&X&X&X&X&X&X&X&X&X&X&X&X&X&X&X&X&X&X&X&X&X&X&X&X&X&X",
"&X&X&X&X&X&X&X&X&X&X&X&X&X&X&X&X&X&X&X&X&X&X&X&X&X&X&X&X&X&X&X&X&X&X&X&X&X&X&X&X&X&X&X&X&X&X&X&X&X&X",
"&X&X&X&X&X&X&X&X&X&X&X&X&X&X&X&X&X&X&X&X&X&X&X&X&X&X&X&X&X&X&X&X&X&X&X&X&X&X&X&X&X&X&X&X&X&X&X&X&X&X",
"&X&X&X&X&X&X&X&X&X&X&X&X&X&X&X&X&X&X&X&X&X&X&X&X&X&X&X&X&X&X&X&X&X&X&X&X&X&X&X&X&X&X&X&X&X&X&X&X&X&X",
"&X&X&X&X&X&X&X&X&X&X&X&X&X&X&X&X&X&X&X&X&X&X&X&X&X&X&X&X&X&X&X&X&X&X&X&X&X&X&X&X&X&X&X&X&X&X&X&X&X&X",
"&X&X&X&X&X&X&X&X&X&X&X&X&X&X&X&X&X&X&X&X&X&X&X&X&X&X&X&X&X&X&X&XC 9 &X&X&X&X&X&X&X&X&X&X&X&X&X&X&X&X",
"&X&X&X&X&X&X&X&X&X&X&X&X&X&X&X&X&X&X&X&X&X&X&X&X&X&X&X&X&X&X&XC G t D w &X&X&X&X&X&X&X&X&X&X&X&X&X&X",
"&X&X&X&X&X&X&X&X&X&X&X&X&X&X&X&X&X&X&X&X&X&X&X&X&X&X&X&X&X( ( 9 G t F u w 6 &X&X&X&X&X&X&X&X&X&X&X&X",
"&X&X&X&X&X&X&X&X&X&X&X&X&X&X&X&X&X&X&X&X&X&X&X&X&X&X&X&Xv.b.@ , G H F F u r 7 &X&X&X&X&X&X&X&X&X&X&X",
"&X&X&X&X&X&X&X&X&X&X&X&X&X&X&X&X&X&X&X&X&X&X&X&X&X&X&Xj.I.U.@ : t H D u u y w 5 &X&X&X&X&X&X&X&X&X&X",
"&X&X&X&X&X&X&X&X&X&X&X&X&X&X&X&X&X&X&X&X&X&X&X&X&X&X&XM.P.^.l.7 q r G G u y w 7 &X&X&X&X&X&X&X&X&X&X",
"&X&X&X&X&X&X&X&X&X&X&X&X&X&X&X&X&X&X&X&X&X&X&X&X&X&X) I.W.XXXXJ 3 3 3 q < r r e > &X&X&X&X&X&X&X&X&X",
"&X&X&X&X&X&X&X&X&X&X&X&X&X&X&X&X&X&X&X&X&X&X&X&X&X&XQ.U.~._. XXXJ 1 1 : < 2 2 > &X&X&X&X&X&X&X&X&X&X",
"&X&X&X&X&X&X&X&X&X&X&X&X&X&X&X&X&X&X&X&X&X&X&X&X&X'.$XR.U.K.(. X XJ ; ;   X X &X&X&X&X&X&X&X&X&X&X&X",
"&X&X&X&X&X&X&X&X&X&X&X&X&X&X&X&X&X&X&X&X&X&X&X&X'.%X%XD.a.W.`.(.(.z.@ O o W E &X&X&X&X&X&X&X&X&X&X&X",
"&X&X&X&X&X&X&X&X&X&X&X&X&X&X&X&X&X&X&X&X&X&X&XJ.@X%XE.T T a.Y.K.(.l.Z.V.d.! &X&X&X&X&X&X&X&X&X&X&X&X",
"&X&X&X&X&X&X&X&X&X&X&X&X&X&X&X&X&X&X&X&X&X&XJ.OX@XQ.p.T Y I T S.!.!.W.S.M.( &X&X&X&X&X&X&X&X&X&X&X&X",
"&X&X&X&X&X&X&X&X&X&X&X&X&X&X&X&X&X&X&X&X&XZ.oX+XQ.Q T T U P P R d.U.I.x.E &X&X&X&X&X&X&X&X&X&X&X&X&X",
"&X&X&X&X&X&X&X&X&X&X&X&X&X&X&X&X&X&X&X&Xn.^.oXQ.p.T T U P P T f.s.N.h.&X&X&X&X&X&X&X&X&X&X&X&X&X&X&X",
"&X&X&X&X&X&X&X&X&X&X&X&X&X&X&X&X&X&X&Xj.W.[.{.<.,.] K ~ ~ T d.N.P.c.&X&X&X&X&X&X&X&X&X&X&X&X&X&X&X&X",
"&X&X&X&X&X&X&X&X&X&X&X&X&X&X&X&X&X&Xj.E.|.}.w.>.*.X.m b v <.V.P.n.&X&X&X&X&X&X&X&X&X&X&X&X&X&X&X&X&X",
"&X&X&X&X&X&X&X&X&X&X&X&X&X&X&X&X&Xj.F.+ 9.e.r.y.y.t.>.%.3.7.I.V.&X&X&X&X&X&X&X&X&X&X&X&X&X&X&X&X&X&X",
"&X&X&X&X&X&X&X&X&X&X&X&X&X&X&X&Xg.Y.+ * = l O.t.}.>.;.9.4.G.V.&X&X&X&X&X&X&X&X&X&X&X&X&X&X&X&X&X&X&X",
"&X&X&X&X&X&X&X&X&X&X&X&X&X&X&X( E.# . & - j c } %.| &.1.A.F.&X&X&X&X&X&X&X&X&X&X&X&X&X&X&X&X&X&X&X&X",
"&X&X&X&X&X&X&X&X&X&X&X&X&X&X&XE.` * % - s z | |  .B g C.F.&X&X&X&X&X&X&X&X&X&X&X&X&X&X&X&X&X&X&X&X&X",
"&X&X&X&X&X&X&X&X&X&X&X&X&X&X!.).d = - a z n o.X...l _ F.&X&X&X&X&X&X&X&X&X&X&X&X&X&X&X&X&X&X&X&X&X&X",
"&X&X&X&X&X&X&X&X&X&X&X&X&XT.).Z = - j z n X.#.=.c / M.&X&X&X&X&X&X&X&X&X&X&X&X&X&X&X&X&X&X&X&X&X&X&X",
"&X&X&X&X&X&X&X&X&X&X&X&XG.[.A f s k x N X.=.-.B ^ M.&X&X&X&X&X&X&X&X&X&X&X&X&X&X&X&X&X&X&X&X&X&X&X&X",
"&X&X&X&X&X&X&X&X&X&X&X&X~./.g k b M N X.=.:.O.1.M.&X&X&X&X&X&X&X&X&X&X&X&X&X&X&X&X&X&X&X&X&X&X&X&X&X",
"&X&X&X&X&X&X&X&X&X&X&X&X X6.v N N X.+.*.=.@.1.V.g.&X&X&X&X&X&X&X&X&X&X&X&X&X&X&X&X&X&X&X&X&X&X&X&X&X",
"&X&X&X&X&X&X&X&X&X&X&X&X^.6.b +.+.*.>.:.@.{ B.j.&X&X&X&X&X&X&X&X&X&X&X&X&X&X&X&X&X&X&X&X&X&X&X&X&X&X",
"&X&X&X&X&X&X&X&X&X&X&X&XY.8.B :.:.q.q.*.[ B.c.&X&X&X&X&X&X&X&X&X&X&X&X&X&X&X&X&X&X&X&X&X&X&X&X&X&X&X",
"&X&X&X&X&X&X&X&X&X&X&X&Xk.B.[ *.:.>.;.h B.n.&X&X&X&X&X&X&X&X&X&X&X&X&X&X&X&X&X&X&X&X&X&X&X&X&X&X&X&X",
"&X&X&X&X&X&X&X&X&X&X&X&X&Xx.B.<.2.2.' V.V.&X&X&X&X&X&X&X&X&X&X&X&X&X&X&X&X&X&X&X&X&X&X&X&X&X&X&X&X&X",
"&X&X&X&X&X&X&X&X&X&X&X&X&X&Xk.M.F.U.G.Z.&X&X&X&X&X&X&X&X&X&X&X&X&X&X&X&X&X&X&X&X&X&X&X&X&X&X&X&X&X&X",
"&X&X&X&X&X&X&X&X&X&X&X&X&X&X&X&X&X&X&X&X&X&X&X&X&X&X&X&X&X&X&X&X&X&X&X&X&X&X&X&X&X&X&X&X&X&X&X&X&X&X",
"&X&X&X&X&X&X&X&X&X&X&X&X&X&X&X&X&X&X&X&X&X&X&X&X&X&X&X&X&X&X&X&X&X&X&X&X&X&X&X&X&X&X&X&X&X&X&X&X&X&X",
"&X&X&X&X&X&X&X&X&X&X&X&X&X&X&X&X&X&X&X&X&X&X&X&X&X&X&X&X&X&X&X&X&X&X&X&X&X&X&X&X&X&X&X&X&X&X&X&X&X&X",
"&X&X&X&X&X&X&X&X&X&X&X&X&X&X&X&X&X&X&X&X&X&X&X&X&X&X&X&X&X&X&X&X&X&X&X&X&X&X&X&X&X&X&X&X&X&X&X&X&X&X",
"&X&X&X&X&X&X&X&X&X&X&X&X&X&X&X&X&X&X&X&X&X&X&X&X&X&X&X&X&X&X&X&X&X&X&X&X&X&X&X&X&X&X&X&X&X&X&X&X&X&X",
"&X&X&X&X&X&X&X&X&X&X&X&X&X&X&X&X&X&X&X&X&X&X&X&X&X&X&X&X&X&X&X&X&X&X&X&X&X&X&X&X&X&X&X&X&X&X&X&X&X&X",
"&X&X&X&X&X&X&X&X&X&X&X&X&X&X&X&X&X&X&X&X&X&X&X&X&X&X&X&X&X&X&X&X&X&X&X&X&X&X&X&X&X&X&X&X&X&X&X&X&X&X",
"&X&X&X&X&X&X&X&X&X&X&X&X&X&X&X&X&X&X&X&X&X&X&X&X&X&X&X&X&X&X&X&X&X&X&X&X&X&X&X&X&X&X&X&X&X&X&X&X&X&X",
"&X&X&X&X&X&X&X&X&X&X&X&X&X&X&X&X&X&X&X&X&X&X&X&X&X&X&X&X&X&X&X&X&X&X&X&X&X&X&X&X&X&X&X&X&X&X&X&X&X&X",
"&X&X&X&X&X&X&X&X&X&X&X&X&X&X&X&X&X&X&X&X&X&X&X&X&X&X&X&X&X&X&X&X&X&X&X&X&X&X&X&X&X&X&X&X&X&X&X&X&X&X"
};
