/* XPM */
static char *Y29pbnMxMA__[] = {
/* columns rows colors chars-per-pixel */
"50 50 223 2 ",
"   c #141C16",
".  c #161C18",
"X  c #142314",
"o  c #152B13",
"O  c #182419",
"+  c #162618",
"@  c #163313",
"#  c #1B3317",
"$  c #163C11",
"%  c #1A3B14",
"&  c #1D3818",
"*  c #062913",
"=  c #222C1A",
"-  c #263C1D",
";  c #393018",
":  c #232C23",
">  c #292E2A",
",  c #272F28",
"<  c #253223",
"1  c #2C342C",
"2  c #2E3C2C",
"3  c #253B24",
"4  c #2F3330",
"5  c #343C34",
"6  c #363E39",
"7  c #3B3F3B",
"8  c #562F1C",
"9  c #52321A",
"0  c #69371B",
"q  c #682F1F",
"w  c #49382A",
"e  c #593826",
"r  c #663622",
"t  c #1B4212",
"y  c #1B4A12",
"u  c #154515",
"i  c #195A19",
"p  c #2A4819",
"a  c #245716",
"s  c #37551E",
"d  c #166316",
"f  c #1C7C1E",
"g  c #296817",
"h  c #34651C",
"j  c #376B19",
"k  c #28761A",
"l  c #3D721A",
"z  c #367715",
"x  c #1F5328",
"c  c #354429",
"v  c #2C5C24",
"b  c #255827",
"n  c #3B443A",
"m  c #374738",
"M  c #375B3A",
"N  c #294730",
"B  c #1C7728",
"V  c #226324",
"C  c #246C26",
"Z  c #2C642A",
"A  c #246A2D",
"S  c #296626",
"D  c #3B6623",
"F  c #3C682B",
"G  c #287927",
"H  c #3B712C",
"J  c #397B27",
"K  c #396634",
"L  c #38773A",
"P  c #297038",
"I  c #6F441F",
"U  c #454629",
"Y  c #4B512C",
"T  c #65482A",
"R  c #744A2A",
"E  c #774728",
"W  c #78522C",
"Q  c #7C5933",
"!  c #6B542B",
"~  c #407F23",
"^  c #477736",
"/  c #506D31",
"(  c #68622E",
")  c #6D6E37",
"_  c #3E4A44",
"`  c #335940",
"'  c #3A774C",
"]  c #3B6944",
"[  c #424542",
"{  c #444B46",
"}  c #484F49",
"|  c #4C524B",
" . c #475A4D",
".. c #575E5B",
"X. c #545A4E",
"o. c #586945",
"O. c #586A5A",
"+. c #6C6B51",
"@. c #6E7265",
"#. c #8B5826",
"$. c #845E3B",
"%. c #8B6537",
"&. c #8E6F3C",
"*. c #B27A2C",
"=. c #A56D2D",
"-. c #987249",
";. c #A77C41",
":. c #29831D",
">. c #3C8B1A",
",. c #289A19",
"<. c #38991D",
"1. c #2FA915",
"2. c #3BA31B",
"3. c #32AB1A",
"4. c #3DAC1A",
"5. c #35A816",
"6. c #32BC15",
"7. c #39B616",
"8. c #1E8724",
"9. c #288521",
"0. c #338324",
"q. c #318D22",
"w. c #388627",
"e. c #249323",
"r. c #3A9923",
"t. c #2F8736",
"y. c #3EA220",
"u. c #469919",
"i. c #488E10",
"p. c #4AA419",
"a. c #4CAB1C",
"s. c #43A91B",
"d. c #43B419",
"f. c #4CB41C",
"g. c #4CBA1A",
"h. c #49BC1A",
"j. c #54BE1B",
"k. c #5ABC19",
"l. c #51B918",
"z. c #50A91D",
"x. c #4C912D",
"c. c #449722",
"v. c #51942E",
"b. c #51A426",
"n. c #55B524",
"m. c #58BD3C",
"M. c #4CAE33",
"N. c #65B134",
"B. c #68B737",
"V. c #36CB10",
"C. c #43D60E",
"Z. c #5BDD0E",
"A. c #47C717",
"S. c #56C319",
"D. c #59CC15",
"F. c #53D416",
"G. c #5BDC11",
"H. c #58D416",
"J. c #52C30D",
"K. c #66C30A",
"L. c #65DC0F",
"P. c #72DB09",
"I. c #63CC14",
"U. c #60C71C",
"Y. c #67D714",
"T. c #70D61F",
"R. c #5DEB0D",
"E. c #57E60D",
"W. c #5EE519",
"Q. c #66E90C",
"!. c #73E60A",
"~. c #64E91D",
"^. c #6AF31C",
"/. c #78FC1F",
"(. c #58CA2A",
"). c #61C825",
"_. c #64D629",
"`. c #79E826",
"'. c #7CFA25",
"]. c #6FF023",
"[. c #3F804E",
"{. c #488445",
"}. c #568E55",
"|. c #649251",
" X c #5FA740",
".X c #7EBA6D",
"XX c #6ECC50",
"oX c #7EC966",
"OX c #7DD964",
"+X c #B78332",
"@X c #CA9639",
"#X c #83F91F",
"$X c #8BFB29",
"%X c #87FB26",
"&X c #93FC2C",
"*X c #9AFE2A",
"=X c #8DE437",
"-X c #8E9146",
";X c #AC8656",
":X c #B0914F",
">X c #848D78",
",X c #97927E",
"<X c #AC9E64",
"1X c #C89940",
"2X c #C69E5F",
"3X c #C7A15F",
"4X c #E0B34A",
"5X c #DAB773",
"6X c #CDB069",
"7X c #90DB78",
"8X c #98F37D",
"9X c #929784",
"0X c #96A886",
"qX c #8AA987",
"wX c #A8A699",
"eX c #B3B7A6",
"rX c #D8BE85",
"tX c #C2BEB0",
"yX c #C4C2B2",
"uX c #D4CFC0",
"iX c #E0DBCB",
"pX c #E6E0D0",
"aX c None",
/* pixels */
"aXaXaXaXaXaXaXaXaXaXaXaXaXaXaXaXaXaXaXaXaXaXaXaXaXaXaXaXaXaXaXaXaXaXaXaXaXaXaXaXaXaXaXaXaXaXaXaXaXaX",
"aXaXaXaXaXaXaXaXaXaXaXaXaXaXaXaXaXaXaXaXaXaXaXaXaXaXaXaXaXaXaXaXaXaXaXaXaXaXaXaXaXaXaXaXaXaXaXaXaXaX",
"aXaXaXaXaXaXaXaXaXaXaXaXaXaXaXaXaXaXaXaXaXaXaXaXaXaXaXaXaXaXaXaXaXaXaXaXaXaXaXaXaXaXaXaXaXaXaXaXaXaX",
"aXaXaXaXaXaXaXaXaXaXaXaXaXaXaXaXaXaXaXaXaXaXaXaXaXaXaXaXaXaXaXaXaXaXaXaXaXaXaXaXaXaXaXaXaXaXaXaXaXaX",
"aXaXaXaXaXaXaXaXaXaXaXaXaXaXaXaXaXaXaXaXaXaXaXaXaXaXaXaXaXaXaXaXaXaXaXaXaXaXaXaXaXaXaXaXaXaXaXaXaXaX",
"aXaXaXaXaXaXaXaXaXaXaXaXaXaXaXaXaXaXaXaXaXaXaXaXaXaXaXaXaXaXaXaXaXaXaXaXaXaXaXaXaXaXaXaXaXaXaXaXaXaX",
"aXaXaXaXaXaXaXaXaXaXaXaXaXaXaXaXaXaXaXaXaXaXaXaXaXaXaXaXQ $.-.aXaXaXaXaXaXaXaXaXaXaXaXaXaXaXaXaXaXaX",
"aXaXaXaXaXaXaXaXaXaXaXaXaXaXaXaXaXaXaXaXaXaXaXaXaXaXaXaXR R R -.rXaXaXaXaXaXaXaXaXaXaXaXaXaXaXaXaXaX",
"aXaXaXaXaXaXaXaXaXaXaXaXaXaXaXaXaXaXaXaXaXaXaXaXaXaXaXaXR R R Q -XaXaXaXaXaXaXaXaXaXaXaXaXaXaXaXaXaX",
"aXaXaXaXaXaXaXaXaXaXaXaXaXaXaXaXaXaXaXaXaXaXaXaXaXaXaX;XW R ( ) aXaXaXaXaXaXaXaXaXaXaXaXaXaXaXaXaXaX",
"aXaXaXaXaXaXaXaXaXaXaXaXaXaXaXaX+X1X4X1XaXaXaXaXaXaXaX2XW R Y J aXaXaXaXaXaXaXaXaXaXaXaXaXaXaXaXaXaX",
"aXaXaXaXaXaXaXaXaXaXaXaXaXW ;.E #.+X@X@X*.aXaXaXaXaX5X3XW ( aXaXaXaXaXaXaXaXaXaXaXaXaXaXaXaXaXaXaXaX",
"aXaXaXaXaXaXaXaXaXaXaXaXr q E #.0 =.+X=.-.aXaXaXaXaX5X3X( aXaXaXaXaXaXaXaXaXaXaXaXaXaXaXaXaXaXaXaXaX",
"aXaXaXaXaXaXaXaXaXaXaXaXe 0 r T 0 #.;X,XM O.aXaXaX5X6X<XaXaXaXaXaXaXaXaXaXaXaXaXaXaXaXaXaXaXaXaXaXaX",
"aXaXaXaXaXaXaXaXaXaXaX$.T 8 8 w T o.qXeXM 3 +.aXrX6XaXaXaXaXaXaXaXaXaXaXaXaXaXaXaXaXaXaXaXaXaXaXaXaX",
"aXaXaXaXaXaXaXaXaXaXaXr q e e w K B }. .- &.:X;X<XaXaXaXaXaXaXaXaXaXaXaXaXaXaXaXaXaXaXaXaXaXaXaXaXaX",
"aXaXaXaXaXaXaXaXaXaXaXr w w U K t.A o.Q #.%.( U n | { _ 6 } ..aXaXaXaXaXaXaXaXaXaXaXaXaXaXaXaXaXaXaX",
"aXaXaXaXaXaXaXaXaXaXaXaXaXU m i u c 2X&.Y - 5 [ [ n 1 :   1 X.} 7 ..aXaXaXaXaXaXaXaXaXaXaXaXaXaXaXaX",
"aXaXaXaXaXaXaXaXaXaXaXaXaXaXN * = I ! s 3 { [ > : , , O X X O : | ....aXaXaXaXaXaXaXaXaXaXaXaXaXaXaX",
"aXaXaXaXaXaXaXaXaXaXaXaXaXaXaX; 9 9 - O 4 > . O , , : o X X X @.iXiXeXO.aXaXaXaXaXaXaXaXaXaXaXaXaXaX",
"aXaXaXaXaXaXaXaXaXaXaXaXaXaXaXaX; - 1         2 U 2 o X X o X >XpXiXuXwX| aXaXaXaXaXaXaXaXaXaXaXaXaX",
"aXaXaXaXaXaXaXaXaXaXaXaXaXaXaXaXc 5 >       O m N o o @ @ @ o c 9XyXtXwX@._ aXaXaXaXaXaXaXaXaXaXaXaX",
"aXaXaXaXaXaXaXaXaXaXaXaXaXaXaXaXn >       X : m # @ % t % $ @ o & o.,X0X>Xn } aXaXaXaXaXaXaXaXaXaXaX",
"aXaXaXaXaXaXaXaXaXaXaXaXaXaXaX_ ,       X o 3 & @ t g a y t a x.c.2.M.oX7X7X}.aXaXaXaXaXaXaXaXaXaXaX",
"aXaXaXaXaXaXaXaXaXaXaXaXaXaXaXM v.& X % @ @ % $ t y a g z z n.S.5.5.4.M.OX8XXX}.aXaXaXaXaXaXaXaXaXaX",
"aXaXaXaXaXaXaXaXaXaXaXaXaXaX .b.n.j % @ @ @ $ $ y g g >.p.H.F.3.1.5.7.A._.7X' ' aXaXaXaXaXaXaXaXaXaX",
"aXaXaXaXaXaXaXaXaXaXaXaXaXaX}.b.j i.% o @ $ t y >.p.p.j.~.~.H.A.7.V.A.A.y.}.' ] aXaXaXaXaXaXaXaXaXaX",
"aXaXaXaXaXaXaXaXaXaXaXaXaXaX^  X^ + o o @ $ y g u.u.l.].'.^.W.F.F.(.r.G P [.' x aXaXaXaXaXaXaXaXaXaX",
"aXaXaXaXaXaXaXaXaXaXaXaXaXaXZ H ).m.~ p % t l T.u.k.%X$X$X'.^.^.U.0.A P G L P x aXaXaXaXaXaXaXaXaXaX",
"aXaXaXaXaXaXaXaXaXaXaXaXaXaXv b K B._._.D.U.`.%X%X$X&X*X$X&X`.n.:.G C A G G A b aXaXaXaXaXaXaXaXaXaX",
"aXaXaXaXaXaXaXaXaXaXaXaXaXaXZ d V Z x.).`.%X$X$X$X*X*X&X=XB.w.q.<.2.2.q.0.G A b aXaXaXaXaXaXaXaXaXaX",
"aXaXaXaXaXaXaXaXaXaXaXaXaXaXL i C C V S H x.N.B.N.B.m.v.w.w.y.4.4.4.d.2.r.G V v aXaXaXaXaXaXaXaXaXaX",
"aXaXaXaXaXaXaXaXaXaXaXaXaXaXaXV f 8.k :.:.:.:.0.>.<.r.<.s.f.n.f.h.7.f.s.r.0.b F aXaXaXaXaXaXaXaXaXaX",
"aXaXaXaXaXaXaXaXaXaXaXaXaXaXaXZ d 8.8.,.<.5.5.4.l.l.f.l.f.k.S.j.g.f.a.a.c.0.a aXaXaXaXaXaXaXaXaXaXaX",
"aXaXaXaXaXaXaXaXaXaXaXaXaXaXaXaXi f 8.,.1.3.6.h.D.G.L.D.h.J.S.J.D.k.f.a.r.k / aXaXaXaXaXaXaXaXaXaXaX",
"aXaXaXaXaXaXaXaXaXaXaXaXaXaXaXaXK d 8.,.3.6.6.C.Z.Z.Q.G.F.H.D.I.Y.U.k.b.>.s aXaXaXaXaXaXaXaXaXaXaXaX",
"aXaXaXaXaXaXaXaXaXaXaXaXaXaXaXaXaXS d 8.e.3.7.C.E.E.Q.R.Z.Z.L.L.P.I.k.u.Z aXaXaXaXaXaXaXaXaXaXaXaXaX",
"aXaXaXaXaXaXaXaXaXaXaXaXaXaXaXaXaXaXS d 8. X7.V.Z.R.R.R.E.E.Q.!.P.I.i.h ^ aXaXaXaXaXaXaXaXaXaXaXaXaX",
"aXaXaXaXaXaXaXaXaXaXaXaXaXaXaXaXaXaXaXH i {.M.V.V.E.Q.Q.!.!.!.!.K.>.h aXaXaXaXaXaXaXaXaXaXaXaXaXaXaX",
"aXaXaXaXaXaXaXaXaXaXaXaXaXaXaXaXaXaXaXaXaX|.7Xq.1.J.!.!.P.K.p.z D / aXaXaXaXaXaXaXaXaXaXaXaXaXaXaXaX",
"aXaXaXaXaXaXaXaXaXaXaXaXaXaXaXaXaXaXaXaXaXaXaX|.D h l l l D / aXaXaXaXaXaXaXaXaXaXaXaXaXaXaXaXaXaXaX",
"aXaXaXaXaXaXaXaXaXaXaXaXaXaXaXaXaXaXaXaXaXaXaXaXaXaXaXaXaXaXaXaXaXaXaXaXaXaXaXaXaXaXaXaXaXaXaXaXaXaX",
"aXaXaXaXaXaXaXaXaXaXaXaXaXaXaXaXaXaXaXaXaXaXaXaXaXaXaXaXaXaXaXaXaXaXaXaXaXaXaXaXaXaXaXaXaXaXaXaXaXaX",
"aXaXaXaXaXaXaXaXaXaXaXaXaXaXaXaXaXaXaXaXaXaXaXaXaXaXaXaXaXaXaXaXaXaXaXaXaXaXaXaXaXaXaXaXaXaXaXaXaXaX",
"aXaXaXaXaXaXaXaXaXaXaXaXaXaXaXaXaXaXaXaXaXaXaXaXaXaXaXaXaXaXaXaXaXaXaXaXaXaXaXaXaXaXaXaXaXaXaXaXaXaX",
"aXaXaXaXaXaXaXaXaXaXaXaXaXaXaXaXaXaXaXaXaXaXaXaXaXaXaXaXaXaXaXaXaXaXaXaXaXaXaXaXaXaXaXaXaXaXaXaXaXaX",
"aXaXaXaXaXaXaXaXaXaXaXaXaXaXaXaXaXaXaXaXaXaXaXaXaXaXaXaXaXaXaXaXaXaXaXaXaXaXaXaXaXaXaXaXaXaXaXaXaXaX",
"aXaXaXaXaXaXaXaXaXaXaXaXaXaXaXaXaXaXaXaXaXaXaXaXaXaXaXaXaXaXaXaXaXaXaXaXaXaXaXaXaXaXaXaXaXaXaXaXaXaX",
"aXaXaXaXaXaXaXaXaXaXaXaXaXaXaXaXaXaXaXaXaXaXaXaXaXaXaXaXaXaXaXaXaXaXaXaXaXaXaXaXaXaXaXaXaXaXaXaXaXaX",
"aXaXaXaXaXaXaXaXaXaXaXaXaXaXaXaXaXaXaXaXaXaXaXaXaXaXaXaXaXaXaXaXaXaXaXaXaXaXaXaXaXaXaXaXaXaXaXaXaXaX"
};
