/* XPM */
static char *_ea35a62716f452dc4ac6f8818e658f5EGq5oJ9sEA3qcvv6[] = {
/* columns rows colors chars-per-pixel */
"50 50 181 2 ",
"   c None",
".  c #1B3678",
"X  c #223E79",
"o  c #185CB3",
"O  c #135ECD",
"+  c #1560C5",
"@  c #1466CF",
"#  c #1B6DDE",
"$  c #1A6CD7",
"%  c #1276D1",
"&  c #1A72D4",
"*  c #147AD5",
"=  c #1673D9",
"-  c #1A71D8",
";  c #1C7AD5",
":  c #2B6EC2",
">  c #2C74C9",
",  c #1B6FE4",
"<  c #1C74E2",
"1  c #1C7BE4",
"2  c #227AE2",
"3  c #1680D3",
"4  c #198DD5",
"5  c #1E8BDE",
"6  c #1594DD",
"7  c #2782DB",
"8  c #2190D1",
"9  c #1584E3",
"0  c #1C82E6",
"q  c #1683EA",
"w  c #158CEA",
"e  c #1A8CED",
"r  c #1787E8",
"t  c #1C97E6",
"y  c #1692ED",
"u  c #1991EC",
"i  c #1599ED",
"p  c #1A9BEA",
"a  c #1A83F2",
"s  c #1A8DF2",
"d  c #1B94F3",
"f  c #1C9AF4",
"g  c #1C9CFC",
"h  c #238EE5",
"j  c #2583E3",
"k  c #2B9FE5",
"l  c #2596EC",
"z  c #2587F0",
"x  c #2188F7",
"c  c #2290F6",
"v  c #1EA6E6",
"b  c #16A5EF",
"n  c #1BA4EE",
"m  c #16ADED",
"M  c #1CACEC",
"N  c #1BA9E3",
"B  c #1EB5E9",
"V  c #17A2F5",
"C  c #1AA5F5",
"Z  c #15ABF4",
"A  c #1AAAF5",
"S  c #17A6F8",
"D  c #1AA6FB",
"F  c #16ABFA",
"G  c #18ADFB",
"H  c #16B3F5",
"J  c #1CB4F4",
"K  c #16BCF7",
"L  c #1ABAF4",
"P  c #15B3FB",
"I  c #19B3FC",
"U  c #15BCFD",
"Y  c #1ABCFA",
"T  c #20AEED",
"R  c #21ACF6",
"E  c #23A4F2",
"W  c #23B6F5",
"Q  c #28B3F7",
"!  c #21BCF2",
"~  c #1BCCEF",
"^  c #1DD6EF",
"/  c #0EC2FB",
"(  c #16C4F5",
")  c #1CC5F5",
"_  c #1BCCF5",
"`  c #15C4FD",
"'  c #1AC3FB",
"]  c #14CBFC",
"[  c #1ACBFB",
"{  c #15CDF4",
"}  c #1FD2F2",
"|  c #1BDAF3",
" . c #14D2FB",
".. c #19D3FA",
"X. c #15DCFB",
"o. c #19DAF9",
"O. c #2DCDEA",
"+. c #2FD2EC",
"@. c #37D7ED",
"#. c #3EDCEF",
"$. c #23CBF4",
"%. c #24D5F3",
"&. c #2FD7F5",
"*. c #24DCF2",
"=. c #2ADBF3",
"-. c #30D4F0",
";. c #3CDBF1",
":. c #36DCF2",
">. c #17E8FA",
",. c #1AECFB",
"<. c #1CF1FB",
"1. c #26E6F5",
"2. c #2DE4F5",
"3. c #20EEF8",
"4. c #34E6F4",
"5. c #3BEFF5",
"6. c #3AEEF8",
"7. c #29F1F7",
"8. c #4BD7EC",
"9. c #4FD9F4",
"0. c #63D8E9",
"q. c #6CDFEE",
"w. c #7CD7E6",
"e. c #7CDBED",
"r. c #45ECF6",
"t. c #54EAF4",
"y. c #5DECF5",
"u. c #54E4F2",
"i. c #43F2F7",
"p. c #4DF2F9",
"a. c #4AFBFD",
"s. c #5CF5F5",
"d. c #54FDFD",
"f. c #65E1EE",
"g. c #6FE3EC",
"h. c #76E1EA",
"j. c #62E3F3",
"k. c #6BE0F3",
"l. c #71EDF4",
"z. c #63FCFD",
"x. c #6BFEFC",
"c. c #72F3F4",
"v. c #75F5F9",
"b. c #75FDFC",
"n. c #7CFCFC",
"m. c #83E1EF",
"M. c #8EE1EC",
"N. c #81E9EE",
"B. c #94EDEF",
"V. c #8FEDF1",
"C. c #86F4F7",
"Z. c #8CF4F5",
"A. c #83FBFC",
"S. c #8DFEFD",
"D. c #93F9F8",
"F. c #9AFEFF",
"G. c #A2E3EC",
"H. c #B0E7EC",
"J. c #A3FEFD",
"K. c #ADFEFE",
"L. c #BFF5F7",
"P. c #B3FEFD",
"I. c #BBFEFD",
"U. c #C2EEF4",
"Y. c #D3EEF2",
"T. c #C4F6F7",
"R. c #CEF6F6",
"E. c #C5FEFE",
"W. c #C5FDFC",
"Q. c #CAFBFB",
"!. c #D5F6F8",
"~. c #D2FBFB",
"^. c #DDFEFE",
"/. c #E3FDFC",
"(. c #ECFEFD",
"). c #F2FEFD",
"_. c #F5FFFE",
"`. c #F4FFFF",
"'. c #FDFEFB",
"]. c #FEFEFD",
"[. c #FBFEFD",
/* pixels */
"                                                                                                    ",
"                                                                                                    ",
"                                                                                                    ",
"                                                                                                    ",
"                                                  l E R n k                                         ",
"                                                7 h   3 n M                                         ",
"                                                :       % W 4                                       ",
"                                                        & J 6                                       ",
"                                                        & L t                                       ",
"                                                >     . ; Y p                                       ",
"                                                      o t ' n                                       ",
"                                                    8 d Z [ T                                       ",
"                                  X                 T I K ] v                                       ",
"                                                    Y U ] L                                         ",
"                                                  J ] ] ] V +                                       ",
"                                                B ' ] ] ' w ,                                       ",
"                                          h V J ' ` ] ' C - < j                                     ",
"                                      2 e C Y Y / ` ' A                                             ",
"                                    - d H U U S P ' M                                               ",
"                                    w P U U F I U C                                                 ",
"                                  9 I U G S F I G                                                   ",
"                                  A P S q a g G u                                                   ",
"                                f I G q , , g P s $                                                 ",
"                                A I w 1 2 < C U D 0                                                 ",
"                              5 G V r z 0 r P U P V i                                               ",
"                                d q d x w G ` U U I Z g                                             ",
"                                # a g d F U ` ` ` U U P f                                           ",
"                                O x d Z ` ` ] ]  . ./ ` I y                                         ",
"                                @ e S `  .X.,.<.<.<.>.X.] K i                                       ",
"                                * H ` X.3.5.c.Z.C.C.s.7.>.] ' A                                     ",
"                              6 J ]  .4.V.~._._./.~.P.n.i.o.` U                                     ",
"                              U ]  .*.B.(.'.].'.).^.W.J.A.&.] ` Y                                   ",
"                            L ]  .o.t.R.Y.'.[.].)./.W.K.S.;.' ` L                                   ",
"                            ' ] | :.W.H.M.'.].]._.^.W.P.S.@.` ] Y                                   ",
"                          Y ' $.8.e./.w.U.].'.]._.^.W.K.v.%.] ] Y                                   ",
"                          Q [ $.q.M.!.0.!.'.].[.(.Q.I.J.n.&.] [ $.                                  ",
"                          Q [ $.8.m.T.f.!.[.).(.^.E.K.F.A.:.( ( '                                   ",
"                            ( ] _ k.Q.h.T./.Q.~.E.P.F.S.b.2._ ( '                                   ",
"                            J  . .j.I.N.B.W.B.I.P.J.S.n.s.=.^ _ H                                   ",
"                            M [ { j.D.l.g.J.Z.J.F.S.n.z.p._ } (                                     ",
"                              L ..9.v.y.u.l.A.S.A.b.z.d.4.{ _ J                                     ",
"                              T _ %.y.t.;.O.9.b.b.z.d.6.| ..n                                       ",
"                                M _ =.r.@.{ $.p.d.a.6.| ..m *                                       ",
"                                  N _ %.} X...*.1.1.| ..) b                                         ",
"                                      B ) ....o.o.o._ !                                             ",
"                                                                                                    ",
"                                                                                                    ",
"                                                                                                    ",
"                                                                                                    ",
"                                                                                                    "
};
