/* XPM */
static char *_7ff59a4af1f429ed8618277b543ced9Kdj44S9iDhBf6wr0[] = {
/* columns rows colors chars-per-pixel */
"50 50 182 2 ",
"   c None",
".  c #2B271E",
"X  c #2E281F",
"o  c #262623",
"O  c #2B2721",
"+  c #272825",
"@  c #2D2A23",
"#  c #2A2B28",
"$  c #332D24",
"%  c #382E26",
"&  c #332F29",
"*  c #2E302A",
"=  c #363126",
"-  c #3A3227",
";  c #34322B",
":  c #3B342A",
">  c #3E392D",
",  c #343531",
"<  c #3A3630",
"1  c #373834",
"2  c #3B3A33",
"3  c #3D3D3B",
"4  c #40372C",
"5  c #433B2E",
"6  c #493D2E",
"7  c #453D32",
"8  c #493E33",
"9  c #3F403B",
"0  c #47402F",
"q  c #4B412F",
"w  c #50422F",
"e  c #464135",
"r  c #4C4235",
"t  c #4F4937",
"y  c #43423C",
"u  c #4C4539",
"i  c #4E493C",
"p  c #524536",
"a  c #564937",
"s  c #524639",
"d  c #544A3B",
"f  c #5A4D3D",
"g  c #56523F",
"h  c #5C513E",
"j  c #5E583E",
"k  c #62523E",
"l  c #434443",
"z  c #4D4A43",
"x  c #544D42",
"c  c #5B4E42",
"v  c #534E48",
"b  c #545144",
"n  c #5C5243",
"m  c #5C5A46",
"M  c #55544D",
"N  c #5C5549",
"B  c #5C594C",
"V  c #565550",
"C  c #5F5650",
"Z  c #535851",
"A  c #5C5B53",
"S  c #5E5D59",
"D  c #625542",
"F  c #635B44",
"G  c #60564B",
"H  c #635B4A",
"J  c #685E4A",
"K  c #625D53",
"L  c #615D58",
"P  c #5E6259",
"I  c #67624E",
"U  c #6B624C",
"Y  c #746B4C",
"T  c #636355",
"R  c #6C6653",
"E  c #6E6A55",
"W  c #65635C",
"Q  c #60685E",
"!  c #6B695E",
"~  c #726E57",
"^  c #726D5A",
"/  c #786F5D",
"(  c #7D7756",
")  c #75715F",
"_  c #7B755C",
"`  c #646661",
"'  c #676F64",
"]  c #6C6C64",
"[  c #6C6F69",
"{  c #6F726C",
"}  c #717165",
"|  c #7B7262",
" . c #7B7B61",
".. c #75746C",
"X. c #7C796C",
"o. c #767974",
"O. c #7C7B72",
"+. c #777E7D",
"@. c #7D7E79",
"#. c #807B67",
"$. c #768177",
"%. c #7B8374",
"&. c #77817B",
"*. c #7C837D",
"=. c #7D897C",
"-. c #8D8562",
";. c #80806A",
":. c #888169",
">. c #908A64",
",. c #9E986E",
"<. c #838376",
"1. c #84847C",
"2. c #89877D",
"3. c #848A7D",
"4. c #8C8C7D",
"5. c #918F7E",
"6. c #959173",
"7. c #91917D",
"8. c #99937D",
"9. c #A99E6D",
"0. c #A59D7B",
"q. c #7F8680",
"w. c #7E8E84",
"e. c #838782",
"r. c #858B85",
"t. c #8B8C84",
"y. c #868D89",
"u. c #8B8D89",
"i. c #918E83",
"p. c #908F89",
"a. c #839083",
"s. c #8F9083",
"d. c #86918A",
"f. c #8D928C",
"g. c #949485",
"h. c #979985",
"j. c #999987",
"k. c #93948C",
"l. c #98968E",
"z. c #97998F",
"x. c #9B9A8B",
"c. c #8E9491",
"v. c #939692",
"b. c #949A94",
"n. c #9B9C94",
"m. c #969E9A",
"M. c #9B9E9A",
"N. c #A19F95",
"B. c #9FA195",
"V. c #9FA19C",
"C. c #9CA19D",
"Z. c #A2A197",
"A. c #A2A097",
"S. c #A3A399",
"D. c #A2A29A",
"F. c #A4A199",
"G. c #A5A29B",
"H. c #A5A59A",
"J. c #A2A29D",
"K. c #A6A39D",
"L. c #A2A59D",
"P. c #A6A69E",
"I. c #A3A39A",
"U. c #A8A69F",
"Y. c #A8A69D",
"T. c #A5A89E",
"R. c #A9A89F",
"E. c #9DA6A4",
"W. c #A5A7A2",
"Q. c #A7A7A1",
"!. c #A6A7A4",
"~. c #A4A7A2",
"^. c #A7A9A2",
"/. c #A6A8A4",
"(. c #A5A9A5",
"). c #A9AAA2",
"_. c #A9AAA3",
"`. c #ADAEA9",
"'. c #AFAFAD",
"]. c #ABAEA9",
"[. c #AEB0AB",
"{. c #B1B2AD",
/* pixels */
"                                                                                                    ",
"                                                W._.`.                                              ",
"                                              n.J././.'.                                            ",
"                              P.K.J.M.n.M.n.O.X.L.W.W.{.G.i.R.).n.m.n.                              ",
"                          _.v.n.G.U.N.v.n.v...! n.V.V.).j.2.H.R.g.v.v.f.b.l.                        ",
"                      ^.G.G.g.t.N.U.M.v.b.u.} T s.M.m.T.g.2.A.R.u.v.v.k.y.n.G.D.                    ",
"                    n.P.J.D.n.#.2.2.@.O.#.+.L A t.b.b.v.O...2.2...+.t.f.t.N.G.F.n.                  ",
"                  T.n.t.A.D.k.L 7 ; # # , * @ # S ` ] M ; @ ; = & & 2 z ..z.F.M.i.N.                ",
"                J.J._.n.s.*.l @ $ = : - > = - = > @ = > : : - - = @ = X = M t.4.g.H.`.              ",
"                J.J.Q.`.o.; > 7 6 5 r 7 r 7 r 7 r 7 6 q 7 r 7 7 > - - - = . 7 <.F.Z.H.              ",
"              g.l.D.Q.k.y e u i t p a r a r f d f r p f p p p r r 0 6 - : - $ b x.N.D.n.            ",
"              j.5.4.l.V 2 u s d f d k f h a j f k d f f p a a a p w w 5 5 - - $ ] t.1.2.            ",
"              j.x.x.2.2 e z s s f f k f f d h h D s f f a a a a t r r 5 5 : > $ 8 <.5.7.4.          ",
"            z.x.x.x.] 2 b b x i f h k a d u d d n d s f p a a s t r r 5 > r 8 = : %.7.7.7.          ",
"            g.g.7.g.S 2 B i u s G d f s f u i d n d a f p a p r e 7 r d e > r - @ } 4.4.4.          ",
"            g.g.5.g.` 2 A e i i d d n u s r b d D i s f f f r 8 d n p 7 t = r - = } t.<.t.          ",
"            x.j.h.h.z.S B b K N t t n d a d b d n i s f f n f s n B G 7 m 5 d 7 u i.G.n.G.          ",
"            g.g.h.j.H.X.| I ^ E U I H H U G g d n i d s f R | | ^ ) / R  .I R x b g.Y.F.J.          ",
"            2.<.2.g.O.i T 7 b i e d n r f 7 d d F x d s G x 7 7 z n d > b = e - : ..t.i.n.          ",
"            j.5.4.z.V u S e z x d r n i n d x f D d d f p s 6 7 u d t t i = 6 - $ ] u.v.M.          ",
"            M.N.A.D.L d B b d i n t n d F c n d D s d f p s 8 s r 5 q a r 5 6 - $ O.U.!.[.          ",
"            N.x.A.A.A x t n n d h x D f F d n d n i d f p a s s r r r 5 > r 8 - $ ..N.M.].          ",
"            M.N.D.J.C c d g h d n a D h D f h s n s a f a d d s a p f q 6 - 4 - $ [ k.v._.          ",
"            M.).`.`.W n n n h f D h k a D f h f D i f c s f f f a a f q q - 5 4 $ #.M.~.'.          ",
"            v.A.P.^.W G c h h n k f D s D d n f D s s c s f s f r p a 0 0 - 5 - $ O.b.m.].          ",
"            f.2.g.l.A N i d a d h f f d f d f s c i p f p s 8 u r 7 r 6 5 - > : & ` d.d.m.          ",
"            A.z.z.n.L N u u r r a r s r d e i 7 s 8 8 s 8 8 7 7 7 7 5 > > = - - & ..b.b.~.          ",
"            N.x.B.N.L x u y e r r r s r u 7 r 7 u 7 7 8 7 8 7 7 7 2 > > = = - - & O.m.m.(.          ",
"            z.g.n.n.M i 7 f f f d a n f c f d d c f f f a f f c d p d t d p 5 = @ [ y.c.E.          ",
"            M.k.l.v.z - : f f f H f s d s f n d p a s r d c s s a p n x t f r $ $ W q.q.v.          ",
"            D.n.n.v.i $ : x r J 0.| u r 7 ( 6.G s s r 7 Y #.c a p g 8.X.u d r $ @ ' w.q.c.          ",
"            M.v.b.k.i $ ; r 6 F 9.| r 7 : _ 9.G a a r 5 Y -.c p q p >.X.u d 5 = @ ` w.w.b.          ",
"            c.u.u.t.y % : : @ : F e @ O X r j - $ X X . r g = X X $ F t $ $ : $ O V &.w.c.          ",
"            n.m.N.b.z 4 u u 5 5 > & : = - = ; $ : $ % $ $ ; $ ; - $ - - $ 6 7 - O { c.m.~.          ",
"            k.v.M.C.v 7 b ; z s i 7 8 > 7 > 7 5 u 7 7 7 : 4 < 4 7 > 7 u u % 7 = O { m.C.(.          ",
"            r.r.u.c.z 8 N : N u r d c 6 7 5 z 0 u 7 7 r u v 4 4 7 i r > u $ 5 = . ` f.v.m.          ",
"            f.y.v.v...T R g E n k F F f f d c 7 p 8 8 7 x v z p u u d 7 b 0 t 5 : ` c.c.C.          ",
"            c.c.M.V.%.R ! m ~ F U J m D F J G 6 u 7 7 u d H J G n g F g E g g u e [ V.E.E.          ",
"            k.k.M.b.z u B 2 B e s n G 7 7 u G 8 s 8 8 8 B i 5 5 u i r - t $ 6 $ # [ M.~.E.          ",
"            e.*.u.u.z u n 7 n g f s f 8 s 8 c 8 x 8 8 u 8 u 8 8 e r e e i $ 7 $ O A r.r.c.          ",
"            y.b.m.b.v u b x d t f 8 d s d 8 s 8 f u r x 8 8 p 8 r 7 6 e > > 6 $ O ] n.m.m.          ",
"            f.b.C.b.v 8 i d x i f s f 8 f 8 s s f e r d 8 i 8 8 r 7 r 5 5 5 5 $ @ ] B.b.c.          ",
"            u.r.y.r.z u i i d d k s c 8 f s a s f e r d u s p p r r p 6 6 - % $ @ S 2.e.f.          ",
"            c.c.y.u.v i g d n a D a c p c 8 f 8 f u r s r s r s t r p 0 r : - $ @ P q.&.d.          ",
"            b.m.b.f.v u x d n d k a f p d s x s f 8 u t 8 s r r u r r 6 0 = - $ . P a.=.a.          ",
"            u.u.y.#.z u i i x t c 8 a p s 8 s p d 8 u u 8 8 7 8 e 7 6 > > = $ $ . Z =.%.a.          ",
"            u.e.+.e.C 8 9 9 u e s 7 8 7 8 8 8 8 i 7 7 u 7 7 7 2 > > 5 - = = = @ @ P $.%.f.          ",
"            o.+.+.o.V 2 : : 2 : < < 4 : < : : & > $ ; , : ; & ; = ; = * * @ @ + * ' o.<.a.          ",
"            l 9 9 9 3 2 2 1 2 1 1 1 1 , , , ; , , ; , * , , , , , , ; , , 1 1 , 1 3 l l z           ",
"                                  9 3 , + + + + o o o o + # * , 3 3 3 3 1 3 3 3 3 3 3 l l           "
};
