/* XPM */
static char *ZG9vcjE_[] = {
/* columns rows colors chars-per-pixel */
"50 50 234 2 ",
"   c #0F0805",
".  c #160B05",
"X  c #1C0B04",
"o  c #160A06",
"O  c #1D130D",
"+  c #15120A",
"@  c #151512",
"#  c #1C1D1B",
"$  c #191813",
"%  c #230C05",
"&  c #2B0A06",
"*  c #330A05",
"=  c #3B0C06",
"-  c #3A0D08",
";  c #251105",
":  c #2C1205",
">  c #23140B",
",  c #2B160B",
"<  c #2C190D",
"1  c #22180F",
"2  c #33140B",
"3  c #3C120B",
"4  c #341B0C",
"5  c #3A1D0D",
"6  c #371704",
"7  c #231C14",
"8  c #2B1B12",
"9  c #2A1713",
"0  c #381F10",
"q  c #1D231B",
"w  c #1C2115",
"e  c #3D2106",
"r  c #3D220B",
"t  c #36210E",
"y  c #23221C",
"u  c #2A241C",
"i  c #242A1D",
"p  c #2A2617",
"a  c #332315",
"s  c #3C2313",
"d  c #34241A",
"f  c #392B1D",
"g  c #1D2521",
"h  c #252C23",
"j  c #2B2B22",
"k  c #2C2D28",
"l  c #262824",
"z  c #332B22",
"x  c #3A2B24",
"c  c #372A26",
"v  c #2C3224",
"b  c #2E322C",
"n  c #323426",
"m  c #33352B",
"M  c #3C352B",
"N  c #33392D",
"B  c #3C3B2D",
"V  c #3B3426",
"C  c #313631",
"Z  c #3A3D34",
"A  c #353C33",
"S  c #450E09",
"D  c #450E07",
"F  c #43120A",
"G  c #4C130B",
"H  c #421A0B",
"J  c #4F1C0D",
"K  c #54150C",
"L  c #5A170F",
"P  c #531A0E",
"I  c #59180F",
"U  c #491C11",
"Y  c #551B12",
"T  c #5C1A11",
"R  c #611C13",
"E  c #4B290A",
"W  c #482608",
"Q  c #55220D",
"!  c #5C240C",
"~  c #5D2B0E",
"^  c #422513",
"/  c #442B14",
"(  c #4C2C15",
")  c #4D2D19",
"_  c #482A17",
"`  c #532313",
"'  c #522D13",
"]  c #5C2D13",
"[  c #542C1B",
"{  c #5C2617",
"}  c #4A3019",
"|  c #5D3415",
" . c #53331A",
".. c #5A361A",
"X. c #5D3A1C",
"o. c #563617",
"O. c #51300E",
"+. c #6B360E",
"@. c #76380D",
"#. c #632C17",
"$. c #613414",
"%. c #643814",
"&. c #6B3B15",
"*. c #653719",
"=. c #633C1C",
"-. c #6C3F19",
";. c #6A3214",
":. c #713B17",
">. c #652C0F",
",. c #422B26",
"<. c #463529",
"1. c #573728",
"2. c #433D33",
"3. c #483733",
"4. c #57372B",
"5. c #613D23",
"6. c #663525",
"7. c #783E28",
"8. c #3D433C",
"9. c #3A4136",
"0. c #5D401E",
"q. c #6C421D",
"w. c #674216",
"e. c #71441C",
"r. c #774A1B",
"t. c #4B432C",
"y. c #56462B",
"u. c #5A472B",
"i. c #454135",
"p. c #4A4334",
"a. c #43433B",
"s. c #4B4439",
"d. c #4D4939",
"f. c #534D3B",
"g. c #574838",
"h. c #55503C",
"j. c #664222",
"k. c #6B4223",
"l. c #744925",
"z. c #754A26",
"x. c #684A35",
"c. c #655236",
"v. c #765A38",
"b. c #6C512B",
"n. c #434A44",
"m. c #4A4D45",
"M. c #474643",
"N. c #544D45",
"B. c #5A4E42",
"V. c #4D5249",
"C. c #5B5444",
"Z. c #53534B",
"A. c #5D544B",
"S. c #565B4D",
"D. c #5B5B4C",
"F. c #555243",
"G. c #585952",
"H. c #635B4B",
"J. c #685845",
"K. c #755C47",
"L. c #625C54",
"P. c #6B5F55",
"I. c #65624B",
"U. c #6A654E",
"Y. c #686544",
"T. c #726443",
"R. c #746349",
"E. c #7C6949",
"W. c #786745",
"Q. c #636354",
"!. c #6B6652",
"~. c #6D6954",
"^. c #626359",
"/. c #69665A",
"(. c #6C6C5A",
"). c #676857",
"_. c #736A54",
"`. c #766D56",
"'. c #74725B",
"]. c #7C7659",
"[. c #7A724F",
"{. c #747262",
"}. c #7E7B62",
"|. c #777865",
" X c #6F7261",
".X c #884714",
"XX c #85551B",
"oX c #8B571C",
"OX c #914614",
"+X c #B05210",
"@X c #9D601F",
"#X c #AA621B",
"$X c #825421",
"%X c #8C5C25",
"&X c #915D23",
"*X c #985A26",
"=X c #885D3B",
"-X c #B75723",
";X c #9D6525",
":X c #99642C",
">X c #966729",
",X c #866439",
"<X c #996A33",
"1X c #A36D2B",
"2X c #A66925",
"3X c #AC722D",
"4X c #BA782E",
"5X c #B67932",
"6X c #AE7732",
"7X c #C85715",
"8X c #E2670E",
"9X c #E5720A",
"0X c #896A42",
"qX c #857A5A",
"wX c #847E62",
"eX c #807E68",
"rX c #B98337",
"tX c #C58737",
"yX c #C0943C",
"uX c #88815C",
"iX c #92845C",
"pX c #868565",
"aX c #8A876C",
"sX c #928F6D",
"dX c #8A8B72",
"fX c #999572",
"gX c #999778",
"hX c #938F6E",
"jX c #A39C66",
"kX c #A8A77C",
"lX c #CE9140",
"zX c #A4A588",
"xX c None",
"cX c black",
/* pixels */
"xXxXxXxXxXxXxXxXxXxXxXxXxXxXxXxXxXxXxXxXxXxXxXxXxXxXxXxXxXxXxXxXxXxXxXxXxXxXxXxXxXxXxXxXxXxXxXxXxXxX",
"xXxXxXxXxXxXxXxXxXxXxXxXxXxXxXxXxXxXxXxXxXxXxXxXxXxXxXxXxXxXxXxXxXxXxXxXxXxXxXxXxXxXxXxXxXxXxXxXxXxX",
"xXxXxXxXxXxXxXxXxXxXxXxXxXxXxXxXxXxXxXxXxXxXxXxXxXxXxXxXxXxXxXxXxXxXxXxXxXxXxXxXxXxXxXxXxXxXxXxXxXxX",
"xXxXxXxXxXxXxXxXxXxXxXxXxXxXxXxXxXxXxXxXxXxXxXxXxXxXxXxXxXxXxXxXxXxXxXxXxXxXxXxXxXxXxXxXxXxXxXxXxXxX",
"xXxXxXxXxXxXxXxXxXxXxXxXxXxXxXxXxXxXxXxXxXxXxXxXxXxXxXxXxXxXxXxXxXxXxXxXxXxXxXxXxXxXxXxXxXxXxXxXxXxX",
"xXxXxXxXxXxXxXxXxXxXxXxXxXxXxXxXxXxXxXxXxXxXxXxXxXxXxXxXxXxXxXxXxXxXxXxXxXxXxXxXxXxXxXxXxXxXxXxXxXxX",
"xXxXxXxXxXxXxXxXxXxXxXxXxXxXxXxXxXxXxXxXxXxXxXxXxXxXxXxXxXxXxXxXxXxXxXxXxXxXxXxXxXxXxXxXxXxXxXxXxXxX",
"xXxXxXxXxXxXxXxXxXxXxXxXxXxXxXxXxXxXxXxXxXxXxXxXxXxXxXxXxXxXxXxXxXxXxXxXxXxXxXxXxXxXxXxXxXxXxXxXxXxX",
"xXxXxXxXxXxXxXxXxXxXxXxXxXxXxXxXxXxXxXxXxXxXxXxXxXzXU.xXxXxXxXxXxXxXxXxXxXxXxXxXxXxXxXxXxXxXxXxXxXxX",
"xXxXxXxXxXxXxXxXxXxXxXxXxXxXxXxXxXxXxXxXxXxXjXkXgXqXh.c.b.xXxXxXxXxXxXxXxXxXxXxXxXxXxXxXxXxXxXxXxXxX",
"xXxXxXxXxXxXxXxXxXxXxXxXxXxXxXxXxXxXxXxXqXfXuX[.'.I.D.!.c.xXxXxXxXxXxXxXxXxXxXxXxXxXxXxXxXxXxXxXxXxX",
"xXxXxXxXxXxXxXxXxXxXxXxXxXxXxXxXxXxXxXqXW.].~.~.~.(.'.v.g.gXxXxXxXxXxXxXxXxXxXxXxXxXxXxXxXxXxXxXxXxX",
"xXxXxXxXxXxXxXxXxXxXxXxXxXxXxXxXD.hXfX{.g.E._.(.{.|.R.u.H.hXfXfXxXxXxXxXxXxXxXxXxXxXxXxXxXxXxXxXxXxX",
"xXxXxXxXxXxXxXxXxXxXxXxXxX'.].qXC.D.pX{.Z.u.J.)./.G.u.s.pXwXwXpXsXsXxXxXxXxXxXxXxXxXxXxXxXxXxXxXxXxX",
"xXxXxXxXxXxXxXxXxXxXxXxXuXI.f.K.L.m.!.).^.a.i.L.L.M k G.].`.(.(.Y.d.Q.gXxXxXxXxXxXxXxXxXxXxXxXxXxXxX",
"xXxXxXxXxXxXxXxXxXxXxXpX[.Y.i.J.L.m.F.^.^.G.c 6.7.<.C L._.(./.Z.i.D.|.'.dXxXxXxXxXxXxXxXxXxXxXxXxXxX",
"xXxXxXxXxXxXxXxXxXxXiX}.'.).p.g.C.B.s.H.Z.a.l .X#Xc C M.A.L.A.m.S.U.I.S.S.S.xXxXxXxXxXxXxXxXxXxXxXxX",
"xXxXxXxXxXxXxXxXxXC.W.}. X).h.g.C.C.8.M m k 7 _ w.l y k b ,.i.G.Q.S.V.m.I.}.hXxXxXxXxXxXxXxXxXxXxXxX",
"xXxXxXxXxXxXxXxXE.J.d.K.(.(.!.s.g.2.c p , > 1 O # 1 > > 8 7 m V.G.Z.a.C.~.~.].aXcXcXxXxXxXxXxXxXxXxX",
"xXxXxXxXxXxXxXdX[.v.f.t.c.[.H.Z z a < : : , s f s 2 % % % X l k 8.Z V.Q.~.~.).'.pXcXcXQ xXxX>.>.xXxX",
"xXxXxXxXxXxXdX[.E.R.J.a.t.u.B z 8 : 4 5 ^ '  . .[ Y 3 - 9 % > # l y Z.P././.L.^.(.xXxX+.! cXcXcXxXxX",
"xXxXxXxXxXpXqXE.W.U.(.c.d.u u 8 : 4  .j.:.&.j.j.#.R Y ,.A 9 % % X 7 m Z.P.L.L.L.G.^.xX! cXcXcXcXxXxX",
"xXxXxXxXcXW.W.=X=XT.!.h.V y > 5 ^ } 1.q.7.&.=.X.{ T L 4.M.d * % X X u 4.N.A.A.D.G.G.H.! cXcXcXcXxXxX",
"xXxXxXxXcXW.W.*X-X0XR.2.u 1 < ( q.r.r.w.&.%.X.=.Y T L 4.G.c - 2 X X < 5 x 2.p.p.p.s.u.] cXcXcXcXxXxX",
"xXxXxXxXxXT.,X7X8X<XK.M y > <  .w.q.&.&.+.$.o.] Y R L 6.A.,.S [ _ 1 o O 2 d d a d f ] cXxXxXxXxXxXxX",
"xXxXxXxXxXv.>X9X9X2X=X,.7 > > 4 ' | | ..| $.=.] Y R L 6.A.c S Y ) ^ O O 2 H z.>X>XrXXXyXxXxXxXxXxXxX",
"xXxXxXxXxXxX@.+X+XOX.X4 > > ^ ..=.q.q.=.=.%.=.#.Y R T 6.G.3.S Y f m # 8 >X%X6XtX1XlXrXtXxXxXxXxXxXxX",
"xXxXxXxXxXxX@.:.*.>.+.2 : ; ^ w.l.q.q.k.q.&.=.{ Y T K 4.A.3.F Y j Z 7 < 2XtX5X5X<X5X4X4XxXxXxXxXxXxX",
"xXxXxXxXxXxXr.;.| +.@.4 : :  .l.z.l.l.q.k.*.*.Y K R Y { N.3.K Y d B # X XX4X3X6X1X5X1X4X2XxXxXxXxXxX",
"xXxXxXxXxXxX:.] %.E @.4 : : s ..=. ...5.5.*.] Y Y R R [ N.3.G T ^ 8 o X @.2Xw.%X2X$XX.3XxXxXxXxXxXxX",
"xXxXxXxXxXxX=.( ( r ~ 4 : : ^ 1.J.K.K.j.j.*.{ G R L L { N.3.G Y [  .% X E 2Xw.w.1Xr.0.3XxXxXxXxXxXxX",
"xXxXxXxXxXxX .s  .4 | 4 : : ) 1.P.P.B. .[ $.Y K R L R { M.3.F L ( ^ X ; e oX>XoX3X>X<X>XxXxXxXxXxXxX",
"xXxXxXxXcXcXo.s t s -.4 : : ( k.K.H.4.) [ ] P K K K L { N.,.F I U s X X t w.&X2X@X&X%Xr.cXcXcXcXxXxX",
"xXxXxXxXcXcXX.o.( } e.4 % : s z.B.4.J._ ) $.P G G G K ` 2.<.S G 5 r X X ; t r.XXXX>X&X>XcXcXcXcXxXxX",
"xXxXxXxXcXcX0.o.X.=.q.4 X X < ^ x.J.<.( [ %.P S D D G ` 3.,.S K H 4 o X < < o.r.&X;X;XoXcXcXcXcXxXxX",
"xXxXxXxXcX,X>X@X&X:Xv.B $ o < ^ ^ s 5 ( [ ' Q F = = D Y <.x 3 K G 0   o < E t w.XXoXoXcXcXcXcXcXxXxX",
"xXxXxXxXxXt.t.y.u.y.g.b @   < ) O./ } o.| O.J = & & = U <.x 3 S U c @ # b 4.<.} w.r.r.cXcXcXcXcXxXxX",
"xXxXxXxXxXN 9.n v i v h #   X 6 W E E E E E H = * : * 3 ,.,.3 S z m g g C G.^.8.E w.w.cXcXcXcXcXxXxX",
"xXxXxXxXm m m n n v v q q @ X W W W W e W W 5 = * 6 & 3 x z 4 = u m # l C n.n.A i e a cXcXcXcXcXxXxX",
"xXxXxXxXv n n n 9.v v h g @ . e W e : ; X e 5 : 6 6 & : d z 4 * * 9 @ l n.G.n.n.N i i cXcXcXcXcXxXxX",
"cXcXcXcXv v N N n v v h i $ cXcXxXxXxXxXxXxXxX2 xXxXxXxXz z < : & X @ g 9.8.8.8.8.v p cXcXcXcXcXxXxX",
"cXcXcXcXcXh N A N 9.b v w xXcXcXxXxXxXxXxXxXxXxXxXxXxXxXxXcXcXcXxXxXxXw v 9.9.9.9.9.9.cXcXcXcXcXxXxX",
"cXcXcXcXcXq i v h h i w cXcXcXcXxXxXxXxXxXxXxXxXxXxXxXxXxXxXcXcXxXxXcXcX@ i v N v n v cXcXcXcXcXxXxX",
"cXcXcXcXcXcXcXcXcXcXcXcXcXcXcXcXxXxXxXxXxXxXxXxXxXxXxXxXxXxXcXcXxXxXcXcXcX+ w q q q cXcXcXcXcXcXxXxX",
"cXcXcXcXcXcXcXcXcXcXcXcXcXcXcXcXxXxXxXxXxXxXxXxXxXxXxXxXcXcXcXcXxXxXxXxXcXcXcXcXcXcXcXcXcXcXcXcXxXxX",
"cXcXcXcXcXcXcXcXcXcXcXcXcXcXcXcXxXxXxXxXxXxXxXxXxXxXxXxXcXcXcXcXxXxXxXxXcXcXcXcXcXcXcXcXcXcXcXcXxXxX",
"cXcXcXcXcXcXcXcXcXcXcXcXcXcXcXcXxXxXxXxXxXxXxXxXxXxXxXxXcXcXcXcXxXxXxXxXcXcXcXcXcXcXcXcXcXcXcXcXxXxX",
"cXcXcXcXcXcXcXcXcXcXcXcXcXcXcXcXxXxXxXxXxXxXxXxXxXxXxXxXcXcXcXcXxXxXxXxXcXcXcXcXcXcXcXcXcXcXcXcXxXxX",
"cXcXcXcXcXcXcXcXcXcXcXcXcXcXcXcXcXcXcXcXcXcXcXcXcXcXcXcXcXcXcXcXxXxXxXxXxXxXxXxXxXxXxXxXxXxXxXxXxXxX",
"cXcXcXcXcXcXcXcXcXcXcXcXcXcXcXcXcXcXcXcXcXcXcXcXcXcXcXcXcXcXcXcXxXxXxXxXxXxXxXxXxXxXxXxXxXxXxXxXxXxX"
};
