/* XPM */
static char *door11669812436[] = {
/* columns rows colors chars-per-pixel */
"50 50 168 2 ",
"   c None",
".  c #15160F",
"X  c #141510",
"o  c #171811",
"O  c #1A1B13",
"+  c #201F17",
"@  c #221F19",
"#  c #1F2017",
"$  c #1F2119",
"%  c #212116",
"&  c #24241A",
"*  c #29261F",
"=  c #26291B",
"-  c #2A2B1E",
";  c #253617",
":  c #2C3D1F",
">  c #252820",
",  c #2C2C21",
"<  c #2E3124",
"1  c #333326",
"2  c #313C24",
"3  c #393B27",
"4  c #333629",
"5  c #3C372D",
"6  c #353A2C",
"7  c #3B3D2C",
"8  c #3A3E31",
"9  c #433F2F",
"0  c #413F32",
"q  c #2B451C",
"w  c #2D491C",
"e  c #334326",
"r  c #314B21",
"t  c #374028",
"y  c #3D422D",
"u  c #364D29",
"i  c #3D4A2C",
"p  c #365025",
"a  c #3E5627",
"s  c #395B25",
"d  c #3A542A",
"f  c #3C5B2A",
"g  c #3D4334",
"h  c #3E622D",
"j  c #42432D",
"k  c #434534",
"l  c #4B4536",
"z  c #464A35",
"x  c #4A4C36",
"c  c #424639",
"v  c #454B3C",
"b  c #4A4D3B",
"n  c #514D3A",
"m  c #4A5532",
"M  c #435935",
"N  c #4D513D",
"B  c #52533D",
"V  c #545A3E",
"C  c #58583F",
"Z  c #44632B",
"A  c #476334",
"S  c #4B6433",
"D  c #4F6F36",
"F  c #4B643A",
"G  c #4C6C3B",
"H  c #55663B",
"J  c #556B3A",
"K  c #474E41",
"L  c #494F41",
"P  c #504F40",
"I  c #4C5344",
"U  c #4F5648",
"Y  c #4F5848",
"T  c #525643",
"R  c #595542",
"E  c #545944",
"W  c #5B5D44",
"Q  c #525548",
"!  c #545B4B",
"~  c #5B5E4B",
"^  c #565E51",
"/  c #585E51",
"(  c #605E44",
")  c #615F4B",
"_  c #615B58",
"`  c #526244",
"'  c #5F6046",
"]  c #56604F",
"[  c #5D624C",
"{  c #5E6F48",
"}  c #577546",
"|  c #5A764B",
" . c #576152",
".. c #5C6352",
"X. c #5F6856",
"o. c #5F6758",
"O. c #636346",
"+. c #616A44",
"@. c #64654C",
"#. c #65694E",
"$. c #6B6C4E",
"%. c #667145",
"&. c #637B43",
"*. c #626551",
"=. c #646A54",
"-. c #6B6D53",
";. c #636B5A",
":. c #6B6E59",
">. c #716E53",
",. c #6D7155",
"<. c #637B53",
"1. c #6B7956",
"2. c #6D735B",
"3. c #727455",
"4. c #787755",
"5. c #727955",
"6. c #787857",
"7. c #73765B",
"8. c #79775A",
"9. c #76795C",
"0. c #7B7D5C",
"q. c #6A7362",
"w. c #737762",
"e. c #767C63",
"r. c #797E64",
"t. c #787F68",
"y. c #817E5D",
"u. c #817F62",
"i. c #698656",
"p. c #7D805E",
"a. c #7D8264",
"s. c #768C67",
"d. c #7D836A",
"f. c #81805D",
"g. c #838564",
"h. c #898765",
"j. c #868966",
"k. c #898B64",
"l. c #82866A",
"z. c #85896A",
"x. c #8A8C6B",
"c. c #908F6C",
"v. c #839065",
"b. c #8D906D",
"n. c #92946E",
"m. c #98956D",
"M. c #99996D",
"N. c #868C72",
"B. c #898E74",
"V. c #8D9171",
"C. c #929574",
"Z. c #959A75",
"A. c #9B9C75",
"S. c #92967A",
"D. c #98967A",
"F. c #979A7A",
"G. c #9A9D7A",
"H. c #9DA17A",
"J. c #A0A177",
"K. c #A1A37D",
"L. c #A4A97E",
"P. c #9EA385",
"I. c #A4A583",
"U. c #A6AA82",
"Y. c #A9AB84",
"T. c #A9AF88",
"R. c #AEB087",
"E. c #B0B48E",
/* pixels */
"                                                                                                    ",
"                                                  C.C.V.C.C.I.                                      ",
"                                                z.g.z.b.g.S.F.S.P.                                  ",
"                                                b.p.x.K.V.B.d.l.d.                                  ",
"                                                V.z.j.:.;.;.;.X.^                                   ",
"                                                S.x.0.=.;...Y I !                                   ",
"                                                V.a.9.:.X.] b v U                                   ",
"                                              H.g.9.7.*.` v I v b                                   ",
"                                          a.G.Z.,.9.$.E g E 5.2.;.                                  ",
"                                          9.j.b.5.g.$.x #.f.A.A.2.                                  ",
"                                        z.5.9.k.g.g.C 5.f.f.M.x.E                                   ",
"                                        a.+.p.j.j.z.g.J.n.y.5.] Y                                   ",
"                                      2.+.%.b.g.n.Z.Y.U.K.C.:.c I Y                                 ",
"                                      S J &.j.l.L.U.U.R.C.,.E g K I       ;.w.                      ",
"                              i.s.    Z Z H 9.b.C.l.H.v.=.E T g g c U   ~ *.=. .                    ",
"                            } d F <.{ m m ` 5.b.9.=.a.=.] B T c 6 c Y  .2.=.! !                     ",
"                            | F u ` 1.C C ' #.4.W [ ,...I N b g 8 I =.N.S.d.Q !                     ",
"                            G h s A D 6.0.A.p.W z E #.[ N b g g N 9.I.H.*.T I I  .                  ",
"                            G h f F S 5.x.m.J.W 3 x ' [ b g 6 b 5.H.T.0.z j c K U                   ",
"                            <.M u e u -.x.n.4.z < z O.' c 6 M p.n.j.~ x 7 N g ~ ,.                  ",
"                  0.#.        D q ; e +.V.2.N 3 = 3 B B @.$.$.0.x.#.4 1 e.C.x.A.H.P.v.d.            ",
"                  [ y z     v.D w w r =.a.N y n >.$.C n C O.$.B l y 2 g.Y.E.K.H.C.2.T I             ",
"                  E j z     U.J w w r E 2.V 0.K.R.J.A.n.n.>.z y 8 1 1 7.C.H.,.2.*.! Q K !           ",
"                  $.W C l.Z.j.c = q e E 2.2.0.L.U.A.x.L.K.A.5.3 6 , < 3.j.x.x E ,.Q ] I Y !         ",
"                x.7.C x ~ 7.I 6 6 v T 7.x.>.@.u.-.,.C.D.Y.C.a.l < & 1 4.f.k.*.] [ Y  .K I Y         ",
"          C.0.@.g.$.z z k c 6 6 k E [ >.h.>.$.-.k z u.c.h.e.E k * @ 9 O.O.5.o.! Y ] ] g g Q         ",
"        ,.=.W x >.C x j 3 z i b E :.w.7.u.l.u.>.l l 2.:.) ~ N R 9 R y.m.g.@.;.^ b ! Y Y g K ^       ",
"        ,.W N x V x z t x H y E Q B _ u.l.:.u.c.-.B =.-.! Q ~ D.z.h.Y.K.:.C X. .g [  .^ g g Y       ",
"        7.' m b x 3 j j O.R v Q c , % n w.u.I.I.*.l _ 7.P 0 / P.:.T 8.U.Z.#.~ I v Y X. .I v I ^     ",
"      d.e.[ N b B z 9 >.n.( b 0 0 4 @ * b D.m.7.L k @.>.>.>.R w.*.~ n 8.a.Y T ] K g X.! I b K !     ",
"      a.a.5.#.z C B 9 =.g.-.k - 1 , @ O > ~ ) v 0 5 P W 8.h.7.) 7.g.' #.Y ! Y ] b 4 E ! I g g Y X.  ",
"      z.l.n.E k z j j @.[ E 9 - - O O . o 6 k v k i c n y.8.:.*.#.[ v Y Y  .I E =.4 K ! c g Q :.2...",
"    C.S.F.V.b y j x n =.N x 6 & O O 1 o O - 4 E c 7 y E j.9.#.[ b I v K Q ] b 9.a.4 g U g T ~ ~ X.Q ",
"    a.0.x.e.c g B W x T l z < & X = 1 O O # $ 4 c 2 e ,.x.5.,.2...K b I [  .Y a.V.g 6 v 6 T E I  .! ",
"    e.E #.=.b g N B l B 5 b 6 , O O % . o O & & I 6 < e.b.,.7.2.q.Y g U  .X.Y w.q.I c ~ E k N I  . .",
"  *.X.b N -.E g 6 1 3 9 < N g = o O O . X o & # z g 1 z.l.,.;.;.;. .g K ] ..! d.2.L g e.l.I v Y ^  .",
"  a.~ b N #.K 6 4 4 z 5 1 k 6 = O O O O . . % O 7 b 1 l.g.8.*. ...! g g Y  .~ a.a.Y g ! [ I v I Y ^ ",
"  g.$.W v Q g g 5 0 Q 1 1 k 1 , - & O O = - & & @.x 3 r.a.e.X.! ! K 6 v I I E a.w.Y I Y  .I c K U Y ",
"  ,.-.E v Y g 6 <   _     c 6 W >.O.n , - 3 j #.H.:.c r.l.:.~ Y ! v 4 g g E 9.z.X.I K Q ! Y I K Y b ",
"z.-.=.T v x 8 4               w.n.c.>.C k - , h.I.@.k r.g.=.X.Q ^ I 4 g g X.b.H.z.2.X.! U Y K c K E ",
"a.[ :.I g g < 6                 w.8.4.4.-.W b G.a.E z 2.9.,.q.! Y K 4 6 8 [ g.x.V.2.o.! Y g g Y [  .",
"7.@.[ b g g 6 8                     9.g.4.( 0.F.7.[ y #.7.-.*.Y K g 6 < < E 2.a.a. .o. .Y g ]  ...^ ",
"    K v c g g                         :.W 4.S.Z.2.[ 2 V *.[ Q I v Y v & , Q :.r.d.;.;.Y I E ..Y Y ^ ",
"                                          3.0.x.z.N < y Y b b v g  .Y $ = X.a.e.2. . .I X.[ Y ] ^ ^ ",
"                                          5.6.g.g.7 7 7 P Q I c v ! I $ , e.S.2.2.o.! K N Y I ^ ^ ! ",
"                                  G.F.    $.f.y.C 4 b 1 k W Q g g Y K = , X.0.-.:.o. .K g b I U ^ ! ",
"                                  9.[   x.0.h.0.0 @.R > , Q ~ 8 g N c > > l 2.a.7.X.Q K 6 K I I U / ",
"                                  :.E T @.@.u.@.) h.~ @ @ k E 6 g c 8 , = c [ 1.2.;.X.! g g g K Y   ",
"                                  g.@.v N g W x -.*.v @ o 5 b 4 6 x -.E 1 c @.9.e.=.l.;.g v L       ",
"                                C.x.[ I c 1 9 n W Q c @ @ 4 8 > 1 -.L.b.@.  N ' 7.! e.2.            "
};
