/* XPM */
static char *_866f0ddd1334dd2bcef2101d59285b5mzDapAV4ZLDgqh6d[] = {
/* columns rows colors chars-per-pixel */
"50 50 154 2 ",
"   c None",
".  c #000000",
"X  c #080706",
"o  c #080807",
"O  c #0A0A09",
"+  c #11110E",
"@  c #151514",
"#  c #181714",
"$  c #171817",
"%  c #1A1916",
"&  c #191A19",
"*  c #201F1C",
"=  c #262623",
"-  c #272825",
";  c #2B2B26",
":  c #2C2C2A",
">  c #31312E",
",  c #343531",
"<  c #393936",
"1  c #3E3F3B",
"2  c #403E38",
"3  c #3F403C",
"4  c #41423E",
"5  c #444441",
"6  c #464A45",
"7  c #4B4B47",
"8  c #4B4B49",
"9  c #4F5047",
"0  c #4F504A",
"q  c #51524D",
"w  c #5A5B4E",
"e  c #545553",
"r  c #555852",
"t  c #5D5D56",
"y  c #5C5D59",
"u  c #5C605B",
"i  c #606156",
"p  c #62635C",
"a  c #6B695D",
"s  c #646560",
"d  c #656A62",
"f  c #6C6C64",
"g  c #737365",
"h  c #74746C",
"j  c #7B796D",
"k  c #767773",
"l  c #757A74",
"z  c #7B7C75",
"x  c #777E7D",
"c  c #7E7D78",
"v  c #807E72",
"b  c #778275",
"n  c #7D8276",
"m  c #778279",
"M  c #7C827C",
"N  c #7D897C",
"B  c #838376",
"V  c #84857C",
"C  c #89877C",
"Z  c #838A7D",
"A  c #8C8C7D",
"S  c #918F7E",
"D  c #8F907F",
"F  c #91927D",
"G  c #7F8680",
"H  c #7E8F84",
"J  c #838683",
"K  c #858983",
"L  c #8B8C84",
"P  c #868E89",
"I  c #8A8D89",
"U  c #918F83",
"Y  c #908F89",
"T  c #849284",
"R  c #8D9087",
"E  c #87938C",
"W  c #8D938D",
"Q  c #939384",
"!  c #979885",
"~  c #999987",
"^  c #93938C",
"/  c #98978E",
"(  c #9B9A8B",
")  c #8F9693",
"_  c #939591",
"`  c #949A95",
"'  c #9B9C94",
"]  c #969E9A",
"[  c #9C9E99",
"{  c #A09E8E",
"}  c #A09E95",
"|  c #A09F9B",
" . c #9FA097",
".. c #9CA19D",
"X. c #A2A196",
"o. c #A1A098",
"O. c #A2A298",
"+. c #A3A398",
"@. c #A3A399",
"#. c #A2A19A",
"$. c #A1A39B",
"%. c #A2A39B",
"&. c #A4A199",
"*. c #A4A198",
"=. c #A5A398",
"-. c #A4A29B",
";. c #A5A59A",
":. c #A6A49B",
">. c #A6A69A",
",. c #A1A29D",
"<. c #A3A39D",
"1. c #A7A39D",
"2. c #A2A49C",
"3. c #A2A59E",
"4. c #A4A59E",
"5. c #A6A49E",
"6. c #A7A69E",
"7. c #A7A79F",
"8. c #A2A39C",
"9. c #A8A69B",
"0. c #A8A69F",
"q. c #A9A79F",
"w. c #A5A89E",
"e. c #A8A89F",
"r. c #9EA5A3",
"t. c #9FA8A8",
"y. c #A7A6A0",
"u. c #A5A6A2",
"i. c #A5A7A2",
"p. c #A5A6A3",
"a. c #A7A7A2",
"s. c #A8A7A0",
"d. c #A5A8A3",
"f. c #A6A8A4",
"g. c #A7A8A5",
"h. c #A4AAA6",
"j. c #A8A9A0",
"k. c #A8A9A1",
"l. c #ABA9A1",
"z. c #A9AAA3",
"x. c #AAABA3",
"c. c #ABAAA4",
"v. c #AAABA4",
"b. c #ADAEA5",
"n. c #AEAFA6",
"m. c #A8A9A3",
"M. c #A7ACA8",
"N. c #AEAEA8",
"B. c #ADAEAA",
"V. c #ABAEA9",
"C. c #AFB2AE",
"Z. c #B1B2AD",
"A. c #B0B0AE",
"S. c #B0B1AB",
/* pixels */
"                                                                                                    ",
"                                                p.m.B.                                              ",
"                                              [ 3.d.d.C.                                            ",
"                              s.1.y.[ ' | ' v j <.a.a.C.&.Q c.m.' [ ] [                             ",
"                          x./ ' &.s.| _ ' ^ g a ' %...x.~ C ;.e.^ _ ^ W ] _                         ",
"                      x.;.X.^ C ' 0.[ ^ ` I g p I ] ] 3.Q C +.e.R _ ` ^ L ' &.&.                    ",
"                    ' 6.%.%.' c C C c k G k i w L ` ` ' z g V V k c K ^ L X.&.&.[                   ",
"                  e.' L [ %./ t , * @ @ @ @ + @ 8 p y < # # # % @ & : 5 h ( =.} U }                 ",
"                <.<.x.' R M , o . . . . . . . . X X X . . . . . . . . . % q A L Q ;.n.              ",
"                -.<.a.n.h $ . . . . . . . . . . . . . . . . . . . . . . . X : B &.} ;.n.            ",
"              ^ ! | a.^ & . . . . . . . . . . . . . . . . . . . . . . . . . . 2 ' } %.[             ",
"              Q U C / 5 . . . . . . . . . . . . . . . . . . . . . . . . . . . X p L V V             ",
"              ~ ( { c O . . . . . . . . . . . . . . . . . . . . . . . . . . . . * B F F F           ",
"            ' ( ( ( t . . . . . . . . . . . . . . . . . . . . . . . . . . . . . + g F F F           ",
"            Q Q S U < . . . . . . . . . . . . . . . . . . . . . . . . . . . . . . i S A R           ",
"            Q ! A A > . . . . . . . . . . . . . . . . . . . . . . . . . . . . . X i L B L           ",
"            ( ~ ! ! 7 . . . . . . . . . . . . . . . . . . . . . . . . . . . . . # L =.{ &.          ",
"            Q Q ! ( q . . . . . . . . . . . . . . . . . . . . . . . . . . . . . % U 9.&.9.          ",
"            C B B R , . . . . . . . . . . . . . . . . . . . . . . . . . . . . . + f L Y |           ",
"            Q U A C # . . . . . . . . . . . . . . . . . . . . . . . . . . . . . . t I _ ]           ",
"            [ X.=.U @ . . . . . . . . . . . . . . . . . . . . . . . . . . . . . X g 0.m.C.          ",
"            } ( =.L @ . . . . . . . . . . . . . . . . . . . . . . . . . . . . . X f | [ B.          ",
"            [ } <.^ @ . . . . . . . . . . . . . . . . . . . . . . . . . . . . . . p / _ m.          ",
"            [ s.S.[ $ . . . . . . . . . . . . . . . . . . . . . . . . . . . . . . h [ <.C.          ",
"            '  .w._ % . . . . . . . . . . . . . . . . . . . . . . . . . . . . . . f ] ] V.          ",
"            ^ Z Q L # . . . . . . . . . . . . . . . . . . . . . . . . . . . . . . r P P ..          ",
"             .( ( L @ . . . . . . . . . . . . . . . . . . . . . . . . . . . . . . d ] ) h.          ",
"            } ~ X.I $ . . . . . . . . . . . . . . . . . . . . . . . . . . . . . . d ] ] M.          ",
"            ' Q ' K @ . . . . . . . . . . . . . . . . . . . . . . . . . . . . . . y ) ) r.          ",
"            [ ^ ^ L @ . . . . . . . . . . . . . . . . . . . . . . . . . . . . . . r G M `           ",
"            <.' ' L @ . . . . . . . . . . . . . . . . . . . . . . . . . . . . . . u H N )           ",
"            [ _ ' J @ . . . . . . . . . . . . . . . . . . . . . . . . . . . . . . r H P ]           ",
"            _ I I v @ . . . . . . . . . . . . . . . . . . . . . . . . . . . . . . 6 G G _           ",
"            ' ] ..W $ . . . . . . . . . . . . . . . . . . . . . . . . . . . . . . u ) ] t.          ",
"            W _ [ ) $ . . . . . . . . . . . . . . . . . . . . . . . . . . . . . . s ] ] M.          ",
"            I K I I @ . . . . . . . . . . . . . . . . . . . . . . . . . . . . . . r W _ ..          ",
"            W P ) I $ . . . . . . . . . . . . . . . . . . . . . . . . . . . . . . r _ _ r.          ",
"            _ ) ] _ $ . . . . . . . . . . . . . . . . . . . . . . . . . . . . . . p ..r.t.          ",
"            ^ W [ _ $ . . . . . . . . . . . . . . . . . . . . . . . . . . . . . . y ....t.          ",
"            K G I K $ . . . . . . . . . . . . . . . . . . . . . . . . . . . . . . 8 K K _           ",
"            P ) ` ) & . . . . . . . . . . . . . . . . . . . . . . . . . . . . . X p ..` ..          ",
"            ) ] ] W $ . . . . . . . . . . . . . . . . . . . . . . . . . . . . . X f ' ` _           ",
"            P P I G @ . . . . . . . . . . . . . . . . . . . . . . . . . . . . . . q Z Z W           ",
"            _ W ) J @ . . . . . . . . . . . . . . . . . . . . . . . . . . . . . . q K m E           ",
"            ` ` _ K @ . . . . . . . . . . . . . . . . . . . . . . . . . . . . . . r Z Z T           ",
"            I W I z @ . . . . . . . . . . . . . . . . . . . . . . . . . . . . . . 3 N b T           ",
"            I J G J : . . . . . . . . . . . . . . . . . . . . . . . . . . . . . o r b m W           ",
"            k x k k < O O O O O O O O O O O O O O O O O O O O O O O O O O O O o @ d b n R           ",
"            5 4 3 1 < , < , , , , , > , > > > > > > > > > : : > > , > > , , , > > 1 4 5 8           ",
"                      5       4 4 5 4 > ; ; - ; = = = = - ; > < 7 0 e q 6 8 8 8 8 8 8 y e           "
};
