/* XPM */
static char *d174f8cf3e3f4f53be2716e7e88541e1rhKHEJadwZw9Tv5f[] = {
/* columns rows colors chars-per-pixel */
"50 50 218 2 ",
"   c None",
".  c #050A0F",
"X  c #070E15",
"o  c #0B131B",
"O  c #06121E",
"+  c #171A18",
"@  c #241D16",
"#  c #23160C",
"$  c #1C221A",
"%  c #3F230A",
"&  c #362617",
"*  c #3E3B1A",
"=  c #282913",
"-  c #0C1925",
";  c #0D1B28",
":  c #141D25",
">  c #0B1F30",
",  c #1A2727",
"<  c #0E2131",
"1  c #102435",
"2  c #152A3C",
"3  c #1A3039",
"4  c #243437",
"5  c #302F28",
"6  c #48260A",
"7  c #5D340B",
"8  c #593515",
"9  c #4E310D",
"0  c #68380E",
"q  c #633C19",
"w  c #4F3F2F",
"e  c #3F4325",
"r  c #3B4836",
"t  c #565113",
"y  c #6C5211",
"u  c #78680A",
"i  c #776C18",
"p  c #686017",
"a  c #54452A",
"s  c #53572A",
"d  c #564C33",
"f  c #4C4F33",
"g  c #624C31",
"h  c #6B522E",
"j  c #636428",
"k  c #6A6B2B",
"l  c #6B6726",
"z  c #79672A",
"x  c #74732B",
"c  c #787728",
"v  c #666A39",
"b  c #75763B",
"n  c #152D43",
"m  c #182C42",
"M  c #16324B",
"N  c #1A344D",
"B  c #1A3348",
"V  c #193652",
"C  c #1B3955",
"Z  c #1D3D5C",
"A  c #25394A",
"S  c #213F5D",
"D  c #1B3E61",
"F  c #2C414C",
"G  c #3A4345",
"H  c #24425E",
"J  c #2A465B",
"K  c #324E5B",
"L  c #344A55",
"P  c #38525A",
"I  c #1E4163",
"U  c #1E4569",
"Y  c #214464",
"T  c #22466A",
"R  c #24496C",
"E  c #294A66",
"W  c #375468",
"Q  c #244C73",
"!  c #294F73",
"~  c #274F79",
"^  c #29537D",
"/  c #295077",
"(  c #325673",
")  c #3D5F72",
"_  c #355779",
"`  c #48564C",
"'  c #475C56",
"]  c #5A5955",
"[  c #494D4C",
"{  c #695842",
"}  c #576546",
"|  c #536553",
" . c #636D48",
".. c #7A6548",
"X. c #677245",
"o. c #796B55",
"O. c #65775B",
"+. c #737C51",
"@. c #7A7548",
"#. c #455C68",
"$. c #4C5E71",
"%. c #48666D",
"&. c #446476",
"*. c #496678",
"=. c #586C71",
"-. c #697A64",
";. c #6C736E",
":. c #9C7909",
">. c #917116",
",. c #815630",
"<. c #857926",
"1. c #886B49",
"2. c #95724A",
"3. c #8C7B5E",
"4. c #88755A",
"5. c #9C7E59",
"6. c #806C55",
"7. c #8A7863",
"8. c #7F833C",
"9. c #7A824D",
"0. c #758355",
"q. c #718158",
"w. c #648279",
"e. c #7A806F",
"r. c #978816",
"t. c #8C831E",
"y. c #A98A09",
"u. c #B69601",
"i. c #A59719",
"p. c #AD9307",
"a. c #BAA819",
"s. c #8B8423",
"d. c #998D25",
"f. c #9C8838",
"g. c #979639",
"h. c #95902D",
"j. c #A19B2F",
"k. c #B3A828",
"l. c #B3A834",
"z. c #CCAB00",
"x. c #DCBA01",
"c. c #D7BD16",
"v. c #C8B71F",
"b. c #C7B326",
"n. c #DBC215",
"m. c #E7C808",
"M. c #F8D403",
"N. c #E6CF39",
"B. c #878E48",
"V. c #8C9248",
"C. c #949846",
"Z. c #989B59",
"A. c #8B9353",
"S. c #A9875D",
"D. c #A89143",
"F. c #8A826C",
"G. c #83977A",
"H. c #93956F",
"J. c #AC8D64",
"K. c #A68B66",
"L. c #B59469",
"P. c #A38E72",
"I. c #AB9675",
"U. c #B49972",
"Y. c #B89B70",
"T. c #AE9069",
"R. c #AEB476",
"E. c #C09969",
"W. c #C9A775",
"Q. c #D1AB79",
"!. c #D8B27D",
"~. c #E3D34F",
"^. c #D1CB78",
"/. c #2B5582",
"(. c #2D5985",
"). c #2E5B89",
"_. c #315E8A",
"`. c #325D83",
"'. c #366184",
"]. c #33618D",
"[. c #3B6487",
"{. c #356693",
"}. c #366896",
"|. c #396A95",
" X c #496B8B",
".X c #536F86",
"XX c #577688",
"oX c #4C7599",
"OX c #547797",
"+X c #486F8B",
"@X c #4D79A3",
"#X c #5E838F",
"$X c #7A8588",
"%X c #6C8A91",
"&X c #5C84A7",
"*X c #6D90A9",
"=X c #B1B392",
"-X c #82A6BB",
";X c #93A6A3",
":X c #A9A7A5",
">X c #C8AF87",
",X c #D9B683",
"<X c #D8BD96",
"1X c #C4B193",
"2X c #E2BD87",
"3X c #BEC282",
"4X c #DAC19C",
"5X c #E3C192",
"6X c #EEC992",
"7X c #EBCB9D",
"8X c #E6C697",
"9X c #F1CD98",
"0X c #F3D09C",
"qX c #EECEA0",
"wX c #F3D4AA",
"eX c #F3D4A8",
"rX c #F5D9B4",
"tX c #86ABC6",
/* pixels */
"                                                                                                    ",
"                                                                                                    ",
"                                                                                                    ",
"                                                                                                    ",
"                                                                                                    ",
"                                                                                                    ",
"                                                                                                    ",
"                                                                                                    ",
"                                                                                                    ",
"                                                        A ' } 3                                     ",
"                                                  V K O.w..X( D 2                                   ",
"                                              C Q '.G.;._ Q Z n M 1                                 ",
"                                          V ! ^ &.B.-.(.(.Q D < - ;                                 ",
"                                        D ^ _.#XR.w._.(.^ R D 1                                     ",
"                                      E _.}.#X5X%X|.|.{._.^ R C 1                                   ",
"                                    Z ].|.|.3X3X|.|.|.|.|._.^ U V -                                 ",
"                                  n (.|.|..X~.;X).{.}.|.|.|.(.~ S m                                 ",
"                                { R (.'.`.V.M.0.'.'.{.{.}.|._./.Y m [                               ",
"                                4 -.g.k.b.m.M.m.v.l.V.O.&.)./.^ &.;XT.                              ",
"                                $XN.x.u.:.>.>.>.:.p.z.m.c.V.) *.<X2X..                              ",
"                                :Xp w & 8 ,.E.2.0 9 g h r.x.b.+.K.L.G -                             ",
"                              G w 8 ..d ;.P.7XJ.5 ] :X6.2.y u.m.b ' Y >                             ",
"                              . & 8 J.L.J.,XwXW.5.7.5.W.S.q 7 u.n.%.U 1                             ",
"                              . @ 8 Y.qX2X9XqXQ.!.Q.2X9XS.g 0 y z.x n 1                             ",
"                    tX*X        o 9 J.rXeX6X2X,X9XwXrX0X5.q 0 7 y u 3 >                             ",
"                    -X-Xk         % 2.eX9X6X<X5X6XqXeX!.2.9 0 6 9 u , O                             ",
"                    H.%X/ .X|.      g ,X6X0XrXwX9X9X2XJ.h 6 % # = e                                 ",
"                  &XO.9.! F J       + ;.;.4.3.3.4.o.] A 5 # : m 1 H                                 ",
"                  U %. .j i         : #.+XI M M V D D M : m ~ ).R V N                               ",
"                      i l p         #. XK L I T T D C Z V ! {.|.].R n                               ",
"                        i >.        .XoX) k 1 4 d T /.Q S [.{.|.{.(.Z 3                             ",
"                          Z.        OXOX.Xh.4 j B.%.$.! S oX_.|.|._.U N B                           ",
"                          H.b     $.&X*.;Xk.s s.g.-.' ( Z OX].{.|.].Q M C                           ",
"                            F.1Xd v *._ -XA.c i.q./.' ( U ) &X`._.(.~ V C N                         ",
"                          o...L.v >. ._.$.C.i.i.O.0.#.^ R C OX&X).{.(.Z N H                         ",
"                          4XS.a Y.f.c &.S Z.a.k.0.9.#./.T A e.=.'.{.^ V N T V                       ",
"                          1X7X..U.D.k v W -.i.a.0.%.| ~ =.T.@.r.k.=.Q N N U Y                       ",
"                          F.7XL.{ <.r 9 %.H r x | } L B 4.,Xf.v k t.x e N I R                       ",
"                            P.F.d     #.oXT F A C Z n > F.eX>Xd.} , , + 2 M 2                       ",
"                                l.p.  $XXX/.h.s.R R U N I.rXrXQ.l , >                               ",
"                                ^.c.    <.B.r.d.&.(.^ U [ I.8X8X1.o                                 ",
"                                  b.    F ` P s t.b b f e * d ..                                    ",
"                                        f } K n $   ` L E n                                         ",
"                                    =.XXP  .s.t $ %.` b j 5 O                                       ",
"                                  *.tX XR Q W X.;.&XE W  .s.u                                       ",
"                                  P OXK I H C J tXXXR ! R W v t                                     ",
"                                  X : - ; - o : L A n n 2 < -                                       ",
"                                                  X o                                               ",
"                                                                                                    ",
"                                                                                                    "
};
