/* XPM */
static char *Elf_02__ATTACK_0001669821837[] = {
/* columns rows colors chars-per-pixel */
"50 50 177 2 ",
"   c None",
".  c #010202",
"X  c #090708",
"o  c #07090A",
"O  c #0C0D0E",
"+  c #090703",
"@  c #0E1112",
"#  c #121415",
"$  c #151919",
"%  c #181A1A",
"&  c #1A1915",
"*  c #262208",
"=  c #332A00",
"-  c #20211F",
";  c #372F10",
":  c #372C1E",
">  c #3E3810",
",  c #1D1E22",
"<  c #1C152D",
"1  c #221A2D",
"2  c #241C33",
"3  c #1E2122",
"4  c #272A2B",
"5  c #2A2C2C",
"6  c #282527",
"7  c #3B3328",
"8  c #302839",
"9  c #3B2F35",
"0  c #2F3233",
"q  c #333434",
"w  c #3F3931",
"e  c #34373A",
"r  c #453920",
"t  c #493A28",
"y  c #403425",
"u  c #4D3D3A",
"i  c #6C5C0B",
"p  c #645512",
"a  c #7F6D0F",
"s  c #564729",
"d  c #4A4335",
"f  c #54493A",
"g  c #5E4F3D",
"h  c #554F33",
"j  c #5C533D",
"k  c #6B5C2C",
"l  c #66572C",
"z  c #65523A",
"x  c #6A573B",
"c  c #745E3E",
"v  c #725C30",
"b  c #7B6C2C",
"n  c #7C6627",
"m  c #2C2147",
"M  c #3B2D46",
"N  c #352651",
"B  c #3C2B58",
"V  c #4C3C43",
"C  c #4A3949",
"Z  c #45355E",
"A  c #4A375A",
"S  c #523F5E",
"D  c #4A3666",
"F  c #493862",
"G  c #4F3F6C",
"H  c #463360",
"J  c #4E3673",
"K  c #4F3C70",
"L  c #513A71",
"P  c #5E4B43",
"I  c #564659",
"U  c #6E594B",
"Y  c #6B5B45",
"T  c #715D43",
"R  c #765D4B",
"E  c #634E58",
"W  c #695359",
"Q  c #755D54",
"!  c #755C5D",
"~  c #785E5F",
"^  c #696240",
"/  c #79614C",
"(  c #69635B",
")  c #7D6452",
"_  c #7D6D55",
"`  c #7A645E",
"'  c #746858",
"]  c #4E4067",
"[  c #56426D",
"{  c #5D5062",
"}  c #5F4D7D",
"|  c #5B4677",
" . c #604861",
".. c #60486F",
"X. c #6B5564",
"o. c #775C65",
"O. c #654D7F",
"+. c #695778",
"@. c #745A71",
"#. c #765D7E",
"$. c #6A6A6A",
"%. c gray38",
"&. c #7E6563",
"*. c #766F69",
"=. c #797660",
"-. c #7B677C",
";. c #867309",
":. c #907B09",
">. c #816A2F",
",. c #8D7A37",
"<. c #967837",
"1. c #936D4E",
"2. c #8E7544",
"3. c #997F49",
"4. c #917447",
"5. c #8B6F58",
"6. c #816B51",
"7. c #8A7251",
"8. c #957D54",
"9. c #907A58",
"0. c #9A705D",
"q. c #866968",
"w. c #8E7060",
"e. c #8F796A",
"r. c #82687C",
"t. c #B69B0C",
"y. c #A98D12",
"u. c #B69919",
"i. c #9F8D2C",
"p. c #918439",
"a. c #B6982E",
"s. c #A48B3C",
"d. c #9E884A",
"f. c #9C8255",
"g. c #9D815A",
"h. c #B6984E",
"j. c #BD9745",
"k. c #A69955",
"l. c #9A8668",
"z. c #9E8E77",
"x. c #A38C6B",
"c. c #AA8B63",
"v. c #AC916B",
"b. c #B3966A",
"n. c #A28F78",
"m. c #A59277",
"M. c #B69B77",
"N. c #C5A754",
"B. c #C3A16A",
"V. c #CAA677",
"C. c #D0AF75",
"Z. c #624B80",
"A. c #6E588E",
"S. c #785A87",
"D. c #745C9C",
"F. c #735695",
"G. c #7B6282",
"H. c #7D67A3",
"J. c #80678B",
"K. c #838383",
"L. c #8B8B8B",
"P. c #939393",
"I. c #9FA0A3",
"U. c #A3A3A3",
"Y. c #AAAAAA",
"T. c gray69",
"R. c #B9B9B9",
"E. c #CFB389",
"W. c #D9B788",
"Q. c #D8B889",
"!. c #DFC29E",
"~. c #E5C393",
"^. c #EDCA96",
"/. c #EAC99C",
"(. c #F5D7AE",
"). c #F7D8AC",
"_. c gray79",
/* pixels */
"                                                                                                    ",
"                                                                                                    ",
"                                                                                                    ",
"                                                                                                    ",
"                                                                                                    ",
"                                                                                                    ",
"                                                                                                    ",
"                                                                                                    ",
"                                                                                                    ",
"                                                                                                    ",
"                                                                                                    ",
"                                                                                                    ",
"                                                                                                    ",
"                                                                                                    ",
"                                                                                                    ",
"                                                                                                    ",
"                                                                                                    ",
"                                                                                                    ",
"                                                                                                    ",
"                                        . @ $ 0 , O O q 5                                           ",
"                                      . . o @ 6 4 # o 3 q                                           ",
"                                      + . . O % 5 > * 3 e 6                                         ",
"                                    7.l = * s T k 7.,.l P '                                         ",
"                                    z b.; p y.u.u.0.j.t.b t       L.T.R.                            ",
"                                  . : g.% f 4.l b s.,.h d @       K.Y._.                            ",
"                                  O & t # g 8.*.q M.n.( g -     q K.U.U.                            ",
"                                  # % # # g V.M.c.W.^.W.v.5       P.K.                              ",
"                                  6 4 , $ f E.).^.W.^.).m.q     $.U.                                ",
"                                      , 3 w c./.^././.!._     %.L.U.                                ",
"                                    1 D [ 8 V &.f.v.f.o.6     $.P.U.                                ",
"                                    F D.H.O.A O.<.B.h.&.] a :.=.I.                                  ",
"                                  C X.G.J.Z.| -.a.C.N.q.+.k i i.k.p.                                ",
"                                D Z P o.-.#.q.q.d.` 2.q.+.Y l.x p ;.                                ",
"                                L B [ F.D.@.!  .l.G / q.o.3.z x.z.                                  ",
"                              Z J N T 5.r.e.W R 9.K / e.X.r y E.                                    ",
"                              D J m 9 E 8.E.T T | I _ c   X 7 x.                                    ",
"                                B < 2 c Q.!.T >.v b 6.+.                                            ",
"                                    < u 9.U I @.U P Q                                               ",
"                                          S ! R Y O.+.                                              ",
"                                           .' I M W ) {                                             ",
"                                        n 5.S.A.-.&.S.A.H.                                          ",
"                                        V D K [ } B H Z ]                                           ",
"                                                                                                    ",
"                                                                                                    ",
"                                                                                                    ",
"                                                                                                    ",
"                                                                                                    ",
"                                                                                                    ",
"                                                                                                    ",
"                                                                                                    "
};
