/* XPM */
static char *ce1b468335ea490dc3d11e58aeac2ceawragVQ4Am9YZ7Jsr[] = {
/* columns rows colors chars-per-pixel */
"50 50 256 2 ",
"   c None",
".  c black",
"X  c #000001",
"o  c #000101",
"O  c #020100",
"+  c #000102",
"@  c #040100",
"#  c #050100",
"$  c #050400",
"%  c #010204",
"&  c #000305",
"*  c #010307",
"=  c #010406",
"-  c #020507",
";  c #0B0703",
":  c #0C0900",
">  c #0B0905",
",  c #010408",
"<  c #01060A",
"1  c #060A09",
"2  c #100E00",
"3  c #1D1700",
"4  c #030B11",
"5  c #040D19",
"6  c #171611",
"7  c #171613",
"8  c gray9",
"9  c #161C1F",
"0  c #211204",
"q  c #261606",
"w  c #351D06",
"e  c #3C3200",
"r  c #3F3400",
"t  c #2E2314",
"y  c #071521",
"u  c #041725",
"i  c #1A242B",
"p  c #072134",
"a  c #062237",
"s  c #0D2337",
"d  c #072439",
"f  c #0E233A",
"g  c #082539",
"h  c #08243A",
"j  c #09243A",
"k  c #09253A",
"l  c #0D2439",
"z  c #0E253A",
"x  c #0B263C",
"c  c #0D283F",
"v  c #102439",
"b  c #10273E",
"n  c #222F38",
"m  c #4F1F00",
"M  c #501F00",
"N  c #502000",
"B  c #532201",
"V  c #552704",
"C  c #5B2A02",
"Z  c #394830",
"A  c #734416",
"S  c #7D4813",
"D  c #74471D",
"F  c #786100",
"G  c #564229",
"H  c #0B2A42",
"J  c #0A2A43",
"K  c #0D2841",
"L  c #102840",
"P  c #143047",
"I  c #0E3556",
"U  c #113352",
"Y  c #113755",
"T  c #143B5C",
"R  c #143C5E",
"E  c #153C5E",
"W  c #153D5F",
"Q  c #163D5F",
"!  c #173E5F",
"~  c #2C3B47",
"^  c #163E60",
"/  c #173E60",
"(  c #384854",
")  c #374A58",
"_  c #1A4468",
"`  c #1B446B",
"'  c #1D4469",
"]  c #1B456C",
"[  c #1D456E",
"{  c #1F4A74",
"}  c #274B6A",
"|  c #244C6D",
" . c #3C5863",
".. c #214C70",
"X. c #224D72",
"o. c #224D73",
"O. c #234E72",
"+. c #234E73",
"@. c #204A75",
"#. c #224E7B",
"$. c #234F7C",
"%. c #204F7E",
"&. c #22517C",
"*. c #24517F",
"=. c #2B5A7D",
"-. c #305672",
";. c #385E74",
":. c #315979",
">. c #695940",
",. c #5B745F",
"<. c #776346",
"1. c #63795A",
"2. c #465D6F",
"3. c #47676E",
"4. c #4C6A68",
"5. c #92581C",
"6. c #92591D",
"7. c #945B1F",
"8. c #847100",
"9. c #8B7200",
"0. c #8C7300",
"q. c #977C00",
"w. c #8B6B46",
"e. c #8C6C46",
"r. c #95754C",
"t. c #BC9900",
"y. c #BF9B00",
"u. c #B89D00",
"i. c #8A8C39",
"p. c #C8AE07",
"a. c #D3B000",
"s. c #D9B800",
"d. c #C4B41E",
"f. c #D2BE18",
"g. c #E7CB0B",
"h. c #E8CB0A",
"j. c #F6D200",
"k. c #FAD600",
"l. c #FAD800",
"z. c #FDD800",
"x. c #FED900",
"c. c #FFD900",
"v. c #FFDA00",
"b. c #FFDB00",
"n. c #FFDE00",
"m. c #FEDC12",
"M. c #AB8658",
"N. c #AD8759",
"B. c #B38D5D",
"V. c #B48C5C",
"C. c #B48D5D",
"Z. c #B58D5E",
"A. c #B58E5E",
"S. c #B68F5E",
"D. c #B79060",
"F. c #BC9565",
"G. c #B1956B",
"H. c #BF9A68",
"J. c #CFA975",
"K. c #F8E245",
"L. c #FFE64B",
"P. c #E7DE7B",
"I. c #FDEE78",
"U. c #FFEE78",
"Y. c #FFEE79",
"T. c #1B5684",
"R. c #235180",
"E. c #215183",
"W. c #225182",
"Q. c #245180",
"!. c #245181",
"~. c #245280",
"^. c #245281",
"/. c #255281",
"(. c #245381",
"). c #255381",
"_. c #245182",
"`. c #245382",
"'. c #255382",
"]. c #255383",
"[. c #255482",
"{. c #275584",
"}. c #2A5987",
"|. c #2A5B88",
" X c #2B5B88",
".X c #2F5D8A",
"XX c #2E6082",
"oX c #2F6082",
"OX c #2F618E",
"+X c #30638F",
"@X c #326590",
"#X c #326491",
"$X c #326592",
"%X c #336693",
"&X c #336793",
"*X c #346793",
"=X c #356995",
"-X c #366A95",
";X c #356996",
":X c #366A96",
">X c #3F6B95",
",X c #55748D",
"<X c #4F7BA3",
"1X c #537EA2",
"2X c #6889A2",
"3X c #7094AE",
"4X c #799FBB",
"5X c #7A9FBB",
"6X c #3694D8",
"7X c #3795D9",
"8X c #3795DA",
"9X c #7DA8C9",
"0X c #838383",
"qX c #DEBB85",
"wX c #DFBD8B",
"eX c #E0BB85",
"rX c #E2BE8B",
"tX c #E7C38C",
"yX c #EAC68F",
"uX c #EBC78F",
"iX c #EDC991",
"pX c #EEC991",
"aX c #EDC992",
"sX c #EEC992",
"dX c #EECA92",
"fX c #EECB97",
"gX c #F0D0A1",
"hX c #F3D4A7",
"jX c #F0D2A8",
"kX c #F1D5AD",
"lX c #F1D5AE",
"zX c #F1D6B0",
"xX c #F2D7B1",
"cX c #F3D8B3",
"vX c #80ABCE",
"bX c #80ACCD",
"nX c #88B4D4",
"mX c #89B4D4",
"MX c #8AB5D5",
"NX c #8AB6D6",
"BX c #8BB6D6",
"VX c #8CB7D7",
"CX c #98BDDE",
"ZX c #B6E3FE",
"AX c #B7E3FF",
"SX c #C1CCDA",
"DX c #C6D3DD",
"FX c #F9ECCF",
"GX c #FDE9D2",
"HX c #FBF0D5",
"JX c #FCF0D5",
"KX c #DCE2EA",
"LX c #EEF9FF",
"PX c #F8F8F8",
"IX c #FEFDFC",
"UX c white",
/* pixels */
"                                                                                                    ",
"                                                                                                    ",
"                                                                                                    ",
"                                                                                                    ",
"                                                                                                    ",
"                                                                                                    ",
"                                                                                                    ",
"                                                                                                    ",
"                                                                                                    ",
"                                    X u.X X                                                         ",
"                                  < Q '.:XI.:X'.%                                                   ",
"                                X / k / T R.:XP.:X'.#.                                              ",
"                                H X k Q '.'.'.'.g.'.'.'.X                                           ",
"                                    a / ^ '.'.&X:XU.:X X'.'.                                        ",
"                                  k / Q '.R.:X:X:X:XU.:X:X%X'.                                      ",
"                                X / ^ [.[.:X:X:X:X:XU.U.:X:X:X*.                                    ",
"                                k Q '.'.:X:X:X:X:X:X:XL.:X:X:X#XX                                   ",
"                              X Q ` '.%X:X:X:X:X:X{.'.v.R.'.'.'.{.D.                                ",
"                              F.IX'.'.'.'.'.'.;.v.v.v.v.v.v.v.v.R.X                                 ",
"                              S.tXiX[ '.1.v.v.v.k.X X ; X X v.v.v.$.                                ",
"                            X x A.V.'.v.v.8.N.D C 6.7.iXS B q X X UX                                ",
"                            k Q X '.v.n.X B.G UXX X A.cXt PX0XA.B X X                               ",
"                            k &.'.v.v.m X A.J.A.X A.A.cXiXA.A.iXm X X                               ",
"                            k k p.v.B B # A.xXiXH.iXA.cXiXiXxXiXB y X                               ",
"                            k k 9.9.m m A N.cXcXcXiXiXeXiXcXcXiX7.y         7XZX)                   ",
"                            X k 9.: B V 6.e.iXcXlXdXeXS.iXgXcX<.0         q.CXZXY                   ",
"                                X r X X m e.A.iXdXiXhXGXdXdXiXX       T.  '.BX3                     ",
"                                :XX { X # K v X >.uXdXiXG.X 3Xw       I   '.v.9 7X                  ",
"                              | U [.OX[.X X Q '.R.k x d '.1XX           e y.'.  u                   ",
"                              X ` *X:X:X'.^ [.X ^ ].`.{.,X@.,X5X        a.f '.                      ",
"                            :XQ '.:X:X:X'.^ R.'.'.9.d d s.{.9X9X        j.k.                        ",
"                          X X Q :X:X:X:X.X^ '.'.[.3.d d m.|.VX9X        7X                          ",
"                          +Xx [.:X:X:X'.BX^ '.-.'.:.v.k g.KXX BXX     $ (                           ",
"                        X _ ! '.'.'.'.9XX ^ '. .'.*.v.Z '.SX}.[.X X cX6                             ",
"                        _ Q ! '.:X XVXi ! } '.'.,.'.v.v.v.BX:Xd.n.e.iXX X                           ",
"                      X ! ! Q '.:X+X'.UX/ Q '.'.f.'.v.v.m.K :X# X iXy.wXcX                          ",
"                      :X/ / / '.'.v.v.DXiXX '.0.'.R.v.v.X 5Xi.$.X iXe.cXFX                          ",
"                      :X/ / 0.v.v.X '.2 rXiX' [.[.R.v.* '.BXF Q X b qXiX6                           ",
"                      X / ! a k k '.n.cXlXJXk K ].'.'.X '.<XX     1 r.JX                            ",
"                              k T X fXcXcXiX^ '.'.'.v.v.'.'.8   X K.                                ",
"                                % A.iXjXiX4 ^ '.'.'.v.v.4.v.    v.LX                                ",
"                                    > X 0.0.9.v.v.v.X oXXX~     v.                                  ",
"                                        x oXoXBX  < x =.X X                                         ",
"                                      X v X v.X X X X v.+.+.VXX                                     ",
"                                      X v.+.+.+.BX2.+.+.O.O.X VXX                                   ",
"                                    X O.+.+.+.+.2XBXX +.O.O.P VXn                                   ",
"                                      x s X = +.X X X = x v x 5 X                                   ",
"                                            X X X                                                   ",
"                                                                                                    ",
"                                                                                                    "
};
