/* XPM */
static char *elf31669822948[] = {
/* columns rows colors chars-per-pixel */
"50 50 225 2 ",
"   c None",
".  c #070E15",
"X  c #09131B",
"o  c #091119",
"O  c #1A1A18",
"+  c #14110E",
"@  c #301A08",
"#  c #39210B",
"$  c #2B281C",
"%  c #393313",
"&  c #0B1923",
"*  c #0C1D2B",
"=  c #0A1621",
"-  c #151E27",
";  c #0E1E30",
":  c #14222D",
">  c #0E2232",
",  c #0E253A",
"<  c #142A3C",
"1  c #1A2E3D",
"2  c #132636",
"3  c #19303B",
"4  c #222D2C",
"5  c #37332B",
"6  c #283334",
"7  c #2E372D",
"8  c #49290C",
"9  c #572D0A",
"0  c #5A330E",
"q  c #483818",
"w  c #583615",
"e  c #432B12",
"r  c #683B12",
"t  c #633A0F",
"y  c #4D3C24",
"u  c #364236",
"i  c #53490A",
"p  c #4B4516",
"a  c #5E581D",
"s  c #754418",
"d  c #665A1A",
"f  c #695005",
"g  c #7C6D0D",
"h  c #766919",
"j  c #7E7215",
"k  c #696216",
"l  c #584624",
"z  c #56592A",
"x  c #474637",
"c  c #545D39",
"v  c #514E36",
"b  c #665338",
"n  c #715637",
"m  c #695028",
"M  c #57613B",
"N  c #696927",
"B  c #717133",
"V  c #152D44",
"C  c #172F48",
"Z  c #1A354D",
"A  c #1A344B",
"S  c #1A3651",
"D  c #1C3A54",
"F  c #1C3D5C",
"G  c #173958",
"H  c #273B48",
"J  c #243E55",
"K  c #1C3E61",
"L  c #2E4148",
"P  c #354A4C",
"I  c #29455A",
"U  c #354A56",
"Y  c #3E5656",
"T  c #1E4263",
"R  c #1F496B",
"E  c #224464",
"W  c #21466B",
"Q  c #244A6D",
"!  c #294C6B",
"~  c #2B506C",
"^  c #38576D",
"/  c #244B73",
"(  c #264F7A",
")  c #294F72",
"_  c #27507B",
"`  c #29527D",
"'  c #2C5373",
"]  c #375976",
"[  c #3D627A",
"{  c #4B4B44",
"}  c #4B5847",
"|  c #55554B",
" . c #4A5F59",
".. c #5B5B57",
"X. c #685E4C",
"o. c #715F4B",
"O. c #576756",
"+. c #636C46",
"@. c #776348",
"#. c #686459",
"$. c #6D7E5A",
"%. c #647556",
"&. c #7A755D",
"*. c #72734E",
"=. c #425E75",
"-. c #455969",
";. c #4A6668",
":. c #5B7364",
">. c #476675",
",. c #566A7A",
"<. c #526B68",
"1. c #687667",
"2. c #6F7370",
"3. c #8D7505",
"4. c #867919",
"5. c #8C700F",
"6. c #845225",
"7. c #827B20",
"8. c #846A48",
"9. c #98734A",
"0. c #8A7556",
"q. c #997B55",
"w. c #A27F56",
"e. c #887864",
"r. c #7C8445",
"t. c #7A8755",
"y. c #718466",
"u. c #678377",
"i. c #738775",
"p. c #9D911A",
"a. c #9A890E",
"s. c #A28506",
"d. c #B89901",
"f. c #A69518",
"g. c #B4A116",
"h. c #89842B",
"j. c #948729",
"k. c #98983B",
"l. c #908C35",
"z. c #A79D26",
"x. c #B8AC2B",
"c. c #AAA433",
"v. c #C5AE16",
"b. c #C7B41C",
"n. c #D2BC1B",
"m. c #CEAF04",
"M. c #C7B82E",
"N. c #D6C019",
"B. c #E9C907",
"V. c #F7D402",
"C. c #F6D309",
"Z. c #878D47",
"A. c #818D57",
"S. c #96904D",
"D. c #A5875C",
"F. c #A5A241",
"G. c #918272",
"H. c #968A67",
"J. c #A98D66",
"K. c #B89769",
"L. c #B89B72",
"P. c #AD946D",
"I. c #95A27A",
"U. c #B3B569",
"Y. c #C39D6D",
"T. c #CAA878",
"R. c #CEB077",
"E. c #CEC243",
"W. c #DCD77D",
"Q. c #E1DA7C",
"!. c #EEE279",
"~. c #E9D54F",
"^. c #2A5582",
"/. c #2E5A86",
"(. c #2F5C88",
"). c #255183",
"_. c #315E8A",
"`. c #325D85",
"'. c #35628D",
"]. c #3B6687",
"[. c #356592",
"{. c #376895",
"}. c #396A95",
"|. c #3D6792",
" X c #4A6C86",
".X c #526F85",
"XX c #597688",
"oX c #476F96",
"OX c #567994",
"+X c #4D779F",
"@X c #647988",
"#X c #557DA3",
"$X c #5D8290",
"%X c #768683",
"&X c #6A8697",
"*X c #73918D",
"=X c #5885A8",
"-X c #698AA3",
";X c #7797AA",
":X c #6F96B6",
">X c #7FA3B9",
",X c #889092",
"<X c #A69A85",
"1X c #8EA287",
"2X c #B0AC8C",
"3X c #849DAF",
"4X c #A5AEB2",
"5X c #C8AB83",
"6X c #DBB988",
"7X c #C7B694",
"8X c #DFBE93",
"9X c #E2BD89",
"0X c #E8C38C",
"qX c #EDC994",
"wX c #E6C596",
"eX c #F1CD97",
"rX c #E8CBA3",
"tX c #EFD1A8",
"yX c #F2D2A4",
"uX c #F2D5AC",
"iX c #F5D8AF",
"pX c #F6D9B3",
"aX c #F3D7B0",
"sX c #8EB7D5",
"dX c #A5C8DF",
/* pixels */
"                                                                                                    ",
"                                                                                                    ",
"                                                                                                    ",
"                                                                                                    ",
"                                  V Y $.<.I V                                                       ",
"                                < F Q ` XXy.t.^ K C                                                 ",
"                              > Z V S T _ '.u.I.].^.E C                                             ",
"                              * * = G R ^././.y.S.>.)._ E 2                                         ",
"                                  = D T Q ).^._.y.U.i.'.(./ C                                       ",
"                                X V K Q ^._.[.}.}.$XQ.*X{.[.` S                                     ",
"                                V F W ^._.[.}.}.}.}.2XW.OX{.}./.C                                   ",
"                              > G R ` _.}.}.}.{.}.}.$X!.1X{.}.}.^.                                  ",
"                            o C T ( ^.[.{.{.}.{.}.[.|.E.E._.[.{.'.F x y                             ",
"                          b X.J W ^./.[.{.{.[.[._.].:.n.V.t.[ `./.( {                               ",
"                            T.<X,._ ` ^.(.>.t.c.x.N.C.V.V.C.N.x.x.t.I                               ",
"                          O 0.9XrX@X` <.c.B.C.m.d.s.5.4.4.3.s.d.B.C.2X                              ",
"                          * | T.T.2.l.B.B.s.h w 0 r 6.Y.9.6.9 8 l f 7X,X                            ",
"                          2 J X.X.z.V.s.s 8.X.4X{ @ n 8XT.e.| 5 o.8 m 2.                            ",
"                          < / ) k.V.3.9 n K.w.e.,XX.q.qXtXJ.e.8.J.w w O                             ",
"                          < T %.V.d.t w n Y.8XY.w.D.Y.8XtX6XY.6X5Xw w o                             ",
"                          < < h d.f r t m Y.uXyX8X9XR.6XeXeXyXuX5Xw % =           -X                ",
"                          2 3 3.f 8 s 9 m K.yXpXpXeX9X9X8XeXuXpXL.w O           =XdX.X              ",
"                          = : 5.9 @ f 9 w w.8XuXuXeX8X9X8XeXyXyXD.8           N 3XdX~               ",
"                              p % + 8 @ w 8.K.9XeXeXyXpXiXeXeX9Xn #       =X  ) &X1X                ",
"                              E ; - - O # 6 } @.w.P.L.L.P.J.e.2.$         ~ D _ t.S.[ ;X            ",
"                            J S J ` Q C O > K R J V 1 2 V J oX,.o           z } +.XXQ               ",
"                            C F ^.{.{.^.J < C D Q / / W ) ] =.=.U           4.j N B                 ",
"                          < Z _ [.{.|._.^ G / T Z H J C 1 v ' #X,.          d z j                   ",
"                        < C T _.|.|.}.[. XD _ ^.( +.a 2 7 l./.OX.X=.        g.j                     ",
"                        J C / _.{.{.}.'. XD _ ;.:.y.g.3 N S.XXoXOX.X      B I.                      ",
"                      A S Z ` [.{.[.(.+X[ T ^ O.:.r.x.u p.F.4X[ =XXX      Z.                        ",
"                      E C F ).(._./.oX-XD ( ^  .).<.N.z z.i.3X'  X*.y H.2X&.                        ",
"                    D I V T (.'.(.}.:XU F ) ^. .%.[ k.j x.A.>.^.<.5.l K.2Xv                         ",
"                    E F V T (.}.[._.;XP G ) ).^ l.F.c.p.n.1.E  XB 4.D.@.y L.8X                      ",
"                  A Q K V G ` (.y.l.l.#...Q ^.O.^ [ c.f.M.2.I %.j j.9X0.8.wX7X                      ",
"                  E E K 3 P ;.t.n.j B D.8X..)  .t.r.x.h.N =.U k } j.L.b T.uX<X                      ",
"                  I T T 4 p g k P +.j.R.6X{ , D P I c L F I XX$ 4 a b o.wX2X                        ",
"                    > V & & * * c p.Y.iXtX#.* C G G J u P ( #X-.    z b J.@.                        ",
"                            > : d L.aXpXyX&.G R ) / +.d.$.` *X%X    n.                              ",
"                            X X @.8XuXwX0.H R ).).^.t.a.z.*.h.    m.~.                              ",
"                                  8.0.l p u } r.r.l.p.u M  .H     v.R.                              ",
"                                      & L U P O.i % 4 I ' Y y                                       ",
"                                      > S } N u     > u 4.h.} ,.                                    ",
"                                      % j h.:.U &Xu g l.O._ E XX;X                                  ",
"                                    3.j.%.' ( E OX>XO.! ) ) ) ^ sX&X                                ",
"                                    z I E ! ) Q ] sX.X2 Z D F J .XU                                 ",
"                                    o * ; 2 1 < V L : . X X & & X .                                 ",
"                                            . o o                                                   ",
"                                                                                                    ",
"                                                                                                    "
};
