/* XPM */
static char *_1083958cb264118cd6f1dafd239ad012uJeWN5cBhcCd6ni[] = {
/* columns rows colors chars-per-pixel */
"50 50 237 2 ",
"   c None",
".  c #040706",
"X  c #0A1B09",
"o  c #081506",
"O  c #191B0B",
"+  c #121014",
"@  c #241914",
"#  c #321B13",
"$  c #0E220A",
"%  c #0F2C0D",
"&  c #12230C",
"*  c #132D0D",
"=  c #13330E",
"-  c #1B320C",
";  c #1B2B15",
":  c #153510",
">  c #1D3313",
",  c #1A3C12",
"<  c #2B3309",
"1  c #373409",
"2  c #272917",
"3  c #223618",
"4  c #363B19",
"5  c #2C2614",
"6  c #161F26",
"7  c #1B2823",
"8  c #392826",
"9  c #2C3926",
"0  c #3B3927",
"q  c #282B2D",
"w  c #4E3F0B",
"e  c #4B2B2A",
"r  c #422626",
"t  c #4B3637",
"y  c #593733",
"u  c #4C322B",
"i  c #653A3A",
"p  c #1F4215",
"a  c #2B4B1B",
"s  c #264518",
"d  c #34471A",
"f  c #2D511A",
"g  c #32551D",
"h  c #355A1D",
"j  c #395F1F",
"k  c #36460D",
"l  c #2E4623",
"z  c #384A29",
"x  c #385526",
"c  c #3B5D23",
"v  c #385825",
"b  c #3E5334",
"n  c #3B6223",
"m  c #3F6728",
"M  c #3D6E38",
"N  c #544A05",
"B  c #56580B",
"V  c #484815",
"C  c #455717",
"Z  c #4C4C0B",
"A  c #675807",
"S  c #6B5710",
"D  c #5D630F",
"F  c #5A6517",
"G  c #506A1B",
"H  c #7A6705",
"J  c #75730C",
"K  c #636C17",
"L  c #7A6718",
"P  c #697B18",
"I  c #767A18",
"U  c #666108",
"Y  c #53472B",
"T  c #465E28",
"R  c #445B37",
"E  c #565A38",
"W  c #4F482F",
"Q  c #644937",
"!  c #735B38",
"~  c #70592D",
"^  c #436A27",
"/  c #4B6D25",
"(  c #446D29",
")  c #456527",
"_  c #46702C",
"`  c #4A732D",
"'  c #577927",
"]  c #496537",
"[  c #5E633C",
"{  c #4C7631",
"}  c #4E7932",
"|  c #547D39",
" . c #546522",
".. c #726824",
"X. c #697825",
"o. c #71712B",
"O. c #314D65",
"+. c #4E4F48",
"@. c #664342",
"#. c #7A4B4B",
"$. c #6D5A45",
"%. c #597546",
"&. c #586D4A",
"*. c #796347",
"=. c #756958",
"-. c #637659",
";. c #706C54",
":. c #737563",
">. c #6F706F",
",. c #836C01",
"<. c #887606",
"1. c #877716",
"2. c #8D740F",
"3. c #867428",
"4. c #8B7238",
"5. c #8C7327",
"6. c #895555",
"7. c #965A5B",
"8. c #8B6D49",
"9. c #876B47",
"0. c #96764B",
"q. c #887256",
"w. c #987956",
"e. c #8A6C4F",
"r. c #A07D55",
"t. c #887E74",
"y. c #8D7769",
"u. c #6E851F",
"i. c #76881B",
"p. c #6B8526",
"a. c #738822",
"s. c #708B31",
"d. c #708D35",
"f. c #5C8542",
"g. c #5D8049",
"h. c #5C9557",
"j. c #618A45",
"k. c #63834B",
"l. c #708E46",
"z. c #6B8E53",
"x. c #71975B",
"c. c #748C69",
"v. c #7BA462",
"b. c #8A840D",
"n. c #988807",
"m. c #9A940D",
"M. c #828412",
"N. c #888917",
"B. c #9B8411",
"V. c #899317",
"C. c #949815",
"Z. c #A6970B",
"A. c #B59C04",
"S. c #A58B08",
"D. c #9EA115",
"F. c #B8AD0F",
"G. c #A4A514",
"H. c #A8A715",
"J. c #B3AE12",
"K. c #B2AD12",
"L. c #88852A",
"P. c #858338",
"I. c #8F9131",
"U. c #A8902B",
"Y. c #B7BB33",
"T. c #C5AA06",
"R. c #C6B50A",
"E. c #D8BA02",
"W. c #C8B513",
"Q. c #DBC307",
"!. c #E4C401",
"~. c #EBCC02",
"^. c #E7C705",
"/. c #F2CD00",
"(. c #F9D501",
"). c #F9D603",
"_. c #CCC53D",
"`. c #968756",
"'. c #A8875C",
"]. c #B18C5E",
"[. c #B09B5B",
"{. c #898879",
"}. c #938A77",
"|. c #95886A",
" X c #A78B65",
".X c #B18F63",
"XX c #AD936A",
"oX c #B2946A",
"OX c #BA9667",
"+X c #B69A76",
"@X c #B9AF6C",
"#X c #85AA5B",
"$X c #C19B6A",
"%X c #C9A676",
"&X c #D2AD7A",
"*X c #D0B776",
"=X c #D9CA4E",
"-X c #DACB60",
";X c #868886",
":X c #98968A",
">X c #979795",
",X c #A19D95",
"<X c #B7A388",
"1X c #B3A892",
"2X c #A8A8A9",
"3X c #B5B5B5",
"4X c #AEB0AD",
"5X c #93AA91",
"6X c #CCB28D",
"7X c #DDB885",
"8X c #CAB698",
"9X c #CFB38C",
"0X c #E1BC87",
"qX c #D0BCA0",
"wX c #BACDB9",
"eX c #E7C28C",
"rX c #EBC58D",
"tX c #EEC992",
"yX c #E6C69B",
"uX c #F0CE9C",
"iX c #F1CC94",
"pX c #F2D09D",
"aX c #D4C5AF",
"sX c #EACBA3",
"dX c #F3D2A3",
"fX c #F3D5AB",
"gX c #FADAAE",
"hX c #F5D8B2",
"jX c #E9D4B5",
"kX c #DED58B",
"lX c #C6C6C7",
"zX c #D8D9D9",
"xX c #C5D2C6",
"cX c #E2D4C4",
"vX c #F1E7D9",
"bX c #C1D4E0",
"nX c #EFE9E3",
/* pixels */
"                                                                                                    ",
"                                                                                                    ",
"                                > h ) c x s >                                                       ",
"                                > v ^ _ _ _ ^ n x z                                                 ",
"                                o s j ^ ` ` ` ` _ | z.%.R z                                         ",
"                                * g n / ` _ _ _ _ f.j.f.f.f.k.z                                     ",
"                                * g h n m _ ` ` ` ` ` ^ _ { | g.                                    ",
"                              X p h j ^ ` } ` } } _ ' i.` { { j.]                                   ",
"                            X , g n _ ` } } } _ / V.!.(.F.' } | z.                                  ",
"                            : g j ( } } { { ^ u.R.!.2.T.(.Q.a._ g.]   $.t                           ",
"                    E =.  $ f h ^ ` } ` ^ / m./.T...9.8.2.E.~.V.} g.=.+X                            ",
"                    Q %X|.3 f n _ } ` ^ G R.(.S...r.r.0.0.4.A.).G.d.;.w.                            ",
"                      ].0X8X:.) ( ( n P E./.<.w ! 0.3.`.>Xq.L n.(.K.z.Y                             ",
"              L.P.    8.$XeXfX:X) c P ~.!.L y N N A F.>.bX*XB.4.5.^.@Xl                             ",
"              M.s.o.L.! OXrXrXaXR P ~.E.3.w.+X X9.~ H I.|.`.qXvX1XL kX;X                            ",
"          o.  H u.I C.4 8.$X].E F ^.E.L w.}.qXnXnXcX6XoX9XvXzX,X=.+.:X3X                            ",
"          V.d.1.I.o.B - d 8.Y G !.!.o.$.r.@.>X4XwXzXjXdXaXzX5XM E :.4X;X                            ",
"          1.a.L.N.s.V * h a C E./.`.,X9..Xe.4XwXh.-.OXfX9X,XxX-.8.y.lX+.q                           ",
"        <.a.L.u.I i. .= f j Z.).U.4X3X*.$X&Xe.;Xc.=.%XdXsXoXw. X&X}.lXq .                           ",
"          M.p.I < A k = = C E.T.1XzX3X*.$XfX0X$XoX&X%XpXuXtX0XuXqX;X4X6 .                           ",
"            M.p.4 # o * = B <...lXzX3X=.+XfXhXhXdXtX%X7XiXtXhXhX9X:X;X+                             ",
"              C @   @ ; = A ,.Y lXzXqX=.'.yXhXhXuXtXeX7XeXtXfXhX6X>X+.                              ",
"                  # Q @.5 A H 2 >X3X3X:.0.&XuXdXtXyXyXyXsXtXuXdX+X:X                                ",
"                  e 6.i Q i 1 O +.>.;X>.! ].7XtXiXiXgXhXdXiXrX7X=.>.                                ",
"                  e e i 7.i X & : q 9 >.7 w ~ w. XXX.XoXXX`.`.=.@                                   ",
"                  + r y 5 - s a * % = 9 ; k B 9..X'.'.'..X'.[.:X.                                   ",
"                    + & s ( } } v : : a l ^ m.5.0XtXrXtXiXOX=X>.                                    ",
"                    1 s ( } } _ g.l = s ( ( u.B..XtXtXtXeXU.=X&.3                                   ",
"                    N G ` _ ( ' #XC % , n ( _ V.5.&XtXiX@XF.Y.o.A                                   ",
"                    A J p.d.I.Y.W.1 = , n ( ( ' b.0.0X0XU.R.z.B.,.                                  ",
"                    1 H m.F.R.A.K > = = n ( / / p.2.r.0.T.a.%.S.A                     H             ",
"                    k m.J ) T _ ] = = p ) ( / b.N.i.1.A.C.j.| d                 . r y <.N           ",
"                    D i.F ) R ] 9 * = v ^ ( ( M.^.G.V.K.D.l.b 9                 r @.8 5 @ @         ",
"                  X Z I ` | %.| ] E z a ( / / / A.).G.F.=X&.v l                 i e   @.e           ",
"                    J H.V.` _ | } ) $.s ^ F b.B.b.T./.).*Xb c _ R           8 y 6.e                 ",
"                    C H.H.D.V.u.m [ 9X:.n / b.E./.~.).=X-.) } ` f.] 2       i 7.7.t                 ",
"                    X C D.H.F.F.o.8XfX+Xa ^ ^ K Z.Z.o.L.0.) ` ` _ E w.    i 6.6.t                   ",
"                      X 3 G i.C. XhXdX9.Z D F F C 7 O. .F z _ ` h W +X8 u 6.7.6.8                   ",
"                          X % C 8XgXXX1 N <.A.A.<.7 O.l ` b a 0 5 r y q.6.#.@.                      ",
"                              5 oXXXl % - h n C C f s ^ X.[ u Q e.q.Q +X}.t                         ",
"                                @ 1 N B Z P ' ( ' G B b.U Q q.sXsXqX0                               ",
"                                  * k C V J Z.b.M.J T ) 9 t $.<Xt.>.                                ",
"                                  , m ` _ ] < - - n } } z                                           ",
"                                o = h G F T   X = g ) F V                                           ",
"                                X < J m.N.T -.7 - U m.C.F -.+.                                      ",
"                                H Z.V.' M n %.x.F C.X.) n ] v.]                                     ",
"                              H C.' ( ( ( ^ ] #Xz.v m ( ( x x.v.z                                   ",
"                              $ - 3 a g v n x %.] > g j c f %.%.3                                   ",
"                                o o X $ & & $ $ o o X $ & & & X .                                   ",
"                                                                                                    "
};
