/* XPM */
static char *_669758665796[] = {
/* columns rows colors chars-per-pixel */
"50 50 253 2 ",
"   c #115A00",
".  c #1A6D00",
"X  c #0F6D06",
"o  c #2E7B00",
"O  c #247B04",
"+  c #347904",
"@  c #297611",
"#  c #606219",
"$  c #1D8E10",
"%  c #2B8100",
"&  c #328501",
"*  c #368B06",
"=  c #3E8C03",
"-  c #398C0C",
";  c #348508",
":  c #399609",
">  c #2C8A16",
",  c #348E16",
"<  c #3A8919",
"1  c #3D931B",
"2  c #379817",
"3  c #27A407",
"4  c #39A715",
"5  c #39A60F",
"6  c #158020",
"7  c #268622",
"8  c #399427",
"9  c #349126",
"0  c #3CA32B",
"q  c #44940C",
"w  c #4C950C",
"e  c #4D9A0C",
"r  c #479706",
"t  c #539D0D",
"y  c #579C0A",
"u  c #438C13",
"i  c #498D18",
"p  c #4C9414",
"a  c #4C9B13",
"s  c #44931D",
"d  c #439D1E",
"f  c #4C9B1C",
"g  c #479716",
"h  c #549D14",
"j  c #539C1A",
"k  c #569715",
"l  c #4F8513",
"z  c #609C18",
"x  c #649D02",
"c  c #47A50A",
"v  c #52A20C",
"b  c #59AA0E",
"n  c #58B30E",
"m  c #45A21C",
"M  c #4CA21E",
"N  c #4DAA1C",
"B  c #48A514",
"V  c #54A412",
"C  c #5BA515",
"Z  c #52A916",
"A  c #5CAB14",
"S  c #55A41C",
"D  c #5CA41C",
"F  c #5DAC1C",
"G  c #55AD1B",
"H  c #48B417",
"J  c #54B31B",
"K  c #5DB31B",
"L  c #5FB91C",
"P  c #5AB017",
"I  c #63AA09",
"U  c #64AD14",
"Y  c #63AC1D",
"T  c #66A719",
"R  c #63B31C",
"E  c #6BB31C",
"W  c #64BD1C",
"Q  c #6CBA1E",
"!  c #68B416",
"~  c #73BC1B",
"^  c #78B81A",
"/  c #488A21",
"(  c #4A9D23",
")  c #469827",
"_  c #5B9D24",
"`  c #579A24",
"'  c #4D9838",
"]  c #659E25",
"[  c #769D29",
"{  c #6D9631",
"}  c #4BA223",
"|  c #4BA829",
" . c #52A424",
".. c #5BA523",
"X. c #54AC23",
"o. c #5CAD23",
"O. c #55A629",
"+. c #5CA32B",
"@. c #56AC2C",
"#. c #5DAD2D",
"$. c #4CB528",
"%. c #5CB323",
"&. c #5DB42D",
"*. c #57B628",
"=. c #46A334",
"-. c #56AB37",
";. c #5AB436",
":. c #47B636",
">. c #62A525",
",. c #65AC24",
"<. c #63AC2C",
"1. c #6DAB2B",
"2. c #68A625",
"3. c #74AC2D",
"4. c #63B425",
"5. c #6CB423",
"6. c #62BA25",
"7. c #6BBC24",
"8. c #64B52B",
"9. c #6CB42C",
"0. c #64BA2C",
"q. c #6CBC2B",
"w. c #72B624",
"e. c #74BC24",
"r. c #7ABE25",
"t. c #72B52B",
"y. c #74BC2C",
"u. c #7ABD2A",
"i. c #79B42C",
"p. c #6AA532",
"a. c #64AB32",
"s. c #6BAB33",
"d. c #64AB37",
"f. c #7EA53D",
"g. c #79A836",
"h. c #6BB333",
"j. c #62B932",
"k. c #6CBB34",
"l. c #63B43A",
"z. c #68B738",
"x. c #74BC33",
"c. c #79BD32",
"v. c #75BC3A",
"b. c #7BBC3C",
"n. c #76B536",
"m. c #5FC313",
"M. c #68C31B",
"N. c #7ECB1D",
"B. c #74C31B",
"V. c #57C226",
"C. c #6BC22D",
"Z. c #68C527",
"A. c #75C225",
"S. c #7BC425",
"D. c #7CCA25",
"F. c #74C32B",
"G. c #7CC42C",
"H. c #75CA2B",
"J. c #7DCA2C",
"K. c #74C925",
"L. c #7DD42C",
"P. c #78D224",
"I. c #6DC332",
"U. c #67C638",
"Y. c #74C432",
"T. c #7DC433",
"R. c #74CC33",
"E. c #7DCA32",
"W. c #73C33C",
"Q. c #7DC33B",
"!. c #7CCA39",
"~. c #76CB39",
"^. c #6ED333",
"/. c #7BD134",
"(. c #7DD23E",
"). c #78D533",
"_. c #4E9C42",
"`. c #779643",
"'. c #749E54",
"]. c #59B948",
"[. c #79A949",
"{. c #6BB747",
"}. c #7BB646",
"|. c #6DA54E",
" X c #6DCA4B",
".X c #7ACE45",
"XX c #76C646",
"oX c #79CB4A",
"OX c #86BF1E",
"+X c #839E3D",
"@X c #86BB2A",
"#X c #89AB3B",
"$X c #82AA34",
"%X c #90AE3E",
"&X c #82B433",
"*X c #83BD32",
"=X c #82B33F",
"-X c #8BB43B",
";X c #83BB3B",
":X c #8CBC3D",
">X c #8AB836",
",X c #86AF25",
"<X c #83CA1E",
"1X c #8BD71F",
"2X c #82C425",
"3X c #83CB25",
"4X c #8BCC24",
"5X c #82C52C",
"6X c #83CB2D",
"7X c #8ACC2D",
"8X c #8EC329",
"9X c #95CF2E",
"0X c #85D126",
"qX c #84D12D",
"wX c #8AD12C",
"eX c #89D827",
"rX c #93D32A",
"tX c #83C532",
"yX c #89C534",
"uX c #84CB33",
"iX c #89CC34",
"pX c #83C33B",
"aX c #8CC43B",
"sX c #84CB3A",
"dX c #8BCC3A",
"fX c #93CE3D",
"gX c #92C835",
"hX c #85D134",
"jX c #8AD235",
"kX c #84D23A",
"lX c #8AD23B",
"zX c #8CD839",
"xX c #91D234",
"cX c #91D33D",
"vX c #91DB3B",
"bX c #98D936",
"nX c #829E43",
"mX c #919548",
"MX c #8AA946",
"NX c #8ABB45",
"BX c #88B949",
"VX c #84B452",
"CX c #94B44F",
"ZX c #86CC42",
"AX c #8CCC43",
"SX c #88C546",
"DX c #96CA47",
"FX c #8CD342",
"GX c #8CD948",
"HX c #86D547",
"JX c #93D647",
"KX c #90D252",
"LX c #93E44A",
/* pixels */
"'.VXBXC.M.M.e.>XC.C.4.!.uXD.vXhXkX!.dXlX5XG.6X6X7X6XD.J.hXG.e.G.SXp.g.DX@Xw./.R h.Y.^.4.] VXCX[ 0.!.",
"T i.z.) , m F.bX&.g o j y.S.tXF e Z Y.dXuXiXjXD.5XD.S.D.qXD.e.T.SXi.sXpXY e V G r X.| d o.t.z.{.o.x.",
"bXS.j , 9 =.#.S 1 .   u y.lXJXq...o.c.sXtXuXhXD.E.uX6X7XiX7XtXdX9.5.sXy.R o.}  XI O.7 > 6.M.0 =.4.!.",
"SXi.,.B g ) / ) @.s u >.y.uXdXT.h.o.1.pXtXG.6X6XG.uX6X7XjXiXsXAXA.e.sXF o.O.O -.yXd.) 8 *.%.2 7 a 9.",
"f.] k 2.3.p.p.-.q.#.h.Q.S.N.3XqXf & w b.cXtXJ.uXG.uX5X2X7XG.y.q.uXA.Y.Z 0.].O 8 $Xp.XXj.1 s | : h x.",
"DX{ @ ' VXCX@Xm.Z.A y.uX4XrXwXjXq.w t T.dX5XT.lXE.hXuX5XuXF.J B E Q 7.G  X X8 _.[._ U.j.@ < @.* = D ",
"gXy.-._.`.$Xi.M.L.R E.iX7X7XS.u.LXG.A.tXtXG.tXuXE.dXuX5XhX).H 3 T n.8.X.} m > ) n.d m $.q a X.2 k 9.",
"Y.%.5 * [ CX}.8 n e Q.pX7XiXtXAXD.H.hXiXtXsXuXq.w.G.r.S.kX^.H 3 k b.W.j.m * / O.n 2 9 0 c c G ]...n.",
" X} < ) +.4.K.P.O o F J.P.D.5XAXaX5X7XqXL..X&.O + @.HXGXlXE.A.5.&.N m } f i { f.XX1.z _ s : G wXnX`.",
"NX<.+.( - & r P p.>.T.kXD.6XtXaXyX5X6XjXJ.q.%.f g +.9.5.y.E.lXdX%.q o & ( p.[.MXs.1.i.;Xz.} A G.NXNX",
"#Xg.c.8.: & l _ -X&XDXAXtXfX7X3XuX6X6XhXF.v w 8.Y.x.R A ! T.kXdXy.Z = q >.BXNX#X_ z T r.Q.k.q.u.E.uX",
"-X&XE.R.%.+.g.`.@X@XpX9.>.pX7XD.hXhXJ.6XG.v w n.lXhXA.Q A.uXtXG.uXE.y.e.i.;X>X$X1.z x ^ kXHXXX9.S.D.",
"fXtXH.Z.K 3.#XmXiX5XT.S q 4.J.qXS./.J.D.lXG.t.sXJ.J.D.uXuXlXiXG.u.uXiXtXyXyXyX>Xb.u.OX7XGX.Xh._ 6XuX",
"/./.H.R t 2.%XCXD.S.kXq.K I.E.E.S.uXJ.tXdXdXsX5XD.D.uXuXdXuX7X5XiX5X5XtXtXaXyX*X!.7X9XsX8.( } s.5XtX",
"D./.E.q.Y e.dXtX~ A.zXkXE.FXsX*X7X5XuXuX5XuXuXe.qXuXuXuXtX5X5X3XlXtX5XyXiXtXpXtXJ.D.7Xx.| > ( XX5X5X",
"eX7XlXsXQ.HX).M.cX5X7X5Xr.gXaX:XiXr.iXcXT.G.jXhX6XJ.tXsXsXtX7X7X5XG.iXcXiXw.A.lXL.D.dXHX{.=.O.W.hXhX",
"yX5X@X5XdXQ.( O D sXuX6XvXG.5.pXlXG.E.uXT.E.dXuX6X6X6X5XG.3X6X3XH J W L A y.lXdX7X7X! jXT.A ZXR pX;X",
"dXuX2X@XiXsX<.- ..E.S.~ D.E t Y S.2X6X6X2X6X6Xe.6XG.J.6XhXiXuX5X%.L R b y E tXtXr.u.e.pXx.5.W.k.yXyX",
"sXdX5X3X7XdXY.%.y.FXuX6XjXJ.5.Y.7X3X7X4X2X7XwX7X6XJ.E.uXkXZXsX!.E.G.F.E b E iXtXQ.T.FXQ.9.>.k <.tXtX",
"sXdXiX3X6X6XhXE.G.sXJ.6XzXkXT.dXzXJ.uXjXD.D.6XhXJ.J.J.F.q.q.x.x.jXiXlXiXS.uXdX6XG.dXFXc.y.,.a 4.6XJ.",
"tXsXiX5X2X6X6XhXuXuXE.D.hX6XG.E.~.o.4.(.~.R K 7.J.J.F.Y v e D h.7XtXdXgXuXuXhXG.! uXK.S.lXT.T.uX6X6X",
"J.E.tX7X5XG.6XJ.hXuXuXuXuXuXhXuX&.* * X.%.G 6.~.E.uXE.E t t F y.tX5X5XiX5X6XlXuXK.hXS.6XzXqXjX7X6X6X",
"uXG.5XtXuXtX5XJ.H.S.G.6XS.J.uX3Xv.a q V K 7.E.E.G.uXdXG.E Y y.dXjXD.J.6XG.7XjXjXkXG.kXJ.G.jX5Xr.6X6X",
"hXE.5XtXaXsXtXtXjX6XhXlXJ.J.jX5XJXpXtXdXiXiX2XI 5.G.sXiXG.r.5XjXhXH.J.uXJ.6XhX7Xq.t sXq.5.JXT.dX7XuX",
"8XJ.).C.5.uXxX~ dXG.7.6.&.0.r.9XkXK.B.J.FXSX2.w y y.uXuX5XjXuXG.D.6XD.J.hX/.E.E.n.x.pXu.5XiXS.xXuX6X",
"gXJ.E.R.G.uXjX6XtXr.! Z a e T <X!.6X5XjXaX;X] y E G.sX5X5XuX6X6X6X6X6XhXuXE.A.7.w ,.y.Y u.vX5Xr.iXhX",
"iXuXE.kXFXtXS.J.fXjXqXA.F F e.iXtXiX7XyX;Xb.;X*XtXuXtXT.G.6X7XuX6X6X6XhXJ.7.A v a e t r E lX6X7X5XG.",
"5X6XZ.7.dXdXG.E.c.7XwXhXG.Y.tXlXiXuX6XT.n.n.c.pXlXtXG.5XuX5X6XuXuXwX6X6XJ.7.! b q.e r V F.uXK.vXhXjX",
"iXuXn r w.fXsX.X0.G.6X3XuX!.uXL.uXJ.H.C.j.&...V dXG.e.uXiXG.6XuX5X3XuXhXjXkXuXE.E.F R q.FXFXA.D.5X5X",
"dXkX~ A @XlXQ.o.{..XuXwXiXdXlX/.hXK.L J | | X.K sXG.G.tXhX7X6XuXuX7X5X6XuXkXkXhXE.Y.Y.,.Q.FXA.~ E E ",
"G.F.J.hXdXfX9.q =.;.F.D.2XtXuXJ.jX6XZ.N 1 } j.E.tXT.5XuXuXuX7XuXiX7X6X5X5XuXG.G.uXdXc.h ,.dX5X6Xr.G.",
"A.U A.iXyXtXQ.j.6 8 C.6X5XuXuXH.@XuXsXk.( u k E tXuXuXT.7X6XuXuX7X7X5X7XuXlXlXkXqXG.T.t.pXdX5XxXT.pX",
"-X3.v.GXhX~ F } +.>.i.5XD.6XhX6XuXD.6XuXA.Y 5.Q.Z.M.B.0XhXG.0.;.q.hXB.eXlXx.KXx.|.;.hX0X<X3X^ iXE.tX",
"-Xs.d.&.D C 8.z.uXH.hXvXhXF.7.K uXuXuXhXJ.G.T.ZX*.P Q uXuX9.M 1 ,.FXA.K.q...#.+ @ ( I.B.Q E.G.uXhXhX",
"SX` < < p 1.Q.HX0X<X0XhXG.7.%.m y.T.E.G.6XuXkXsXI.q.F.sXQ.,.f - j E.J.kXW.#.XXz.8 &.U.B q k.!.hXN.N.",
"4.; X @ / c.uXF.iXyXyX5XtXHX~.*.>.y.T.G.S.uX6XS.HXE.uXsXtXx.4.#.9.T.J.lXo.o } oXI..XHXZ a z.!.hXZXZX",
"M.* % , h.FXjXB.=XMXMX$X&XKXAXt p t.sXuXJ.wXhXG.qXD.D.D.5XuXuXkXdX7X0XqXA o r q.6X7XvXtXb.AX7X3X3X3X",
"P.H N j.T.tXuXE.g.BXCX[ [ NXw.o w 5.sXuX6X6XhX6XD.N.3X3X3X3X6X6X6X0X<X3XT.T.tXsXwX3X4X7XiXdX2X4X9XiX",
"Z.c 4 &.5.T D #.Q.AXDXMX$XAXc.e D t.uXE.J.6XE.J.3X7XuX7XuX5XG.r.6X3X3X5XaXDXpX@XsXS.3XN.G.5Xe.6X'.'.",
"U.5 2 6.e.T ( =.P.D.7XyX&XpXHX.XY.T.uXuX6XG.G.T.5X5XuXT.tXuXiXiXsXF.6XdXNXNX$XaX<.5.hXL.J.~.q.7.>X>X",
"eXU ..}.sX4X4X6XlX5X@X@X2XlXlXT.R.V v E.lXD.S.3XJ.G.uX6XD.6XhXG.HXI.Z.!.BXMXg.,Xr %.FXcX8XwX^.3 f <.",
"B.0.l.d.S A F.sXZ.F.dXcX5XF.R.Y.~.R R kXlXJ.S.3XuXJ.E.6X6X6XhXD.yXD.N.0XSXNX>XtXG.E.W.4.C 7.I.B = D ",
"V.$.=.2 , S I.XXH B 7.lX(.R.C.F kXK.E.kXuXT.uXuXuXD.E.uXuXuXuXG.@X4XeX0X5XpXsXR.9XG.*.4 2 o.k.+.a 4.",
"$.2 > > , M 8.9.4 3 Z uXkXR.q.Y 6X6XhXuXA.G.lXkXuXJ.S.6XkXuXG.E.iX5XD.6X7X5XH.P.4XQ d , 2 #.z.d.0.!.",
"*.: g @.f q h 5.4 B 5.dXJ.e.T.aXS.5XuXe.U Q E.uXuX6XH.6XlXG.5.sXXX@.X.R.xX8X3XhXL.I.+.i ] p.;.:.4.!.",
"W.C C Q.}.>.,.S.*.4.i.aXtXG.dXfXiXsXuXr.E w.J.G.6XuXS.uXlXe.,.sX].9 , z.jX8X^ F.C.oXBXf.$Xg.} $ a q.",
"BX2.E pX}.{.x.E.U.%.w.5X6XjXjX5XdXyXiXtXr.S.hX6X6XuXG.uXlX,.C sXj.d 8 k.uXE g > l VXBXn.*Xu.} 2 M y.",
"|.s.Q.v.) / #.(.5 G G.6XA.K.H.S.*Xi.T.sXD.6XqXD.D.jXE.E.sXY k ZXwXF.k.!.T.C $ X # `.a.q b F.XXoXv.HX",
"J e 5.h.} 2 Z 6XS.S.G.5.T.E r.5XS.S.G.7.e.dXuXuXuX6XG.7XG.e.e.S.7Xb.w.G.|.{ D % p s.p.+ l n.x.,.b.x.",
"I.K T.ZXz.;.6.jXuXiXiXr.dXG.uXjX6X5XdXr.u.lXuX7XuX5XG.uXuX6X6XiX3XQ.G.iXVX}.sX4.y.ZXZX,.w.FXdXdXv.h."
};
