/* XPM */
static char *a39dd75241df4c548240084936e0e6beBpV7qPNVnpMUFzAc[] = {
/* columns rows colors chars-per-pixel */
"50 50 94 2 ",
"   c #2F8136",
".  c #2F8036",
"X  c #338335",
"o  c #358535",
"O  c #308236",
"+  c #318236",
"@  c #318336",
"#  c #328335",
"$  c #338435",
"%  c #348435",
"&  c #318136",
"*  c #308136",
"=  c #308036",
"-  c #2F8037",
";  c #367E36",
":  c #407A35",
">  c #307F36",
",  c #317F36",
"<  c #308037",
"1  c #377E36",
"2  c #3F8035",
"3  c #388335",
"4  c #457633",
"5  c #546E31",
"6  c #2E8136",
"7  c #3F7C35",
"8  c #427C34",
"9  c #377E35",
"0  c #4F7433",
"q  c #368035",
"w  c #407C35",
"e  c #3C8135",
"r  c #3A7F35",
"t  c #348335",
"y  c #398335",
"u  c #328236",
"i  c #447933",
"p  c #318036",
"a  c #368535",
"s  c #358435",
"d  c #328336",
"f  c #328136",
"g  c #318335",
"h  c #377F35",
"j  c #2F8236",
"k  c #307F37",
"l  c #378035",
"z  c #437D34",
"x  c #387C35",
"c  c #447533",
"v  c #3D7D35",
"b  c #487B34",
"n  c #388235",
"m  c #3F7A33",
"M  c #5E6B2F",
"N  c #368635",
"B  c #338035",
"V  c #3B7D35",
"C  c #447D34",
"Z  c #348235",
"A  c #457A35",
"S  c #417E35",
"D  c #378235",
"F  c #3F7C34",
"G  c #3D7C33",
"H  c #357C35",
"J  c #327F36",
"K  c #427932",
"L  c #417F33",
"P  c #358035",
"I  c #338136",
"U  c #337F36",
"Y  c #348635",
"T  c #517F31",
"R  c #55722F",
"E  c #457D31",
"W  c #427F34",
"Q  c #398234",
"!  c #517732",
"~  c #507431",
"^  c #378234",
"/  c #378535",
"(  c #467D32",
")  c #3F7D33",
"_  c #2D8236",
"`  c #388137",
"'  c #4F8038",
"]  c #398435",
"[  c #378634",
"{  c #388734",
"}  c #3D8B34",
"|  c #398734",
" . c #338436",
".. c white",
/* pixels */
"                                .                                                       . . X o   O ",
"                        + @     .                                               O #     . + $ X + % ",
"                        X o # + .                                               @ o # @ . & + % X + ",
"                            $ # .                                                   # $ . * % # O # ",
"                                .                                                       . = + # * X ",
"- ; : > , . = = = = < .                                                                       *     ",
"1 2 3 4 5 6           .                                                                             ",
"7 8 8 9 0 q O o O     .                                                                             ",
"  w e # r t O X # % * .                                                                             ",
"O y u & i p     O +   .                                                                             ",
"    + * p             .                                                                             ",
". . . . . <                                                                                         ",
"  O *     =                                                                                         ",
"  o $ O   =                                                                                         ",
"  O + o @ .                                                                                         ",
"          =                                                                                         ",
"          .                                                                     . = . . . . = = . . ",
"                                                                                * a + * *   X s * * ",
"                                                                              O $ X + $ + + $ # + % ",
"                                                                                + # o O o + + % X + ",
"                                                                                # % O # +   % # O X ",
"                                                                                O # O + +   + d * # ",
"                                              = f = . .                                   . & f . - ",
"                                              + a d # O                                     $ o + # ",
"                                            * $ # # # X *                                 # X # # X ",
"                                              O X % O $ O                                   + % # + ",
"                                              # %   # #                                     % g * % ",
"                                  . . . . . . . & * * *                                     p h   j ",
"                                  . . . . . k . . . . = .                                 . l z x c ",
"                                    + *     =   +       .                               6 v b n m M ",
"                                    o $ + * = + N + +   .                                 B V C Z A ",
"                                    * + o + .   * # % * .                                   S D + F ",
"                                            =           .                                   # # * G ",
"            = = = = = < H J - . .           .           < = = . . .                           O   6 ",
"                    . - K L P I U                         # o * +                                   ",
"            O % O     & Y T R E W 6                     + $ # + $ O                                 ",
"            O % # $ * . Q ! ~ ^ /                       * + % $ + %                                 ",
"                + # *   ( ) _ ` '                         % # * X O                                 ",
"                      . O     u ]                         * u * + *                                 ",
"                                                        . & u . . .                                 ",
"                                                          o [ X X *                                 ",
"                                                        O { } N | a                                 ",
"                                                          %  .@ @ #                                 ",
"                                                        * N #                                       ",
"                                                                                                    ",
"                                                                                                    ",
"                                                                                                    ",
"                                                                                                    ",
"                                                                                                    ",
"                                                                                                    "
};
