/* XPM */
static char *b32de8bc8e3f44f0a8eee4e6df27d4e3DJPFvGMdABAC1KPR[] = {
/* columns rows colors chars-per-pixel */
"50 50 26 1 ",
"  c #2F8136",
". c #358535",
"X c #328335",
"o c #338435",
"O c #348535",
"+ c #318236",
"@ c #308136",
"# c #308236",
"$ c #368635",
"% c #348435",
"& c #338335",
"* c #318336",
"= c #368535",
"- c #378635",
"; c #328336",
": c #388734",
"> c #398834",
", c #3A8935",
"< c #378735",
"1 c #398734",
"2 c #328436",
"3 c #3A8834",
"4 c #3B8A34",
"5 c #328537",
"6 c #2E8136",
"7 c white",
/* pixels */
"                                                  ",
"                                                  ",
"                               .X               oO",
"                               XX.+             +X",
"                                 +@               ",
"                                                  ",
"                                                  ",
"                                     #            ",
"                                    +$+@          ",
"                                     +X.@         ",
"                                       @          ",
"                                                  ",
"             @%#                                  ",
"            @&.+X*                   +            ",
"            @XX=+.*                 +-X+          ",
"             #oX+X@                  #XO@         ",
"             +&#**                                ",
"              @@          @                       ",
"                         &.@#                     ",
"                        +&X*o#                    ",
"                        #+%o;.                    ",
"                         %X#X+                    ",
"                         ++ X#                    ",
"                                                  ",
"                                                  ",
"                                                  ",
"                                                  ",
"                                                  ",
"                                                  ",
"                                                  ",
"                                                  ",
"                                                  ",
"                                                  ",
"                                                  ",
"                                                  ",
"  %X                                              ",
" #::oo#                                           ",
" +>,<1-                                           ",
" #%2*+*                                           ",
" #.#                                              ",
"                                                  ",
"                                          X$@     ",
"                                         #%3$.%   ",
"                                          .45$:#  ",
"                                          O;*6#   ",
"                                          X+      ",
"                                                  ",
"                                                  ",
"                                                  ",
"                                                  "
};
