/* XPM */
static char *a828dbc7ea2b419fe94edcd304672c7de9TgTBVvuXGxexW7[] = {
/* columns rows colors chars-per-pixel */
"50 28 145 2 ",
"   c #726634",
".  c #7C6F45",
"X  c #7F7243",
"o  c #83723E",
"O  c #846D43",
"+  c #837444",
"@  c #887147",
"#  c #8B7947",
"$  c #8B764C",
"%  c #86784B",
"&  c #8B7B4C",
"*  c #917C4D",
"=  c #897751",
"-  c #8D7C53",
";  c #8D7F58",
":  c #927C53",
">  c #8D804E",
",  c #94814E",
"<  c #8F8154",
"1  c #938355",
"2  c #9A8455",
"3  c #958854",
"4  c #9B8A56",
"5  c #94845A",
"6  c #99845B",
"7  c #9B8B5C",
"8  c #A28D5C",
"9  c #A4915E",
"0  c #938362",
"q  c #9D8D62",
"w  c #A18C65",
"e  c #A18A68",
"r  c #A49363",
"t  c #AA9364",
"y  c #A99966",
"u  c #A6936A",
"i  c #AA956D",
"p  c #A6996B",
"a  c #AC9C6C",
"s  c #B29D6C",
"d  c #AC9671",
"f  c #AC9C74",
"g  c #AE9D79",
"h  c #B29E73",
"j  c #B39D78",
"k  c #AEA16C",
"l  c #B1A26E",
"z  c #AFA174",
"x  c #AFA178",
"c  c #B3A474",
"v  c #BAA675",
"b  c #B6A875",
"n  c #B9AA76",
"m  c #B5A57A",
"M  c #B9A67B",
"N  c #B7A87B",
"B  c #BBAB7C",
"V  c #BEB17D",
"C  c #C1AD7D",
"Z  c #C2B37E",
"A  c #B5A581",
"S  c #B7A881",
"D  c #BCAC81",
"F  c #BEB183",
"G  c #C1AD81",
"H  c #C1B285",
"J  c #C6B184",
"K  c #C4B284",
"L  c #C5B385",
"P  c #C4B186",
"I  c #C6B186",
"U  c #C5B287",
"Y  c #C2B485",
"T  c #C7B585",
"R  c #C5B786",
"E  c #C3B483",
"W  c #C8B684",
"Q  c #C9B787",
"!  c #CAB585",
"~  c #C6B985",
"^  c #CCBB87",
"/  c #CABA86",
"(  c #C6B589",
")  c #C4B689",
"_  c #C5B78A",
"`  c #C4B489",
"'  c #C9B789",
"]  c #C9B68B",
"[  c #CCB788",
"{  c #CCB788",
"}  c #C6B889",
"|  c #C7B98A",
" . c #C6B98A",
".. c #C9B88A",
"X. c #CDBB8D",
"o. c #CEBD8F",
"O. c #CCBE8F",
"+. c #CCBC8A",
"@. c #D2BD8E",
"#. c #D1BD8C",
"$. c #CBBD90",
"%. c #CDBC90",
"&. c #CCBE91",
"*. c #CDBF93",
"=. c #D4BF91",
"-. c #CEC18C",
";. c #D2C08E",
":. c #D2C28D",
">. c #D4C88E",
",. c #CFC192",
"<. c #CFC193",
"1. c #D3C191",
"2. c #D2C291",
"3. c #D5C490",
"4. c #D5C496",
"5. c #D6C597",
"6. c #D3C493",
"7. c #D9C497",
"8. c #DAC594",
"9. c #D6C895",
"0. c #DAC995",
"q. c #D5C798",
"w. c #D6C99A",
"e. c #D8CA9D",
"r. c #DBCA9C",
"t. c #D9CB9E",
"y. c #DCCB9D",
"u. c #DACC9F",
"i. c #DBCC9B",
"p. c #DDD09E",
"a. c #E0D39F",
"s. c #DDCFA0",
"d. c #DFCEA0",
"f. c #DDCFA0",
"g. c #DFD1A4",
"h. c #DED2A1",
"j. c #E0CFA1",
"k. c #E0D2A3",
"l. c #E2D4A7",
"z. c #E2D4A4",
"x. c #E5D9A7",
"c. c #E6D8AB",
"v. c #E7D9A8",
"b. c #E9D8AA",
"n. c #EBDEAC",
/* pixels */
"+ % w + 3 X % % % % > < < > > < < % = 7 1 $ 5 6 : 6 6 * O : : $ - 5 3 < - < < > > > < < ; ; 0 0 ; . ",
"7 G j.' q.,...c z x x N N x N N S x N S c m M M M j j G G j j M f m B B N V E V b N m B A A A A e @ ",
"2 o.c.d.h.h.,.B S B M D B N N F c f F m m _ G B I G G M M M C G F F F F V b b N m N S m d d d g j : ",
"r 4.y.r.O.Y N S B S B M N N N N ) N $.F H 5.I I ] #.I M M G G C B c x b N x c N V D D S A A A A h : ",
"p c.g.e.F S c D D G B M M M C v c 7 b c B ;.E Q [ Z ! #.7.J v J  .B c N b b N N N z z x m x g g d $ ",
"- l.r._ N B m c M M M m M M v v b r l v C :.W W v C C C [ J v C 6. .B N b k z N F B S S D A A D s : ",
"% f.O.c m m m f M B M M C G C v W n v l b C v 9 v 3.Z s C #.C v F R F F b B F  .N N S D S x x D d @ ",
"q w.D a m c M M M M C C G J C C s b s y v #.>.l #.0.#.C #.! s v V -.>.F b N B F N N F F x f g D j * ",
"- f.S f f c m m B M M T 8.C C C Z #.:.^ :.;.:.#.^ W 4 9 :.8./ ^ b V >.>.-.b z N B B B D D M S D j * ",
"< w.F x N M M M C G H ..8.C #.8.8.#.l 8 9 4 y 0.8.9 o , y Z 0.:.>.V n >.>.b k D F S S F D S D F j * ",
"5 *.F S D B M D B { @.[ C C C 8.Z C , # 9 4 * n ^ l 8 4 > r :.^ >.-.b n <.-.N N S S S S B B B D j * ",
"; F S S D D M H X.1.=.C s C #.#.Z 3.v , # * 9 Z s y 4 , > # y ~ -./ b b >.q.F N S B N B N m B D C : ",
"- x f x S S M I y.=.! C C ! #.v v C C t 2 s Q { v 7 + r y 4 k 6.Z V k V 9.~ x F F F S D S B N V C : ",
"- f g x m F M I =.=.@.J s s s 8 * * 8 C J #.Q a E n B Q n C 6.~ V ~ V n F n x D S B S D B N N N C : ",
"< p g x x H M H { [ 7.J : 2 t 8 t s C C v i s v E 1.9.o.M V O.c Z >.-.n c B V N N N B S B N c v C : ",
"< g A x z ` m M r.[ #.C t t C s v C C C C b v @.1.8.b n 6.V b -.i.>.>.-.V b N S B B F F B N N M C : ",
"< g x x N B F N 2.0.W n k v Z n C C Z 3.n b -.V 0.k o 3 -.9.-.-.V F -.~ V V b b V V V >.p.v n B F < ",
". p x N S B B c E 8.^ ^ Z ^ 3.Z Z Z Z :.-.V -.V V Z 7 3 >.p.F F <.-.F b b b V ~ V V n V W a c Z b > ",
"< x N N B S F c b Q C ^ >.Z 3.Z >.:.0.>.-.-.V B Z >.-.-.i.~ c -.F F V b V V V V b k ~ V B l c B N - ",
"0 D  .D m x B N c V 9 l C l Q n Z :.a.Z -.V l V ~ V 9.p.V p z b N b N B V V V ~ k y ~ n m v M M M 1 ",
". F h.u.H m B N B H y h c y B s C v -.Z -.-.V -.V z B B k B  .p S F B N N B T o.n k V a a h j c j : ",
"X F h.h.d.q.-.N v B c M M c M a v l Z :.0.i.-.~ ~  .b z B F b B S F D N z c B Q B k M a f y i p a * ",
"< ~ e.p.x.n.k.Y c M H M m D m j Z n Z >.9.9.>.B F  .b N F k r D S S S N c x j c c N c g j q e w d = ",
"% -.n.x.p.i.d.&.M m _ a d G M G n n b Z V n -.x b z N b N F F z D S S B m N m c c b p q i - e f i : ",
"> >.h.h.h.h.w. .X.M M N D U A M F b z z B N F x b x N F D D D N g A A S D D D D j A j d d : ; d u : ",
"> -.h.h.x.h.h.h.D g f a j D D U V b ~ 6.h.w.h.,.F B D D N N N z d A j A A A m M M A A A A d A j h e ",
"> ~ w.w.x.e.t.h.f.] P N A S M G F F ~ <.u.<.f.<. .F F S N x x z j A j M j m j M e d : d : d e d 8 : ",
"  3 p r z 7 q p q 1 q 1 ; ; = : 7 < < > < % 7 5 q 3 5 < % = < % = : : : : ; : - $ : = = : : : : : @ "
};
