/* XPM */
static char *_3cbe552226145c4f1726471a2257718CYbYoBNuqV17F6Dh[] = {
/* columns rows colors chars-per-pixel */
"50 50 248 2 ",
"   c #0E1414",
".  c #171A18",
"X  c #2C1B0A",
"o  c #17231F",
"O  c #3A230A",
"+  c #252A1A",
"@  c #322F1A",
"#  c #111E2A",
"$  c #172928",
"%  c #1D3726",
"&  c #0F2432",
"*  c #152936",
"=  c #152C3B",
"-  c #1A3434",
";  c #243725",
":  c #32342F",
">  c #253A39",
",  c #4E300F",
"<  c #583515",
"1  c #653811",
"2  c #4E3722",
"3  c #324A1E",
"4  c #274927",
"5  c #345C2B",
"6  c #274538",
"7  c #384738",
"8  c #2A533E",
"9  c #325A37",
"0  c #3A682C",
"q  c #3C752F",
"w  c #376834",
"e  c #514814",
"r  c #5A561D",
"t  c #6D4E11",
"y  c #76670A",
"u  c #6D6818",
"i  c #766D19",
"p  c #7B761C",
"a  c #47482B",
"s  c #515533",
"d  c #69502E",
"f  c #496C38",
"g  c #467A35",
"h  c #527131",
"j  c #6A6B28",
"k  c #746C25",
"l  c #656A37",
"z  c #717631",
"x  c #152D43",
"c  c #152F48",
"v  c #193247",
"b  c #1B344B",
"n  c #173450",
"m  c #193652",
"M  c #1C3955",
"N  c #1C3C5C",
"B  c #2A3C48",
"V  c #3A3F41",
"C  c #233D55",
"Z  c #1E3F61",
"A  c #264446",
"S  c #2E5048",
"D  c #385748",
"F  c #274657",
"G  c #364858",
"H  c #3B5358",
"J  c #3A6D54",
"K  c #1E4264",
"L  c #1F4569",
"P  c #254966",
"I  c #21466B",
"U  c #244A6D",
"Y  c #324B61",
"T  c #2F516F",
"R  c #38546A",
"E  c #3A596A",
"W  c #254C73",
"Q  c #284F73",
"!  c #274F79",
"~  c #27507C",
"^  c #2A537C",
"/  c #365978",
"(  c #3A6278",
")  c #367074",
"_  c #49554E",
"`  c #685B4B",
"'  c #527048",
"]  c #566753",
"[  c #487157",
"{  c #756746",
"}  c #667749",
"|  c #7A7C4A",
" . c #677A5D",
".. c #737654",
"X. c #415A67",
"o. c #445D72",
"O. c #496567",
"+. c #526A66",
"@. c #567466",
"#. c #436574",
"$. c #4A6B76",
"%. c #527877",
"&. c #697766",
"*. c #797569",
"=. c #8B7010",
"-. c #8D6E32",
";. c #866A48",
":. c #94744E",
">. c #8B7755",
",. c #A17E54",
"<. c #887967",
"1. c #46812F",
"2. c #578A2C",
"3. c #448333",
"4. c #498636",
"5. c #4B8B34",
"6. c #448D3D",
"7. c #4B8D3B",
"8. c #548A37",
"9. c #469636",
"0. c #4B9436",
"q. c #4C9B36",
"w. c #46933B",
"e. c #4C933B",
"r. c #4D993A",
"t. c #539636",
"y. c #549C36",
"u. c #5B9D35",
"i. c #52963B",
"p. c #599439",
"a. c #549A3A",
"s. c #5A9D3B",
"d. c #6F8F35",
"f. c #629F34",
"g. c #619F3C",
"h. c #4FA036",
"j. c #53A134",
"k. c #5EA035",
"l. c #54A13A",
"z. c #5CA139",
"x. c #62A235",
"c. c #6BA535",
"v. c #6FA835",
"b. c #63A23B",
"n. c #69A53A",
"m. c #73AA35",
"M. c #488D42",
"N. c #548944",
"B. c #4D9241",
"V. c #4D944B",
"C. c #539443",
"Z. c #599546",
"A. c #559B42",
"S. c #5B9B44",
"D. c #54964C",
"F. c #5A964B",
"G. c #5D9B4A",
"H. c #518A54",
"J. c #4D945B",
"K. c #589954",
"L. c #629D44",
"P. c #62994C",
"I. c #758851",
"U. c #649B53",
"Y. c #5BA144",
"T. c #62A144",
"R. c #52856D",
"E. c #4B9468",
"W. c #549A65",
"Q. c #42897A",
"!. c #499374",
"~. c #489579",
"^. c #6F8B72",
"/. c #918C17",
"(. c #998D1B",
"). c #A68805",
"_. c #AA9713",
"`. c #B9A914",
"'. c #928729",
"]. c #979738",
"[. c #A69C28",
"{. c #B3A92B",
"}. c #B5AA28",
"|. c #D9BA05",
" X c #C5AE13",
".X c #CCBC2E",
"XX c #DBC214",
"oX c #E9C906",
"OX c #F4D30A",
"+X c #EFD023",
"@X c #858949",
"#X c #929644",
"$X c #948955",
"%X c #8B9854",
"&X c #AB8D5A",
"*X c #918C70",
"=X c #AC916A",
"-X c #A8906D",
";X c #B8986A",
":X c #B89C74",
">X c #9AA87A",
",X c #B1A87A",
"<X c #C39D6C",
"1X c #C09F72",
"2X c #C7A87B",
"3X c #D1AB78",
"4X c #D2AC79",
"5X c #D0CE7F",
"6X c #E6DC74",
"7X c #2A5482",
"8X c #295584",
"9X c #2D5985",
"0X c #315B85",
"qX c #305E8A",
"wX c #3A6486",
"eX c #33618D",
"rX c #356592",
"tX c #386895",
"yX c #396A95",
"uX c #3F7493",
"iX c #486A85",
"pX c #4A7293",
"aX c #567995",
"sX c #677985",
"dX c #568A92",
"fX c #68888D",
"gX c #5286A6",
"hX c #6C90AB",
"jX c #7EA3B7",
"kX c #7EA5C2",
"lX c #85978A",
"zX c #8AA391",
"xX c #AAB386",
"cX c #88A8BB",
"vX c gray66",
"bX c #DCB989",
"nX c #C5B491",
"mX c #E2BD86",
"MX c #E8C48E",
"NX c #EAC896",
"BX c #F1CC95",
"VX c #D6C2A3",
"CX c #EECEA3",
"ZX c #EFCFA3",
"AX c #ECCFA9",
"SX c #F3D4AA",
"DX c #F3D7B2",
"FX c #84ADC9",
/* pixels */
"q.9.h.q.q.9.9.9.9.q.q.q.h.q.r.r.9.r.q.q.9.1.q 3.9.q.y.q.9.9.q.9.w.w.q.9.w.6.6.6.6.6.6.6.M.6.6.6.6.6.",
"r.r.9.9.9.h.h.h.q.q.h.h.h.j.y.y.l.y.l.q 8 ' } J 9 0 1.9.0.q.q.q.9.w.q.9.w.6.w.M.6.6.e.w.7.6.6.6.6.6.",
"j.j.q.y.h.h.h.h.j.j.j.j.l.l.a.y.y.y.g A K Q $.fX^.[ S S w 5.t.t.e.7.9.t.t.e.0.0.e.e.9.i.e.w.6.B.6.M.",
"j.j.y.j.l.h.h.h.j.j.j.j.j.y.y.y.y.3.6 n c N L ^ $.*X^.qXP A w 5.0.e.0.t.y.y.e.i.r.0.i.0.w.w.7.w.w.6.",
"y.l.q.j.l.j.j.q.j.y.j.j.j.z.y.y.0.0 * $ & N L 9XeXwX%X^.9X^ P S q 9.e.w.i.i.M.w.i.i.r.B.7.B.M.B.7.w.",
"j.j.j.j.y.y.q.y.z.y.s.a.a.A.a.i.y.g g 5 & N L ! ~ 7X#.#XI.wX8XW F w 0.w.7.7.w.B.r.w.w.M.w.B.N.7.e.w.",
"j.j.j.y.y.y.j.z.Y.S.y.a.B.B.i.A.0.a.5.4 x K L ~ 9XqXrXuX>X,XpXqX9XK 9 6.6.M.r.r.B.w.w.M.V.M.M.B.B.7.",
"j.j.j.y.y.a.s.s.Z.G.S.D.C.A.y.S.A.i.4 x N U ^ 9XrXyXyXyXdX5XxXyXrXqXK w 7.w.w.w.B.M.B.D.V.4.B.C.e.C.",
"l.a.y.y.q.a.s.S.s.P.P.S.S.S.Y.Y.S.w * N I 7X9XtXyXyXyXyXtXzX6XfXtXtXqXF q r.M.B.r.B.C.C.B.B.r.i.i.C.",
"S.L.g.s.s.s.a.p.L.T.P.P.P.L.T.Z.' > m I ! 9XrXyXyXyXyXtXyXdX6X>XyXtXyX9XS 3.3.e.p.i.a.a.C.C.a.a.r.7.",
"P.P.P.g.p.S.S.S.S.p.A.L.S.L.S.} ' > N W 7XqXyXyXyXyXyXtXrXwX.X.XiXqXtXeXP 9 f i.a.a.C.e.C.e.a.a.i.p.",
"P.H.P.Z.7.C.G.K.G.D.Z.G.Z.p.s.8.$X*XR ! 7X9XeXrXeXwX$.$. .#XoXOX$X$.o.0X~ _ l 7.p.7.B.B.C.7.A.i.A.A.",
"N.N.F.C.B.C.B.F.K.G.G.U.G.G.G.g { 3XnXsX! 7X/ @.$X XXX|.oXoX|.oXoX|.XX X#XG w a.A.r.B.D.a.C.C.i.Z.S.",
"C.B.C.B.B.A.A.D.U.K.F.G.G.G.P.9 V <XmXnXo. .{.oXoX|.=.=.=.-.-.=.=.=.).oX+XxX[ y.p.A.Y.S.G.S.S.S.C.Z.",
"7.w.w.e.r.r.D.Z.K.U.K.Z.D.S.F.> n ;.=X{ ].oX|.(.t d 2 < 1 -.<X-.d < O , y nXzXp.T.Y.S.K.W.W.K.F.D.N.",
"0.e.0.i.i.A.C.Z.F.F.F.Z.a.S.8.- Z Y ` [.OX).< ;.;.<.vXV O :.NX2X-X_ : ` , d *.N.Y.W.!.~.W.W.!.E.J.N.",
"e.0.a.y.a.0.a.A.S.S.G.S.S.z.g * Z 7X@XOX=.1 1 :.<X,.<.<.` ;XZXbX-X<.:.&X< < + q W.!.!.!.D.C.V.H.J.E.",
"a.a.i.i.q.a.r.i.y.S.S.S.s.l.0 & c _ |. X=.1 < :.bXbX<X=X<X3XZXAX4X:X4X:X< ,   J ~.dXD.l.C.H.D.a.J.E.",
"y.0.w.e.e.i.e.B.B.a.z.z.z.z.q & & r =.t 1 1 < :.mXDXZXmXmX3XmXZXBXZXDX:X< , # J E.W.a.8.dXjX) Q.J.V.",
"i.0.7.7.e.e.r.B.B.a.z.b.y.l.3.$ * t y O 1 1 < ;.bXSXDXAXBXmXmXmXBXDXDX=X, . 6 Q.J.5.8.l FXjX) gX!.e.",
"w.6.7.w.i.i.A.i.r.C.s.u.a.y.i.w 4 t t X , , , ;.<XNXSXBXBXmXbXbXBXSXZX;., 5 V.~.Q.fXJ [ FXzXg Q.dXE.",
"s.i.0.y.y.s.A.i.r.e.p.s.i.w.y.r.q 6 @   O O O d ,.3XBXBXBXSXDXDXBXBXbXd a a.K.!.uXgX( 0X^.%XR.R.Q.~.",
"u.u.y.u.k.s.p.0.i.i.z.a.q.r.y.5.8 M x m >   X : V ` <.=X;X2XnX:X;X-X..@ 3.k.S.E.[ ' F E >.@.pXfXE.~.",
"u.u.u.u.j.z.y.t.i.i.a.y.y.t.y.0 * m W qX^ M $ . n I C x * B : B A aXX.3 j.k.A.J.E.2.u r ' [ J Q.~.J.",
"q.q.k.x.k.u.a.z.a.e.a.p.s.a.g $ m ! qXyXyX0Xn x x m I W I Z Z W iXpXY 7 7.i.a.D.E.f k j k R.Q.~.E.Y.",
"y.y.z.z.j.s.s.b.p.w.e.i.e.4.4 x W qXyXyXyXqXF N W I m C C Z C B _ / aX$.g a.a.p.V.z i z P.!.!.J.V.B.",
"j.s.b.u.s.b.n.n.b.a.a.C.C.w = N 7XrXyXyXrXtXR N ! 7X7X_ r & * j X.pXpXaX[ y.a.a.9.d.#Xp.J.J.V.i.A.B.",
"b.u.f.b.b.b.b.b.L.g.L.s.g A b I 0XyXyXyXqXpXT Z ! o.+.+.[.> : ].wXaX0XaX@.9.i.5.p.%XU.a.a.z.s.y.q.9.",
"g.s.u.s.b.n.g.s.s.T.n.g.D v N ! 0XrXrXqXpXaXC I E ]  .@X}.7 k {.lXaXT gXfX0 f } l I.s.a.a.x.u.y.r.9.",
"T.b.b.g.b.g.f.b.s.b.n.g F c I 0XqX9XqXpXgXY N ! E X.8X . Xr [.%XcXiX/ iX..a d bXxXf w.r.i.a.i.B.r.9.",
"n.n.T.b.b.g.n.b.b.s.p.S m x U qXyXqXpXhXG N K ^ / ] O./ {.p [.I.fX/ tX$.i k ` ;X` } ' y.B.e.w.A.r.j.",
"b.L.L.g.g.g.g.g.c.n.g P M c U qX0X0XiXlXF N K ! 7XX.].#X{._. X^.R ^ tX] =.$X;Xa ;.CX-X8.Y.r.w.q.Y.a.",
"s.u.s.s.s.s.b.b.c.f.D U b 7 Y #.@X}.(.>.` G K ! / ] +.@.}._..X&.m I / z k &X1Xd nXZXI.0.Y.r.A.l.y.y.",
"b.u.p.s.s.z.z.k.b.2.Y L - 3 i (./.j l @X2X*Xb I R ] +.I. X(.].%.F v _ i z :.;.$XBXVX} 9.Y.r.Y.s.y.u.",
"s.a.i.a.p.z.k.k.x.x.f A n * $ $ G } '.=XbX&X* & n _ ] ] -.a S E D 0 e 3 f r a :XbX..B.A.a.Y.A.z.k.u.",
"i.i.7.i.s.s.c.b.x.c.c.8.5 w 4 . r (.;XAXAX*.# & & m N C C C M / sXg g 7.8.h l { <.7.D.Y.Y.A.A.y.j.f.",
"i.A.r.B.C.s.n.x.x.x.x.g.y.a.g + ;.bXAXDXSX<.b n N N M C r l T eXgXN.s.s.2.`.].7.4.r.r.Y.A.w.A.l.u.f.",
"i.a.l.B.i.u.u.y.s.f.u.u.u.y.i.w ;.MXAXNX=X_ N P ~ 7X7X( `.}.( $.zXN.u.u./.+X%Xi.a.q.e.e.w.B.r.q.q.t.",
"y.z.Y.r.a.t.a.t.y.u.u.u.j.u.y.i.h | @Xs e a D G #.#.#.I.y =.].p z 8.g.p./..XU.s.i.w.5.w.w.w.0.a.y.u.",
"a.a.y.z.s.s.i.i.0.i.u.t.a.t.a.i.a.5.5.g ; ; 6 s l j p y : S _ E ' s.b.s.2.p.L.s.a.7.9.e.9.y.u.u.u.u.",
"t.y.u.z.s.Y.i.y.a.i.t.0.0.i.a.r.a.y.a.e.% x P H s 9 0 % * N H l s g t.y.s.p.s.y.a.w.w.w.0.u.f.u.f.f.",
"u.b.b.f.s.z.y.y.a.t.i.r.i.a.y.a.A.a.s.0.% : j '.] O.' % ; u '.} H sX@.7.A.a.0.q.0.y.t.0.y.u.f.f.f.c.",
"c.c.c.c.n.x.u.z.s.a.a.a.y.y.y.A.a.y.j.h y '.| E I R jXX.=...E Q P iXkX+.7.r.9.e.r.y.u.y.j.u.u.f.f.f.",
"m.m.n.m.c.x.x.b.u.z.s.y.y.y.l.r.a.j.1.u d.E W W Q P hXcXE U W Q U E kXhXf a.y.q.a.u.u.y.u.u.f.f.f.x.",
"m.m.c.x.x.c.c.x.j.z.k.y.y.y.j.y.a.z.5.; & v b M C N o.iX* & = v b b G > 5 j.f.u.f.f.f.f.f.f.u.u.p.u.",
"f.x.x.c.c.c.c.x.x.x.x.k.l.u.u.y.y.u.a.0 4 ; $ $ $ $ $ ; 4 4 4 ; % ; 4 0 2.u.f.f.f.f.f.f.f.j.2.y.u.t.",
"u.x.v.c.c.c.c.n.m.c.x.z.y.y.y.x.y.u.k.u.x.p.2.5.g g 4.t.t.a.e.7.7.e.s.u.f.u.u.f.k.k.f.u.y.0.y.j.t.t.",
"r.u.u.f.c.c.x.x.c.c.b.a.r.q.k.x.u.s.s.9.0.u.u.u.y.u.s.u.s.t.s.a.A.S.p.s.u.j.u.j.k.k.u.u.u.0.t.t.y.a.",
"r.0.t.y.a.u.x.k.l.k.k.y.y.a.y.z.y.a.a.e.t.u.u.0.y.u.u.u.f.g.s.u.p.S.s.s.S.y.z.j.u.u.s.y.t.w.0.i.y.0.",
"6.7.i.5.e.t.i.0.e.r.a.r.r.y.r.9.9.a.s.u.u.u.u.a.i.y.u.s.f.x.u.k.s.s.s.z.z.s.s.z.x.u.0.w.w.6.D.S.S.S."
};
