/* XPM */
static char *f4319d4a341d4a2c8f031086335737d9ej5OW5cOyb00jXsu[] = {
/* columns rows colors chars-per-pixel */
"50 50 226 2 ",
"   c #081514",
".  c #122B1E",
"X  c #233E1B",
"o  c #001B35",
"O  c #07262D",
"+  c #122E26",
"@  c #14342A",
"#  c #0F2F30",
"$  c #0A2B36",
"%  c #0B333C",
"&  c #163737",
"*  c #28471C",
"=  c #184A3C",
"-  c #274924",
";  c #2E5425",
":  c #335D25",
">  c #2B4A33",
",  c #265736",
"<  c #345736",
"1  c #386527",
"2  c #3D712B",
"3  c #3F7F2F",
"4  c #3E6533",
"5  c #41732B",
"6  c #487A2D",
"7  c #022A48",
"8  c #053046",
"9  c #113A42",
"0  c #013159",
"q  c #033A65",
"w  c #08424B",
"e  c #1D4245",
"r  c #194549",
"t  c #1E5442",
"y  c #154D53",
"u  c #1B565C",
"i  c #24484B",
"p  c #29574B",
"a  c #275758",
"s  c #11605E",
"d  c #2D6243",
"f  c #29685E",
"g  c #04436A",
"h  c #054A6C",
"j  c #084868",
"k  c #0B516C",
"l  c #145965",
"z  c #0B4F70",
"x  c #085574",
"c  c #0D5674",
"v  c #125975",
"b  c #125E79",
"n  c #215D62",
"m  c #1D646B",
"M  c #0B6578",
"N  c #16677C",
"B  c #266469",
"V  c #33676C",
"C  c #256B75",
"Z  c #27727A",
"A  c #367479",
"S  c #4A7C47",
"D  c #57882D",
"F  c #4A8434",
"G  c #458834",
"H  c #4B8D35",
"J  c #448D3C",
"K  c #4A8E3C",
"L  c #538A38",
"P  c #479736",
"I  c #4D9536",
"U  c #469935",
"Y  c #4D9B35",
"T  c #46943B",
"R  c #4C943B",
"E  c #469838",
"W  c #4D9A39",
"Q  c #529636",
"!  c #5F9734",
"~  c #519936",
"^  c #549B36",
"/  c #559A37",
"(  c #519E35",
")  c #559E35",
"_  c #5B9D35",
"`  c #519639",
"'  c #52963C",
"]  c #5A963C",
"[  c #549A3B",
"{  c #5B9D3A",
"}  c #689E2F",
"|  c #609F35",
" . c #629F3C",
".. c #5FA12E",
"X. c #4EA037",
"o. c #53A234",
"O. c #55A136",
"+. c #5CA135",
"@. c #56A13B",
"#. c #5CA03B",
"$. c #64A336",
"%. c #6BA536",
"&. c #63A23B",
"*. c #6AA63B",
"=. c #6EA83F",
"-. c #4D8E41",
";. c #518B44",
":. c #439341",
">. c #4D9241",
",. c #539542",
"<. c #5A9546",
"1. c #559A42",
"2. c #5B9C42",
"3. c #56944C",
"4. c #5A944A",
"5. c #5C9A4B",
"6. c #5C8D52",
"7. c #5C9154",
"8. c #5D9B54",
"9. c #629C44",
"0. c #64964D",
"q. c #619B4A",
"w. c #629D54",
"e. c #56A141",
"r. c #5AA243",
"t. c #62A141",
"y. c #146B82",
"u. c #11758B",
"i. c #197589",
"p. c #057796",
"a. c #257887",
"s. c #3B7E85",
"d. c #108195",
"f. c #198698",
"g. c #27818A",
"h. c #3A828A",
"j. c #288B98",
"k. c #388797",
"l. c #28939F",
"z. c #1898B5",
"x. c #2898AE",
"c. c #359BA9",
"v. c #319BBC",
"b. c #17A3BC",
"n. c #27A2B5",
"m. c #39A6B5",
"M. c #45868D",
"N. c #418D96",
"B. c #489399",
"V. c #4E9DA2",
"C. c #43A3AD",
"Z. c #57A5AA",
"A. c #48AFB9",
"S. c #57B2B8",
"D. c #1C9BC3",
"F. c #259DC1",
"G. c #09A7C6",
"H. c #17A9CA",
"J. c #17ADD2",
"K. c #09B0D2",
"L. c #1AB3D6",
"P. c #17B7D9",
"I. c #27A8C7",
"U. c #37AAC6",
"Y. c #29B7CD",
"T. c #3AB9CA",
"R. c #23AFD0",
"E. c #2AB8D4",
"W. c #36BBD6",
"Q. c #29BDE3",
"!. c #49BCC9",
"~. c #4EBDD1",
"^. c #1EC0DF",
"/. c #28C2DB",
"(. c #33C2DD",
"). c #39C6D9",
"_. c #0CC2E6",
"`. c #0BC4EA",
"'. c #13C5E6",
"]. c #1BC4E3",
"[. c #1CC9E7",
"{. c #12C6E8",
"}. c #18C8E8",
"|. c #0ECCF6",
" X c #1BD1FE",
".X c #1AD8FF",
"XX c #24CAE5",
"oX c #28C9E7",
"OX c #2BCDE4",
"+X c #24CCEA",
"@X c #35CCE5",
"#X c #29D0EA",
"$X c #2CD1EC",
"%X c #35D1E6",
"&X c #3CD2E5",
"*X c #34D3EB",
"=X c #3CD5E9",
"-X c #2AD7F8",
";X c #24D9FD",
":X c #35D9F7",
">X c #36E0FF",
",X c #49C2CB",
"<X c #54C5C8",
"1X c #47C5D8",
"2X c #53C9D7",
"3X c #4AD0DB",
"4X c #57D7DD",
"5X c #67D8DD",
"6X c #72D9DB",
"7X c #44CCE7",
"8X c #4CD4E3",
"9X c #42D6E9",
"0X c #47D7E8",
"qX c #55D9E6",
"wX c #5CDDE3",
"eX c #45DEFE",
"rX c #64DDE3",
"tX c #67D9E5",
"yX c #6BDDE2",
"uX c #76DFE1",
"iX c #4FE2F5",
"pX c #55E3F9",
"aX c #6CE0E3",
"sX c #67E2E8",
"dX c #74E2E4",
"fX c #63E4F6",
/* pixels */
"E E U W Y X.E E E E U E U Y Y Y o.U E W E Y W Y E E E R T T T I Q ^ ~ E I U T Y P T E E P T T J J J ",
"Y W Y U U U U E X.W U E X.X.X.Y o.Y Y Y ( ( ~ ~ ~ ' R W W W I I Q ^ ~ I I U I Y Y T T I I I J T J J ",
"( Y Y Y Y Y X.X.X.W X.o.O.X.o.O.@.@.) ( ) { ~ { [ K R R R ` Y ~ ~ ^ ~ I I I ~ Y I J J T Y I I T :.R ",
") O.o.( o.@.o.X.Y o.o.o.o.o.X.X.O.) [ [ ) ^ I ~ ` [ ] ] ` ` ~ ` ` ` ^ ` I I Q ` I I R T I Q Q Q I T ",
"O.O.O.X.( ) ) ) o.( O.o.O.O.O.@.~ O.{ [ ~ [ ~ ~ Q { ) ) { Q ` I Q ' [ ~ Q Q L R I W R R I [ { Q R R ",
") Y ( O.O.) ^ ) ( ( ( ( ) o.+.O.+.{ ) [ ^ ` 2 * ; F ' ' ` Q W ` W ` 1.W Q Q W I H H R R H Q ` L K J ",
") @.O.O.O.) ^ ) Y ( ( ) ) { ( ( [ [ [ ) [ 5 B m u e : T ` R R Q I Q ` W I Q Q I R J H R R K R K K -.",
"o.o.o.o.) ) ^ ) ~ ( #.#.e.[ ' 1.1.' 1.[ 6 f (.z.Z N $ ; ` ' K R W Q I W ` Q [ Q W R R H K J J :.J R ",
"o.o.o.o.( ^ ) ^ ) #.r.r.2.] [ ' >.R R G f oX#XE.l a.k # 3 ' 1.W W ` ` ' ' ( Q ^ I G H H J :.J :.R ' ",
"o.( o.o.( ~ ~ ) { 2.5.<.q.<.1.3.1.' R d R.$X*X$Xg.A N j @ 5 [ ' [ 1.~ ' [ [ [ ] W R 1.W K R J R R T ",
"[ [ ) ^ ( ~ Y [ { &.] 2.q.q.<.5.3.1.< x.Q.W.&XoXM e g.c j # : ^ <.[ [ ) { [ [ [ Q [ Q Q ` [ ` Y T :.",
"2.2.] _ { ) ^ ~ ] ]  .9.q.q.q.q.q.2 Z Q.W.7X0Xf.e & B i.h g $ 1 ) { ] { { { [ ` ^ ^ { ^ [ Q I I R :.",
"9.9.9.9. . .{ 2.1.] r.t.2.<.w.t.F p @X@X8XqXm.A C.c.Z C b g j % 1 { ] { ] [ ' ` { ^ { ^ [ ` ` R W W ",
"<.0.0.0.9.' [ 2.5.<.5.1.1.' q.L > U.:X7XqX8Xm.1X(.^.^.M C N h j 8 ; L ,.1.<.[ [ <.] ] ] ' R ` ` W 1.",
"4.7.6.0.9.' K <.5.w.w.5.1.<.<.< l.-X$X9XqX8XW.I.I.L.|.K.u h.x h g 8 - L 2.<.1.,.<.,.>.>.-.K ,.[ ' ,.",
";.;.;.4.;.,.-.;.>.3.8.8.5.8.S c.-X-X-X:XqX2XI.F.E.@X+X|.d.l i.x h g 7 - ] r.1.,.,.>.,.>.:.-.-.R >.,.",
"1.,.;.3.>.,.1.1.1.3.8.7.8.S a.;X.X-X;X>XpX8XU.Y.&X9X=X#X{.M m u.h g q 8 - <.] 1.R 1.' 1.1.1.,.<.>.1.",
"R R R >.>.>.1.W 1.3.8.w.8.< i.H.H.Y.E.W.).!.T.!.T.!.<X4X=Xb.+ m y.v h j 8 - / { ' 1.2._ ] { ] <.1.] ",
"R H R T T >.W 1.1.4.4.w.w.> k.!.N.N.V.A & V B.S.C.A.<X5XsXm.O   & i r 9 9   5 [ [ [ [ { [ ] 1.<.[ t.",
"T T W R W W 1.' ,.<.<.4.6.d 7X:X0XqXdXZ.V.6XuXaXwXqXwXwX<Xh.l.w 9 a.a.y.v % : ) ) ) ) ) [ 1.<.,.,.2.",
"W R W ` [ [ ~ ' R 1.5.<.<.< Q.;X9XqXdX6XaXrXrXaX4X4X4X!.Z A.n.& y y.g g q % ; { ) ~ Y ) [ 1.1.1.,.,.",
"Q ` ` [ [ ` I W ( [ { O.5.< E.-X9XsXdXdXsXyXrXyXaX4X3Xy V A A h.9 y.g q 7 B < ~ ~ ' ' +.{ [ [ 1.1.<.",
"[ ~ I R W ' ' ~ T R W 1.r.4 U.:X0XrXdXdXyX4X2XrXdXaXs.p V.!.0X).y y.g 0 $ a.t H ` ~ [ { ( W ' ,.,.<.",
"^ ^ T H R R R ' W >.R 1.1.1 k.iXwXdXdXyX2X!.2XyXuXV.Z.3X%X%X3X).m i.g 7 e y.= J ,.R 1.` ~ W W R >.] ",
"~ ` W K K K K ' R >.>.,.( 1 h.pXtXtX6X~.U.T.4XyXB.Z.0X%X(.).8X1Xn i.q O C N = G >.>.>.R W R R Y R 1.",
"R H J J R R R ,.1.R ,.' { 1 s.pXtX5X~.!.v.2XaX,Xh.3X%X%XR.I.1X5Xn l O i a.y.& 3 T >.R R >.R R ` R ,.",
"Q H J R R ' [ ] 1.,.K W ' 1 M.fXtXtX~.v.U.2XwXm.C.$X%XE.D.n.2X5Xa n & V N v & 6 T >.1.R W 1.~ ] ,.' ",
"{ 2.~ ~ ~ ) #.{ ] ] Q K ' 2 M.fXtX2XU.F.T.qX0Xj.m.%X/.H.z.U.qXwXV n u a.c v # F R R W E Q ( ) $.{ ^ ",
"| | ) ) ) _ ) _ { Q R ' ] 5 s.fXtX~.E.@X3X&XOXg.).oXL.D.F.E.=X8XC @ Z N v z + F W W ~ ` ^ _ | .._ ^ ",
") _ ) ) +.) +.#.~ I ` ' Q 5 s.pX8X@XoX&X&XOX/.j.oX[.L.D.H.E.@X7Xa.a a.v c j + F [ ~ [ ) ^ [ _ | ! { ",
"Q ^ ) ....) +.) Y { Q R W 5 V eX$X].@X8X%XOXj.j.].P.H.J.L.].+XOXa.C N c c j + I ] ' ` ` Q Q ` ` ` ] ",
"~ Y Y +.%.&.&.{ ~  . .R R 5 B -X|.}.&X&XOXn.c./.].P.L.L.].[.[.+Xx.N y.c z j @ L ` ' ' ] R ' R W ~ ' ",
") ) { #._ _ ) #.{ &.&.' R 2 m  X|.[.#XXXXX/./.P.].^.^.^.+X$X@XoXv.u.p.x g q + H Q L ' ] ' ` ` { ] { ",
"+._ &._ ) &. .&.*.=.&.#.1.5 B  X|.`._.'.^.P.L.P.#XY.n.[.$X*X*X XI.u.p.z q q + L ' ,.] ` ] ` ` ` [ ` ",
"t._ _ &.&.&.&.*.&. .&.&.9.6 m  X|.`.`.P.J.J.L.OX/.Z H.'.{.+X}.{.D.f.p.x q q . H ` ,.' [ [ ` ` ` W ' ",
" . .^ ^ &.9.&.&.$. .{ 9.t.D m  X|.`.}.XXP.P././.N c.]._._._.`.`.G.i.p.h q 0 . Q ~ ~ [ { +.) { ~ [ ' ",
"&.*.&._ _  .&.&.&.#. .&.=.! t z.G.H.E.&X*X$XY.u p %X[.`._.K.G.G.G.u k 0 7 o X { { ^ { r._ 1.[ [ ` ' ",
"t.t.&.&.t.t.&. . .&.&.#.O.%.6 1 ; - , a g.C & & = l.f.u.s = , , d - : - X : L t. .e.{ 2.] ~ 1.' >.T ",
"t.&.&.t.&.&.t. .&.$.&._ &.%.%.%.%.%.} D 6 1 1 1 1 1 1 5 D _ { [ 1.^ { _ |  .&.#.{ [ [ { ' Y 1.1.1.W ",
"*.&.9.9. . . .9.&.| &.%.$.=.%.%.%.%.*.%.%.$.~ ,.W 1.@.[ O.#.#.) [ { 9.t.{ { ] #.#.[ W ( [ [ E 1.e.1.",
"] &.{ ] { _  .{  .| &.%.&.$.%.&.&.%.&.$.&.{ [ 2.2.1.[ { ^ _ { { [ { ] _ ) ^ { r.#.[ X.o.e.e.1.1.e.[ ",
"&.| ^ { _ { { &._ #.&.%.&. .| ) { &.&.#.&.{ { r.1.W ] [ { { #.] { { _ ) ) @.#.e.e.r.r.r.r.r.1.e.e.e.",
"&._ ^ [ 2.] 2.#.#._ $.$.%.| { [ _ { _ { { ] #.#.@.1.' ' ` [ ) 1.[ #.r.O.^ ~ [ e.e.r.r.r.r.r.e.e.e.[ ",
"] { ~ ' [ 2._ ) $._ +.%.%.$.$._ _ ) ] ^ { O.O.#.{ ~ ` { { ^ [ 1.1.) [ e.' W [ 1.W e.r.r.r.e.e.e.r.e.",
"[ W W R R ] ] &.%.$.+.+.%.%.&._ { { ] ` { #.[ ) #._ ) _ ) { ^ ( W W ` ' ' ^ ~ [ ~ ~ 2.r.r.e.e.r.e.#.",
"1.1.,.R R ' [ &.*.%.$.%.%.&.&.{ [ ] R ` [ [ ` ] { { | | { ] { ) W W ' ( ^ ) _ | { [ ) { r.[ [ 1.r.e.",
"R 1.' R R >.[ &.$.+.| $.$._ ) _ [ [ R ,.Q R ' ' ` ` Q { [ ' Q ) [ W ) { _ _ _ $._ { { _ { { ) ) [ 2.",
"W [ { [ 1.' Q ) { ) ) ) _ $._ +.) [ ] R ,.R ' ` _ 1.' [ ' ] ` { ) ~ ( { _ $._ #._ { _ _ #.{ { { [ ` ",
"{ { r.{ [ [ [ [ [ [ Q ) _ _ _ | _ _ Q / ,.[ ) ) ) { 1.] ` ` Q I ` ] ) _ | { _ $.&. ._ &.{ ) { _ _ ~ ",
"[ ( #.[ [ ) { Q W ' Q ' Q | / ^ ^ ^ { Q ' ^ [ [ ' ] [ { | [ ^ Q Q [ ^ &.! ! { _ #.&. .#._ { { { &._ "
};
