/* XPM */
static char *_4805ce4be9b451cab3fa359acc53f4eCasIRogQCHKEXg8h[] = {
/* columns rows colors chars-per-pixel */
"50 50 189 2 ",
"   c #060606",
".  c #040804",
"X  c #0C0D0B",
"o  c #0F130E",
"O  c #101A0D",
"+  c #141414",
"@  c #121910",
"#  c #181718",
"$  c #1C1C1C",
"%  c #152012",
"&  c #1A2414",
"*  c #142911",
"=  c #1B2A17",
"-  c #1E221D",
";  c #1B3015",
":  c #21251F",
">  c #23321D",
",  c #233C1B",
"<  c #29391F",
"1  c #242424",
"2  c #252923",
"3  c #292E26",
"4  c #2C2C2C",
"5  c #243321",
"6  c #293323",
"7  c #273D22",
"8  c #2C3A23",
"9  c #2D322C",
"0  c #2D3B29",
"q  c #333E2F",
"w  c #2F2F30",
"e  c #343434",
"r  c #323B31",
"t  c #383B37",
"y  c #3C3C3C",
"u  c #24431C",
"i  c #28451A",
"p  c #254A1D",
"a  c #294C1F",
"s  c #334D1C",
"d  c #2C501D",
"f  c #34531D",
"g  c #355B1E",
"h  c #234421",
"j  c #2B4623",
"k  c #2C4B23",
"l  c #324627",
"z  c #32422D",
"x  c #334A28",
"c  c #275020",
"v  c #2F5124",
"b  c #2D5B25",
"n  c #2C5928",
"m  c #315522",
"M  c #335D22",
"N  c #35592C",
"B  c #395A2E",
"V  c #354232",
"C  c #3D433B",
"Z  c #3E4838",
"A  c #2F6024",
"S  c #356225",
"D  c #3B6424",
"F  c #3C6A25",
"G  c #33672B",
"H  c #3A662B",
"J  c #366B2B",
"K  c #3B6C2A",
"L  c #36742E",
"P  c #3C712C",
"I  c #3E6338",
"U  c #3D7B32",
"Y  c #3D7F3B",
"T  c #40423F",
"R  c #487925",
"E  c #47732A",
"W  c #477B2F",
"Q  c #467336",
"!  c #437A33",
"~  c #4B7D36",
"^  c #3F3F40",
"/  c #444444",
"(  c #454943",
")  c #484847",
"_  c #47454A",
"`  c #484748",
"'  c #4C4C4C",
"]  c #4F504F",
"[  c #4F4C53",
"{  c #514E54",
"}  c #544F58",
"|  c #535353",
" . c #555954",
".. c #56525B",
"X. c #59575B",
"o. c #5C5B5C",
"O. c #5F625F",
"+. c #5B5661",
"@. c #5D5A61",
"#. c #626362",
"$. c #6B6B6B",
"%. c #747474",
"&. c #7B7B7B",
"*. c #3D8136",
"=. c #3E833B",
"-. c #3F893A",
";. c #4C892E",
":. c #538C2C",
">. c #56912E",
",. c #478333",
"<. c #498731",
"1. c #448A36",
"2. c #4A8C35",
"3. c #41853B",
"4. c #48863C",
"5. c #448C3B",
"6. c #4A8D3B",
"7. c #528730",
"8. c #538835",
"9. c #469637",
"0. c #4D9336",
"q. c #4D9B36",
"w. c #45923A",
"e. c #4C943B",
"r. c #469838",
"t. c #4E983B",
"y. c #529636",
"u. c #599232",
"i. c #549B36",
"p. c #5B9D35",
"a. c #52963C",
"s. c #59963D",
"d. c #549A3B",
"f. c #5A9C3B",
"g. c #649F31",
"h. c #619E3D",
"j. c #55A137",
"k. c #5DA135",
"l. c #5DA13A",
"z. c #6AA22F",
"x. c #63A232",
"c. c #69A635",
"v. c #63A23B",
"b. c #6AA43C",
"n. c #458740",
"m. c #458942",
"M. c #4A8E43",
"N. c #548E43",
"B. c #548E49",
"V. c #4D9241",
"C. c #549442",
"Z. c #5A9645",
"A. c #529941",
"S. c #569941",
"D. c #559A41",
"F. c #599A41",
"G. c #5D9A43",
"H. c #5A9C41",
"J. c #5A9946",
"K. c #5D9945",
"L. c #5A9C45",
"P. c #5B954A",
"I. c #5D994A",
"U. c #5C9A4A",
"Y. c #5A994E",
"T. c #5F9953",
"R. c #5C9A52",
"E. c #619B42",
"W. c #619E41",
"Q. c #619946",
"!. c #629C46",
"~. c #629E46",
"^. c #63974F",
"/. c #629D4A",
"(. c #609B4C",
"). c #639350",
"_. c #629C52",
"`. c #5EA144",
"'. c #61A241",
"]. c #64A34D",
"[. c #848484",
"{. c #8C8C8C",
"}. c #949494",
"|. c #9C9C9C",
" X c #A3A3A3",
".X c #ACACAC",
"XX c #B3B3B3",
"oX c #BBBBBB",
"OX c #C3C3C3",
/* pixels */
"S.H.i.j.j.i.i.q.i.l.H.P.K.C.S.A.d.L.S.A.e.a.i.p.a.d.s.i.d.f.d.t.a.0.t.e.e.r.V.V.V.B.M.M.a.M.a.C.M.n.",
"d.d.p.d.d.d.j.i.y.f.H.W./.Y.K.L.`.`.U.C.C.s.a.s.u.d.d.d.f.d.i.y.i.y.d.0.r.M.t.e.C.a.V.e.a.a.e.N.S.e.",
"k.f.f.W.K.!.f.f.f.F.F.`.G.(.!./.].]._.Y.J.h.h.s.d.s.d.s.d.s.a.p.d.s.a.t.e.t.d.a.a.S.A.a.d.t.e.S.S.a.",
"k.v.!.K.P.).!.s.S.I.Y.J.F.J.K.s.G.I././.Z.E.E.h.h.s.Z.s.S.S.s.S.s.a.e.a.a.a.d.a.V.V.V.e.s.s.S.S.P.C.",
"f.f.s.C.B.B.P.M.V.C.T.R.I._.J.Z.H.H.W.!.!.Z.Z.Z.!.!.L.s.G.H.C.A.C.V.M.C.a.C.a.e.V.A.a.V.a.S.Z.s.s.C.",
"f.p.a.a.C.C.C.C.A.A.Y.R.R.I.I.I._.!.!./.!.I.N.Z.!.K.W.G.G.s.a.A.f.f.d.C.A.S.f.d.L.F.S.S.H.J.P.C.Z.N.",
"f.f.i.t.e.w.w.e.A.A.P._.R.P.S.I.(.I.!.W.Q.K.P.P.F.s.H.K.F.d.i.d.d.f.s.S.S.H.H.'.`.L.].!.S.C.N.N.N.C.",
"s.p.t.e.e.t.t.a.t.C.Z.P.Y.C.J.H.K.H.J.l.h.K.h.s.~ S.W.h.f.k.d.d.i.d.S.C.S.F.G.F.C.C.J.S.C.N.N.S.C.s.",
"f.u.s.e.t.d.d.i.t.t.d.H./.G.f.f.S.d.f.f.f.a.6.N ( j 8.f.x.p.d.i.d.y.d.A.S.S.s.a.a.s.S.S.J.C.A.C.C.S.",
"y.a.d.y.i.0.e.0.d.t.t.a.H.H.f.H.S.f.l.f.;.M 0 #.{.w & D y.d.a.a.d.d.i.t.C.S.d.d.d.p.d.f.s.V.A.d.a.S.",
"6.6.6.0.d.e.5.e.V.t.V.a.j.v.f.j.l.d.d.D q o.{. X|.}.&./ k W e.e.a.a.t.t.a.a.d.s.p.g.f.p.s.e.t.A.A.A.",
"y.6.2.e.2.5.e.e.a.a.V.a.d.l.i.j.d.5.k ( %.{.}.}.|.|.|.|.&.C u L w.e.e.d.e.C.C.a.a.s.f.d.s.e.A.`.`.d.",
"i.u.0.d.s.0.q.d.f.d.e.e.a.f.i.0.S = ' $.%.%.&.[.{.|. X|. X}.#.q j K 0.p.f.a.a.a.V.e.a.a.t.A.t.S.j.y.",
"i.d.i.k.p.p.p.p.l.d.y.a.d.p.*.; r y | &.[.&.%.&.{.}. X X|.|.|.{.$.T l F :.i.j.d.s.C.S.a.S.A.d.i.j.d.",
"i.q.q.q.i.j.k.p.l.q.y.a.a.D 6 t ] ' ( | o.%.[.{.{.|. X X X|.}.}.}.}.&.O.T x m K L ! a.s.a.a.j.d.A.`.",
"i.i.j.i.i.i.x.k.l.d.l.6.a ( |. X|.|.|.|.|.|. X|.}.}.|. X X X}.[.[.{.{.{.[.$.e 4 C 9 H w.t.a.d.d.t.i.",
"d.f.h.f.x.p.f.p.h.b.:.< ' }..X.X.X.X.X.X.X X|.}.}.|.|. X|.|.}.&.&.[.{.[.[.{.&.[.}.X.@ ,.y.a.e.a.e.y.",
"l.v.v.v.l.p.v.v.b.E 5 | [.|. X.X.X.X.X X.X X|.|.}.}.|.|.|.|.[.%.%.[.{.{.[.[.[.%._ e + M i.d.e.e.w.a.",
"b.v.h.h.h.f.p.h.M 3 o.$.[.|..X X.X X X X X|.|.}.|.|.|.|.|.{.%.%.%.&.[.[.&.%.' $ 2 #.o.8 e.t.0.q.e.A.",
"'.b.b.b.b.v.f.E X w t ' [.}. X X X X|. X X X|.|.}.|.|.|.}.[.$.$.%.&.&.$.) 1 $ 4 e ) ) 4 J q.0.i.l.d.",
"W.f.b.b.v.v.s.6 o.| t y | &.{.}.|.|.|.|. X X|.}.|.}.|.{.&.$.#.%.%.#./ 1 + e / | o.@.] 4 u d.i.i.p.i.",
"f.F.s.s.h.H.! 3 $.$.{.|.#./ %.{.{.{.{.}.}.}.{.}.}.|.}.[.%.$.O.] e 1 # # 4 ` |  .X.| ] ' 5 2.y.p.d.t.",
"t.A.S.f.g.p.i w &. XoXoX X .y %.&.%.&.[.[.&.[.}.|.|.[.&.#.y 4 4 e t $ + / / | | | | ] ' r F f.y.y.i.",
"t.d.a.d.p.7.9 }.XXoXOXOXoX|.o.y #.$.$.%.%.&.}. X|.&.| e 4 e / / e w # 2 | ' ' ' | | ' ' / j i.k.x.x.",
"i.i.t.t.d.G X.oXOXOXOXOXOXoX|.X.9 X.#.#.$.[.|.|.#.- o e { ) ^ y 4 4 $ ) ) ) ` ` ' | ] ) ) > >.x.z.z.",
"l.l.i.t.a.k [.oXOXOXOXOXOXoX.X#.  + 4 y e ) y 1 1 C ' | ] ( / y e 4 e | ) ) / ) ' ' | | | 8 R x.z.x.",
"l.k.j.d.<.r  XoXOXOXOXOXXX{.o.4 e X.$.$.o.y w X / | { ] ' ) ) ^ t 1 ' ' ) ) ) _ ' ' | | | t M k.g.x.",
"v.v.l.i.H O. XoXoXOXOX X%.o.%.|..X X|.}.}.{.] $ { [ ' ] | | ) / y 4 | ) ` ` ` ) ] | | | ' e g k.x.x.",
"c.c.x.2.z [.{.}.|. X.X.X.XoXOXOXoXoXoXXXXX|.^ w | ' ] | | { ) / 4 y [ ' ' ` ) ' | | | ' ' $ g z.p.p.",
"c.x.v.E r [.}.{.[.|. XoXXXoXoXoXoXoXoXoX.X{.4 ) | ] | ] ' ] ) ^ 4 ' ' ) / ' ' ' { | | ] y # s g.p.y.",
"f.f.b.s 4 y $.$.[. XXXXXXXXXoXoXoXoXXXXX.X&.1 ] | | X.| ] ) / 4 4 { _ / ` { } ' | | | ' 1 4 & :.p.>.",
"d.i.u.8 $.{.|..XXXXXXXXXXXXXoXoXXXoXXXXX.X$.e X.| o.o.{ ] / y - y [ / _ { } | ' ] | | / X O # f p.p.",
"y.i.P O..XXXXXXXXXXXXX X XXXXXXX.X XXXXX X| ) X. .O.o.| ' ^ e + ] ] ' | ..| ..| | ' ] t 4 y y > 0.y.",
"t.q.m [.XX.X X.X.X.X X}.{.}.[.%.#.{..X.X{.e | X.o.#.o.] / ^ 4 1 X.| ....X.X.| X.| | _ / / y e , y.q.",
"0.0.u |  X|.|.}.}.{.%.| | X.#.&.}.XXXX XX.y X. .o.#.o.' / y y ) o.X.+.+.+.+.X...| | y _ y ^ y , y.y.",
"w.9.,.a V  .] ^ ^ _ ] $.[.|. X.XXXXXXX}.e ' | | O.o.X.' ) y ] ) o.X.+.X.+.@. . .| _ e y y y C > <.t.",
"5.w.e.1.U G = . / / &.}. X.XXXXXXX X X&.$ | | X.O.o.| ] ' T ] ' o.o.o.X.| .. ...' y 4 e e y ^ 1 K r.",
"3.3.t.3.3.3.! n 5 e |..XXX.X X|.}.}.%.4 : o.| o.o.#.o.| | |  .| o.o.#.' e ] .. .) y y 4 4 4 $ O Q '.",
"=.3.6.*.*.3.=.=.U h O. X.X|.&.#.$.{.%.4 ^ o.| o.o.X.| X.X.| o.o.#.o.#.T o 7 q 9 9 4 1 & z B Q N.f.p.",
"3.3.6.3.*.4.Y =.=.5.b r #.[.[.{.}.}.%.1 | | ] ] ' ) ' ' ] ' ] X.o.o.e O g 2.<.S c N I ~ H.v.h.h.p.k.",
" .=.=.=.Y =.=.=.*.w.w.L 7 _ &.[.[.[.' e ' _ / ^ / ) ) ) ] ] ' y 2 0 v U t.w.w.e.w.5.4.2.y.k.k.k.k.k.",
"-.Y *.=.Y Y =.=.5.w.w.w.*.h C &.{.&.e / ` t y e e 4 1 : : : : m W s.S.a.t.e.w.2.5.e.e.0.y.p.p.p.x.p.",
"-.-.=.=.=.=.5.-.w.5.w.5.5.5.G V #.' + w 1 : = = , d S P E W 2.s.d.t.e.e.r.w.e.w.w.0.y.i.p.i.p.p.j.y.",
"0.q.-.=.=.=.w.-.5.-.=.=.5.w.5.L h O * p G P <.e.t.d.d.D.f.d.d.d.S.a.t.e.e.w.w.5.5.0.y.i.p.p.i.i.j.q.",
"0.y.2.=.-.=.=.m.5.5.=.=.5.3.=.=.=.U 5.e.e.e.y.a.e.t.a.a.f.x.d.f.d.d.y.t.r.e.w.w.e.a.y.p.>.>.i.q.y.d.",
"i.i.q.5.=.=.=.-.w.-.-.-.5.=.=.=.=.5.5.e.e.e.6.a.a.y.a.d.d.f.y.s.l.a.q.0.e.w.5.5.0.u.y.y.p.i.i.0.y.y.",
"j.i.y.y.5.5.-.V.-.r.w.=.-.=.=.=.=.5.5.5.6.a.d.d.f.u.t.d.y.d.C.d.d.e.t.w.w.M.w.5.2.0.2.y.0.e.0.e.a.a.",
"0.d.y.i.r.w.r.w.w.r.r.-.-.-.5.=.m.5.5.5.0.a.d.d.f.d.y.y.t.d.d.d.d.e.w.w.r.5.5.w.5.0.y.y.6.6.6.1.6.6.",
"q.0.t.0.e.0.1.w.9.r.9.9.-.w.-.=.-.5.5.w.e.a.a.p.p.d.s.u.a.C.e.a.d.e.5.M.w.w.w.5.e.0.0.6.6.6.6.n.6.6.",
"r.w.r.q.1.r.-.w.9.w.r.9.w.w.-.-.5.M.e.e.a.a.t.a.p.y.d.f.a.C.a.a.A.V.5.w.w.e.0.5.5.0.6.3.3.n.6.6.6.6."
};
