/* XPM */
static char *_b43591ba25d40beb9801a5e638738eeEf8JC7lQdbZCeNN7[] = {
/* columns rows colors chars-per-pixel */
"70 70 140 2 ",
"   c #000D15",
".  c #000F19",
"X  c #001117",
"o  c #00151D",
"O  c #00191E",
"+  c #001721",
"@  c #011C24",
"#  c #031E29",
"$  c #042027",
"%  c #05212A",
"&  c #09252D",
"*  c #0D282F",
"=  c #0B2631",
"-  c #0D2A32",
";  c #112D35",
":  c #132E39",
">  c #143037",
",  c #15323A",
"<  c #19353D",
"1  c #1D383E",
"2  c #1B3641",
"3  c #1D3942",
"4  c #213D45",
"5  c #233E49",
"6  c #244147",
"7  c #25424B",
"8  c #29454E",
"9  c #2C484F",
"0  c #2B4651",
"q  c #2D4A53",
"w  c #314D56",
"e  c #334E59",
"r  c #345156",
"t  c #36525B",
"y  c #39555E",
"u  c #3C595F",
"i  c #3B5661",
"p  c #3D5A63",
"a  c #415D66",
"s  c #425E69",
"d  c #446066",
"f  c #45626B",
"g  c #49656E",
"h  c #49686D",
"j  c #4A6671",
"k  c #4D6A73",
"l  c #516D76",
"z  c #526E79",
"x  c #55727B",
"c  c #59757D",
"v  c #5C787F",
"b  c #5B7681",
"n  c #5D7A83",
"m  c #617C86",
"M  c #637E89",
"N  c #658087",
"B  c #65828B",
"V  c #69858E",
"C  c #6B8691",
"Z  c #6D8A93",
"A  c #718D96",
"S  c #728E99",
"D  c #75929B",
"F  c #79969E",
"G  c #7A96A1",
"H  c #7E9AA3",
"J  c #819DA6",
"K  c #829EA9",
"L  c #85A2AB",
"P  c #89A4AE",
"I  c #89A5B0",
"U  c #88A6B0",
"Y  c #8BA7B2",
"T  c #8AA6B1",
"R  c #8CAAB4",
"E  c #8EAAB5",
"W  c #8CA9B2",
"Q  c #90ABB4",
"!  c #91ACB5",
"~  c #90ADB6",
"^  c #93AFBA",
"/  c #95B1BC",
"(  c #97B3BE",
")  c #95B2BB",
"_  c #98B4BE",
"`  c #9CB9BF",
"'  c #9BB7C2",
"]  c #9DBAC2",
"[  c #9EBBC3",
"{  c #9DBBC3",
"}  c #A2BEC7",
"|  c #A0BEC8",
" . c #A2BEC9",
".. c #A1BFC9",
"X. c #A2C0CA",
"o. c #A4C0CB",
"O. c #A4C2CC",
"+. c #A7C3CE",
"@. c #A6C3CC",
"#. c #A9C5CE",
"$. c #ABC7D2",
"%. c #AEC9D2",
"&. c #AECBD3",
"*. c #ADC9D4",
"=. c #AECAD5",
"-. c #ADCAD4",
";. c #B3CED7",
":. c #B2CDD6",
">. c #B1CDD8",
",. c #B3CFDA",
"<. c #B4CFD8",
"1. c #B2CED9",
"2. c #B3D1DB",
"3. c #B6D1DA",
"4. c #B4D2DB",
"5. c #B8D5DD",
"6. c #B8D4DF",
"7. c #B9D6DE",
"8. c #BBD7E2",
"9. c #BBD7E2",
"0. c #BCD8E3",
"q. c #BDDAE2",
"w. c #C0DCE7",
"e. c #C2DEE9",
"r. c #C3DFEA",
"t. c #C2DEE9",
"y. c #C4E1E9",
"u. c #C6E2ED",
"i. c #C4E1EB",
"p. c #C8E6EE",
"a. c #CBE7F2",
"s. c #CCE8F3",
"d. c #CFEBF4",
"f. c #D2EFF7",
"g. c #D1EDF8",
"h. c #D1EDF8",
"j. c #D5F1FA",
"k. c #E3FFFF",
"l. c #E6FFFF",
"z. c #EAFFFF",
/* pixels */
"# @ + = # + 2 + # : # = # # # # = # # # . + % # = = ; & o # # # & # + + = . = # = = = # = = = + + # # # $ o $ $ @ - o o % @ @ $ $ % # % % # ",
"# # = - 2 = 2 5 5 5 2 0 0 5 2 = ; * ; : > * + % ; ; : 2 % = o + # = - : 5 2 2 = # = # = = + # : = + + # O q Z v h x p 8 - O & $ ; & = = 2 # ",
"- = = 3 S +.6.0.s.=.H S S S I Y ! J k 1 % + ; 4 m ;. .M # < : . = 5 z G 1.0.9.H # e G I K M 0 # = + = = - n &.[ L 5.k.y.k + @ - s N U U U f ",
"+ = 3 f S C G H K ' =.r.a.u.9.*.:.:.J 5 = & & ; M ! K v 4 ; & % 5 b K J H H Y M 2 G 6.o.( o.b + # = # # @ q m C F x V [ D - $ d H | 2.O...V ",
"# # 2 n p 2 p b 0 s b M M M b i 4 a e > = & & < u w 5 y a + . & b b M S G M M p 0 Y S S b b b 5 # # + # = j H F l A Z h 8 @ & k B A l d k l ",
"% = 3 H b 5 p 2 0 i s s j b p e a a 5 5 = . o 5 a m v a e & ; & i i b M M i p 0 5 K M M j i j e 2 # # = # b L f y x c k t O O n z n d f g g ",
"# 2 0 I i i b 0 e e p s b p e e u t 5 4 = . = 5 a c d w w . : ; M i i j b i b 3 5 M M j e j e s 2 + + 2 # b G q w d k a e ; 1 Z f f f f a 6 ",
"% # 5 =.M p 0 p i 0 i 0 2 5 5 j a s a 2 & * : ; 5 z u a e * * < i i j i 0 i b 2 e M s s e s i s 2 = . 2 # p k w N f g h w : 1 B h w u a l 1 ",
"# 2 = b M j s s j s s i i 0 0 s i i y ; >   ; < y z g d w = & ; 0 i b s s s b 5 2 S e s e s i e 8 X % - = 3 8 x c p p h t @ 7 l d u u a r ; ",
"# = s i j j s s s s s s j s i i y w i 4 # + : . + &   # : % & ; 2 2 0 5 2 = 5 2 0 M i j s s s b > - O & ; q h p p p u q , $ 9 p f u u g t # ",
"# : j 0 i s s i i p s s j b s e g 5 9 5 # # < y w v J M a + * e b b M G M i e 2 5 j i s i e 0 b 4 $ $ $ - a a p p q 7 3 > - w d d d a d 9 @ ",
"# 0 5 s j i s s i b b i s j s j l a w & ; * < J :./ M k e & + 4 b b M M G G M j 2 e j j s s s s 3 $ % $ = d t d r 6 3 3 - % 4 t y a y 6 < * ",
"= b = b M j s j s z j s i s s b a j z & ; ; 4 v y 5 e u t ; + 4 j s j e s j s e = : e s b j e 0 $ ; $ $ $ q p 1 @ - 3 < % > q p r u 6 > * & ",
"+ b e 0 b j s s j j s s s i e s a i v 4 # # 5 i a t i d t > # 5 j i j s j s i e 2 # = 2 5 : = = & + @ @ % < 3 = * O O @ X $ < t u w 1 1 - @ ",
"+ 0 0 e b s s i s s s s s i e s g w d 5 & . e g y y d i 5 > & a b i b s s s i 0 i 5 = = # # : e r X - $ * ; 1 f D f q 6 & & $ 6 7 4 > , ; O ",
"= = = b b e j b i s s s s s i s e g e : + ; 5 d a y d a e < & 5 j b K M e i s e 0 s e 5 = : b K p 2 < $ - - V ) B B B s & $ O = $ * % % $ O ",
"2 = = s b e M b a a a j s a s a 5 j a = + = 5 f y e u a e > + < e j j i i s b i p s j i : 2 M e 0 6 ; @ - ; t e l p r - @ $ $ 3 x u B L 8 $ ",
"# 2 5 0 i b M e z a 5 j s a a e a a 5 # + = 5 f w y u e 4 ; & < 0 i s i i e 0 i j e e p 2 # b b t - $ - - $ < 7 t = @ - * @ & t Z z k k 8 $ ",
"# 5 0 5 e b M b c j d g e 5 s b b a 2 ; = # ; 5 g M l a 4 & ; ; j s i s j s i i s e i p 0 2 i s t 3 - $ O $ @ X O $ O O $ - - o O @ & O $ $ ",
"2 : 2 : 2 0 s M c c z k 5 = 5 s 2 = # = ; = = 2 w j e 5 : # < : j s e e s e 0 0 p s i i e : 2 2 = ; % % & 4 * ; & 7 9 f n B B f , $ ; = $ $ ",
"# = 2 2 : 5 = = 9 5 5 5 1 ; < ; : ; ; : ; = ; ; & 2 # & = # : ; 5 s b s e 0 e b s p i s s 2 5 i q 4 $ % % $ > V &.p.O.H G _ #.H Z r > 4 - % ",
"2 = = 5 s M G G b c z c v M C v z g i 5 & + & + & ; + & ; + & & 2 i s 0 2 = 2 0 i s j e i 2 : : 7 3 % < > - k 2.U l 4 7 w p L f.] ~ l 8 - & ",
"= # : s b b b i g d i d y y g d j u 5 4 # # = & + & & # & # & = = 2 2 = # = = : # 2 5 = 2 2 2 = $ $ % > $ @ g k , , w s p r w d c F B 7 $ $ ",
"= # + = . + = = ; ; > 5 5 < 5 4 1 & & ; = ; 2 < ; < 4 ; # # o # = 0 i j b b i i i 0 5 = = + + 2 y 3 > > @ 5 L k w t h p r y r a p w f q * @ ",
"# + = 5 c N c d 5 5 4 * . > . . & e v M c z j a < w 5 < + & # = b M b b b b b s p i p f 0 # e b h p t - @ > A n t h p p t p N x u i f f $ @ ",
"= = 2 e d d u r r 9 5 < > > < * 1 e g g y w 8 4 . < > ; o = % + s M b b i i s e p e i i e 2 i b y y 7 - $ $ k t u d d h h l c h u t p u % @ ",
"* : 2 4 1 1 < < ; * & * ; * ; ; + ; 1 4 4 < < > ; 4 < : & ; ; = 5 5 + = # # : = = = = % + + 3 5 3 4 - $ % $ l x p p p t p h p p p y y r & $ ",
"o # ; : > < < 1 1 1 < 1 > & & * : * & ; ; > > > & : : ; % + & = # # = e e 0 e 5 2 2 = 2 = = = # O @ $ $ ; > k D p p h u p p q h f p p q * $ ",
"# # $ * * ; > *   > * o & . . . + # # * * ; * & # . + ; & + + % = e G ' ,.6.o.I B s p B G G B b x r 0 - % * 6 C a u l s h p 6 s h f a 8 * # ",
"* $ o $ $ & .   . . * . > y y u e 5 4 < : < 5 5 a w 4 : < ; = % : G ,./ Y ^  .+.H H H | | i.i.q.] c w $ @ & 6 Z h i h p p s q a f f f 7 & . ",
". $ ; < 1 1 1 1 <   > * 1 d r d d b P _ }  ._ Q z c l 4 ; # & . M o.b e i b b 0 p j j e 3 f j j h 5 & $ $ - a H h f k u r h h h a a a 4 - o ",
"+ > 4 5 1 1 1 5 <   * * 6 d 1 9 M J P J A M M m 5 M A y < + &   b o.5 s b i e b k t t j p s q p t 7 $ : $ O f G 7 a z r 5 p l s a s a 4 ; # ",
"$ $ ; v H @.B , : @ # 2 e p ' $.G C z k c d l d r y x s > $ @ @ i  .j i j s e j b i e i b s i i i 2 = = O @ p x p k 6 - - - 9 k c j i 4 & @ ",
"X $ r H D H x 7 # = = = i C G b k s a s z p h k g r d r > $ @ @ = s j i e j j s i i i s e 5 e s 0 2 = : % @ & > $ < y S F h 8 - 2 4 , ; # + ",
"* $ 6 v w r u u 2 # + - j b p b s p s s k a p c c u u r > & $ ; = = 0 j s 0 e e i 5 5 p b M M b j e = = - > o ; j ` k.z.d.j.j.R ; * ; ; * @ ",
"O O r Z d r t 9 : = # # e p e b h s h p f p t c f y u 9 ; X O $ : M E I M i i 5 2 0 b M b i s 0 0 e 2 = $ - 4 L f.H D ) ~ F D V t 5 < , ; # ",
"$ * r v u d l l % - $ + e M p i s p s t y a t h u a a 9 ; $ O $ # b e 0 i s s s e 5 0 i e i i 5 2 2 2 = # # 5 / x p y u t t t u g 9 < ; = % ",
"O O 1 u p h h r - # o - i j i p k f s h a f u p f a u 5 < > $ @ + # : 2 : = # 2 = # : 2 2 2 : + 2 = # + : : 5 x f k N C Z c u u s 0 : - - & ",
"$ $ * 6 p a q 3 - - $ - 2 i j j x s p B g a a u u y r < * & X O : # = + # 2 = # = = = = # = : 2 # + = # = - s z d k N B n x p u y 9 2 ; ; ; ",
"$ $ * 6 q 7 5 8 , > @ , - e b p t 2 2 k a t a f u u u 8 < & O ; : : : = 5 # = = # # # # # # # + # # - + - 2 z i p t g u q i y y 9 8 4 ; * ; ",
"& $ ; 1 6 6 ; 6 > & $ $ 2 2 7 - 0 x B x z k f s a a a w < & @ ; 0 0 0 i 5 2 = # : # = = = 2 2 2 : + # + : < l a p a u y y d j k f 7 - % - * ",
"; X > 1 $ $ $ $ ; @ + - , % p C H C f s k j s h a u r 1 * * $ $ 5 i e s 0 # # : 2 : 5 0 i j 0 = < = = . # . f s 3 f Z M j r y d w 3 ; ; ; % ",
"$ $ $ O $ $ $ * o % % $ = 2 k z t p s j h p p k h g a 4 ; ; O X = 2 : # 2 2 : 5 b =.0.a.s.s.a.M ; & ; * : & a i 4 4 4 4 4 5 4 4 7 3 > ; & # ",
"O O * 6 w $   > - < @ # - 2 j i z k s t p s h x t u u 6 ; & O $ 2 : 2 # # + : K u.' H M M ' M M a 4 = . & & e e 8 5 4 4 9 e y 5 4 < > * # + ",
"$ & 1 6 6 6 4 & - , = % = = i q e i h z h s f x f y y 7 > & O & + # # = b E o.6.M e 0 s M M s i z e : . # + : : ; < 2 4 < > < < > * & $ $ O ",
"O > > 6 v ~ L h - = & $ - 2 8 3 7 3 2 3 0 s h p x u 9 1 > * X @ # # 5 $.6.M b i e b 0 i p i b i i e 8 < ; . . . = + . + & & * . $ @ @ $ $ $ ",
"$ & $ v q.` Z H b % + # 2 # : e j B B s 6 q s t 4 * & # $ % @ $ = # 2 G b 5 i i i 0 b b b i i i i i 5 * . ; : 5 . + & # = . . & O $ $ $ $ O ",
"$ $ 1 v v 9 6 u j ; & + % = % = - = , 2 $ $ $ $ X X @ @ O $ + # # # b M 2 s i b b i i e i b b e d a 0 : < 5 5 5 5 : & + + # . & $ & & $ $ $ ",
"$ * h c u r u d u 3 $ @ & $ X $ $ $ O $ 1 r t q r t h x e * & # = = z M i s s s j s j j f f p j c a e 8 & ; 4 a J P [ J v y > & > $ r r $ * ",
"O $ r l h p p u h 3 $ * k C z n ) D A U ` ) _ #.] ) H B q & # . : = j b e s j j j p p p p f f b V N z 0 + > w } } m z V A s # & 1 > x r $ $ ",
"$ O ; r u r u r r - O $ b R H / Z h d c l u h A B p w f w # @ & = = s M s j j s s s j p j j p p d z d w * 4 < _ i e a w e y ; * 1 1 N 6 $ O ",
"& O $ 9 p t p r 6 & & & q l q q q q t p p q 9 t 9 u p p 5 % # % # = i U j i j s s s b j p j i i i g e 5 > 4 < M g r a i u r % ; > > h > $ O ",
"$ O & u h d u 9 q # # @ - p p b h h u w r p t 8 h l h e 4 - % o # = 5 K b e j s p j z s s f s f d l d 0 < * 5 g N t i f f 6 o - > * 9 ; $ $ ",
"O $ $ 6 r 6 1 * 2 ; 2 2 - 2 2 % - - - & - 3 r p 4 3 & = - $ # % = # 0 I M s j s s j b b z h s f y d g y 4 # 5 ; 4 q w 6 < ; # % > * 1 > $ O ",
"$ $ O O * * $ & # : # # = + + % - - , 6 3 - & & < a u 3 & + $ @ # # M ' G M j s j j b b x h p p g d a w < ; < * q q 3 7 6 > * % & $ > > $ O ",
"$ $ & $ ; 6 > 1 2 e - 0 C C C G H A Z H { | ) H D Z h p i < $ @ # # E ' C M j b z s s s s s p h a a a e : : # : ; 6 2 6 3 & ; % $ $ > & & $ ",
"$ $ > r r u B R { s ; b H +.{ ' ) p.2.Z B S C l s a g s 5 ; % # # = s M 2 p M M u f p a h p h a p f r p , @ $ $ $ $ @ % O + ; $ $ $ $ $ $ $ ",
"$ & $ 6 N #.| B k 6 p h l q e j l B N h k h p p a u a a 8 ; & % # + 2 s 5 b b s f f p p d p p p u d t t , $ $ > > $ $ O @ * $ & $ X * $ X $ ",
"O O > m Z x h h 2 p Z a j p k k f p t h l y q p u a u y w > # $ = + 0 b p j j s h p p p p p t t t p p r ; * % 3 3 y D F e & $ @ X * 1 > $ * ",
"& X $ l v u 7 7 < p p p p f p j h h a f h p r p a a y y t 4 # # # = e s p i s j h t p p y p t t t p d w = - $ 4 C 7.L H F < o - 1 6 * r > X ",
"O $ > r 9 9 p f 3 b i b f p p p s h s u i a i a t a y y i 4 % % @ & r r s p s j d u p p p d p u t u p 8 % - % 3 | q.k p n 3 $ - * > r J v X ",
"& $ $ r t u p h 5 b s p j p j p p p s f a a a a u u a y e < # + @ - u y f p p p u h p u d p p p t p r 6 % = = , R n h d w 3 - @ > 1 v J u O ",
"O O ; u f h k f k p i p b i e p p t i d p t t y a y u u 8 ; @ O O % r y y w w p r v p u h t p r p f 8 3 $ = ; > B k y w a q O & * > N v 9 * ",
"$ O $ d f t i f p q p i b M t i a y i p y u a y a e a y 4 - - $ $ O 4 r u y p l r Z d t h r p q h l 7 2 $ % > - d a t f p , $ $ 6 * r d r O ",
"$ $ $ 4 d f t e u u i j Z S v f u y y y y y y u g a e 5 4 ; & o $ $ ; 1 w g c v J J d z s j a j 5 2 < < & = : ; g 9 u M 5 > # + 4 1 u d r * ",
"$ $ @ - 7 w w t e a t i g j j j f f d g j j j j t w 4 1 < ; = + o $ $ > 4 5 r r d y 5 u 5 a 5 a 5 2 2 ; + + = = z y y z 5 < & & 5 4 r u 6 O ",
"* $ @ $ ; < 4 t g g u 5 4 1 4 5 5 w w w w 5 5 5 4 < ; * ; ; & + $ * * < 4 6 5 5 1 < 1 4 5 5 5 5 5 2 < = + + ; ; j e 4 5 ; ; + . 1 1 r d 1 * ",
"$ * $ $ * ; < 7 9 0 4 ; ; * * ; < : : < : ; ; * ; = % & = = & % o o & ; < < < < 1 ; < ; 2 : 2 2 2 : ; = & & = = y e < : * > & & & & 6 d 1 * ",
"@ # # # & & # - # * # + # * & # & & & * = ; ; ; = = = & & % % % + $ $ & & & & % : # = % ; & : ; & = = = = % + # 4 4 ; * * : * * $ O * 1 O * ",
"@ # @ # & % @ # # * & @ # @ O @ + o + # + & = ; = = * = % % # # + $ $ $ $ % + & & . & . = + # + # * # @ & # + & # & + # # & # # * O X O O $ "
};
