/* XPM */
static char *bg10_1__2_1671125713[] = {
/* columns rows colors chars-per-pixel */
"50 50 89 1 ",
"  c #87B42F",
". c #86AD3C",
"X c #8AAE3C",
"o c #91AE3C",
"O c #86B436",
"+ c #8AB036",
"@ c #8FBB36",
"# c #85B33C",
"$ c #8CB43D",
"% c #87BC3D",
"& c #8EBB3D",
"* c #90BA35",
"= c #93B63D",
"- c #93BC3D",
"; c #99BD3D",
": c #95C235",
"> c #94C23C",
", c #9AC33E",
"< c #97C83F",
"1 c #83AD42",
"2 c #8BAD40",
"3 c #91AF46",
"4 c #86B242",
"5 c #8CB443",
"6 c #8DBA44",
"7 c #8CB64A",
"8 c #8EBA4B",
"9 c #92B644",
"0 c #93BB45",
"q c #9ABD45",
"w c #92B64A",
"e c #9AB748",
"r c #94BC4B",
"t c #9ABD4C",
"y c #8DB450",
"u c #8EBB51",
"i c #94B752",
"p c #94BD52",
"a c #9ABE52",
"s c #97BF59",
"d c #9CBF5A",
"f c #A2BE47",
"g c #A1BD4C",
"h c #8FC144",
"j c #8FC04A",
"k c #95C244",
"l c #9BC344",
"z c #9DC945",
"x c #95C24C",
"c c #9BC34C",
"v c #9CC94C",
"b c #95C252",
"n c #9BC353",
"m c #9DCA53",
"M c #96C258",
"N c #9CC55A",
"B c #9DC95B",
"V c #A2C446",
"C c #A1CA46",
"Z c #A2C44C",
"A c #AAC54D",
"S c #A2CA4C",
"D c #AACC4B",
"F c #A2D14E",
"G c #AFD04E",
"H c #A2C553",
"J c #AAC654",
"K c #A4CA54",
"L c #ABCB54",
"P c #A2C55A",
"I c #A9C35B",
"U c #A3CA5A",
"Y c #ABCB5B",
"T c #B4CE55",
"R c #B0C55F",
"E c #B1CD5C",
"W c #A6D053",
"Q c #ABD153",
"! c #A6D259",
"~ c #ABD25D",
"^ c #B3D055",
"/ c #B2D65F",
"( c #A2CA61",
") c #ACCD62",
"_ c #A9CD68",
"` c #B1C760",
"' c #B3CD62",
"] c #ACD363",
"[ c #B1D86E",
/* pixels */
"k!zmFFFhxvllz>xLzvbqKK,SzccZlqnarJYHgqrLZSKVKH~SkU",
"kmvkvhvmk%<k>mzckzccSc0c;;>L,aaPHVqVlqHJLZS)cHY~SY",
"vvz<<%k>k>bv6lv0klzCzkc0SV:qHc9tnvgqStEL'EJMZYZLJE",
"mvk>%hbxkxmmU,cvKzVzzlv>rvvVccrvHtcHtJKAHJYcEI''LD",
"mMhvvm<mbmjBvSkzmzKzzlkxv-6mIUrnH$qSrrnZLYYKYvJ'DT",
"mvvvmm!Fvmv~Sl,zccCvzczbvkalHZKrcnZqlZ`EUJYHZJ`JJA",
"hBWBmB[mmnvU<SKSSmULvnzkzKcZHHnccUPZJPHVHdAJJAYRII",
"Mjxjjm]mbzzxxSQckUH:BxvnvmqmvqH0fHnJUcngImqPUIJIPI",
"zmBm<jmxvv>:%z,cvZlzKvqckb00HLcHZJPabftrwc=cJdrnZa",
"Bhmh>j<mxxkc>k/YlmSYGLtvxtxnZqegqKqJZl0wwct0gadeln",
"hx(<x%(Ucj>xzSxLHDKP^JZlKSmqxenae9a9e-9=98x0tegtda",
"x<jvmmvJCn&>CzzSKYKLLYJLKLeecViJg9295#&=rw9tXegtHq",
">>vxz<mZK&czSlSLZKLEYLSLZntqeq9a999fg95rr.0999qPaq",
"kFvklx-bv~lSSVDKULKYASSJlz0tV=9e394$9qr09658969rPd",
"FLvK66zvnmS>kcvULLALZqJYScmqa=q=59w=X56=#4;8w66$7d",
"WvxYm0kmUvkk-kvqSHSZSlnLZSq9c;6=$wrq=e5546&ww$5p95",
"Zvm-rr(cxkj6kcmSHU,ScLKqSk*9caHtrrw79w-aetb7pyr66N",
"cqwmxkmc&j666cqZZJLcSKUZcZccrgeq=$.967w5wt7p747wr8",
"l04l6x6OO4rxk-xvZZVcccHZS0cStrxc9qtweXrt9e4usrbnrp",
";$4 6$O$O6->xk@6H0VKl-kctcc0=actcHrrd;r5ve05Np6j8p",
"$0#$8&466r@40b$nttHKcvcxZnncrkrcqntwbbZ0par55p78r8",
"9+kxupc=&x&cvbax00vVmzZvnk00r0trct59r9a96na84p7Bp7",
"tlx6nxx0kkxk6bbmcwPccKcckrwc&60$tHnpwbirryrx7rb856",
"vrxr$=0mnr8kjppmc5$HcllxvnKvxr050k5698nHt4.78xB5w4",
"0c06xbcBxcb6567xbHZqck00rN65rcm0tc5eqwracp9wr7BM67",
"Umm&clccrbNO66rbJtnr0vxvvMx=mB09xt0enZcpPp9astnrnn",
"Bmmrxv0kjkbvx66xvrN9qmvcx#b6xaPl0cZHae9ra$r87ppipp",
"mUmvm6Kktv0xh48kc0ctnYrxkbne6cZP5prPdercc0rtrnrbaw",
"c0vU0tv8crbH0r00669cmnccmrl9trterwwq0e0a08srPbiMrM",
"rxxblrrvtcbm8B0vc6kcZl50t0rcnt4e09er6rHcBra9PtN(bx",
"09x0xcmcvcrnnttn0ckc0ntwnt69=brr9mnb0899brbemcnb7p",
"xnxkck0-&e5vxxmnZcnJ0x996krcw69epcirrx9pnpnm0Mr8rb",
"0v9x6n0009x6xmvxqqmHZ0rrcvbq0267cPap59r199bxpr68rM",
"vxk$@606xxxmxKSHdvbZcckr$ea6$+554dpw22585rrr4rsr7b",
"klkx6&&-6rjwkxztx6lkc0t69Hxq9r857rw991Mp7srw7y5cru",
"0k0r9@@x0$kcxcvrx00p0xc4$$rcq0b59n4w9rniprw7rnxwr8",
"-&&0Nx-rw-rcbn0xmxqtpcn9l9t9tr57ssrrMrna&8s15s64xb",
"xv9bPc&mmc*rnHxcctxHtr9rrrc5rrxwa5prMbraNw8sb6rr$8",
"cmrB6-$bl&4vnxtpcwtvtrHrpnrtHanr6pix2p7r6bx667cxxM",
"cHtr#$bxlrcHnnx7anrrt9rHaNb7xrnry9nbbbbw5r6x8bN(0x",
"krrr6>xvckxLmmcPU0vvwprtcpw9rnBy7pn8npir6a9rpnBnbP",
"9lbc$x0006sxnHPP(cr9rrbxnbrb8rep8rpprrrtwrrx8NdMbx",
"98xc6B0cnrHMBmKBenn7c9r4r088r8wpwxdnnatobsp97rspsr",
"xrBr0xbrvbBYP_Pcnx9577r08n8B7n#rNnPtBHrwe6in4yN97r",
"MMrcnb08bMBUBJavbtr5r0wbr06bM4758rnBrMneeabrxxxBrU",
"jrxmbrxxntcb9wr5$9c7pw6b6645$w$4$rN(Barr5ppp47rnMb",
"b8wxHr8pbnpw6969nc0wr85r7765.ra7rw8NNnnb4pb6668xb5",
"bbmxcrrbrsNa$w55wlkrbn8w87279028#5498ss87866#647r.",
"ujjbkxr8w0&wbr4$nOb8xr54p610681rr892w4575y60074506",
"6crrn9Bx05kx66w6tbbrbr557ur41465w5is9.9iM8c0w2O1=r"
};
