/* XPM */
static char *_2a40623bd1f42689c7de2a506aeb02020T37bTW7FlcX0Bv[] = {
/* columns rows colors chars-per-pixel */
"50 50 62 1 ",
"  c #7FAD37",
". c #8BB737",
"X c #85B23C",
"o c #8BB43E",
"O c #8EBA3D",
"+ c #91B53D",
"@ c #91BB3E",
"# c #93C23E",
"$ c #99C43F",
"% c #8CAE40",
"& c #86B440",
"* c #8CB544",
"= c #8EBA44",
"- c #8DB549",
"; c #8EBA4A",
": c #92B644",
"> c #93BB45",
", c #99BC45",
"< c #91B64A",
"1 c #94BC4B",
"2 c #9ABE4C",
"3 c #8EB850",
"4 c #94BD51",
"5 c #9ABE51",
"6 c #A0BE47",
"7 c #A0BF4B",
"8 c #A0BF52",
"9 c #A7BF58",
"0 c #8FC343",
"q c #95C145",
"w c #9BC445",
"e c #9EC946",
"r c #96C24B",
"t c #9BC34C",
"y c #9DC94D",
"u c #96C152",
"i c #9BC353",
"p c #9DC953",
"a c #96C35A",
"s c #9DC559",
"d c #9ECA5A",
"f c #A1C546",
"g c #A2CA47",
"h c #A1C54D",
"j c #A8C74F",
"k c #A2C94D",
"l c #A3C553",
"z c #AAC554",
"x c #A4CB53",
"c c #AACB54",
"v c #A2C65A",
"b c #ABC659",
"n c #A3CB5B",
"m c #ACC95A",
"M c #B0CD5C",
"N c #A9D050",
"B c #AED15A",
"V c #A5CB63",
"C c #ABCE64",
"Z c #B4C662",
"A c #A7D262",
"S c #AED465",
/* pixels */
"O0pyy0ddyyywkyyyg$eewqqwr2eft22uhi,hh2lljclmvlmzCZ",
"rreeyrpypyyyeepteegeyqyyqOrlsi2rp,,ttqpllczmCcclmm",
"dxxnd0ryxnxewyywegg$teyttiytvit2rtt2,thmmmczccjhbm",
"dnASBppyxyygepxepxktupqyeityhzt12svvhxillvbcmlzzbZ",
"upASd0yey0tNNetncewprtuehewdlit22hlihnlih7ztlvb9zZ",
"0rdpype0qqrkgktktqtdttrrwhqwhhh227lllhhi252,,vvb8z",
"#0ppppy0q#qyehteexyNp,t15w2llltlh9b82l,,,42>,2854<",
"000qyr0yyeqxBcyyyccNhyewr2,lt62878,7ljw><<11,,585,",
"yr0Anq==qegewjxkxccMchkkxtw,27785,:<:,>++:*5,,2172",
"yyypxyi@qee$kkkjxczzMccjx2,2i7257,:-<:o:,:<<<:<,22",
"e$0ilctqege$kNfzcmMmcccxh2>77,:22::,27:::,*o:,>+77",
"eqqrpxlwwgkgkxjkxMcxkkblfww26,::::::+<:>:>&o**+:::",
"qqqqqixyetetknxNccjfhcbeqitq6:::**::+*o+1o*o1;**::",
"yq,qudpywrqqypxckkjftzclyt2,,::+*<<:::>>=X&X=1<=o=",
"trqqpxrtq>qqthkxxtxehihheq,12,,,><<<:+::*&;>1>;;<2",
"r=udyrr=rqttlfhkjhkhnchqyq,q22221,<%%:::<:>54--3,1",
"rrpi@===0=rqw7jlchhfhxhtfptw2l2,+oo:*::1,<<233---1",
"r1>O X==rq>,wt7jwhhtyyhhw,hw2u2t,::,++*;11,<--344u",
"=*OooX=>=urq,1rtetfeqtwt2tt,,it2rh2><4>,,122*144>;",
"====o=qO=>r>>rr,hxwwqtt22rr1>=2ll2i12ii21255=-44;1",
"u=;r.=rO=1r21r>=thtyfhtpr>>>>>12hl2::111>*4s1**-*u",
"r4u>=0tq0rruiur1vftkkxtrw>qq;1r=15i12-24,*=;2-*;-3",
":1w>rrq;0;;rixu,ripyyrr1urq>=&>o1ui14;;251*--;==r3",
"=>=,irrrq;035tr5>2t2q,rw5irqu1,>,r;o1*;2s52-X;*;au",
",2rupuiu;=;;ruivi2,rqqrtu1:,upy,2r>:2,22154,><<-uu",
",>rqtrud=o=02uil22,tttppur,1ud,,ri,<2ll815s>,451u2",
"r1rqq=rirr;O1rtt221pyty,=r,>iiit,2lh85,2151=--41u<",
"irtqqrrrr0=-==rqrr2lxrr1;ii*12hi1,25s5<<55:*111a44",
"rqyr>1rtw>;;q1>>>1rpywtp4w1>1128<<,<22,:221;55245a",
"q>rirrrii1ur>>r=>wtyrqur12w1t2,:>>:<,>>ii,;u<,si44",
">>rttqwupr4rqrr,1wht1115>>:,251>,1iu2**5,iuu42prsv",
"urttr2>>uiiiitrrwth25225r=1<,41,1r52u;>1<5a14,tiii",
"qqqq>+O*qrrppttttl2,2>>;rwi21*:<2241111:1144p21r1;",
"=rr>>=;>r=ipw2,>rh71>11wrtr>=%&*1i552**<<-*1242;*-",
"@>>qqrrrprpxtz5llttt1r1=>22>+O=;<4i4%o*-11*1;-=114",
"O..>=q1rrqtwtrr,tttt>2=;1r1,>:**-<2<<*-<3--4***-;u",
"1@.=q@=q1qutprr>r>r1r2oo>*rt2>;**<<--:-53-41;4<424",
"u2O>r,=>ruryttu=12rip2*=:1252>1**14<<41552433-4iu;",
"sl>@irw1rrrt,ryr,52121121i>,2<<-35114a4i211=3--31*",
"2r>qtw,O=iit1wt11ix21:2<2i<1r5224<4514451uar44;=1r",
">===rw==rnw<51i12ln,1524ui14ii41--4u;1442-141=;;4u",
"OO=rpr,rplii41ii21rq14i2ai12ruir3-1145a44->113rusv",
"O=ruprrrrtii1lvwwu1412uti11:1ss3-3ui4u1;;11:2i1und",
"@qqwq#142iilxvni211112rui441;21--24u411,*141;;;uia",
"O;1>rtriasdlnils1>1212>111;;;1;4;;52442<:541;=-444",
"1rirrpvnvnnVvt12r141*;==141;1u&32ui4u52r::544u*-ur",
"14r=1ruivnVbtrii1*-*211>u3u33u-*iadvs5s5<:<1;1-;au",
"iur>uaiadii812i11-1;;;4r==1;3-%o;;idsus5<:5au412;r",
"rur1uiuir,-<1>><2*11-;4=;&-&**:1**4sVva51<1a5-&;1u",
"vi44au414**>=1iw>>-1**1;--&%&-4<;1&is5i451;44=,=3u"
};
