/* XPM */
static char *Minotaur_02_Attacking_0001671115857[] = {
/* columns rows colors chars-per-pixel */
"50 50 176 2 ",
"   c None",
".  c #161413",
"X  c #191615",
"o  c #1C1917",
"O  c #1D1C1B",
"+  c #201B17",
"@  c #211D1B",
"#  c #291F1B",
"$  c #25201E",
"%  c #2B221D",
"&  c #32251E",
"*  c #34281D",
"=  c #1F1F20",
"-  c #232323",
";  c #2B2623",
":  c #2D2926",
">  c #262728",
",  c #27292B",
"<  c #2B2B2B",
"1  c #322721",
"2  c #332A23",
"3  c #3B2C24",
"4  c #332E2B",
"5  c #3D3025",
"6  c #35312B",
"7  c #3B342D",
"8  c #2C2F31",
"9  c #2E3234",
"0  c #333434",
"q  c #3A3633",
"w  c #3E3933",
"e  c #33363A",
"r  c #35393D",
"t  c #383A3B",
"y  c #402E25",
"u  c #423126",
"i  c #483623",
"p  c #4E3A26",
"a  c #45342A",
"s  c #493329",
"d  c #4A3A2E",
"f  c #543D27",
"g  c #51392D",
"h  c #423D34",
"j  c #4F3E31",
"k  c #433F3C",
"l  c #573D30",
"z  c #45423C",
"x  c #4A453D",
"c  c #574436",
"v  c #664A2D",
"b  c #6B4A3A",
"n  c #6F5031",
"m  c #6E563E",
"M  c #735230",
"N  c #7E5934",
"B  c #373D41",
"V  c #393F43",
"C  c #3C4245",
"Z  c #3D444A",
"A  c #3E484E",
"S  c #414345",
"D  c #4A4441",
"F  c #43494D",
"G  c #494A49",
"H  c #554D47",
"J  c #5A564F",
"K  c #434C52",
"L  c #4A4E52",
"P  c #455056",
"I  c #4C5254",
"U  c #475159",
"Y  c #4A555D",
"T  c #5D5A54",
"R  c #525558",
"E  c #53595D",
"W  c #575657",
"Q  c #64554C",
"!  c #705A4F",
"~  c #615B56",
"^  c #655D59",
"/  c #63615A",
"(  c #6A625E",
")  c #766154",
"_  c #4E5A62",
"`  c #515D66",
"'  c #535F68",
"]  c #4E6167",
"[  c #586066",
"{  c #54636C",
"}  c #5B656C",
"|  c #55686E",
" . c #586772",
".. c #5B6A75",
"X. c #5E6F7A",
"o. c #576772",
"O. c #5E727C",
"+. c #6D6663",
"@. c #6E6D65",
"#. c #746B66",
"$. c #73726A",
"%. c #79776E",
"&. c #626B72",
"*. c #656F76",
"=. c #61727D",
"-. c #6B757B",
";. c #6B7176",
":. c #707478",
">. c #855E36",
",. c #8B643A",
"<. c #94693C",
"1. c #9C6F3F",
"2. c #8F6B46",
"3. c #976D41",
"4. c #A47441",
"5. c #AC7A45",
"6. c #B57F47",
"7. c #8A7568",
"8. c #947D6F",
"9. c #897E79",
"0. c #B58048",
"q. c #BA844B",
"w. c #A8835C",
"e. c #BC8C5A",
"r. c #85847C",
"t. c #8A887E",
"y. c #637582",
"u. c #667985",
"i. c #687A86",
"p. c #6A7D8A",
"a. c #6C838E",
"s. c #7D858C",
"d. c #7B8084",
"f. c #6E8490",
"g. c #6E8A93",
"h. c #718694",
"j. c #748995",
"k. c #758B9A",
"l. c #798F9E",
"z. c #7E8D97",
"x. c #75939C",
"c. c #79959E",
"v. c #7C93A3",
"b. c #7C99A1",
"n. c #918681",
"m. c #948A85",
"M. c #929187",
"N. c #848D94",
"B. c #87949E",
"V. c #92989E",
"C. c #A1948F",
"Z. c #AB9E98",
"A. c #AFA19B",
"S. c #A7A69D",
"D. c #8097A8",
"F. c #839BAC",
"G. c #909AA2",
"H. c #96A0A9",
"J. c #9BA5AE",
"K. c #8DA4B4",
"L. c #91A6B6",
"P. c #BAACA6",
"I. c #B7ABA6",
"U. c #B3B2A5",
"Y. c #A2ADB6",
"T. c #A6B1B9",
"R. c #A9B2BB",
"E. c #C6A794",
"W. c #D1B19C",
"Q. c #C3B4AE",
"!. c #C6B7B0",
"~. c #CBBCB5",
"^. c #CFBFB8",
"/. c #D1C1BB",
"(. c #FED7BE",
"). c #FFD9C0",
/* pixels */
"                                                                                                    ",
"                                                                                                    ",
"                                                                                                    ",
"                                                                                                    ",
"                    X X                                                                             ",
"                  X @ X                                                                             ",
"                  0 R X               . .   X .                 X                                   ",
"                o ;.;..           o f n n p o u 2 . o           @ 4 o                               ",
"                e H.:.X           + M 4.q.0.,.4.2.$ .           @ n.D                               ",
"              o } Y.p.o         X X p n ,.1.q.0.q.m c @         < I.m.@                             ",
"              ; N.R.V.% @ ,   . X & o - ; i >.5.q.e.w.%       . +.^.I.q                             ",
"              t G.R.R.T < , O : - % 3 , _ F & >.6.q.3.- o X ; +.~./.Q.D                             ",
"            . S G.R.Y.I G q m.I.+.O ; 3 : { K y 4.q.v K &.; m./././.P.D                             ",
"            . Z N.J.V.8 8 H ^.^.#.t _ % 3 ; F , M 5.3 y.L.` ~ ~./.~.C.4                             ",
"              $ R s.E : , 9./.!.~ F j.K < 3 1 o p 1.4 j.F.B.e Z.~.Z.( O                             ",
"                o t < V q Z.!.A.k K a.F.p.0 2 3 % f r v.D.K.I ^ n.J $                               ",
"                  . > = 0 +.#.~ 8 h.D.D.F.k.V 1 y + K D.F.K.y.; : o                                 ",
"                  O e B = X , B ' p.V Z _ y.p.K ; y 1 U p.=.S X                                     ",
"                  = { l.i.B B k.F._ V  .K B 9 9 = @ & O 8 B ` Z .                                   ",
"                  . A p.k.p.V p.F.Z V p.v.v.l.i.8 K , U h.D.p.F .                                   ",
"                    - _ y.u.y.p.F.*.$ h e K &.p.e i.V ' =.V > X                                     ",
"                      - B o.y.y.v.h.t E.E.7.H < 9 l.' = % y s X                                     ",
"                      . > o.y.Y X.v.V 8.(.).W.q Y k.p., y Q s X                                     ",
"                        = _ y.{ { p.y.0 Q ! w o , 4 4 @ + 1 + X                                     ",
"                        . - _ U 8 o.v.j.{ _ { - q H J 4 ` ' -                                       ",
"                      O , = = A _ y.l.F.F.F.b.{ 9 ; > B k._ X                                       ",
"                    = U u.y.B X , K ..f.v.F.F.F.k.} } k.y.-                       o ; - o           ",
"                  X 8 _ v.K.' . 9 B , B Y { -.j.v.v.h.` -                         z S.r.6 : . .     ",
"                  = A p.F.D.L # e k.p.Y B > O 2 q 0 6 $ X                       . $.U./ x z + % o   ",
"                  9 o.l.F.k., 2 ; =.F.F.D.=.- c N <.<.i .                       O J T 6 h $.6 $ X   ",
"                o _ p.D.F. ., 1 3 Z D.F.F.k._ - * v 3 o .                       6 w w h z h w :     ",
"                - o.k.F.F.F _ Z 3 < j.F.D.h.v.P o o 9 r o .                   . $ O 7 / t.%.J :     ",
"              o # < A ..y.0 X...* 1 | F.D.b.F._ 3 1 ..L @ 4 .             . @ 5 a 6 z M.U.r./ :     ",
"              - g s a 3 4 = _ i.< 3 B D.F.F.D.V 3 0 N.4 l ! @           @ 3 d 3 O : x t.@.T z @     ",
"              X % s b b ) 4 V y.r % : j.F.F.k.4 & L &.1 l 4 - X     @ 3 j 5 @ .     - ~ H : X       ",
"            X C ` B < 1 1 - ` y.Y % % ] l.l.X.- % ' Z @ 8 ..f.V o 3 j 7 @ .           O X           ",
"            8 p.F.v.k.f._ = 9 B e + @ = 9 9 > O + 4 - O u.F.F.` % a $ X                             ",
"          . C k.F.F.F.F.h.> # % * 5 * $ E ;.I % y y 3 @ O.k.h.u.- .                                 ",
"          . K p.v.F.F.F._ > 9 4 < < : @ 0 C 0 $ 0 V 0 , X.y.y.X.-                                   ",
"          . C y.u.v.v.v.r _ f.f.g.a.a.| _ ] ] O.j.x.I 8 X.y.o.8 .                                   ",
"            > Z P U P B - ] O...g.g.g.x.x.x.c.c.c.j., - .._ < .                                     ",
"              . X . . . - r e 8 A ] A | a.u.F F } C C > 9 =                                         ",
"                      = C - 9 A = O o o 8 > > 9 @ < { > .                                           ",
"                      o - : < , < $       X $ - ; : 4 -                                             ",
"                      @ w x x 7 x w .     O 6 7 z 7 z z .                                           ",
"                      o o o O X o O X     o O O o o X O o                                           ",
"                                                                                                    ",
"                                                                                                    ",
"                                                                                                    ",
"                                                                                                    "
};
