/* XPM */
static char *Minotaur_02_Attacking_0011671115858[] = {
/* columns rows colors chars-per-pixel */
"50 50 176 2 ",
"   c None",
".  c #161413",
"X  c #191615",
"o  c #1B1917",
"O  c #1D1B1A",
"+  c #201B17",
"@  c #221E1B",
"#  c #291F1A",
"$  c #23211E",
"%  c #2B221D",
"&  c #30241D",
"*  c #33281D",
"=  c #1F1F20",
"-  c #242323",
";  c #2B2623",
":  c #2D2825",
">  c #252729",
",  c #27292B",
"<  c #2B2B2B",
"1  c #322721",
"2  c #342923",
"3  c #3C2C24",
"4  c #332E2A",
"5  c #3C3024",
"6  c #35322E",
"7  c #39332D",
"8  c #2C2E30",
"9  c #2E3234",
"0  c #323435",
"q  c #3A3634",
"w  c #3D3A35",
"e  c #33363A",
"r  c #35393C",
"t  c #3C3C3B",
"y  c #402F27",
"u  c #453423",
"i  c #44362B",
"p  c #4B3A2D",
"a  c #4B392A",
"s  c #533C2B",
"d  c #553E27",
"f  c #433C34",
"g  c #403D39",
"h  c #4E3E36",
"j  c #593E31",
"k  c #573D30",
"l  c #5A4229",
"z  c #594027",
"x  c #45413C",
"c  c #4A433C",
"v  c #444037",
"b  c #514131",
"n  c #6B4E2E",
"m  c #6F4D3C",
"M  c #704E3C",
"N  c #7B5935",
"B  c #755635",
"V  c #363C41",
"C  c #393E43",
"Z  c #3B4145",
"A  c #3D454B",
"S  c #3E4A4E",
"D  c #414547",
"F  c #494341",
"G  c #4D4942",
"H  c #444A4E",
"J  c #44484C",
"K  c #514C47",
"L  c #534D48",
"P  c #584C45",
"I  c #55524D",
"U  c #434D54",
"Y  c #455156",
"T  c #4A545C",
"R  c #4A5054",
"E  c #5B5A54",
"W  c #51565B",
"Q  c #6E5143",
"!  c #675F5C",
"~  c #765D50",
"^  c #63625A",
"/  c #6B625E",
"(  c #7C695C",
")  c #4E5A63",
"_  c #515D66",
"`  c #555E65",
"'  c #4F6065",
"]  c #55636C",
"[  c #596166",
"{  c #586771",
"}  c #5A6A75",
"|  c #5E6E7A",
" . c #576971",
".. c #5E747C",
"X. c #5F787F",
"o. c #646B6F",
"O. c #6F6966",
"+. c #776E6A",
"@. c #716864",
"#. c #75736C",
"$. c #7B726E",
"%. c #656D74",
"&. c #6A6F74",
"*. c #61727E",
"=. c #697075",
"-. c #787C79",
";. c #835D36",
":. c #876037",
">. c #8B643A",
",. c #966A3D",
"<. c #9A6D3E",
"1. c #836241",
"2. c #A67542",
"3. c #AE7A45",
"4. c #B07C46",
"5. c #806D60",
"6. c #897E7A",
"7. c #B68148",
"8. c #B9834B",
"9. c #B78551",
"0. c #86857B",
"q. c #B78F64",
"w. c #637582",
"e. c #667A85",
"r. c #6B7984",
"t. c #6A7D8A",
"y. c #6B828D",
"u. c #74858E",
"i. c #78878D",
"p. c #6E8391",
"a. c #6D8891",
"s. c #718594",
"d. c #748997",
"f. c #758C9A",
"g. c #798F9E",
"h. c #75939C",
"j. c #7A919E",
"k. c #799097",
"l. c #7C93A3",
"z. c #8D8C82",
"x. c #938A85",
"c. c #9B8F89",
"v. c #959489",
"b. c #9A948C",
"n. c #838B92",
"m. c #8A939A",
"M. c #90989E",
"N. c #AD9281",
"B. c #A49B95",
"V. c #AB9D97",
"C. c #AEA19C",
"Z. c #A1A097",
"A. c #8097A8",
"S. c #839BAC",
"D. c #8B9EAC",
"F. c #959FA8",
"G. c #869FB0",
"H. c #98A2AA",
"J. c #8DA3B3",
"K. c #9EA9B2",
"L. c #BAABA5",
"P. c #B0AFA2",
"I. c #A2ABB3",
"U. c #A4AFB9",
"Y. c #ABB5BD",
"T. c #C8A996",
"R. c #C1B2AC",
"E. c #CABBB4",
"W. c #CFBFB8",
"Q. c #C5B8B2",
"!. c #E1BEA8",
"~. c #CFC1BA",
"^. c #D1C1BA",
"/. c #E6C3AC",
"(. c #F8D2B9",
"). c #D7C7C0",
/* pixels */
"                                                                                                    ",
"                                                                                                    ",
"                                                                                                    ",
"                                                                                                    ",
"                                                                                                    ",
"                . X                       .                 X O                                     ",
"              O 0 X             X + # O . @ $   X           O ! q                                   ",
"              C %.o           o d >.<.>.z B >.$ . X         X x.b.-                                 ",
"            o &.i.O           X z ,.4.4.7.8.8.Q f &         ; C.E.P                                 ",
"            < m.M.;         X X * d z B ,.7.8.9.q.b .     X O.~.^.$.X                               ",
"          . D H.I.q   -     . # % O e 6 * N 3.7.8.s = . : $.E.~.W.6.@                               ",
"          o ` K.Y.&.@ 8 X X < @ 2 2 e { T * ;.7.2.7 r.R F Q.^.~.Q.$.O                               ",
"          O %.I.Y.H.t J g x.V.q - 1 3 : T S 3 2.>.q A.D.A +.W.E.C.I X                               ",
"          O &.I.U.n.< 0 +.).R.F _ U # 2 1 , O N ;.V A.G.s.w V.V.@.-                   o O           ",
"          O W n.F.[ : < c.^.L.g _ s.] r 1 3 # u d J S.S.D.U L L @             . X 4 $ @ : X         ",
"            @ J &.e e w L.E.V.q T f.G.g.T ; 3 2 o T S.S.J.%.X .             . I #.f E E $ :         ",
"              X - - 9 F 6.6./ 9 d.g.g.l.A.w.r 1 y : U w._ e =               ; Z.Z.v x G c x $       ",
"                X < = O = , e  .s.e 0 r C U U - @ 2 + , D w.] O             + -.v.7 v c #.#.v X     ",
"                X D w.) , 9 t.l.{ r t.w.} ` T 8 r 8 C s.l.*.V X               6 K v w b.P.^ x X     ",
"                . H s.l.s.C  .G.] 8 ) | p.g.S.T ) ` A w.C ; o                 - w ; x v.0.E <       ",
"                  > _ e.t.w.e.l.f.9 h P g e Z , } t., @ 3 k % X               @ $ % v ^ 0.K O       ",
"                    , U ] w.w.s.S.U 5.(./.T.( , t.g.) @ j j o X                 * 5 : 4 g -         ",
"                    . X C w.} U f.e.q N.!.T.h = r e < O < ; X                 o p $                 ",
"                      X V w.w.) } s.} e g r 8 $ c P L , e.R X                 1 5 X                 ",
"                        X C } C V e.S.l.s.g.t.0 ; 4 ; T f.9                 X p ;                   ",
"                      o = o 8 U _ w.d.l.S.S.S.g.*.T ] g.T X                 ; p X                   ",
"                    = U }  ., X , C _ w.s.d.l.S.S.A.s.R - =               X i 1                     ",
"                  . 8 _ l.G.) . 8 U 9 8 9 , 0 C C e 4 % e w.A - . X       % p O                     ",
"                  = S w.S.S.U & < t.l.t.| T O u n ;.,.d 8 l.l.A f 7 . . . i 4                       ",
"                  9 _ l.S.f., ; 2 T S.G.G.l.Y ; u n u + - t.s.< Q h 9 _ e & +                       ",
"                o T t.A.G.] V 8 y 8 d.S.S.g.p._ O + 8 T , { S 3 m : w.G.y.C o                       ",
"                > } d.G.S.D ` ` 1 2 ` G.S.f.l.d.: 3 V %.8 H - j s e l.l.d.t.8                       ",
"              X @ e _ t.t.e %.f.4 3 e l.S.A.S.t.2 2 ] &.X O u s ; } G.p.w.} ,                       ",
"              ; a 3 2 ; 0 = ) s.U 2 ; *.S.S.S.} ; 1 r.D . X ; # 0 e.p.w.w.] >                       ",
"              O 3 s m Q ~ 4 V } ] $ & S S.S.G.) % 4 r.;     . . 8 | w.w.w.) O                       ",
"            . 9 A < 1 2 4 > T w...e & : | *.%.9 # - J O         X V _ | w.e .                       ",
"            , t.S.f.e.| A - V V V < O O = 9 r $ # 1 3 * o         X = 8 8 O                         ",
"          . C g.S.S.G.G.t.> # & * * 5 * < o.-.t % 1 : $ X           X .                             ",
"          X U p.l.S.S.S.` = < < , < 6 8 - 8 0 , S  .e.Z                                             ",
"          . S w.t.l.G.l.V H e.t.y.a.a.a.X.X.*.y.f.h.k.8 .                                           ",
"            8 T _ {  .U = U w.w...a.y.y.h.h.h.a.u.j.[ - O                                           ",
"              O O O X . X - Z Z < S ' A S X.' 9 8 e e { -                                           ",
"                        = 9 X > Z = O . X - O V Y Y ' { -                                           ",
"                        O ; > , < < @       X - ; : : < -                                           ",
"                        $ w c c 6 G q .     @ 7 7 v 7 c w X                                         ",
"                        X O O O X O o X     X O O O X O O X                                         ",
"                                                                                                    ",
"                                                                                                    ",
"                                                                                                    ",
"                                                                                                    "
};
