/* XPM */
static char *Minotaur_02_Attacking_0101671115859[] = {
/* columns rows colors chars-per-pixel */
"50 50 177 2 ",
"   c None",
".  c #161414",
"X  c #181615",
"o  c #1C1917",
"O  c #1D1B1A",
"+  c #221E1B",
"@  c #251D17",
"#  c #25211E",
"$  c #2B221D",
"%  c #33251E",
"&  c #362B1F",
"*  c #242323",
"=  c #2B2622",
"-  c #2C2926",
";  c #262729",
":  c #27292B",
">  c #2B2B2B",
",  c #332721",
"<  c #342922",
"1  c #3B2C24",
"2  c #332E2B",
"3  c #3D3127",
"4  c #35322D",
"5  c #3B342D",
"6  c #2B2E31",
"7  c #2E3134",
"8  c #333334",
"9  c #3C3633",
"0  c #323639",
"q  c #343A3D",
"w  c #3B3B3C",
"e  c #402E25",
"r  c #433323",
"t  c #45342A",
"y  c #4C362B",
"u  c #4B392E",
"i  c #4A3724",
"p  c #513B26",
"a  c #423D34",
"s  c #433E3B",
"d  c #4C3F39",
"f  c #594129",
"g  c #45413B",
"h  c #4B443C",
"j  c #5B4937",
"k  c #654A2D",
"l  c #6D4E2E",
"z  c #70502F",
"x  c #6E4C3B",
"c  c #644536",
"v  c #363D41",
"b  c #393F43",
"n  c #374042",
"m  c #3A4245",
"M  c #3E464C",
"N  c #414446",
"B  c #4D4644",
"V  c #4D4A44",
"C  c #464748",
"Z  c #494B4D",
"A  c #41494F",
"S  c #514C46",
"D  c #524E49",
"F  c #5B4D45",
"G  c #59554E",
"H  c #434C52",
"J  c #445056",
"K  c #4D5256",
"L  c #475158",
"P  c #49545C",
"I  c #5D5B54",
"U  c #51575B",
"Y  c #55585B",
"T  c #5E5653",
"R  c #67584E",
"E  c #67554B",
"W  c #705446",
"Q  c #605A57",
"!  c #665E5B",
"~  c #64635C",
"^  c #78665B",
"/  c #4B5760",
"(  c #4D5A63",
")  c #525D66",
"_  c #525F68",
"`  c #4F6065",
"'  c #54636C",
"]  c #5C656A",
"[  c #576671",
"{  c #586771",
"}  c #576C72",
"|  c #5A6974",
" . c #5E6E7A",
".. c #5E717C",
"X. c #63696E",
"o. c #6A6662",
"O. c #706F67",
"+. c #766C68",
"@. c #7A746E",
"#. c #606F7B",
"$. c #61717D",
"%. c #6E757A",
"&. c #7F7570",
"*. c #7C7A73",
"=. c #70777D",
"-. c #74797E",
";. c #815C35",
":. c #845F38",
">. c #8D643A",
",. c #91673B",
"<. c #976B3D",
"1. c #966F47",
"2. c #9D6F40",
"3. c #9F7040",
"4. c #997856",
"5. c #AB7944",
"6. c #A57542",
"7. c #B27E47",
"8. c #897E7A",
"9. c #B4814B",
"0. c #BA844B",
"q. c #B58047",
"w. c #818077",
"e. c #8A827E",
"r. c #A98F7F",
"t. c #C08F5B",
"y. c #647582",
"u. c #657A85",
"i. c #6A7A85",
"p. c #6A7D8B",
"a. c #677A88",
"s. c #6C838E",
"d. c #76838C",
"f. c #6F8291",
"g. c #6E8A92",
"h. c #728695",
"j. c #738A96",
"k. c #768B9A",
"l. c #798E9D",
"z. c #74919A",
"x. c #7A929C",
"c. c #7D94A4",
"v. c #7F97A8",
"b. c #9A8E89",
"n. c #948883",
"m. c #97968B",
"M. c #99988D",
"N. c #858E95",
"B. c #879198",
"V. c #A1948F",
"C. c #AA9C96",
"Z. c #A79D99",
"A. c #A4A397",
"S. c #B2A49E",
"D. c #839AA5",
"F. c #8097A8",
"G. c #839BAC",
"H. c #8A9EAD",
"J. c #939CA4",
"K. c #99A4AC",
"L. c #8FA4B2",
"P. c #9DA8B0",
"I. c #A1A8AF",
"U. c #B8AAA4",
"Y. c #BAAEA9",
"T. c #B9B8AC",
"R. c #A3ADB5",
"E. c #A4AFB8",
"W. c #A7B1BA",
"Q. c #C4B5AE",
"!. c #C6B6B0",
"~. c #CFBFB8",
"^. c #CCBDB6",
"/. c #E0BEA8",
"(. c #D2C2BB",
"). c #EEC9B2",
"_. c #FFD7BE",
/* pixels */
"                                                                                                    ",
"                                                                                                    ",
"                                                                                                    ",
"                              O o                                                                   ",
"                            * Y ;                                                                   ",
"                          * =.-.O                                                                   ",
"                        + X.R.Y                                                                     ",
"                      o K K.R.b           X + # o                                                   ",
"                      8 N.E.I.2           . r >.:.p O . .                                           ",
"                    o ) I.W.E.N + :     X . i ,.q.q.k & r X                                         ",
"                    * -.P.E.J.w C O . . o = @ i :.5.7.5.1.# X                                       ",
"                    O Y B.J.Z 7 w o.e.! + 1 + 6 , z 5.0.9.t o X         X X                         ",
"                      ; X.Z ; > B !.(.b.* + 1 v ( , z 7.9.9.V X         * s X                       ",
"                      X * > w 9 S.(.!.! b H , , ' Z p 5.0.0.h .         s V.-                       ",
"                      X + ; * &.U.Y.b.8 } $.+ 1 > P < 6.0.,.= o       ; b.!.s                       ",
"                      O M m O 4 T 8.B b  .c.' - 1 > $ <.6.3 ' H + s Q Z.(.!.g                       ",
"                      ;  .c.L O 6 7 w h.F.G.F.A , = @ 2.k M G.d.w Y.(.(.~.U.9                       ",
"                      O _ h.l.v L k.l.| A y.G.k.7 1 @ k 2 i.H.G.w C.(.(.~.e.*                       ",
"                      O M y.a.[ ( G.p.6 H 8 A p.#.- 1 + P F.G.H.N n.~.Q.C.D X                       ",
"                        O M y.y.h.G.) 8 h.h.K 7 Z 0 , , P G.G.L.N +.V.8.F O                         ",
"                        X v  .y.p.G. .* 8 | F.p.H * O 1 * | k.N.0 2 4 * X                           ",
"                        X H y.[ P v._ R V.s A h.k.6 H * ; : 0 7 O .                                 ",
"                        . :  .[ _ k._ R _./.^ w v m p.7 p.k.h.h.M                                   ",
"                      . + + M H 0 y.a.8 r.)./.j 6 p.u.> ) ( P H :                                   ",
"                  O 6 6 * + O L / p.G. .0 g 9 O A f.f.: # % % X                                     ",
"                O 6 [ p.( O X ; / y.c.G.l.a.m # 9 > 0 + t x y X                                     ",
"              O v L k.G.c.6 O A 6 H p.F.G.G.{ * g G s * - < + X                                     ",
"            X M [ h.G.G.i.* , ( y.6 q #.x.G.G.{ ; < - ) y.: .                                       ",
"          X b y.h.G.G.h.8 + e v G.h.H ; 0 y.v.G.p.) a.k.H O                                         ",
"        O + b y.G.G.k.0 H M 1 - h.G.F. .O $ v ' a.p.| 0 X                                           ",
"      X , y + v p.G.P 0 h.| , , | G.G.v.q p l p 3 - X O X                               X           ",
"      O + t c t ; M * H k.f.- 1 H G.G.F./ + f 2.,.r o M >                           X g *.V o       ",
"    : ' [ ; t x W 5 . v p.l.v 1 0 c.G.c.s.J * % @ 0 w [ A .                         - m.T.~ 5 $     ",
"  * [ F.G.p.b , d 2 v [ y.a.A , - h.G.D.G.s.- @ 7 ] 6 8 < d O                     O 4 w.I a S 2 + o ",
"X b p.G.G.G.v. .* 0 / [ P  .H $ $ $.G.G.G.) , < i.) O 1 W E +                     - 9 a 9 5 ~ V $ + ",
"X P y.k.G.G.G.c.6 0 b ( [ y._ = $ ( G.H.F.w , 8 i.- y x u * +                 o + $ + 4 g h g 9 + o ",
"X m | f.G.G.v.P # $ $ = : 6 v O + : P ` U # $ K Y % e , 0 y.y.0 X     o + = 3 t g 3 5 h M.A.*.h 2   ",
"  X : M | f.) o X # $ = % % % 1 & + n m 6 X # = + @ 6 _ c.G.G.$.O , 3 u u t < # X O 9 ~ M.M.O.I O   ",
"      X O * O   X n M J m 7 > - $ + U %.Z $ 3 3 1 + ( p.c.h.c.[ $ t 2 $ O o         + ~ @.G D 4 X   ",
"                  6 } s.g.f.p.y.} n 8 7 : q m M > ; | y.y.y.p. .o X                   ; 4 ; O       ",
"                  o m } } ..g.g.z.j.g.s.s.g.z.z.q * | y.y.y.| q o                                   ",
"                  : : > 6 6 ` ` } g.z.j.g.z.B.} o X M  .' M ; X                                     ",
"                X 0 H b P 0 O ; O b ` q = n K ; ; X O 6 * .                                         ",
"                X # > > > > ; .     X O # # # = > X                                                 ",
"                X 2 g h g 5 S +     X - 5 a g 4 D *                                                 ",
"                . o + + X X + X       o O o o X O o                                                 ",
"                                                                                                    ",
"                                                                                                    ",
"                                                                                                    ",
"                                                                                                    "
};
