/* XPM */
static char *Minotaur_02_Attacking_011__2_1671115859[] = {
/* columns rows colors chars-per-pixel */
"50 50 180 2 ",
"   c None",
".  c #161413",
"X  c #191615",
"o  c #1B1917",
"O  c #1C1B1A",
"+  c #221E1B",
"@  c #211A17",
"#  c #24211E",
"$  c #2C231D",
"%  c #31241D",
"&  c #372A1E",
"*  c #3A2C1F",
"=  c #1F1F20",
"-  c #1F2021",
";  c #232323",
":  c #2B2623",
">  c #2D2926",
",  c #252728",
"<  c #26282A",
"1  c #2B2B2C",
"2  c #322721",
"3  c #342922",
"4  c #3A2B23",
"5  c #312E2C",
"6  c #3B3027",
"7  c #35312C",
"8  c #3A332D",
"9  c #3D382F",
"0  c #2C2F31",
"q  c #2E3234",
"w  c #323334",
"e  c #3A3633",
"r  c #3D3934",
"t  c #323639",
"y  c #343A3D",
"u  c #3B3B3C",
"i  c #402F26",
"p  c #423324",
"a  c #44352B",
"s  c #4C3B2F",
"d  c #4A3728",
"f  c #543C2D",
"g  c #533D26",
"h  c #423D35",
"j  c #423D3B",
"k  c #423630",
"l  c #573D30",
"z  c #574029",
"x  c #5D442C",
"c  c #49443C",
"v  c #42413C",
"b  c #5B4236",
"n  c #6A4C2E",
"m  c #64482B",
"M  c #70502F",
"N  c #724E3D",
"B  c #6E5031",
"V  c #705130",
"C  c #363D41",
"Z  c #393E42",
"A  c #3A4145",
"S  c #3D454A",
"D  c #3F4A4F",
"F  c #414445",
"G  c #4C4642",
"H  c #4E4944",
"J  c #434748",
"K  c #44494B",
"L  c #4C4C4B",
"P  c #504C47",
"I  c #524E4A",
"U  c #584C44",
"Y  c #53514A",
"T  c #59554E",
"R  c #434C53",
"E  c #4B4E51",
"W  c #4E5153",
"Q  c #465159",
"!  c #4A555C",
"~  c #4A595D",
"^  c #5D5552",
"/  c #5D5B54",
"(  c #565B5E",
")  c #67554B",
"_  c #75594B",
"`  c #635D59",
"'  c #695C55",
"]  c #68605D",
"[  c #756459",
"{  c #4C5760",
"}  c #4E5A63",
"|  c #525E66",
" . c #535F68",
".. c #54636C",
"X. c #5C676C",
"o. c #576671",
"O. c #586772",
"+. c #566B72",
"@. c #5A6974",
"#. c #5D6D79",
"$. c #5C7177",
"%. c #5E707C",
"&. c #696765",
"*. c #726B68",
"=. c #78776E",
"-. c #77756F",
";. c #606F7A",
":. c #61727D",
">. c #6E757B",
",. c #67787D",
"<. c #7C7A72",
"1. c #8B6339",
"2. c #956A3C",
"3. c #9C6E3F",
"4. c #92673A",
"5. c #8B6946",
"6. c #AC7A45",
"7. c #A47646",
"8. c #B47F47",
"9. c #877C78",
"0. c #B68149",
"q. c #BB854C",
"w. c #B98855",
"e. c #838179",
"r. c #8E837E",
"t. c #AD8761",
"y. c #A28979",
"u. c #637582",
"i. c #667985",
"p. c #6A7D8B",
"a. c #687A87",
"s. c #737D84",
"d. c #668087",
"f. c #668088",
"g. c #6C828E",
"h. c #76838D",
"j. c #6E8390",
"k. c #6E8A93",
"l. c #718594",
"z. c #758897",
"x. c #758B99",
"c. c #798F9F",
"v. c #75929B",
"b. c #7A919C",
"n. c #7D94A4",
"m. c #8C8B81",
"M. c #9A8E89",
"N. c #918F86",
"B. c #98928A",
"V. c #B29785",
"C. c #A79A94",
"Z. c #A2A195",
"A. c #B2A49E",
"S. c #8097A7",
"D. c #8097A8",
"F. c #839BAC",
"G. c #8F99A1",
"H. c #919BA3",
"J. c #859EB0",
"K. c #889FB0",
"L. c #8BA0AE",
"P. c #98A2AB",
"I. c #89A1B1",
"U. c #9DA8B0",
"Y. c #BEAFA9",
"T. c #B7AAA5",
"R. c #B6B5A8",
"E. c #A3ADB6",
"W. c #AAB4BC",
"Q. c #A6B1B9",
"!. c #C8A995",
"~. c #D4B39E",
"^. c #C2B3AC",
"/. c #C7B8B2",
"(. c #CBBBB4",
"). c #C3B6B1",
"_. c #CFC0B9",
"`. c #D1C2BB",
"'. c #FFD8BF",
"]. c #F6D0B8",
/* pixels */
"                                                                                                    ",
"                                                                                                    ",
"                                                                                                    ",
"                          . .                                                                       ",
"                        o 1 o                                                                       ",
"                      . W ( .                                                                       ",
"                    . r H.W                                                                         ",
"                    ; s.E.F           . % z z 4 X X X                                               ",
"                  . E P.E.j           . 4 4.8.6.V * z O X                                           ",
"                  ; s.E.W.J . ,     X . % B 4.6.0.7.0.z . X         X + o                           ",
"                  u H.W.W.>.< 1 . . . 2 + + 3 m 3.0.q.5.8 #           I P .                         ",
"                . E G.E.E.K K e ` &.j + 4 : Q 5 z 3.0.w.t.6         o m.M.#                         ",
"                  w >.H.>.1 0 ^ (.(.&.# 2 3 y ;.1 n 8.q.7.# .     . I (.Y.7                         ",
"                  . u ;.w w 5 C.`.^.H ! R $ 3 A E p 6.0.m C q O j -./.(.Y.r                         ",
"                    o + w w [ /.(.M.5 ;.u.q 3 3 q : 2.2.5 z.s.e T.`.`.(.A.w                         ",
"                    . ; ; + ` r.M.^ C ;.n.z.y 3 % O 1.n R F.L.A r.`.`.(.r.+                         ",
"                    = Z Q 0 . , w 5 a.D.n.J.x.t 4 : d 4 ;.F.K.X.` (.^.C.L .                         ",
"                    X } c.p.t C :.p.p.C K ;.c.p.0 i + t n.F.J.s.j M.9.G O                           ",
"                    . Z a.x.p.q l.J.R J } t w ! { : 4 2 o.F.K.h.; 7 # .                             ",
"                      ; } u.p.@.c.n.t R x.c.i.R w = # 3 + R K t o                                   ",
"                      X = Q u.u.c.F.! : e Q j.F.a.0 R ; Z Q  .;.y                                   ",
"                        X Q u.o.o.D.! [ !.[ e R Q Z p.w c.c.p.@.q                                   ",
"                        . S u.#.} c.o.U ].'.~.) # u.l.1 u 0 , @ X                                   ",
"                        . # } } Z #.p.C ' V.y.h t p.x.Z + f l +                                     ",
"                      . X o , ! Z @.n.l.Q u w O 1 5 w , + f a o X                                   ",
"                  . < Q ! 0 . , ! %.c.F.F.F.l.< e I T : y t o .                                     ",
"                  ; Z p.n.p.; o < C @.x.n.J.F.i.w : 2 t z. .O                                       ",
"                O Z ..n.J.l., # o.D 1 S @.j.F.F.x.o. .c.u.;                                         ",
"              . t  .x.F.F.! + 3 Q n.i.S , ; R %.j.z.g.{ ;                             O o           ",
"              , o.p.F.J.i.1 : i w n.F.F.p., & p 6 7 2 . .                           ; =.e.5 $       ",
"            . 0 @.n.F.S.Z | { 3 : i.F.F.F.R * M 7.4.x . .                           Y R.r.c 7 X O   ",
"          o 3 : < | l.a.0 p.a.2 3 { F.F.n.i.q o d % : , q o                       O T <.v v &.5 % X ",
"          . 4 l f 4 1 1 t p.c.w 4 u n.F.n.n.p.; + ; K w t + X                     7 r v 9 9 T 7 + o ",
"        . , 0 2 l N _ k C u.p.S 4 : j.F.n.F.i.2 3  .,.O 4 ) 1                   X + # 7 c / c v >   ",
"        0 i.c.} w 2 k , Q { u.Q $ $ +.I.J.F.{ 2 3 s.F d _ l @             X + 4 s 6 6 H Z.R.r./ #   ",
"      O } n.F.F.c.i.w ; { o.u.o.: $ K n.F.n.y % Z u.$ f 4 q R ,     . O : a s 6 # O 9 ` r.e./ Y O   ",
"      , #.n.n.J.F.I...O , 0 q C - # - u S A O # u Z . 1 { z.J.u.+ $ a s s : @ .     O Y =.P v ;     ",
"      1 #.a.n.F.F.l.q O $ % % % 4 * # A ( J # & 3 3 + { F.F.n.p.; a 4 + .             # 5 # X       ",
"      ; Q O.p.n.n.! - S A y 5 0 1 > O Z ( W @ % 3 2 + Q l.p.a.j.0 .                                 ",
"        X ; q C y = , ..f.k.g.p.d.,.~ S Z y R $.#.! 1 #.u.u.u.O.,                                   ",
"                    o y +.$.+.k.k.k.v.v.v.v.v.v.b.S < #.u.%.! ;                                     ",
"                    O , q q < D ..} %.v.k.$.,.v.;., - Q { y O                                       ",
"                    ; D 0 A D O ; o ; S t o O 1 # A = o o                                           ",
"                    X : > 1 1 1 O     . X # # ; ; 7 ;                                               ",
"                    # v c c 7 H e       O 8 8 c 8 c r .                                             ",
"                    X O O O X O O       X O O O X O O X                                             ",
"                                                                                                    ",
"                                                                                                    ",
"                                                                                                    ",
"                                                                                                    "
};
