/* XPM */
static char *Minotaur_02_Attacking_0021671115858[] = {
/* columns rows colors chars-per-pixel */
"50 50 174 2 ",
"   c None",
".  c #161413",
"X  c #181615",
"o  c #1B1817",
"O  c #1D1B1A",
"+  c #201B17",
"@  c #221E1B",
"#  c #25201D",
"$  c #2D231D",
"%  c #31251E",
"&  c #372B1F",
"*  c #242323",
"=  c #2C2623",
"-  c #2D2926",
";  c #262729",
":  c #27292A",
">  c #2C2B2B",
",  c #322721",
"<  c #342A23",
"1  c #3B2C23",
"2  c #342F2B",
"3  c #3E3126",
"4  c #34312D",
"5  c #3B342D",
"6  c #2C2F31",
"7  c #2E3234",
"8  c #323435",
"9  c #3B3732",
"0  c #3D3936",
"q  c #323639",
"w  c #353A3D",
"e  c #393B3C",
"r  c #402E25",
"t  c #443325",
"y  c #4E3925",
"u  c #44362B",
"i  c #4B352A",
"p  c #49392C",
"a  c #4B3723",
"s  c #553E27",
"d  c #533B2D",
"f  c #423D35",
"g  c #4F3C31",
"h  c #443E3B",
"j  c #423731",
"k  c #5F452A",
"l  c #44403B",
"z  c #4A453D",
"x  c #584238",
"c  c #63482C",
"v  c #634A3D",
"b  c #6C4B3A",
"n  c #664737",
"m  c #735331",
"M  c #795734",
"N  c #373D41",
"B  c #393F43",
"V  c #3B4146",
"C  c #3C444A",
"Z  c #3E494C",
"A  c #4A4541",
"S  c #4F4B45",
"D  c #42474B",
"F  c #43494E",
"G  c #444445",
"H  c #514C46",
"J  c #524D4A",
"K  c #5F4B41",
"L  c #56534D",
"P  c #58514E",
"I  c #434C52",
"U  c #4C4F52",
"Y  c #445157",
"T  c #4B5156",
"R  c #475259",
"E  c #49545C",
"W  c #49585D",
"Q  c #595551",
"!  c #505458",
"~  c #54595C",
"^  c #505557",
"/  c #62544B",
"(  c #705F55",
")  c #66645C",
"_  c #69615D",
"`  c #736257",
"'  c #77655A",
"]  c #4D5962",
"[  c #515C64",
"{  c #525F69",
"}  c #585C60",
"|  c #55636D",
" . c #586266",
".. c #576671",
"X. c #596771",
"o. c #5A6A75",
"O. c #5D6E79",
"+. c #5E717C",
"@. c #676565",
"#. c #726B66",
"$. c #75736B",
"%. c #626C73",
"&. c #606F7A",
"*. c #61727D",
"=. c #787676",
"-. c #825D35",
";. c #876138",
":. c #8E653B",
">. c #9A6D3F",
",. c #946A3D",
"<. c #9F703F",
"1. c #9C754D",
"2. c #9A7A5A",
"3. c #A37341",
"4. c #AD7A45",
"5. c #B37E47",
"6. c #877366",
"7. c #817773",
"8. c #807F76",
"9. c #887F7B",
"0. c #B78148",
"q. c #BA844B",
"w. c #BB8A56",
"e. c #85847B",
"r. c #A48B7A",
"t. c #637582",
"y. c #657A86",
"u. c #6C7A84",
"i. c #677A88",
"p. c #6B7E8C",
"a. c #767D83",
"s. c #668088",
"d. c #6D838E",
"f. c #7C848A",
"g. c #6E8490",
"h. c #6E8A93",
"j. c #718594",
"k. c #728996",
"l. c #768B9B",
"z. c #798F9E",
"x. c #74919B",
"c. c #7A939E",
"v. c #7D94A4",
"b. c #7F97A8",
"n. c #928782",
"m. c #968D8A",
"M. c #9F938E",
"N. c #8D959C",
"B. c #8C9297",
"V. c #9E9490",
"C. c #A39691",
"Z. c #A9A29A",
"A. c #839BAC",
"S. c #8597A3",
"D. c #939CA4",
"F. c #859EB0",
"G. c #97A1A9",
"H. c #9AA5AE",
"J. c #8CA2B1",
"K. c #9DA7B0",
"L. c #BCAEA8",
"P. c #B3B2A5",
"I. c #A3ADB5",
"U. c #ADB7BF",
"Y. c #A7B1BA",
"T. c #C3B4AD",
"R. c #C7B7B1",
"E. c #C7B9B3",
"W. c #CCBCB5",
"Q. c #CFBFB8",
"!. c #CFC0B9",
"~. c #D1C2BB",
"^. c #FAD4BB",
"/. c #FFDAC1",
/* pixels */
"                                                                                                    ",
"                                                                                                    ",
"                                                                                                    ",
"                                                                    o X                             ",
"                                                          X * *   X % + # +                         ",
"                X                       X X                 h e.4 X - ; f 0 > X                     ",
"              X X               X # % # o d < . .           5 T.n.; $.z z $.L :                     ",
"              > 8             @ c ,.3.>.M 4.1.< = O         J W.L.S 4 l ) Z.) 9                     ",
"            . } ~             + m 3.4.5.5.q.w.3.2.1       = M.~.Q.#.+ f e.P.$.A X                   ",
"            @ f.=.X           X & y y k -.3.5.q.w.p O . 8 m.~.Q.W.=.< 5 H =.e.Q O                   ",
"            2 D.N.*         o @ @ O N B < s >.q.4.3 %.R l L.~.~.T.#.> < 5 l l *                     ",
"            V G.I.G . > O . o + 1 1 > ] o.8 s 4.3.4 k.G.T P R.R.C.z 2 # % - #                       ",
"          . T H.U.B.7 0 * J 9.h O = 1 , 8 I * M >.8 l.A.S.e =.C.Q O O o p #                         ",
"          . ! K.Y.I.G F A E.Q._ B X.* = 1 , O & ;.4 l.A.J.u.2 0 O       1 <                         ",
"          . U D.I.G.q > J Q.W.#.N j.t.{ 6 , 1 % $ 4 l.A.A.S.; .         = u .                       ",
"            8 a.N.a.> > #.Q.R.@.w t.F.A.l.[ > 1 1 = e *.o.w 7 *         + p O                       ",
"            O 6 ~ U 8 6 7.Z.M.U U A.j.p.j.j.t.B # 1 $ O q ..l.B         o p $                       ",
"                o O > O h h 8 6 t.X.6 q 7 7 7 6 O 7 @ ] z.l.Y @           3 <                       ",
"                  O q q @ O B k.A.F R l.l.l.l.k.N o.C ] %.6 $ o           , u .                     ",
"                  @ | z.p.] 6 i.A.R 6 F E { X.&.q O.&.* # i d @ X         # g O                     ",
"                  o C i.j.j.o.t.A.j.6 / 6.( / h ; p.S.R @ d i + X         X 1 o                     ",
"                    O Z o.t.i.t.l.A.R ( ^./.^.6.; I B 6 o 6 6 X         O q q N 6 .                 ",
"                      O ; B t.o.R j.j.w ( r.' = O 0 A P - t.| .   X 2 = q l.z.l.o.*                 ",
"                        . 7 t.t.{ ..p.p.R B E o.; - 0 < N z.C : I 7 K K w S.v.t.t.I .               ",
"                          O B t.] : ..b.A.A.A.A.p.{ B I j.t.6 p.F.{ 1 b > g.A.i.t.o.;               ",
"                          O X : Z ] O.p.z.v.A.F.F.F.A.S.O.; ] v.v.O., b , o.z.i.+.+.w               ",
"                        ; Y ] q X * q B R | ..[ o.{ E e < @ ] i.i...= d , E i.t.t.O.q               ",
"                      O C p.b.p.; X F I N 7 6 O + t c -.:., B ..| ] * d % 6 ] { Y 6 O               ",
"                      7 I z.F.j.; , B A.v.z.v.O.; a c M 1 o o @ * O o @ O . O O X .                 ",
"                    O B t.A.A...O 1 = O.A.A.A.l.o.8 X + B [ O                                       ",
"                    ; o.l.A.S.N F > r N v.A.A.k.z.i.= , F &.@                                       ",
"                  X B i.v.A.p.7 j.I 1 $ o.A.A.l.A.i., 1 [ | o                                       ",
"                  O 7 ] k.S.O.7 k.g.> r w v.A.b.A.O., , u.U                                         ",
"                X < 1 , > q 6 7 y.h.Z < = O.A.b.F.| , - u.8                                         ",
"                X % d n b v A 6 { o.| # % N S.A.A.E @ < %.O                                         ",
"                O 6 ; , r g j q ..o.+.V $ $ ] ] F ; @ @ - $ O                                       ",
"              . N l.j.X.] F @ 7 Z Z V 7 O # + B ! e $ 3 1 % o                                       ",
"              O ..A.A.A.A.A.I + $ $ % % 3 & # W @.B O q Z V o                                       ",
"              ; t.z.A.A.A.z.B @ $ : - 6 7 e 6 6 w V | h.c.~ .                                       ",
"              ; O.i.z.A.F.i.; Y o.*.s.s.h.x.h.d.h.x.v.v.c.e X                                       ",
"              O R X.t.p.t.C O I +.s.+.s.h.s.h.x.x.*.E  .I w 8                                       ",
"                O ; ; * O . . * V Y 7 q Z Z q Y W > N C D g.I                                       ",
"                            . : O O 7 7 O X   X . 7 ] | *.t.B .                                     ",
"                            . * = = - 2 : X     . # $ ; - > > o                                     ",
"                            o 2 z z f 9 S O     X - 9 l f 9 H O                                     ",
"                            X o O O o X O o       o o o O o O o                                     ",
"                                                                                                    ",
"                                                                                                    ",
"                                                                                                    ",
"                                                                                                    "
};
