/* XPM */
static char *Minotaur_02_Attacking_003__1_1671115858[] = {
/* columns rows colors chars-per-pixel */
"50 50 177 2 ",
"   c None",
".  c #13110F",
"X  c #161413",
"o  c #191615",
"O  c #1B1817",
"+  c #1C1B1A",
"@  c #221E1B",
"#  c #281F1B",
"$  c #24201E",
"%  c #2C231D",
"&  c #31251E",
"*  c #3C2D1F",
"=  c #242323",
"-  c #2A2522",
";  c #2D2926",
":  c #252728",
">  c #27292B",
",  c #2B2B2C",
"<  c #322721",
"1  c #332923",
"2  c #3C2C24",
"3  c #312E2B",
"4  c #3B3026",
"5  c #35312C",
"6  c #38332E",
"7  c #2B2E31",
"8  c #2E3234",
"9  c #2F3638",
"0  c #343434",
"q  c #3A3632",
"w  c #3C3936",
"e  c #313539",
"r  c #34393D",
"t  c #393B3C",
"y  c #412F26",
"u  c #443325",
"i  c #403329",
"p  c #4C362B",
"a  c #4F382C",
"s  c #4F3A25",
"d  c #543E27",
"f  c #543B2D",
"g  c #4C3C31",
"h  c #423F3C",
"j  c #413C35",
"k  c #564029",
"l  c #5E4328",
"z  c #4F4031",
"x  c #45413B",
"c  c #4B443D",
"v  c #5D4133",
"b  c #5D4C3B",
"n  c #664A2D",
"m  c #6D4C3B",
"M  c #6F5437",
"N  c #765532",
"B  c #7A5834",
"V  c #363D42",
"C  c #393F43",
"Z  c #3B4246",
"A  c #3D454A",
"S  c #3E494D",
"D  c #434344",
"F  c #4F4A44",
"G  c #40474D",
"H  c #43494D",
"J  c #494742",
"K  c #554E47",
"L  c #57504D",
"P  c #59564E",
"I  c #434C53",
"U  c #475056",
"Y  c #4D5154",
"T  c #465259",
"R  c #4B555D",
"E  c #495A5F",
"W  c #5E5D56",
"Q  c #515559",
"!  c #6A564B",
"~  c #605854",
"^  c #665E5B",
"/  c #64635C",
"(  c #736257",
")  c #7F6C5F",
"_  c #4A5760",
"`  c #4E5A63",
"'  c #525D65",
"]  c #595E62",
"[  c #525F68",
"{  c #506167",
"}  c #54626C",
"|  c #5C6368",
" . c #566570",
".. c #586671",
"X. c #5A6A75",
"o. c #5D6D79",
"O. c #576D74",
"+. c #5F727D",
"@. c #6E6964",
"#. c #636A6E",
"$. c #686464",
"%. c #766D69",
"&. c #786F6B",
"*. c #7A716E",
"=. c #74736B",
"-. c #677077",
";. c #61737D",
":. c #60787F",
">. c #6C767E",
",. c #757879",
"<. c #825D36",
"1. c #876037",
"2. c #8A6339",
"3. c #956A3D",
"4. c #9F7141",
"5. c #AD7A45",
"6. c #A47645",
"7. c #B17D46",
"8. c #857B77",
"9. c #B58049",
"0. c #B9834A",
"q. c #B78857",
"w. c #B58B60",
"e. c #A58B7B",
"r. c #637582",
"t. c #657A85",
"y. c #6A7A85",
"u. c #677A88",
"i. c #6A7D8A",
"p. c #6A7680",
"a. c #767D83",
"s. c #678189",
"d. c #6C838E",
"f. c #7C848A",
"g. c #6E8290",
"h. c #6F8B93",
"j. c #728695",
"k. c #748995",
"l. c #758C9A",
"z. c #798F9E",
"x. c #74919A",
"c. c #79909D",
"v. c #7B9096",
"b. c #7C93A3",
"n. c #8D8C82",
"m. c #908580",
"M. c #9B938C",
"N. c #9A998E",
"B. c #838C93",
"V. c #89929A",
"C. c #A49792",
"Z. c #A99C96",
"A. c #AFA19B",
"S. c #B1A39D",
"D. c #8E97A0",
"F. c #8097A8",
"G. c #839BAC",
"H. c #8B9EAC",
"J. c #8494A0",
"K. c #869FB0",
"L. c #98A1A8",
"P. c #8EA4B3",
"I. c #B2ACA4",
"U. c #BDAFA9",
"Y. c #BAABA5",
"T. c #A2ABB3",
"R. c #A4AFB8",
"E. c #A7B2BA",
"W. c #A9B3BC",
"Q. c #C3B5AF",
"!. c #C7B8B1",
"~. c #CABBB4",
"^. c #CFBFB8",
"/. c #D2C2BB",
"(. c #E9C5AE",
"). c #F0CBB3",
"_. c #FFDBC1",
/* pixels */
"                                                                                                    ",
"                                                X                                                   ",
"                                          X % ; x w +                                               ",
"                                        $ @ 3 K =.W J $ O 5 $                                       ",
"                                      o @ 1 w c N.N.@.W + %.8.=                                     ",
"                                      O X h q , ,.I.n./ O ^ /.%.+                                   ",
"              o               X @ % @ % M 5 o O 3 P F 6 X *./.Y.w                                   ",
"            X o             @ d 2.3.3.2.0.6.z b $ ; 5 % 3 I./.~.^ X                                 ",
"            , ;           X - <.5.7.7.0.0.0.q.q.* X X , M././.!.&.O                                 ",
"          X ] Y             O d n d l N 4.7.0.0.u I r c U././.U.@.o                                 ",
"          + a.a.O         o @ # X e Z 3 2 <.7.7.4 d.H.Y c Q.Q.M.h                                   ",
"          = B.L.7         X O 2 1 , U X.I 1 <.5.4 s.H.H.H ~ M.L O                                   ",
"          , V.W.$.X : = X w j O - 2 1 < C > 2 4.u o.G.H.V.0 6 @ i @                                 ",
"          0 V.W.T.Q w 8 @.Q.m., [ 7 # < 2 - @ s 1 o.K.G.P.R X o 2 g @ = 7 +                         ",
"          , V.E.E.,.r w C./.Z.0 p.y.o.I ; 1 2 1 @ Z ;.k._ 8 r O X @ > +.r.` 9 +                     ",
"          : f.T.R.#.: ; C./.I.w R l.K.G.k.' r 1 2 2 @ : Z i.u.= X r j.z.r.r.r.T =                   ",
"          + ] B.D.Y 7 3 A.Q.C.q o.F.j.i.r.o.R 7 + - = [ b.u.7 o . I K.b.g.r.r.r.V X                 ",
"            = C ] 0 C 0 8.*.L > i.` 7 e V C G H 7 [ 7 p.[ - < O @ : ` b.b.i.r.r.>                   ",
"              X O @ : + $ $ V r.b.C [ b.b.b.F.l.e u.R : # a f # < m < G l.u.r.S + o                 ",
"                  + C R C > V l.F.C e G A D C t : i.z.G # f y o # f m < C } A + X                   ",
"                  = [ z.b.i.T r.G.j.7 ! e.e.e.8., o.[ t + , e > R : p f $ + o                       ",
"                  o 8 o.u.u.u.u.z.G.[ K (._.).( O ; q F , ..r.e j.` = u 1 X                         ",
"                    o 7 T ` o.r.` i.b.A h ( c e = 6 c h , i.` C r.r.V O O                           ",
"                      X X : X.r.[ [ u.j.o.` -.z...C 8 e ..j.8 R +.I =                               ",
"                          = S o.X.8 I j.G.K.K.G.G.F.b.b.l.Z > ..V O                                 ",
"                          X o 7 T T [ r.i.l.b.z.z.z.i.[ e & : 7 O                                   ",
"                        X : V 8 + = 7 e C S G e > 3 2 d <.N o X                                     ",
"                        = ` j.l.T X = _ _ I I T 7 & n <.B % o                                       ",
"                      o e ' G.G.} % < ' K.G.G.G.i.Z @ @ @ A D o                                     ",
"                      = I i.G.G.G + y , i.G.G.G.j.j.[ - % | -.o                                     ",
"                    X V o.b.G.j.8 T < 2 Z F.G.G.j.b.r.1 1 T ' o                                     ",
"                    + ` i.F.G.[ V z.C 2 - o.G.G.z.G.o.1 1 p.Q                                       ",
"                  o @ _ i.G.G.I A b.d.; 4 r b.G.G.G.o.< 1 p.t                                       ",
"                  + & - 7 G ` > V u.l.I < - [ G.G.G...# % >.8                                       ",
"                  @ p f f a g - A o.X.O.- < 3 l.G.z.R # $ Z $ o                                     ",
"                  O $ 1 f v ! 6 r } } r.I # # V C e : @ % 2 4 $                                     ",
"                O I u.` D r : = 9 E T A r + $ O D #.| @ & 1 3 +                                     ",
"                > i.G.G.G.b.r.= $ % % % & 4 * @ t I t : E :.y.=                                     ",
"                V j.G.G.G.G.l.> $ % % - ; 9 Z S r I { :.x.c.:.O                                     ",
"                V u.j.F.G.K.` + V T O.+.s.h.h.x.l.x.x.c.k.v.J > +                                   ",
"                e o.r.j.b.j.r X Z O.s.t.+.h.s.s.d.x.:.r 0 7 V ..+                                   ",
"                + 7 r V e > o   o 9 E S 7 Z S 8 > V > A ..y.z.j.=                                   ",
"                                + $ + + 9 : o       + I ` o.t...$                                   ",
"                                + - - ; > 3 +       O $ : ; ; , =                                   ",
"                                $ j c c 6 F 0       @ 6 q c 6 c w X                                 ",
"                                o + + + o + O o     O O + + o O O X                                 ",
"                                                                                                    ",
"                                                                                                    ",
"                                                                                                    ",
"                                                                                                    "
};
