/* XPM */
static char *Minotaur_02_Attacking_0041671115858[] = {
/* columns rows colors chars-per-pixel */
"50 50 171 2 ",
"   c None",
".  c #161413",
"X  c #191615",
"o  c #1B1817",
"O  c #1D1B1A",
"+  c #231E1B",
"@  c #281F1A",
"#  c #25211F",
"$  c #2B221D",
"%  c #33261F",
"&  c #392C1F",
"*  c #33281E",
"=  c #1F1F20",
"-  c #1F2020",
";  c #232323",
":  c #2B2623",
">  c #2C2826",
",  c #252629",
"<  c #26292B",
"1  c #2B2C2C",
"2  c #332721",
"3  c #362922",
"4  c #3B2C23",
"5  c #312D2B",
"6  c #34302C",
"7  c #3A352E",
"8  c #3E3125",
"9  c #2C2F31",
"0  c #2E3134",
"q  c #333334",
"w  c #3A3632",
"e  c #3D3833",
"r  c #323639",
"t  c #35393C",
"y  c #3A3B3B",
"u  c #412F26",
"i  c #443224",
"p  c #493724",
"a  c #443329",
"s  c #493628",
"d  c #533D26",
"f  c #51392D",
"g  c #483F3A",
"h  c #493E37",
"j  c #5A3F31",
"k  c #5E442A",
"l  c #46423E",
"z  c #49433B",
"x  c #584334",
"c  c #664A2D",
"v  c #684838",
"b  c #604334",
"n  c #704D3C",
"m  c #6F5133",
"M  c #7E5A34",
"N  c #765635",
"B  c #373D41",
"V  c #3A3E42",
"C  c #3A4146",
"Z  c #3D454A",
"A  c #3E494E",
"S  c #374144",
"D  c #424447",
"F  c #4E4945",
"G  c #40474D",
"H  c #43484C",
"J  c #4F4D48",
"K  c #514640",
"L  c #534C49",
"P  c #504B45",
"I  c #55514A",
"U  c #59524F",
"Y  c #434C52",
"T  c #494D50",
"R  c #465159",
"E  c #4A555C",
"W  c #495A5F",
"Q  c #4B5153",
"!  c #5D5653",
"~  c #52565A",
"^  c #555A5E",
"/  c #5A5852",
"(  c #645349",
")  c #755F48",
"_  c #645C58",
"`  c #626059",
"'  c #6A615D",
"]  c #766458",
"[  c #4E5A63",
"{  c #515D66",
"}  c #505E68",
"|  c #55626C",
" . c #59636A",
".. c #566569",
"X. c #566570",
"o. c #586771",
"O. c #5A6B75",
"+. c #5E6E79",
"@. c #566A71",
"#. c #5E727C",
"$. c #756B67",
"%. c #717068",
"&. c #7A706C",
"*. c #606F7B",
"=. c #676F75",
"-. c #61727E",
";. c #6C767C",
":. c #72787E",
">. c #855F38",
",. c #855F37",
"<. c #8B6339",
"1. c #976B3D",
"2. c #9A6D3F",
"3. c #8A6845",
"4. c #9C6F40",
"5. c #A57542",
"6. c #AD7A45",
"7. c #B37E47",
"8. c #827975",
"9. c #B78148",
"0. c #BB854B",
"q. c #8A867E",
"w. c #838278",
"e. c #9F8677",
"r. c #C3925F",
"t. c #637582",
"y. c #657985",
"u. c #687986",
"i. c #6A7D8B",
"p. c #677B88",
"a. c #737E87",
"s. c #668088",
"d. c #6B838D",
"f. c #73838B",
"g. c #6E8391",
"h. c #718593",
"j. c #788791",
"k. c #738996",
"l. c #758B9A",
"z. c #798E9E",
"x. c #75929B",
"c. c #798FA0",
"v. c #7C93A3",
"b. c #7C99A2",
"n. c #8E8C83",
"m. c #958A86",
"M. c #818A91",
"N. c #8A9198",
"B. c #B99D8B",
"V. c #AB9F99",
"C. c #8097A8",
"Z. c #839BAC",
"A. c #8597A3",
"S. c #959EA7",
"D. c #869FB1",
"F. c #9BA3AB",
"G. c #8BA1B2",
"H. c #9EA9B2",
"J. c #B7A9A3",
"K. c #A1ACB5",
"L. c #ADB7BF",
"P. c #A7B1BA",
"I. c #C7A894",
"U. c #C9AA96",
"Y. c #C4B5AE",
"T. c #C7B8B2",
"R. c #CCBCB6",
"E. c #CFBFB8",
"W. c #D1C2BB",
"Q. c #EDC9B1",
"!. c #F7D1B8",
/* pixels */
"                                                                                                    ",
"                                                                                                    ",
"                                        # # y , X     X X                                           ",
"                                    o O 7 ` ` / e -   X w L O                                       ",
"                                  X $ O 7 I n.w.%.J .   w J.$.X                                     ",
"                                  . . + # : 6 q.q.J X   > J.Y.F .                                   ",
"            X                 + * & @ m N > O 5 l 6     l R.W.q.+                                   ",
"            X             X i <.6.6.4.6.0.3.) x # # . + m.W.W.V.q                                   ",
"          O t o           X d 1.5.5.6.7.9.0.0.3.o o O 8.W.W.E.V.e                                   ",
"          1 :.;           . $ d p p d m 4.0.0.<.t u.y _ T.W.T.m.5                                   ",
"          y S.g           X @ O , Y A 1 s 1.9.N C G.A.Z _ Y.V.! o                                   ",
"        . T H.=.X   ;   . . : 4 2 6 E @.y 8 5.M C C.D.N.t ' _ + .                                   ",
"        . ~ K.F.q X 5 X > U : = : 3 % 5 q O k <.q v.Z.G.f.; o a 3 X 9 9 = .                         ",
"        X ^ H.L.N.q D w V.T.! Z | , 2 % 3 % $ 4 q z.Z.Z.f., . # : r i.*.} C ; .                     ",
"        X ~ H.P.K.D V F R.R.$.B h.i.t.Y 1 2 4 3 : y  .{ 9 E C . B k.k.t.t.t.} <                     ",
"        . D S.K.F.y 1 P R.E.8.0 *.Z.D.Z.l.| t : 4 2 o t u.z.Z . } D.v.i.t.t.t.r                     ",
"          9 :.N.M.q 1 U T.J.&.r z.h.-.o.{ T V = , ; B c.h.B o o 9 +.v.D.p.t.X.= .                   ",
"          o 1 T ~ 1 r L 8._ w A h.q t C Y E o.Y V O.t o.1 3 3 + 4 2 Z i.t.t.B X X                   ",
"              . o ; = + O ; [ l.i.9 h.c.z.v.v.*.t z.V O u v a . a n 4 9 E B X X                     ",
"                . < Y [ V < [ v.h.9 q t t y y 1 B C.h.r @ u + + : s j 2 X .                         ",
"                  9 u.c.c.y.R k.Z.t.> e.I.I.U.( t E B > = Y V Z O.< 2 u o                           ",
"                  O G t.y.y.y.p.v.C.G ] Q.!.B.5 O w F L 1 l.Y Y y.| ; O                             ",
"                    O t R } t.O.[ h.h.V g K t Z ; 5 h : Y c.r [ -.C o                               ",
"                      . . r t.t.{ X.i.l.t.*.h.C.O.E V E l.} 9 o.C o                                 ",
"                        . , E +.[ 9 [ l.Z.D.Z.D.D.Z.C.b.o.; V C X                                   ",
"                          . o 0 Y E X.t.i.k.l.i.i.u.[ t 8 & O X                                     ",
"                        X 0 Z 0 O = 9 0 t t t ; + > d M 4.d .                                       ",
"                      . 9 O.c.z.B X 9 X.| [ | o.0 4 k m s O o                                       ",
"                      = B *.Z.Z.G 2 > O.D.Z.D.Z.y.A + o O  .D                                       ",
"                      9 [ c.Z.c.9 # u 6 h.Z.Z.C.g.v.[ % > -.^ .                                     ",
"                    O Y u.C.D.o.t E 2 3 R Z.Z.C.h.C. .3 >  .T                                       ",
"                    , O.k.Z.C.V [ c.t 4 : u.Z.C.v.Z.{ % 5 j.V                                       ",
"                  . < { h.Z.v.0 [ v.t.> 4 V v.Z.Z.Z.[ 2 5 a.>                                       ",
"                  @ 2 # 9 Z Y + Y i.l.C % : O.Z.Z.D.E $ 5 ;.-                                       ",
"                . $ f j b f h ; [ X.O.| : % q c.v.h.V @ # t # o                                     ",
"                . = : 3 f j ( : A | @.-.Z $ @ t t q ; + & & & O                                     ",
"                ; o.i.[ G B ; > S R Y S 0 + # O Q ;.^ # * 1 q O                                     ",
"              . C z.D.Z.C.C.| O # $ $ * * 8 & # y C 0 0 @.d.-.+                                     ",
"              o [ z.Z.Z.Z.D.*.O $ # # : 1 t A A Z W O.d.x.x....                                     ",
"              o [ p.l.Z.Z.v.t O S W #.s.d.x.x.x.x.x.x.j.f.f.y 0 X                                   ",
"              X Z +.t.l.z.t.; . S #.s.t.#.d.y.#.s.k.@.1 0 1 T o.o                                   ",
"                = 9 r r 9 =     o t W S 9 S A < , r ; R +.g.Z.u.O                                   ",
"                                O - X - S - X       # R [ +.-.{ O                                   ",
"                                O > > > < 6 -       O # ; > > 5 ;                                   ",
"                                # h z z 6 J 6       # 7 w z 5 F q .                                 ",
"                                X O O O . O X       X o O O X O o                                   ",
"                                                                                                    ",
"                                                                                                    ",
"                                                                                                    ",
"                                                                                                    "
};
