/* XPM */
static char *Minotaur_02_Attacking_0051671115858[] = {
/* columns rows colors chars-per-pixel */
"50 50 168 2 ",
"   c None",
".  c #171413",
"X  c #191716",
"o  c #1B1917",
"O  c #1D1B1A",
"+  c #231E1B",
"@  c #24211E",
"#  c #2B221D",
"$  c #32261E",
"%  c #35291D",
"&  c #1F2020",
"*  c #242323",
"=  c #2C2623",
"-  c #2D2925",
";  c #252729",
":  c #27292A",
">  c #2C2B2B",
",  c #322721",
"<  c #342822",
"1  c #3B2B23",
"2  c #312E2B",
"3  c #3F3123",
"4  c #35312D",
"5  c #39332E",
"6  c #2B2E31",
"7  c #302F30",
"8  c #2E3134",
"9  c #323435",
"0  c #3A3632",
"q  c #3E3935",
"w  c #32363A",
"e  c #353A3D",
"r  c #393B3D",
"t  c #402F26",
"y  c #4F3A27",
"u  c #433329",
"i  c #4F382D",
"p  c #463423",
"a  c #533D26",
"s  c #52392D",
"d  c #423D3B",
"f  c #4B3C34",
"g  c #593E30",
"h  c #5A4129",
"j  c #46413B",
"k  c #4B443D",
"l  c #5D4433",
"z  c #65492D",
"x  c #6E4F2F",
"c  c #64472A",
"v  c #6E4F30",
"b  c #6A4939",
"n  c #6C5033",
"m  c #785634",
"M  c #755A3E",
"N  c #785532",
"B  c #373D41",
"V  c #393E42",
"C  c #3B4246",
"Z  c #3D444A",
"A  c #3F484D",
"S  c #404345",
"D  c #494642",
"F  c #41494F",
"G  c #4F4D48",
"H  c #494745",
"J  c #524E4A",
"K  c #594D46",
"L  c #57514D",
"P  c #59524F",
"I  c #434E54",
"U  c #445056",
"Y  c #4C5155",
"T  c #465259",
"R  c #4A555D",
"E  c #5B5652",
"W  c #5F5D57",
"Q  c #53575B",
"!  c #6A5649",
"~  c #79675B",
"^  c #4B5760",
"/  c #4E5A63",
"(  c #525D65",
")  c #585D61",
"_  c #525F68",
"`  c #4F6167",
"'  c #5D6266",
"]  c #55636D",
"[  c #5F6469",
"{  c #596771",
"}  c #566A71",
"|  c #5A6A74",
" . c #5E6E79",
".. c #576671",
"X. c #5F727C",
"o. c #6F6662",
"O. c #606468",
"+. c #646A6C",
"@. c #706763",
"#. c #716C66",
"$. c #786E6A",
"%. c #7D736F",
"&. c #646D73",
"*. c #62737E",
"=. c #61787F",
"-. c #69747B",
";. c #7F7470",
":. c #777876",
">. c #855E36",
",. c #8B643A",
"<. c #9A6E3F",
"1. c #9F703F",
"2. c #9D7040",
"3. c #A27341",
"4. c #AD7A45",
"5. c #B27D47",
"6. c #917B6C",
"7. c #B68048",
"8. c #B9844B",
"9. c #8D827D",
"0. c #C29362",
"q. c #637582",
"w. c #657C86",
"e. c #6C7983",
"r. c #677A88",
"t. c #6A7D8B",
"y. c #678188",
"u. c #6D828C",
"i. c #73848C",
"p. c #7E868D",
"a. c #6F8391",
"s. c #6F8B94",
"d. c #718594",
"f. c #738996",
"g. c #768B9A",
"h. c #798E9D",
"j. c #74929A",
"k. c #7D94A4",
"l. c #8D8581",
"z. c #948A86",
"x. c #80909C",
"c. c #8C949B",
"v. c #8A9096",
"b. c #A0948E",
"n. c #BA9E8B",
"m. c #A29692",
"M. c #A69994",
"N. c #8097A8",
"B. c #839BAC",
"V. c #919BA3",
"C. c #879FB0",
"Z. c #9AA4AD",
"A. c #8DA4B4",
"S. c #9FA9B2",
"D. c #B9ABA4",
"F. c #BBADA8",
"G. c #A1ABB4",
"H. c #A4AFB8",
"J. c #ABB4BC",
"K. c #C5A693",
"L. c #C3B4AE",
"P. c #C5B7B0",
"I. c #CCBCB5",
"U. c #CFBFB8",
"Y. c #CEC0B9",
"T. c #D1C2BB",
"R. c #F2CCB5",
"E. c #FBD5BC",
/* pixels */
"                                                                                                    ",
"                                                                                                    ",
"                                          O o           X .                                         ",
"                                      # > G D 2 o       . j j o                                     ",
"                                  o o - k :.W G G +       D D.E X                                   ",
"                                  @ # . @ E k 2 #.>       q P.D.q                                   ",
"                                X @ # + x l O O > @       P Y.U.;.O                                 ",
"              .             o 1 m 2.1.,.7.8.M ! u o     * m.T.Y.b.-                                 ",
"            O ;             O z 1.5.5.5.8.5.8.0.M X X @ l.T.T.Y.m.2                                 ",
"            > O.O           . % z a a c >.3.8.8.m B &.0 #.P.Y.P.9.;                                 ",
"            S c.2           o + + * Z B , h 3.8.x U A.x.r @.L.M.J o                                 ",
"          . Y G.Q         . . , 1 = B _ ] 9 y 4.x A N.C.x.w o.E O . . o X                           ",
"          . ) G.v.* o : . + d + @ < 1 < 7 w O v >.e k.B.A.e.+ + 1 O I / Z 6 O .                     ",
"          X ' S.J.:.> r 7 z.F.D Z U + $ 1 1 + $ t w h.C.B.i.* o + Z g.q.q.q._ 8 .                   ",
"          X ) S.J.S.C H J U.U.o.V f.q...C - < 1 < = V { ( 6 ( B 8 k.k.r.q.q.q.I X                   ",
"          . Y Z.H.Z.r > J I.U.;.w  .B.C.N.t.( 9 , 1 $ o e r.h.V 6 g.k.k.a.q.q.B .                   ",
"            r p.V.v.7 2 E P.F.;.w h.h.t.*.{ / V & * * V k.t.B o O 7 / h.g.q...* .                   ",
"            O V [ O.7 w E z.%.d V g.w 7 B V I ( F V { e ..> 1 1 + u 1 8 ] _ 8 .                     ",
"              . O & * * * * ; A d.t.6 d.k.k.N.N.*.w h.V o t b u . 1 b t * & .                       ",
"                  . : B V 6 ; / B.d.6 B B r e r 7 e N.d.w + t + * > < s < .                         ",
"                    6 r.k.g. .Z g.N. .* 6.n.n.K.! w ^ V > & I C V  .e @ +                           ",
"                    O I r.t.t.r.t.k.B.Z ~ R.E.K.7 O 0 G L > d.Y Z q.^ o X                           ",
"                      O Z / ] q. .( g.a.B k K w V ; 2 u = F h.w R ..;                               ",
"                        . X w  .q.^ ..t.g.&.| d.k.&./ V R g...6 ] 6 .                               ",
"                          . ; ^ q._ 6 ^ h.B.C.B.C.B.C.B.k.| * w w .                                 ",
"                            . O 8 T T ] q.t.g.g.t.t.q./ e t p o o                                   ",
"                          . : V 8 O * 6 w w B e : O = a m 2.h .                                     ",
"                          : _ g.g.A X ; _ _ / _ | B , g z y O o                                     ",
"                        O w ..B.C.^ = , _ C.B.B.C.t.T * o O Q Y .                                   ",
"                        ; T g.B.k.B + 1 > t.B.B.k.a.h.| = , ] &.X                                   ",
"                      X Z q.k.B.q.9 ^ - 1 Z k.k.C.d.k.q.< < R Q X                                   ",
"                      * ..t.B.B.T F k.V 1 >  .C.k.k.B.X.< < e.Y                                     ",
"                    . * / t.N.N.e U k.t.> 1 9 g.B.N.B.&.% = -.r                                     ",
"                    + < * 9 F R * B r.g.T < = / B.B.C.| # # -.8                                     ",
"                    # s g c i f @ I  .} | ; $ > d.k.g.R @ @ w @ o                                   ",
"                    O * < s l ! - C ..] q.T # # w V 8 ; O % 3 3 +                                   ",
"                  & _ r./ V B & : C T U Z e O @ O C &.+.# , > e +                                   ",
"                . V h.C.C.B.N...& # @ # # % % 3 + 9 S 9 : ` y.i.;                                   ",
"                o T g.B.B.B.B.q.& @ # = = > w A I C R } y.j.j.e.O                                   ",
"                X T r.g.B.B.N.V o e U } X.y.s.j.j.j.j.j.f.i.i.S 8 O                                 ",
"                . Z  .q.g.h.q.: . e } y.y.X.y.y.X.w.s.X.9 6 6 C q.*                                 ",
"                  O 6 w w 6 *     o 8 T A 6 B A 6 * w ; Z  .u.k.h.:                                 ",
"                                  O & O & B 6 X .     o A /  .q.| ;                                 ",
"                                  o * = ; - 2 &       o @ * - - 2 *                                 ",
"                                  + q k k 5 k q X     O 4 5 j 5 d d .                               ",
"                                  o o O O X O O X     o O O O o o + o                               ",
"                                                                                                    ",
"                                                                                                    ",
"                                                                                                    ",
"                                                                                                    "
};
