/* XPM */
static char *Minotaur_02_Attacking_0061671115858[] = {
/* columns rows colors chars-per-pixel */
"50 50 171 2 ",
"   c None",
".  c #12110F",
"X  c #161413",
"o  c #191615",
"O  c #1B1917",
"+  c #1D1B1A",
"@  c #221D1A",
"#  c #291F1A",
"$  c #24201E",
"%  c #2B221D",
"&  c #30241E",
"*  c #372B1E",
"=  c #232323",
"-  c #2B2623",
";  c #2D2926",
":  c #252728",
">  c #27292A",
",  c #2B2B2C",
"<  c #332721",
"1  c #372922",
"2  c #3B2B23",
"3  c #302E2C",
"4  c #35302B",
"5  c #39332F",
"6  c #2C2F32",
"7  c #2E3134",
"8  c #323436",
"9  c #3B3735",
"0  c #3C3830",
"q  c #31363A",
"w  c #35393C",
"e  c #3A3B3C",
"r  c #402E25",
"t  c #423226",
"y  c #4D3925",
"u  c #4B352B",
"i  c #473829",
"p  c #543D26",
"a  c #533A2E",
"s  c #423B35",
"d  c #433E3C",
"f  c #4E3D34",
"g  c #593E31",
"h  c #5B4229",
"j  c #4B453D",
"k  c #61462B",
"l  c #66492C",
"z  c #694B2E",
"x  c #70502F",
"c  c #684838",
"v  c #614735",
"b  c #755534",
"n  c #785634",
"m  c #7A5A38",
"M  c #363C41",
"N  c #393E42",
"B  c #3B4145",
"V  c #3E454B",
"C  c #3D4A4D",
"Z  c #434243",
"A  c #4C4644",
"S  c #4E4945",
"D  c #42474A",
"F  c #44494D",
"G  c #494C4F",
"H  c #514A46",
"J  c #544E4B",
"K  c #5D534C",
"L  c #54534D",
"P  c #424C53",
"I  c #465157",
"U  c #475259",
"Y  c #4A545C",
"T  c #5E5653",
"R  c #53575B",
"E  c #535A5E",
"W  c #535557",
"Q  c #6B5448",
"!  c #7C5F41",
"~  c #655E5B",
"^  c #615A56",
"/  c #776049",
"(  c #7E6B5F",
")  c #4E5B63",
"_  c #525D66",
"`  c #515E68",
"'  c #595C60",
"]  c #55636D",
"[  c #55686E",
"{  c #576570",
"}  c #586671",
"|  c #5A6A75",
" . c #5E6E7A",
".. c #5E727D",
"X. c #61696D",
"o. c #766C68",
"O. c #626C73",
"+. c #606F7A",
"@. c #696F75",
"#. c #61727D",
"$. c #61787F",
"%. c #6C7073",
"&. c #7F7571",
"*. c #71787C",
"=. c #805A34",
"-. c #8C633A",
";. c #9F703F",
":. c #9E7140",
">. c #A27341",
",. c #AE7B45",
"<. c #B17D46",
"1. c #857063",
"2. c #847A75",
"3. c #877C78",
"4. c #897E79",
"5. c #B68149",
"6. c #BA844C",
"7. c #8A827E",
"8. c #C39361",
"9. c #647582",
"0. c #657B86",
"q. c #6C7C85",
"w. c #677A88",
"e. c #6A7D8B",
"r. c #6A7781",
"t. c #707B84",
"y. c #678189",
"u. c #6A838C",
"i. c #708288",
"p. c #7F878E",
"a. c #6F8391",
"s. c #6F8A93",
"d. c #718594",
"f. c #798690",
"g. c #738997",
"h. c #788E95",
"j. c #758B9A",
"k. c #798E9E",
"l. c #75919A",
"z. c #78959F",
"x. c #7C92A2",
"c. c #998D88",
"v. c #9D928D",
"b. c #888F94",
"n. c #8A9298",
"m. c #A1948F",
"M. c #ADA39E",
"N. c #8798A5",
"B. c #8097A8",
"V. c #839BAC",
"C. c #8597A4",
"Z. c #929CA4",
"A. c #869EB0",
"S. c #98A2AB",
"D. c #8BA2B2",
"F. c #9DA8B1",
"G. c #BBAEA7",
"H. c #BEAFA9",
"J. c #A1ACB4",
"K. c #A4AFB8",
"L. c #ABB4BC",
"P. c #C4A592",
"I. c #CAAB97",
"U. c #D0B09C",
"Y. c #C2B3AC",
"T. c #C7B8B1",
"R. c #CBBCB5",
"E. c #CFBFB8",
"W. c #D2C2BB",
"Q. c #E4C1AA",
"!. c #F9D2BA",
/* pixels */
"                                                                                                    ",
"                                                                                                    ",
"                                                          o +                                       ",
"                                        $ 3 $ o           X S L O                                   ",
"                                    $ - 0 S L 3 o           S Y.~ o                                 ",
"                                  O + 0 @ @ 3 = O o         d T.H.d                                 ",
"                                X @ $ % $ x v @ + O       . ~ W.E.2.O                               ",
"                o             O 2 n ;.>.-.5.6./ / i       , M.W.W.m.,                               ",
"              O =             O z >.<.,.<.<.6.6.8.m O O = v.W.W.R.m.3                               ",
"              , ' O           o * z p p k =.>.5.6.m B q.N ^ Y.W.Y.2.-                               ",
"              e n.,           o @ o : V N < p :.6.x P D.C.D ^ G.m.A X                               ",
"            X G J.R         o o < 2 ; w ` } 8 i >.n B B.A.C.N K S o : q 7 = + X                     ",
"            X R J.b.= o > o O 9 $ $ < 2 < , q + k -.9 x.N.D.f.= O + | e. .| ) q O                   ",
"            o E J.L.%.- e , 7.G.H N Y $ < < 2 % % * 7 j.V.V.r.= + C k.e.9.9.0.[ =                   ",
"            X R F.L.J.D F A R.E.o.M j.9. .V , < 2 2 - 8 ) I 6 } P P A.x.a.9.9.` O                   ",
"            X F S.J.F.Z , j T.E.4.6 | B.A.N.g.] w - 2 < O N a.j.M > 9.x.x.w.9.V o o                 ",
"              q f.Z.Z.9 , A T.Y.3.8 j.k.w.+.` Y N = = > M x.w.8 O @ - M | 9.` = X                   ",
"              + Z X.@.6 e H c.2.A w j.M 6 M F R ` ) M 9.7 ) ; r t O u u $ 6 =                       ",
"                X + - = > $ > : D e.g.6 w.x.B.k.x.r.7 j.Y + 1 c u X - a a # X                       ",
"                    X = q N > : I B.k.7 8 M w w w 3 7 k.k.N @ 1 $ $ w = 2 #                         ",
"                      >  .x.k.9.N e.A.w.: 1.P.P.U.o., I q , + ) ) 6  .I O o                         ",
"                      + C w.e.e.w.e.x.A.) K Q.!.I.s o 5 H T ; e.) M 9.M o                           ",
"                        + N ` { 9. .) e.j.D s H 9 F , ; 3 - N x.M P U +                             ",
"                          X + > | 9.` ] 9.j.w.+.d.B.q.} Y _ k.| : ) :                               ",
"                            X = P 9.| 6 P d.V.A.V.A.A.A.A.x.| = > 7 X                               ",
"                              X o 6 I U ` ..w.a.j.e.9. .Y 8 t g O o                                 ",
"                              = M q + = > 7 q q q > @ # p =.>.k O                                   ",
"                            = I d.k._ O + ) } ] ` 9.I % y y y + + o                                 ",
"                          o 6 ) x.A.9.$ 2 V B.A.V.A.j.] q O @ D X.@                                 ",
"                          + P e.A.A.U + 2 < } V.V.A.j.d.d., 2 V q.=                                 ",
"                          M  .k.V.j.6 ` , r 6 j.V.V.j.k.j.3 2 B @.=                                 ",
"                        O ) e.V.V.} q k.` < 1 P B.V.x.B.j.3 2 R #.o                                 ",
"                      o + U 0.x.V.P M g.x.w 2 < w.V.V.V.g.; < _ E                                   ",
"                      @ 1 % , V U 6 : #.j.| - 1 M x.V.A.s.; & ' F .                                 ",
"                      @ u g v a f - w ..]  .M % - | B.k.| $ $ 3 ; @                                 ",
"                      + = < u g Q 4 w [ ` 9.{ = # > N 7 3 + & 2 2 % o                               ",
"                    o ) d.} P w > = B I U C B $ # @ 4 | *.4 % ; e ,                                 ",
"                    7 a.V.V.V.B.9.= = % % % % * r # = B w > I y.h.B                                 ",
"                  X V d.V.V.V.V.u.: $ % % - > 7 V U C I [ 0.l.l.h.> X                               ",
"                  X V w.d.B.V.V.I X , C [ ..y.s.g.l.l.l.l.h.y.i.E 7 >                               ",
"                    w  .9.a.k.e.7 X > ) 0.y...y.y.....s.y.B , 8 8 0.M                               ",
"                    + > 6 7 6 = o   X = C U 7 7 C q = , , 6 | w.x.V.V                               ",
"                                    X = + + 7 M + o     X q ) ] 9.9.N                               ",
"                                    o $ > ; ; 3 > o     o + = - ; ; , o                             ",
"                                    o 4 j j s 0 S +     o , 0 d s 0 H @                             ",
"                                    o + + + + o @ o     o O O O O o @ o                             ",
"                                                                                                    ",
"                                                                                                    ",
"                                                                                                    ",
"                                                                                                    "
};
