/* XPM */
static char *Minotaur_02_Attacking_0071671115859[] = {
/* columns rows colors chars-per-pixel */
"50 50 179 2 ",
"   c None",
".  c #110F0E",
"X  c #13100F",
"o  c #161413",
"O  c #181615",
"+  c #1B1817",
"@  c #1D1B1B",
"#  c #221E1B",
"$  c #24211D",
"%  c #2B221D",
"&  c #32241E",
"*  c #372A1E",
"=  c #392C1F",
"-  c #1F1F20",
";  c #232323",
":  c #2B2623",
">  c #2C2926",
",  c #252628",
"<  c #27292A",
"1  c #2C2C2C",
"2  c #322721",
"3  c #342A23",
"4  c #3C2C24",
"5  c #322E2B",
"6  c #3D3026",
"7  c #35322D",
"8  c #3A332C",
"9  c #2C2F31",
"0  c #302F30",
"q  c #2E3133",
"w  c #323435",
"e  c #3A3634",
"r  c #313639",
"t  c #34393C",
"y  c #3B3A39",
"u  c #433223",
"i  c #493724",
"p  c #4D3925",
"a  c #43352B",
"s  c #4C362B",
"d  c #47392C",
"f  c #543B2E",
"g  c #553D25",
"h  c #443E36",
"j  c #493F39",
"k  c #473C36",
"l  c #5A4229",
"z  c #55402B",
"x  c #4A433C",
"c  c #46423A",
"v  c #564234",
"b  c #6E4F2F",
"n  c #63482D",
"m  c #72512F",
"M  c #674738",
"N  c #6C4B3A",
"B  c #634A38",
"V  c #755431",
"C  c #795632",
"Z  c #363C41",
"A  c #393E41",
"S  c #3A4146",
"D  c #3D454A",
"F  c #3F484F",
"G  c #3F4C50",
"H  c #434446",
"J  c #4F4A45",
"K  c #434649",
"L  c #46494B",
"P  c #544E47",
"I  c #524E4A",
"U  c #5B524A",
"Y  c #54524C",
"T  c #434C53",
"R  c #494E52",
"E  c #465057",
"W  c #465259",
"Q  c #4A545C",
"!  c #4A5A5F",
"~  c #4F5356",
"^  c #5B5A53",
"/  c #705040",
"(  c #715A4F",
")  c #665E5B",
"_  c #685F5C",
"`  c #4C5760",
"'  c #4E5B63",
"]  c #505D66",
"[  c #5A5F63",
"{  c #515F69",
"}  c #5A6166",
"|  c #55636D",
" . c #58656F",
".. c #556063",
"X. c #576671",
"o. c #596771",
"O. c #5A6974",
"+. c #5D6D79",
"@. c #576D74",
"#. c #5D727B",
"$. c #6E6964",
"%. c #706E67",
"&. c #74726A",
"*. c #7B726D",
"=. c #636D73",
"-. c #61717E",
";. c #6B747B",
":. c #7D7471",
">. c #747A7E",
",. c #767977",
"<. c #855F38",
"1. c #815C36",
"2. c #8A6239",
"3. c #90673B",
"4. c #986B3D",
"5. c #967049",
"6. c #A37341",
"7. c #A87A4A",
"8. c #B27E47",
"9. c #8C7769",
"0. c #927C6E",
"q. c #837A76",
"w. c #877E79",
"e. c #8A7F7A",
"r. c #957E70",
"t. c #B68148",
"y. c #BA844B",
"u. c #BE9265",
"i. c #637582",
"p. c #657A85",
"a. c #6A7A86",
"s. c #6B7E8C",
"d. c #697985",
"f. c #767D82",
"g. c #6C828D",
"h. c #7F878F",
"j. c #6E8390",
"k. c #6D8991",
"l. c #718594",
"z. c #748D95",
"x. c #788F96",
"c. c #768B9A",
"v. c #798F9E",
"b. c #75939C",
"n. c #79909F",
"m. c #7C93A3",
"M. c #7F97A8",
"N. c #968A85",
"B. c #948984",
"V. c #939287",
"C. c #828B92",
"Z. c #B89C8A",
"A. c #A3A296",
"S. c #AFA19B",
"D. c #8596A3",
"F. c #8099A0",
"G. c #839BAC",
"H. c #8F99A1",
"J. c #949CA4",
"K. c #9DA6AE",
"L. c #96A1A9",
"P. c #8AA1B1",
"I. c #98A8B4",
"U. c #BBACA6",
"Y. c #B5A8A3",
"T. c #BDB1AB",
"R. c #A5AFB7",
"E. c #A4AFB8",
"W. c #A7B1BA",
"Q. c #D0B09B",
"!. c #C3B4AD",
"~. c #C7B9B3",
"^. c #CCBCB5",
"/. c #CFBFB8",
"(. c #D2C2BB",
"). c #FCD5BC",
"_. c #AEB8C0",
"`. c #D8C8C2",
"'. c #FFDDC3",
/* pixels */
"                                                                                                    ",
"                                                                                                    ",
"                                                                                                    ",
"                        O                                                   + +                     ",
"                      O O                                                 O $ % @ #                 ",
"                    O y ;                       O O               O O   : $ e 1 8 7 @               ",
"                    9 f.>           O % p l p # # 6 O O           O Z , $ c %.J x &.I -             ",
"                  O [ J.1           O p 4.y.t.3.<.7.d O O           [ u.- 8 8 c &.V.^ >             ",
"                  , C.K.0           o * V 2.6.8.y.y.5.v 6         O q.^.I @ 8 c A.A.^ 1             ",
"                o H L.R.H X ,     o # # # : u V 6.t.y.u.v o     X j T.(.q.@ h 8 &.V.:.7             ",
"                + } R.W.f.# 1 @ o + # u $ D W < l 6.y.y.z - + ; I Y.(./.B.> 7 3 c Y I $             ",
"                # ;.R.W.J.y L e :.w.> # 4 : R O.> V y.6.6 ;.D J ~.(./.^.q.; # % 5 : o               ",
"                $ >.K.R.f.< w q.`.U.y T 9 3 2 t D = 7.C t G.D.t B.(./.U.) O O d $                   ",
"                + ~ h.J.L 1 5 S.(.S.e i.o.1 2 4 ; @ 2.b G G.P.=.I !.Y.e.5   O d %                   ",
"                  @ K } 9 w I ~.^.N.0 { v.c.R : 4 % i u { G.G.D.r *.$.5 O     6 >                   ",
"                    O @ 5 < _ N.N.) t c.G.G.G.O.> 4 3 @ #.G.M.I.L # +         6 3                   ",
"                      @ 1 + # < w 1 O.g.` X.d.l.i.t 2 u 1 X.s.[ 9 O           4 6                   ",
"                      < o.i.Z - E l.m.H A A r 0 r r @ : # # q K o.w           3 8 o                 ",
"                      , +.v.m.` Z m.v.9 O.m.m.l.d.] < T ; { c.m.i.q           2 a O                 ",
"                      O A #.s.s.O.v.M.K ; t T O.l.d.r s.r i.| Z # O           : d O                 ",
"                        @ S | +.i.j.G.+.H Z.9.U e 9 A m.A - : u 4 o           # a O                 ",
"                          O 9 +.i.Q l.j.e Q.'.).Z.> O.v.i.; s N 4 o         1 r , @                 ",
"                          O 9 +.i.{ +.l.E j r.0.j @ 9 0 9 - $ : @ o + 6 # 9 s.m.g.-.,               ",
"                            O Z +.F Z i.m.o.K T T ; k I U >  .] - r < ( k S G.m.g.i.D O             ",
"                          O O O r ` T i.m.G.G.G.v.T 1 3 > D v.D Q m.T s M 1 c.G.i.i.{ @             ",
"                      O , T Q r o - S { i.c.G.G.G.G.s.` { v.o.9 k.G.O.2 N 2 +.m.p.i.+.,             ",
"                      < t i.M.j.< O 1 9 r T o.+.s.m.D.m.l.Q , ' s.s.o.: f 2 E p.i.i.+.1             ",
"                    - A o.m.G.v.9 2 A s.X.A 9 - ; 0 r w 6 # 9 +.+.+.| , s 2 r O.+.{ T -             ",
"                  + F +.c.G.G.] @ 4 > i.G.M.v.+.; g C 3.4.i @ r q 9 , + # @ + ; , - o               ",
"                o q +.l.G.G.-.9 ` 2 4 T G.G.G.M.E % * n 4 # + o                 o o                 ",
"              + # 1 X.m.G.c.q W v.A 4 > j.G.G.m.s.] - + ; } q                                       ",
"              # s 4 , E l.{ 9 +.m.+.2 3 Q G.G.v.v.m.9 4 r =.9                                       ",
"            O + 2 f M 4 1 , 9 D k.v.w 4 w v.G.G.G.s.3 4 ` ;.@                                       ",
"          + r o.D 2 f / ( , r R i.j.E 3 % -.G.G.G.-.: 2 ;.R                                         ",
"          < i.G.m.+.Z > 5 9 X.o.' O.| $ & K G.G.G.] % 2 f.1                                         ",
"        O G c.G.G.G.m.o.O r { E @.#.#.r & < -.i.i.y # < Q +                                         ",
"        @ | s.m.G.G.G.j.- - 9 9 r r t < @ + $ q w - $ % * & +                                       ",
"        @ ` i.l.G.G.c.t + # & & & & & * 6 * 9 =.>.y % 3 3 % +                                       ",
"          ; t W -.s.W O   + < 1 1 1 9 1 7 9 ; 9 w , D ] @.t                                         ",
"              + @ ; +     + D O.g.k.g.k.k.k.#.@.-.p.k.b.x.1 o                                       ",
"                            ; Q #.#.#.k.g.k.b.b.b.z.x.m...; O                                       ",
"                            + , S r 9 G ! S ! g.' q w A w Q @                                       ",
"                            , t @ q D - @ O O ; @ Z F S ` { @                                       ",
"                            @ , > > > > @       @ $ : 1 > 5 @                                       ",
"                          O $ c x x 7 P 5       $ 8 e x 7 P 5                                       ",
"                            O @ @ @ + @ +       + + + @ O @ @                                       ",
"                                                                                                    ",
"                                                                                                    ",
"                                                                                                    ",
"                                                                                                    "
};
