/* XPM */
static char *Minotaur_02_Attacking_0081671115859[] = {
/* columns rows colors chars-per-pixel */
"50 48 178 2 ",
"   c None",
".  c #161413",
"X  c #181615",
"o  c #1B1917",
"O  c #1D1C1B",
"+  c #221C17",
"@  c #231E1B",
"#  c #25211E",
"$  c #2C221D",
"%  c #31251D",
"&  c #342A1F",
"*  c #1F1F20",
"=  c #1F2021",
"-  c #242323",
";  c #2B2523",
":  c #2C2826",
">  c #252729",
",  c #27292B",
"<  c #2B2C2C",
"1  c #322721",
"2  c #352923",
"3  c #3B2C23",
"4  c #312E2C",
"5  c #35312D",
"6  c #3A332D",
"7  c #2C2F31",
"8  c #2E3234",
"9  c #343334",
"0  c #3A3632",
"q  c #3D3A33",
"w  c #323639",
"e  c #383738",
"r  c #353A3D",
"t  c #393B3C",
"y  c #42301F",
"u  c #412F26",
"i  c #42352B",
"p  c #4C352B",
"a  c #4A3A2E",
"s  c #4C3926",
"d  c #553B2E",
"f  c #423B34",
"g  c #4C3E34",
"h  c #433D3B",
"j  c #543D31",
"k  c #584027",
"l  c #5A432B",
"z  c #46413B",
"x  c #49433B",
"c  c #454037",
"v  c #5A483C",
"b  c #61462B",
"n  c #62482D",
"m  c #684B2E",
"M  c #704F2F",
"N  c #624435",
"B  c #684C39",
"V  c #755431",
"C  c #7A5834",
"Z  c #373D42",
"A  c #383F43",
"S  c #3A4146",
"D  c #3D454B",
"F  c #3F484F",
"G  c #3F4950",
"H  c #464441",
"J  c #4A4542",
"K  c #4C4A45",
"L  c #414A4F",
"P  c #4F4A48",
"I  c #534C45",
"U  c #55524B",
"Y  c #5A564E",
"T  c #434C53",
"R  c #4A4E50",
"E  c #465157",
"W  c #4B5155",
"Q  c #475159",
"!  c #49545B",
"~  c #53575B",
"^  c #53595D",
"/  c #5C5A57",
"(  c #6F5040",
")  c #6E594F",
"_  c #675B55",
"`  c #6B625E",
"'  c #7F6B5F",
"]  c #4E5A63",
"[  c #505C65",
"{  c #525F69",
"}  c #4F6166",
"|  c #54636C",
" . c #5A6469",
".. c #596569",
"X. c #586671",
"o. c #5B6B75",
"O. c #5D6D79",
"+. c #5D737B",
"@. c #5F787F",
"#. c #6E6C64",
"$. c #6E6662",
"%. c #746A66",
"&. c #766D6A",
"*. c #79746D",
"=. c #636C73",
"-. c #6A6E72",
";. c #61727E",
":. c #6A757B",
">. c #7B7A71",
",. c #777576",
"<. c #815B35",
"1. c #8B6339",
"2. c #886037",
"3. c #9B6D3E",
"4. c #9C7042",
"5. c #97734D",
"6. c #977552",
"7. c #AE7B45",
"8. c #A87743",
"9. c #B17D47",
"0. c #826E62",
"q. c #897467",
"w. c #847A76",
"e. c #867D79",
"r. c #B9834A",
"t. c #B58049",
"y. c #8C817D",
"u. c #A38A7A",
"i. c #C18F5A",
"p. c #627481",
"a. c #657984",
"s. c #6A7D8A",
"d. c #687A88",
"f. c #747D85",
"g. c #6C828E",
"h. c #668088",
"j. c #75868E",
"k. c #7B838A",
"l. c #6F8391",
"z. c #718594",
"x. c #768C9A",
"c. c #798E9E",
"v. c #738897",
"b. c #74919A",
"n. c #7A949E",
"m. c #7C93A3",
"M. c #9B8F8A",
"N. c #919087",
"B. c #98978C",
"V. c #838B92",
"C. c #879097",
"Z. c #879098",
"A. c #9B9A90",
"S. c #A0938E",
"D. c #A89B95",
"F. c #A7A69A",
"G. c #B0A29C",
"H. c #8097A8",
"J. c #839BAC",
"K. c #8C9FAD",
"L. c #98A2AB",
"P. c #8AA1B1",
"I. c #BDAFA9",
"U. c #BBADA6",
"Y. c #B6B5AA",
"T. c #A4AFB8",
"R. c #A0ABB4",
"E. c #A5B0B9",
"W. c #AAB4BC",
"Q. c #C3B4AF",
"!. c #D6B5A0",
"~. c #CCBCB5",
"^. c #CFBFB8",
"/. c #C6B9B4",
"(. c #D1C2BB",
"). c #E5C2AB",
"_. c #FAD3BA",
"`. c #AEB8C0",
/* pixels */
"                                                                                                    ",
"                            X X                                                                     ",
"                          4 <                                                                       ",
"                      . 9 f.9                                                                       ",
"                      7 V.V.@                                                                       ",
"                    - :.T.-..           X X X                                                       ",
"                  o ^ L.W.~             @ n n & o   .                                               ",
"                  9 C.E.`.^ . :       . % 2.9.7.m + % o                                             ",
"                . W L.T.T.-.< < . . X + $ k 1.9.t.1.4.2 X X                                         ",
"                X W Z.R.Z.9 R 0 P h # 2 # = 1 M 8.r.r.B . X         X .                             ",
"                  ; -.k.t < ; w.^.I.h + 3 < ! : V 7.r.5.v #         X 4 @                           ",
"                  X 7 9 w > _ /.^.D.9 A 1 2 R [ & 3.r.i.6.#         @ y.K                           ",
"                    . > 9 h G.^.Q._ Z z.< 2 : { 5 C r.t.l .       . U ~.%..                         ",
"                  . > 9 X f &.M.e.9 ! z.| ; 3 7 7 m r.C 9 ~ O : e %.Q.(.*.X                         ",
"                  X T s.! X - 9 4 Q c.H.J.| ; 3 . m 3.2 a.K.r e./.(.(.^.$.X                         ",
"                  . F z.m.T 8 O.=.v.O.s.J.m.S 2 $ l n F m.P.~ %.(.^.^.U.J                           ",
"                    8 p.s.d.Z x.J.] < 7 T s.z.4 u @ < s.J.P.=.Y ^.~.U.w.;                           ",
"                    o T p.d.O.m.x.7 O.z.Q 8 ! ! 1 3 8 c.J.P.p.J G.S.*.9                             ",
"                    . * ] p.p.m.c.8 7 o.m.s.L 7 O 2 1 ! H.H.=.; z 9 #                               ",
"                      7 o.p.] l.c.e 0.h L s.J.! 7 7 @ * 8 Z < X                                     ",
"                      * { p.[ p.v.e !.).0.9 ] w o.T T s.d.s.X.@                                     ",
"                    . X w X.Z { z.A q._._.u.@ L c.Z W p.X.{ L O                                     ",
"              O 7 Z 7 O X F L [ m.s.e I ) f , d.H.Q + $ 1 + .                                       ",
"          . - Z T z.d.7 . * T p.x.J.x.O.! @ : 7 A Z @ N N ; X                                       ",
"        o w Q o.x.J.J.! X < 7 A p.m.J.P.x.8 6 I I # * 3 1 X X                           4 H # @     ",
"    X o S O.s.m.J.J.z.7 1 8 p.Z 8 X.c.J.J.s.8 4 6 7 p.T o X                           # N.Y.U 6 O X ",
"  X 1 # D s.H.J.J.p.8 , 3 ; d.c.! < w | m.P.z.! ! z.s.8                               q F.>.c U q $ ",
". X u p - ] H.J.{ , Q O.1 3 [ J.m.s.w O r | g.c.z.{ 8 @                             O 5 Y q 5 Y U O ",
"D Q # d N ; ! | > ] d.v.4 3 A H.J.J.O.$ b s 3 6 - * o.o.< .                         # 5 5 q c c f q ",
"c.J.[ ; N ( 0 @ ] O.a.m.A u 7 x.J.P.z.< u 1.3.C + < x.J.p.- # X                   X # # 5 K A.B.*.J ",
"J.J.H.{ > v g > { 7 o.H.[ 2 : s.P.J.v.| < % 2 1 t 7 d.m.Q i ) @               . # 6 a & f #.F.N./ K ",
"H.J.H.J.;.O . 7 { T ;.s.O.1 2 | J.m.m.H.! @ + 9 [ w p.! : B j X .         o $ i a 2 o @ 4 #.>.Y x ; ",
"c.J.H.J.d.O   w o.{ | X.X.; 1 T J.J.J.n.w u e j.e 7 F * j N : { [ 7 X X # p a 2 O       X 9 K : X   ",
"p.m.J.X.8 X . < Q T X.O.O.7 % r m.J.P.+.$ &  .=.. . O p d ; [ J.J.s.- i g 2 O               .       ",
"- A T *     X # - : w S Q 7 # : +.z.b.D % : f.7     O 2 # G m.m.m.z.: ; O                           ",
"    .       X # $ % % $ $ 1 # o : 8 8 O @ < R .       o G p.l.s.p.v.A .                             ",
"            . < S Z 7 > ; 1 3 @ R :...# 2 & & #       o ! p.p.p.p.X.,                               ",
"              > } h.g.a.o.] Q < < A q @ : : & +       X 7 o.p.p.[ >                                 ",
"              . Z +.@.@.b.b.b.h.@.} ! X.;.a.E X       X . Z | D *                                   ",
"              - , 8 8 w } +.a.b.b.b.n.n.n.n.r .           o O X                                     ",
"              8 } Z E S # 8 < G h.X.G ..j.E O X                                                     ",
"            X O < < 8 < = X   o = O o + - @ - X                                                     ",
"            X : c x x q U $     . ; q f c q U :                                                     ",
"            X @ # # # O : =       O @ # # O # @                                                     ",
"                                                                                                    ",
"                                                                                                    ",
"                                                                                                    ",
"                                                                                                    "
};
