/* XPM */
static char *Minotaur_02_Attacking_0091671115859[] = {
/* columns rows colors chars-per-pixel */
"50 50 172 2 ",
"   c None",
".  c #161413",
"X  c #191615",
"o  c #1B1817",
"O  c #1D1B1A",
"+  c #201A17",
"@  c #221D1A",
"#  c #25201D",
"$  c #2C231E",
"%  c #31241D",
"&  c #1F2020",
"*  c #242323",
"=  c #2B2624",
"-  c #2D2926",
";  c #27292B",
":  c #2B2B2B",
">  c #312621",
",  c #352A23",
"<  c #3B2C23",
"1  c #312E2B",
"2  c #3E3123",
"3  c #35312C",
"4  c #3B342D",
"5  c #2C2E31",
"6  c #2D3134",
"7  c #323333",
"8  c #393534",
"9  c #3E3932",
"0  c #323639",
"q  c #34393D",
"w  c #3B3A3B",
"e  c #412F25",
"r  c #4D3924",
"t  c #44342A",
"y  c #46392D",
"u  c #4A3A2E",
"i  c #473425",
"p  c #543C2C",
"a  c #433D35",
"s  c #433E39",
"d  c #583E31",
"f  c #44413B",
"g  c #4B433B",
"h  c #5D4132",
"j  c #6B4D2E",
"k  c #674B2D",
"l  c #684F36",
"z  c #6D4C3B",
"x  c #724F3D",
"c  c #7B5834",
"v  c #745535",
"b  c #373C41",
"n  c #3A3E42",
"m  c #3B4246",
"M  c #3D454A",
"N  c #3F484F",
"B  c #484240",
"V  c #464749",
"C  c #42494E",
"Z  c #4A4C4C",
"A  c #4A4742",
"S  c #524D49",
"D  c #534841",
"F  c #55504C",
"G  c #5F5149",
"H  c #434C53",
"J  c #465056",
"K  c #47525A",
"L  c #4A555D",
"P  c #4E5154",
"I  c #5D5652",
"U  c #5C5A53",
"Y  c #52575A",
"T  c #52565A",
"R  c #67584F",
"E  c #6B5348",
"W  c #655C59",
"Q  c #616059",
"!  c #6A645F",
"~  c #7D6659",
"^  c #4D5B63",
"/  c #535D65",
"(  c #525F69",
")  c #4F6268",
"_  c #54636C",
"`  c #5C656C",
"'  c #54686F",
"]  c #576670",
"[  c #586771",
"{  c #5A6A75",
"}  c #5E6E79",
"|  c #556970",
" . c #5E727B",
".. c #5B7076",
"X. c #64696D",
"o. c #696865",
"O. c #716C66",
"+. c #766E6A",
"@. c #72716A",
"#. c #676D72",
"$. c #62717D",
"%. c #6D757A",
"&. c #61787F",
"*. c #845D36",
"=. c #866038",
"-. c #8D6439",
";. c #946A3D",
":. c #926D47",
">. c #A47442",
",. c #A3794D",
"<. c #B37E47",
"1. c #836F62",
"2. c #827C76",
"3. c #877C78",
"4. c #B58048",
"5. c #BA834A",
"6. c #A5815D",
"7. c #BD8C58",
"8. c #A48B7B",
"9. c #637582",
"0. c #667B86",
"q. c #6A7B87",
"w. c #6A7D8A",
"e. c #677A88",
"r. c #727B82",
"t. c #6D838E",
"y. c #708287",
"u. c #7A838A",
"i. c #6E8291",
"p. c #6F8B93",
"a. c #728694",
"s. c #738A96",
"d. c #768B9B",
"f. c #7B8E9C",
"g. c #788E95",
"h. c #74929B",
"j. c #7A969F",
"k. c #7C93A3",
"l. c #928C84",
"z. c #908580",
"x. c #96958A",
"c. c #9E918C",
"v. c #A1958F",
"b. c #A39791",
"n. c #AAA59B",
"m. c #B2A59E",
"M. c #8294A0",
"N. c #8097A8",
"B. c #839BAC",
"V. c #949DA5",
"C. c #879FB0",
"Z. c #98A2AB",
"A. c #89A1B2",
"S. c #9FAAB3",
"D. c #BAADA8",
"F. c #BFB0AA",
"G. c #BAB9AE",
"H. c #A2ACB5",
"J. c #A6B1BA",
"K. c #A8B2B9",
"L. c #D5B49F",
"P. c #C2B4AE",
"I. c #DBB9A4",
"U. c #C7B8B1",
"Y. c #CEBEB7",
"T. c #CFBFB8",
"R. c #C3B6B0",
"E. c #D0BFB8",
"W. c #CFC0BA",
"Q. c #D1C2BB",
"!. c #E8C5AE",
"~. c #FFDAC1",
/* pixels */
"                                                                                                    ",
"                                                                                                    ",
"                                      X                                                             ",
"                                  . * o                                                             ",
"                                O P P X                                                             ",
"                              * X.V.w                                                               ",
"                            * #.S.u.o                                                               ",
"                          O X.Z.J.Y                                                                 ",
"                        X Z V.J.K.w .         . $ % $ .                                             ",
"                        * r.S.J.H.V & :     X . i ;.;.r o . .                                       ",
"                        * %.Z.S.%.8 V X . . o + r -.4.<.p @ #                                       ",
"                        X C u.#.: q 8 +.! 7 @ , o 2 *.<.>.;.l .                                     ",
"                          * w : 1 : 3.Q.E.O.. < = b % -.4.5.:.O X                                   ",
"                          . * w 1 3.T.E.n.s 0 > , L M r >.5.,.u #           X                       ",
"                        X ; 5 X D b.F.D.Q q t.5 < 6 { - -.4.7.6.-           # O                     ",
"                        o ^ q.0 O s O.o.1 L a.M > % K 1 *.5.5.v X         X O.w                     ",
"                        O ( k.e.* 0 7 5 $.f.k.d.0 , - = c 5.c 1 : .     . S F.I                     ",
"                        X K e.d.H H d.d.e.} k.C.] > > @ -.*.1 q.#.# B S 2.R.T.R                     ",
"                        . 6 { e.{ { C.e.5 5 C a.f.0 < @ c < ] C.f.w D.Q.Q.Q.R.B                     ",
"                          X M 9.9.d.B.M C d.H 6 $.] > , @ H k.C.M.8 D.E.E.E.c.;                     ",
"                          ; _ 9.{ a.B.C & ] N.{ 6 M : e = w.C.B.M.8 m.E.U.n.F o                     ",
"                          & ( 9.L 9.f.b 1.s L k.a.n o = , H B.C.M.7 l.v.8.I &                       ",
"                          X N [ L 9.w.8 I.I.G C f.K b 0 + & H ] T @ 7 8 * X                         ",
"                  X O X O o * L : ] d.b c.!.!.E 5 5 w.n J [ ^ C 6 X                                 ",
"                & 6 L ^ ; X o b ( 9.N.} 8 1.8.G 5 e.d.5 { a.d.d._ X                                 ",
"            . * n H w.k.] X : 5 C 9.k.B.0.H ; . 0 9.a.5 # = ; : *                                   ",
"          X 6 ( { k.C.C.9.& : [ 5 H a.B.B.B.H = s : 0 * t d i o                                     ",
"      X X 6 } w.k.B.B.w.0 $ > 9.e.5 C w.B.B.0.: s R 8 O , p > .                                     ",
"      @ < ; ( k.B.B.9.6 b > < L C.e.6 5 ' N.B.{ ; = 5 ] L + . X                                     ",
"    + @ d < : e.B.} ; J w.7 < b k.C.d.b O J s.B.w.{ a.a.M +                                         ",
"O 0 ( n > z p ; L : K e.k.M < 5 d.C.C.( % r 1 H } $.^ 5 X                                           ",
"m w.B.d.b < z E @ b ^ { k./ , - e.k.C.9.$ k -.k e X O H *                                           ",
"$.k.B.B.f.H : d ; K 5 ( d.9.= = [ B.B.a.q # j c p 1 5 d.^ .                                         ",
"9.w.B.B.B.k.M . ; { ( } 9.9.- , K B.N.k.k.M @ + : Y n w.n $ +                         o f U :       ",
"] w.N.B.B.k.m . 5 ] J ] / } : % n N.B.B.k.q < 1 w.n ; : t ~ 1                         8 n.G.U =     ",
"* H w.k.a.b O . & b n ( { 9.0 % 7 k.B.B.9.= % / %.O $ d x y X                       @ S l.W f 9 O . ",
"  . ; n 6 .   o % $ $ = : 0 5 @ * ^ &.t.M % - y.1 < d d , 0 C &                   o 3 a 9 3 f @.= $ ",
"              X & * $ $ $ % , > O ; 8 5 O + ; N X $ @ : / f.B.] &       X o + @ = , + - 3 f f g $ # ",
"                5 ^ L N q : > > + Z %.X.# % 2 , @ & H } B.B.k.d.: $ , 4 t u u y y 2 , a @.x.O.f 4 O ",
"                & ^ t.p.t.t.9.] q : 7 7 # 3 - $ + 5 9.9.w.w.a.e.* t t , = # + o . . 3 S x.n.x.O.3 O ",
"                . 5 ) ) ' p.p.h.p.t...' ..y.y.H . * { 9. .9.0. .O X X               o U 2.Q U Z O   ",
"                5 0 ; 5 ; L ' ..p.h.h.j.j.h.h.7 . X ^ 9.9.{ H :                       - f 7 1 &     ",
"                6 ^ N ^ m & * & m  .L n ) y.M X X   ; M 0 & o                                       ",
"              X & = 1 1 = : o   X O O @ # * $ - o     .                                             ",
"              o - g g f 3 S #     . = 4 9 a 3 S *                                                   ",
"                o O O O X & O       o O O O X O O                                                   ",
"                                                                                                    ",
"                                                                                                    ",
"                                                                                                    ",
"                                                                                                    "
};
