/* XPM */
static char *_670fef8f69c47dff64aaf1c336e5e08XOn1QXn9uNAHfp1h[] = {
/* columns rows colors chars-per-pixel */
"50 50 165 2 ",
"   c None",
".  c #0F0D0D",
"X  c #161414",
"o  c #191615",
"O  c #1C1917",
"+  c #1D1B19",
"@  c #201B17",
"#  c #231D1A",
"$  c #281F1A",
"%  c #25221D",
"&  c #2C231D",
"*  c #282A1F",
"=  c #33261D",
"-  c #37281F",
";  c #39291E",
":  c #252220",
">  c #2B2621",
",  c #2D2A24",
"<  c #2E2C28",
"1  c #312722",
"2  c #342B24",
"3  c #3C2C22",
"4  c #332E29",
"5  c #3A2F28",
"6  c #2F3424",
"7  c #313326",
"8  c #3A3026",
"9  c #36312B",
"0  c #3B342C",
"q  c #363B29",
"w  c #3B3631",
"e  c #3F3B34",
"r  c #432F22",
"t  c #443023",
"y  c #4B3425",
"u  c #42342C",
"i  c #44392E",
"p  c #483D2F",
"a  c #513726",
"s  c #543927",
"d  c #583B27",
"f  c #563B29",
"g  c #5B3D29",
"h  c #423A32",
"j  c #4A3D32",
"k  c #433D39",
"l  c #3A412C",
"z  c #5F402B",
"x  c #4C4133",
"c  c #46433C",
"v  c #49433C",
"b  c #534336",
"n  c #564837",
"m  c #55453A",
"M  c #594538",
"N  c #5C4B3C",
"B  c #534A3C",
"V  c #5F503D",
"C  c #63412C",
"Z  c #6B462E",
"A  c #6E482F",
"S  c #71492F",
"D  c #6E4930",
"F  c #744B31",
"G  c #7A4E31",
"H  c #62523F",
"J  c #7D5134",
"K  c #4C4742",
"L  c #4B4843",
"P  c #524741",
"I  c #534B43",
"U  c #554F48",
"Y  c #5A4C44",
"T  c #5B5245",
"R  c #56514A",
"E  c #59534B",
"W  c #5F5F50",
"Q  c #645542",
"!  c #695743",
"~  c #6C5A46",
"^  c #6A5C4A",
"/  c #715746",
"(  c #725847",
")  c #745948",
"_  c #795D4B",
"`  c #7C5943",
"'  c #645B51",
"]  c #6F624F",
"[  c #73614B",
"{  c #6C655C",
"}  c #6A6A59",
"|  c #746652",
" . c #7B6C56",
".. c #79665B",
"X. c #726A5D",
"o. c #776F64",
"O. c #787065",
"+. c #7D756A",
"@. c #777764",
"#. c #825435",
"$. c #895737",
"%. c #8A5837",
"&. c #865738",
"*. c #8C5A39",
"=. c #925E3B",
"-. c #96603D",
";. c #9B633E",
":. c #8F684F",
">. c #9E6540",
",. c #896955",
"<. c #82735C",
"1. c #9B745B",
"2. c #A16740",
"3. c #A46941",
"4. c #A86B43",
"5. c #A76E49",
"6. c #AC734E",
"7. c #A17457",
"8. c #AC7753",
"9. c #A77758",
"0. c #806E63",
"q. c #8D7C63",
"w. c #907F65",
"e. c #887F71",
"r. c #947F71",
"t. c #A47E65",
"y. c #B4805E",
"u. c #84856F",
"i. c #97856A",
"p. c #99876B",
"a. c #938267",
"s. c #898173",
"d. c #958B7C",
"f. c #B38262",
"g. c #B4886C",
"h. c #A88F7F",
"j. c #988F81",
"k. c #938C80",
"l. c #9B9181",
"z. c #A19786",
"x. c #A99E8D",
"c. c #BC9F8D",
"v. c #B0A694",
"b. c #B6AA97",
"n. c #BCB09D",
"m. c #C5A794",
"M. c #C8AA96",
"N. c #CFB09C",
"B. c #C2B7A5",
"V. c #C6BBA9",
"C. c #CDBFAA",
"Z. c #DCBAA5",
"A. c #E1BFA9",
"S. c #CBC0AF",
"D. c #D4C7B2",
"F. c #DDCFBA",
"G. c #DED0BB",
"H. c #E7C4AD",
"J. c #E3D4BD",
"K. c #E5D6BE",
"L. c #E1D2BB",
"P. c #F7D1B9",
"I. c #E2D6C2",
"U. c #E9DAC1",
"Y. c #EFE1CC",
/* pixels */
"                                                                                                    ",
"                                                                                                    ",
"                                                                                                    ",
"                                                                                                    ",
"                                                                                                    ",
"                                                                                                    ",
"                                                                    o X                             ",
"                    X                                               # %                             ",
"                  , :                             X                 w U                             ",
"                o O.c                 O & 3 r y f N j $             R O.X                           ",
"                : l.X..         X X - F =.;.2.3.2.5.f.,.5 o : < < L v.o.X                           ",
"                + l.B.U 4 < w E +.K g *.3.3.3.2.;.=.5.8.7.m k v.V.G.F.' X                           ",
"                o +.I.I.C.V.D.I.Y.k.t #.$.2.3.3.4.=.>.3.4.9.j +.U.J.n.c                             ",
"                  I C.I.U.U.K.I.U.j.y J r ;.3.3.3.=.=.3.2.5.:.0 x.n.d.,               + h 4 o       ",
"                  > e.n.D.F.J.K.U.s.r &.#.3.2.3.3.>.=.3.3.2.8.b E X.w o             o > k X.' 9 o   ",
"                    : c { e.z.v.b.R t =.3.3.3.3.3.2.;.2.3.3.6._ + o                 # x p 9 T ' <   ",
"                    X X O & 2 8 e > #.;.=.2.2.3.3.4.3.3.2.$.C 3 @                   5 ~ H u i 8 @   ",
"                    @ r & = a z D #.*.3 2 3 r y g C =.*.y 1 y G D O               + i ! [ Q H 8 o   ",
"                    @ Z *.C ; ; *.4.F 3 $.J F C g 1 d g 3 *.>.J r o               % j [ [ ~ n #     ",
"                    X t $.;.*.t C 4.Z & g F $.;.3.g f D u J r h <               X i ^ ) [ ~ 2 o     ",
"                      $ C G #.#.#.2.-.; j Y h 3 r = C *.$ 4 r.Z.I               X x [ [ ~ b +       ",
"                        $ s Z G G *.3.d ..P.H.N.0.& $.;.g u M.c.,               o j [ ~ n 2 o       ",
"                        X o t G S s =.#.0 z.A.m.P # 2 5 1 O 2 2 o               o N [ Q p O         ",
"                          X r S G z A %.F 3 u 3 = : c U U > #.g o               % V ~ n *           ",
"                            o 3 S r ; #.2.;.*.;.&.3 > 4 > f ;.3                 > x Q 8 o           ",
"                          o @ O $ a C G =.2.3.4.3.=.J f C >.#.#               O x Q j +             ",
"                        + y S Z = @ 1 r z G %.=.2.3.3.3.3.2.y o X             # N n %               ",
"                      o = z 2.3.C r G a = = = r a G ;.&.-.C & D y # o X       4 V 2 X               ",
"                      @ y G 3.3.d d 3.2.=.*.F C r = 3 # r O # =.2.y h h X X o x p +                 ",
"                      = C -.3.-.3 G 3.3.2.4.4.2.#.$.a r & 5 1 #.=.1 ^ m = C 3 1 &                   ",
"                    o d $.2.3.D r >.3.3.3.3.4.2.$.2.2.2.J ) 5 C a 3 ) 1 F 4.*.t O                   ",
"                @ o $ A *.3.3.a g 3.3.2.2.3.2.=.=.2.2.2.5.1.1 a % M M 2 ;.;.*.%.-                   ",
"              + j : $ 3 z &.*.3 Z 3.3.3.3.3.3.2.3.3.;.4.8._ O O 1 b & Z 3.*.G G =                   ",
"              O & > j u 3 1 2 @ z %.;.;.;.3.3.3.3.4.8.y.g.h @ u & # 3 J %.#.G A $                   ",
"                X o 5 j / ) ..5 s G G #.;.3.3.3.;.;.4.y.t.& % Y % X = S G G G C O                   ",
"                X - y 1 1 2 w & C Z G %.3.;.=.g 8 8 Z ` N O o O o   o - C S G ; X                   ",
"                $ #.3.=.#.F y # ; & r y y t 1 l u.} % 6 q q +         X @ & - O                     ",
"              X r =.3.3.3.4.=.$ * 7 6 7 l l % c } @.< > 6 % o         o o o                         ",
"              X y %.>.3.3.3.Z # * * 7 7 9 w 0 , ' @.9 ]  .2                                         ",
"              X t #.#.;.3.2.r k ] ^ | <.a.a.i.| 7 7 Q i.T # o                                       ",
"                $ d C Z Z a @ > B ^ ]  .a.i.i.i.<.| ^ h 3 C #                                       ",
"                  @ O O O X O r 3 1 1 0 w j x h 9 1 1 C >.=.#                                       ",
"                            @ d F g y - o X     o r g F G D #                                       ",
"                            O & , 1 , 4 %       o & : > , 4 :                                       ",
"                            # e K c 0 K w X     # 9 w c w c e o                                     ",
"                            o O + + o + + o     o O + + O O + o                                     ",
"                                                                                                    ",
"                                                                                                    ",
"                                                                                                    ",
"                                                                                                    "
};
